G04 #@! TF.GenerationSoftware,KiCad,Pcbnew,(5.1.2)-1*
G04 #@! TF.CreationDate,2019-10-20T14:10:17-05:00*
G04 #@! TF.ProjectId,MotorController_Hardware,4d6f746f-7243-46f6-9e74-726f6c6c6572,rev?*
G04 #@! TF.SameCoordinates,Original*
G04 #@! TF.FileFunction,Paste,Bot*
G04 #@! TF.FilePolarity,Positive*
%FSLAX46Y46*%
G04 Gerber Fmt 4.6, Leading zero omitted, Abs format (unit mm)*
G04 Created by KiCad (PCBNEW (5.1.2)-1) date 2019-10-20 14:10:17*
%MOMM*%
%LPD*%
G04 APERTURE LIST*
%ADD10C,0.100000*%
%ADD11C,0.950000*%
%ADD12R,0.900000X1.200000*%
%ADD13R,1.200000X0.900000*%
%ADD14C,1.425000*%
%ADD15R,1.000000X0.700000*%
G04 APERTURE END LIST*
D10*
G36*
X128707779Y-74710144D02*
G01*
X128730834Y-74713563D01*
X128753443Y-74719227D01*
X128775387Y-74727079D01*
X128796457Y-74737044D01*
X128816448Y-74749026D01*
X128835168Y-74762910D01*
X128852438Y-74778562D01*
X128868090Y-74795832D01*
X128881974Y-74814552D01*
X128893956Y-74834543D01*
X128903921Y-74855613D01*
X128911773Y-74877557D01*
X128917437Y-74900166D01*
X128920856Y-74923221D01*
X128922000Y-74946500D01*
X128922000Y-75421500D01*
X128920856Y-75444779D01*
X128917437Y-75467834D01*
X128911773Y-75490443D01*
X128903921Y-75512387D01*
X128893956Y-75533457D01*
X128881974Y-75553448D01*
X128868090Y-75572168D01*
X128852438Y-75589438D01*
X128835168Y-75605090D01*
X128816448Y-75618974D01*
X128796457Y-75630956D01*
X128775387Y-75640921D01*
X128753443Y-75648773D01*
X128730834Y-75654437D01*
X128707779Y-75657856D01*
X128684500Y-75659000D01*
X128109500Y-75659000D01*
X128086221Y-75657856D01*
X128063166Y-75654437D01*
X128040557Y-75648773D01*
X128018613Y-75640921D01*
X127997543Y-75630956D01*
X127977552Y-75618974D01*
X127958832Y-75605090D01*
X127941562Y-75589438D01*
X127925910Y-75572168D01*
X127912026Y-75553448D01*
X127900044Y-75533457D01*
X127890079Y-75512387D01*
X127882227Y-75490443D01*
X127876563Y-75467834D01*
X127873144Y-75444779D01*
X127872000Y-75421500D01*
X127872000Y-74946500D01*
X127873144Y-74923221D01*
X127876563Y-74900166D01*
X127882227Y-74877557D01*
X127890079Y-74855613D01*
X127900044Y-74834543D01*
X127912026Y-74814552D01*
X127925910Y-74795832D01*
X127941562Y-74778562D01*
X127958832Y-74762910D01*
X127977552Y-74749026D01*
X127997543Y-74737044D01*
X128018613Y-74727079D01*
X128040557Y-74719227D01*
X128063166Y-74713563D01*
X128086221Y-74710144D01*
X128109500Y-74709000D01*
X128684500Y-74709000D01*
X128707779Y-74710144D01*
X128707779Y-74710144D01*
G37*
D11*
X128397000Y-75184000D03*
D10*
G36*
X126957779Y-74710144D02*
G01*
X126980834Y-74713563D01*
X127003443Y-74719227D01*
X127025387Y-74727079D01*
X127046457Y-74737044D01*
X127066448Y-74749026D01*
X127085168Y-74762910D01*
X127102438Y-74778562D01*
X127118090Y-74795832D01*
X127131974Y-74814552D01*
X127143956Y-74834543D01*
X127153921Y-74855613D01*
X127161773Y-74877557D01*
X127167437Y-74900166D01*
X127170856Y-74923221D01*
X127172000Y-74946500D01*
X127172000Y-75421500D01*
X127170856Y-75444779D01*
X127167437Y-75467834D01*
X127161773Y-75490443D01*
X127153921Y-75512387D01*
X127143956Y-75533457D01*
X127131974Y-75553448D01*
X127118090Y-75572168D01*
X127102438Y-75589438D01*
X127085168Y-75605090D01*
X127066448Y-75618974D01*
X127046457Y-75630956D01*
X127025387Y-75640921D01*
X127003443Y-75648773D01*
X126980834Y-75654437D01*
X126957779Y-75657856D01*
X126934500Y-75659000D01*
X126359500Y-75659000D01*
X126336221Y-75657856D01*
X126313166Y-75654437D01*
X126290557Y-75648773D01*
X126268613Y-75640921D01*
X126247543Y-75630956D01*
X126227552Y-75618974D01*
X126208832Y-75605090D01*
X126191562Y-75589438D01*
X126175910Y-75572168D01*
X126162026Y-75553448D01*
X126150044Y-75533457D01*
X126140079Y-75512387D01*
X126132227Y-75490443D01*
X126126563Y-75467834D01*
X126123144Y-75444779D01*
X126122000Y-75421500D01*
X126122000Y-74946500D01*
X126123144Y-74923221D01*
X126126563Y-74900166D01*
X126132227Y-74877557D01*
X126140079Y-74855613D01*
X126150044Y-74834543D01*
X126162026Y-74814552D01*
X126175910Y-74795832D01*
X126191562Y-74778562D01*
X126208832Y-74762910D01*
X126227552Y-74749026D01*
X126247543Y-74737044D01*
X126268613Y-74727079D01*
X126290557Y-74719227D01*
X126313166Y-74713563D01*
X126336221Y-74710144D01*
X126359500Y-74709000D01*
X126934500Y-74709000D01*
X126957779Y-74710144D01*
X126957779Y-74710144D01*
G37*
D11*
X126647000Y-75184000D03*
D10*
G36*
X160203779Y-74837144D02*
G01*
X160226834Y-74840563D01*
X160249443Y-74846227D01*
X160271387Y-74854079D01*
X160292457Y-74864044D01*
X160312448Y-74876026D01*
X160331168Y-74889910D01*
X160348438Y-74905562D01*
X160364090Y-74922832D01*
X160377974Y-74941552D01*
X160389956Y-74961543D01*
X160399921Y-74982613D01*
X160407773Y-75004557D01*
X160413437Y-75027166D01*
X160416856Y-75050221D01*
X160418000Y-75073500D01*
X160418000Y-75548500D01*
X160416856Y-75571779D01*
X160413437Y-75594834D01*
X160407773Y-75617443D01*
X160399921Y-75639387D01*
X160389956Y-75660457D01*
X160377974Y-75680448D01*
X160364090Y-75699168D01*
X160348438Y-75716438D01*
X160331168Y-75732090D01*
X160312448Y-75745974D01*
X160292457Y-75757956D01*
X160271387Y-75767921D01*
X160249443Y-75775773D01*
X160226834Y-75781437D01*
X160203779Y-75784856D01*
X160180500Y-75786000D01*
X159605500Y-75786000D01*
X159582221Y-75784856D01*
X159559166Y-75781437D01*
X159536557Y-75775773D01*
X159514613Y-75767921D01*
X159493543Y-75757956D01*
X159473552Y-75745974D01*
X159454832Y-75732090D01*
X159437562Y-75716438D01*
X159421910Y-75699168D01*
X159408026Y-75680448D01*
X159396044Y-75660457D01*
X159386079Y-75639387D01*
X159378227Y-75617443D01*
X159372563Y-75594834D01*
X159369144Y-75571779D01*
X159368000Y-75548500D01*
X159368000Y-75073500D01*
X159369144Y-75050221D01*
X159372563Y-75027166D01*
X159378227Y-75004557D01*
X159386079Y-74982613D01*
X159396044Y-74961543D01*
X159408026Y-74941552D01*
X159421910Y-74922832D01*
X159437562Y-74905562D01*
X159454832Y-74889910D01*
X159473552Y-74876026D01*
X159493543Y-74864044D01*
X159514613Y-74854079D01*
X159536557Y-74846227D01*
X159559166Y-74840563D01*
X159582221Y-74837144D01*
X159605500Y-74836000D01*
X160180500Y-74836000D01*
X160203779Y-74837144D01*
X160203779Y-74837144D01*
G37*
D11*
X159893000Y-75311000D03*
D10*
G36*
X158453779Y-74837144D02*
G01*
X158476834Y-74840563D01*
X158499443Y-74846227D01*
X158521387Y-74854079D01*
X158542457Y-74864044D01*
X158562448Y-74876026D01*
X158581168Y-74889910D01*
X158598438Y-74905562D01*
X158614090Y-74922832D01*
X158627974Y-74941552D01*
X158639956Y-74961543D01*
X158649921Y-74982613D01*
X158657773Y-75004557D01*
X158663437Y-75027166D01*
X158666856Y-75050221D01*
X158668000Y-75073500D01*
X158668000Y-75548500D01*
X158666856Y-75571779D01*
X158663437Y-75594834D01*
X158657773Y-75617443D01*
X158649921Y-75639387D01*
X158639956Y-75660457D01*
X158627974Y-75680448D01*
X158614090Y-75699168D01*
X158598438Y-75716438D01*
X158581168Y-75732090D01*
X158562448Y-75745974D01*
X158542457Y-75757956D01*
X158521387Y-75767921D01*
X158499443Y-75775773D01*
X158476834Y-75781437D01*
X158453779Y-75784856D01*
X158430500Y-75786000D01*
X157855500Y-75786000D01*
X157832221Y-75784856D01*
X157809166Y-75781437D01*
X157786557Y-75775773D01*
X157764613Y-75767921D01*
X157743543Y-75757956D01*
X157723552Y-75745974D01*
X157704832Y-75732090D01*
X157687562Y-75716438D01*
X157671910Y-75699168D01*
X157658026Y-75680448D01*
X157646044Y-75660457D01*
X157636079Y-75639387D01*
X157628227Y-75617443D01*
X157622563Y-75594834D01*
X157619144Y-75571779D01*
X157618000Y-75548500D01*
X157618000Y-75073500D01*
X157619144Y-75050221D01*
X157622563Y-75027166D01*
X157628227Y-75004557D01*
X157636079Y-74982613D01*
X157646044Y-74961543D01*
X157658026Y-74941552D01*
X157671910Y-74922832D01*
X157687562Y-74905562D01*
X157704832Y-74889910D01*
X157723552Y-74876026D01*
X157743543Y-74864044D01*
X157764613Y-74854079D01*
X157786557Y-74846227D01*
X157809166Y-74840563D01*
X157832221Y-74837144D01*
X157855500Y-74836000D01*
X158430500Y-74836000D01*
X158453779Y-74837144D01*
X158453779Y-74837144D01*
G37*
D11*
X158143000Y-75311000D03*
D12*
X107757500Y-77660500D03*
X104457500Y-77660500D03*
X123061000Y-77914500D03*
X119761000Y-77914500D03*
X140143500Y-77152500D03*
X136843500Y-77152500D03*
X150813500Y-77089000D03*
X154113500Y-77089000D03*
X164465000Y-77152500D03*
X167765000Y-77152500D03*
D13*
X190500000Y-75437000D03*
X190500000Y-72137000D03*
D10*
G36*
X102749779Y-78900644D02*
G01*
X102772834Y-78904063D01*
X102795443Y-78909727D01*
X102817387Y-78917579D01*
X102838457Y-78927544D01*
X102858448Y-78939526D01*
X102877168Y-78953410D01*
X102894438Y-78969062D01*
X102910090Y-78986332D01*
X102923974Y-79005052D01*
X102935956Y-79025043D01*
X102945921Y-79046113D01*
X102953773Y-79068057D01*
X102959437Y-79090666D01*
X102962856Y-79113721D01*
X102964000Y-79137000D01*
X102964000Y-79712000D01*
X102962856Y-79735279D01*
X102959437Y-79758334D01*
X102953773Y-79780943D01*
X102945921Y-79802887D01*
X102935956Y-79823957D01*
X102923974Y-79843948D01*
X102910090Y-79862668D01*
X102894438Y-79879938D01*
X102877168Y-79895590D01*
X102858448Y-79909474D01*
X102838457Y-79921456D01*
X102817387Y-79931421D01*
X102795443Y-79939273D01*
X102772834Y-79944937D01*
X102749779Y-79948356D01*
X102726500Y-79949500D01*
X102251500Y-79949500D01*
X102228221Y-79948356D01*
X102205166Y-79944937D01*
X102182557Y-79939273D01*
X102160613Y-79931421D01*
X102139543Y-79921456D01*
X102119552Y-79909474D01*
X102100832Y-79895590D01*
X102083562Y-79879938D01*
X102067910Y-79862668D01*
X102054026Y-79843948D01*
X102042044Y-79823957D01*
X102032079Y-79802887D01*
X102024227Y-79780943D01*
X102018563Y-79758334D01*
X102015144Y-79735279D01*
X102014000Y-79712000D01*
X102014000Y-79137000D01*
X102015144Y-79113721D01*
X102018563Y-79090666D01*
X102024227Y-79068057D01*
X102032079Y-79046113D01*
X102042044Y-79025043D01*
X102054026Y-79005052D01*
X102067910Y-78986332D01*
X102083562Y-78969062D01*
X102100832Y-78953410D01*
X102119552Y-78939526D01*
X102139543Y-78927544D01*
X102160613Y-78917579D01*
X102182557Y-78909727D01*
X102205166Y-78904063D01*
X102228221Y-78900644D01*
X102251500Y-78899500D01*
X102726500Y-78899500D01*
X102749779Y-78900644D01*
X102749779Y-78900644D01*
G37*
D11*
X102489000Y-79424500D03*
D10*
G36*
X102749779Y-77150644D02*
G01*
X102772834Y-77154063D01*
X102795443Y-77159727D01*
X102817387Y-77167579D01*
X102838457Y-77177544D01*
X102858448Y-77189526D01*
X102877168Y-77203410D01*
X102894438Y-77219062D01*
X102910090Y-77236332D01*
X102923974Y-77255052D01*
X102935956Y-77275043D01*
X102945921Y-77296113D01*
X102953773Y-77318057D01*
X102959437Y-77340666D01*
X102962856Y-77363721D01*
X102964000Y-77387000D01*
X102964000Y-77962000D01*
X102962856Y-77985279D01*
X102959437Y-78008334D01*
X102953773Y-78030943D01*
X102945921Y-78052887D01*
X102935956Y-78073957D01*
X102923974Y-78093948D01*
X102910090Y-78112668D01*
X102894438Y-78129938D01*
X102877168Y-78145590D01*
X102858448Y-78159474D01*
X102838457Y-78171456D01*
X102817387Y-78181421D01*
X102795443Y-78189273D01*
X102772834Y-78194937D01*
X102749779Y-78198356D01*
X102726500Y-78199500D01*
X102251500Y-78199500D01*
X102228221Y-78198356D01*
X102205166Y-78194937D01*
X102182557Y-78189273D01*
X102160613Y-78181421D01*
X102139543Y-78171456D01*
X102119552Y-78159474D01*
X102100832Y-78145590D01*
X102083562Y-78129938D01*
X102067910Y-78112668D01*
X102054026Y-78093948D01*
X102042044Y-78073957D01*
X102032079Y-78052887D01*
X102024227Y-78030943D01*
X102018563Y-78008334D01*
X102015144Y-77985279D01*
X102014000Y-77962000D01*
X102014000Y-77387000D01*
X102015144Y-77363721D01*
X102018563Y-77340666D01*
X102024227Y-77318057D01*
X102032079Y-77296113D01*
X102042044Y-77275043D01*
X102054026Y-77255052D01*
X102067910Y-77236332D01*
X102083562Y-77219062D01*
X102100832Y-77203410D01*
X102119552Y-77189526D01*
X102139543Y-77177544D01*
X102160613Y-77167579D01*
X102182557Y-77159727D01*
X102205166Y-77154063D01*
X102228221Y-77150644D01*
X102251500Y-77149500D01*
X102726500Y-77149500D01*
X102749779Y-77150644D01*
X102749779Y-77150644D01*
G37*
D11*
X102489000Y-77674500D03*
D10*
G36*
X117989779Y-79077144D02*
G01*
X118012834Y-79080563D01*
X118035443Y-79086227D01*
X118057387Y-79094079D01*
X118078457Y-79104044D01*
X118098448Y-79116026D01*
X118117168Y-79129910D01*
X118134438Y-79145562D01*
X118150090Y-79162832D01*
X118163974Y-79181552D01*
X118175956Y-79201543D01*
X118185921Y-79222613D01*
X118193773Y-79244557D01*
X118199437Y-79267166D01*
X118202856Y-79290221D01*
X118204000Y-79313500D01*
X118204000Y-79888500D01*
X118202856Y-79911779D01*
X118199437Y-79934834D01*
X118193773Y-79957443D01*
X118185921Y-79979387D01*
X118175956Y-80000457D01*
X118163974Y-80020448D01*
X118150090Y-80039168D01*
X118134438Y-80056438D01*
X118117168Y-80072090D01*
X118098448Y-80085974D01*
X118078457Y-80097956D01*
X118057387Y-80107921D01*
X118035443Y-80115773D01*
X118012834Y-80121437D01*
X117989779Y-80124856D01*
X117966500Y-80126000D01*
X117491500Y-80126000D01*
X117468221Y-80124856D01*
X117445166Y-80121437D01*
X117422557Y-80115773D01*
X117400613Y-80107921D01*
X117379543Y-80097956D01*
X117359552Y-80085974D01*
X117340832Y-80072090D01*
X117323562Y-80056438D01*
X117307910Y-80039168D01*
X117294026Y-80020448D01*
X117282044Y-80000457D01*
X117272079Y-79979387D01*
X117264227Y-79957443D01*
X117258563Y-79934834D01*
X117255144Y-79911779D01*
X117254000Y-79888500D01*
X117254000Y-79313500D01*
X117255144Y-79290221D01*
X117258563Y-79267166D01*
X117264227Y-79244557D01*
X117272079Y-79222613D01*
X117282044Y-79201543D01*
X117294026Y-79181552D01*
X117307910Y-79162832D01*
X117323562Y-79145562D01*
X117340832Y-79129910D01*
X117359552Y-79116026D01*
X117379543Y-79104044D01*
X117400613Y-79094079D01*
X117422557Y-79086227D01*
X117445166Y-79080563D01*
X117468221Y-79077144D01*
X117491500Y-79076000D01*
X117966500Y-79076000D01*
X117989779Y-79077144D01*
X117989779Y-79077144D01*
G37*
D11*
X117729000Y-79601000D03*
D10*
G36*
X117989779Y-77327144D02*
G01*
X118012834Y-77330563D01*
X118035443Y-77336227D01*
X118057387Y-77344079D01*
X118078457Y-77354044D01*
X118098448Y-77366026D01*
X118117168Y-77379910D01*
X118134438Y-77395562D01*
X118150090Y-77412832D01*
X118163974Y-77431552D01*
X118175956Y-77451543D01*
X118185921Y-77472613D01*
X118193773Y-77494557D01*
X118199437Y-77517166D01*
X118202856Y-77540221D01*
X118204000Y-77563500D01*
X118204000Y-78138500D01*
X118202856Y-78161779D01*
X118199437Y-78184834D01*
X118193773Y-78207443D01*
X118185921Y-78229387D01*
X118175956Y-78250457D01*
X118163974Y-78270448D01*
X118150090Y-78289168D01*
X118134438Y-78306438D01*
X118117168Y-78322090D01*
X118098448Y-78335974D01*
X118078457Y-78347956D01*
X118057387Y-78357921D01*
X118035443Y-78365773D01*
X118012834Y-78371437D01*
X117989779Y-78374856D01*
X117966500Y-78376000D01*
X117491500Y-78376000D01*
X117468221Y-78374856D01*
X117445166Y-78371437D01*
X117422557Y-78365773D01*
X117400613Y-78357921D01*
X117379543Y-78347956D01*
X117359552Y-78335974D01*
X117340832Y-78322090D01*
X117323562Y-78306438D01*
X117307910Y-78289168D01*
X117294026Y-78270448D01*
X117282044Y-78250457D01*
X117272079Y-78229387D01*
X117264227Y-78207443D01*
X117258563Y-78184834D01*
X117255144Y-78161779D01*
X117254000Y-78138500D01*
X117254000Y-77563500D01*
X117255144Y-77540221D01*
X117258563Y-77517166D01*
X117264227Y-77494557D01*
X117272079Y-77472613D01*
X117282044Y-77451543D01*
X117294026Y-77431552D01*
X117307910Y-77412832D01*
X117323562Y-77395562D01*
X117340832Y-77379910D01*
X117359552Y-77366026D01*
X117379543Y-77354044D01*
X117400613Y-77344079D01*
X117422557Y-77336227D01*
X117445166Y-77330563D01*
X117468221Y-77327144D01*
X117491500Y-77326000D01*
X117966500Y-77326000D01*
X117989779Y-77327144D01*
X117989779Y-77327144D01*
G37*
D11*
X117729000Y-77851000D03*
D10*
G36*
X133547779Y-76551644D02*
G01*
X133570834Y-76555063D01*
X133593443Y-76560727D01*
X133615387Y-76568579D01*
X133636457Y-76578544D01*
X133656448Y-76590526D01*
X133675168Y-76604410D01*
X133692438Y-76620062D01*
X133708090Y-76637332D01*
X133721974Y-76656052D01*
X133733956Y-76676043D01*
X133743921Y-76697113D01*
X133751773Y-76719057D01*
X133757437Y-76741666D01*
X133760856Y-76764721D01*
X133762000Y-76788000D01*
X133762000Y-77263000D01*
X133760856Y-77286279D01*
X133757437Y-77309334D01*
X133751773Y-77331943D01*
X133743921Y-77353887D01*
X133733956Y-77374957D01*
X133721974Y-77394948D01*
X133708090Y-77413668D01*
X133692438Y-77430938D01*
X133675168Y-77446590D01*
X133656448Y-77460474D01*
X133636457Y-77472456D01*
X133615387Y-77482421D01*
X133593443Y-77490273D01*
X133570834Y-77495937D01*
X133547779Y-77499356D01*
X133524500Y-77500500D01*
X132949500Y-77500500D01*
X132926221Y-77499356D01*
X132903166Y-77495937D01*
X132880557Y-77490273D01*
X132858613Y-77482421D01*
X132837543Y-77472456D01*
X132817552Y-77460474D01*
X132798832Y-77446590D01*
X132781562Y-77430938D01*
X132765910Y-77413668D01*
X132752026Y-77394948D01*
X132740044Y-77374957D01*
X132730079Y-77353887D01*
X132722227Y-77331943D01*
X132716563Y-77309334D01*
X132713144Y-77286279D01*
X132712000Y-77263000D01*
X132712000Y-76788000D01*
X132713144Y-76764721D01*
X132716563Y-76741666D01*
X132722227Y-76719057D01*
X132730079Y-76697113D01*
X132740044Y-76676043D01*
X132752026Y-76656052D01*
X132765910Y-76637332D01*
X132781562Y-76620062D01*
X132798832Y-76604410D01*
X132817552Y-76590526D01*
X132837543Y-76578544D01*
X132858613Y-76568579D01*
X132880557Y-76560727D01*
X132903166Y-76555063D01*
X132926221Y-76551644D01*
X132949500Y-76550500D01*
X133524500Y-76550500D01*
X133547779Y-76551644D01*
X133547779Y-76551644D01*
G37*
D11*
X133237000Y-77025500D03*
D10*
G36*
X135297779Y-76551644D02*
G01*
X135320834Y-76555063D01*
X135343443Y-76560727D01*
X135365387Y-76568579D01*
X135386457Y-76578544D01*
X135406448Y-76590526D01*
X135425168Y-76604410D01*
X135442438Y-76620062D01*
X135458090Y-76637332D01*
X135471974Y-76656052D01*
X135483956Y-76676043D01*
X135493921Y-76697113D01*
X135501773Y-76719057D01*
X135507437Y-76741666D01*
X135510856Y-76764721D01*
X135512000Y-76788000D01*
X135512000Y-77263000D01*
X135510856Y-77286279D01*
X135507437Y-77309334D01*
X135501773Y-77331943D01*
X135493921Y-77353887D01*
X135483956Y-77374957D01*
X135471974Y-77394948D01*
X135458090Y-77413668D01*
X135442438Y-77430938D01*
X135425168Y-77446590D01*
X135406448Y-77460474D01*
X135386457Y-77472456D01*
X135365387Y-77482421D01*
X135343443Y-77490273D01*
X135320834Y-77495937D01*
X135297779Y-77499356D01*
X135274500Y-77500500D01*
X134699500Y-77500500D01*
X134676221Y-77499356D01*
X134653166Y-77495937D01*
X134630557Y-77490273D01*
X134608613Y-77482421D01*
X134587543Y-77472456D01*
X134567552Y-77460474D01*
X134548832Y-77446590D01*
X134531562Y-77430938D01*
X134515910Y-77413668D01*
X134502026Y-77394948D01*
X134490044Y-77374957D01*
X134480079Y-77353887D01*
X134472227Y-77331943D01*
X134466563Y-77309334D01*
X134463144Y-77286279D01*
X134462000Y-77263000D01*
X134462000Y-76788000D01*
X134463144Y-76764721D01*
X134466563Y-76741666D01*
X134472227Y-76719057D01*
X134480079Y-76697113D01*
X134490044Y-76676043D01*
X134502026Y-76656052D01*
X134515910Y-76637332D01*
X134531562Y-76620062D01*
X134548832Y-76604410D01*
X134567552Y-76590526D01*
X134587543Y-76578544D01*
X134608613Y-76568579D01*
X134630557Y-76560727D01*
X134653166Y-76555063D01*
X134676221Y-76551644D01*
X134699500Y-76550500D01*
X135274500Y-76550500D01*
X135297779Y-76551644D01*
X135297779Y-76551644D01*
G37*
D11*
X134987000Y-77025500D03*
D10*
G36*
X151123279Y-78647144D02*
G01*
X151146334Y-78650563D01*
X151168943Y-78656227D01*
X151190887Y-78664079D01*
X151211957Y-78674044D01*
X151231948Y-78686026D01*
X151250668Y-78699910D01*
X151267938Y-78715562D01*
X151283590Y-78732832D01*
X151297474Y-78751552D01*
X151309456Y-78771543D01*
X151319421Y-78792613D01*
X151327273Y-78814557D01*
X151332937Y-78837166D01*
X151336356Y-78860221D01*
X151337500Y-78883500D01*
X151337500Y-79358500D01*
X151336356Y-79381779D01*
X151332937Y-79404834D01*
X151327273Y-79427443D01*
X151319421Y-79449387D01*
X151309456Y-79470457D01*
X151297474Y-79490448D01*
X151283590Y-79509168D01*
X151267938Y-79526438D01*
X151250668Y-79542090D01*
X151231948Y-79555974D01*
X151211957Y-79567956D01*
X151190887Y-79577921D01*
X151168943Y-79585773D01*
X151146334Y-79591437D01*
X151123279Y-79594856D01*
X151100000Y-79596000D01*
X150525000Y-79596000D01*
X150501721Y-79594856D01*
X150478666Y-79591437D01*
X150456057Y-79585773D01*
X150434113Y-79577921D01*
X150413043Y-79567956D01*
X150393052Y-79555974D01*
X150374332Y-79542090D01*
X150357062Y-79526438D01*
X150341410Y-79509168D01*
X150327526Y-79490448D01*
X150315544Y-79470457D01*
X150305579Y-79449387D01*
X150297727Y-79427443D01*
X150292063Y-79404834D01*
X150288644Y-79381779D01*
X150287500Y-79358500D01*
X150287500Y-78883500D01*
X150288644Y-78860221D01*
X150292063Y-78837166D01*
X150297727Y-78814557D01*
X150305579Y-78792613D01*
X150315544Y-78771543D01*
X150327526Y-78751552D01*
X150341410Y-78732832D01*
X150357062Y-78715562D01*
X150374332Y-78699910D01*
X150393052Y-78686026D01*
X150413043Y-78674044D01*
X150434113Y-78664079D01*
X150456057Y-78656227D01*
X150478666Y-78650563D01*
X150501721Y-78647144D01*
X150525000Y-78646000D01*
X151100000Y-78646000D01*
X151123279Y-78647144D01*
X151123279Y-78647144D01*
G37*
D11*
X150812500Y-79121000D03*
D10*
G36*
X152873279Y-78647144D02*
G01*
X152896334Y-78650563D01*
X152918943Y-78656227D01*
X152940887Y-78664079D01*
X152961957Y-78674044D01*
X152981948Y-78686026D01*
X153000668Y-78699910D01*
X153017938Y-78715562D01*
X153033590Y-78732832D01*
X153047474Y-78751552D01*
X153059456Y-78771543D01*
X153069421Y-78792613D01*
X153077273Y-78814557D01*
X153082937Y-78837166D01*
X153086356Y-78860221D01*
X153087500Y-78883500D01*
X153087500Y-79358500D01*
X153086356Y-79381779D01*
X153082937Y-79404834D01*
X153077273Y-79427443D01*
X153069421Y-79449387D01*
X153059456Y-79470457D01*
X153047474Y-79490448D01*
X153033590Y-79509168D01*
X153017938Y-79526438D01*
X153000668Y-79542090D01*
X152981948Y-79555974D01*
X152961957Y-79567956D01*
X152940887Y-79577921D01*
X152918943Y-79585773D01*
X152896334Y-79591437D01*
X152873279Y-79594856D01*
X152850000Y-79596000D01*
X152275000Y-79596000D01*
X152251721Y-79594856D01*
X152228666Y-79591437D01*
X152206057Y-79585773D01*
X152184113Y-79577921D01*
X152163043Y-79567956D01*
X152143052Y-79555974D01*
X152124332Y-79542090D01*
X152107062Y-79526438D01*
X152091410Y-79509168D01*
X152077526Y-79490448D01*
X152065544Y-79470457D01*
X152055579Y-79449387D01*
X152047727Y-79427443D01*
X152042063Y-79404834D01*
X152038644Y-79381779D01*
X152037500Y-79358500D01*
X152037500Y-78883500D01*
X152038644Y-78860221D01*
X152042063Y-78837166D01*
X152047727Y-78814557D01*
X152055579Y-78792613D01*
X152065544Y-78771543D01*
X152077526Y-78751552D01*
X152091410Y-78732832D01*
X152107062Y-78715562D01*
X152124332Y-78699910D01*
X152143052Y-78686026D01*
X152163043Y-78674044D01*
X152184113Y-78664079D01*
X152206057Y-78656227D01*
X152228666Y-78650563D01*
X152251721Y-78647144D01*
X152275000Y-78646000D01*
X152850000Y-78646000D01*
X152873279Y-78647144D01*
X152873279Y-78647144D01*
G37*
D11*
X152562500Y-79121000D03*
D10*
G36*
X163265279Y-79055644D02*
G01*
X163288334Y-79059063D01*
X163310943Y-79064727D01*
X163332887Y-79072579D01*
X163353957Y-79082544D01*
X163373948Y-79094526D01*
X163392668Y-79108410D01*
X163409938Y-79124062D01*
X163425590Y-79141332D01*
X163439474Y-79160052D01*
X163451456Y-79180043D01*
X163461421Y-79201113D01*
X163469273Y-79223057D01*
X163474937Y-79245666D01*
X163478356Y-79268721D01*
X163479500Y-79292000D01*
X163479500Y-79867000D01*
X163478356Y-79890279D01*
X163474937Y-79913334D01*
X163469273Y-79935943D01*
X163461421Y-79957887D01*
X163451456Y-79978957D01*
X163439474Y-79998948D01*
X163425590Y-80017668D01*
X163409938Y-80034938D01*
X163392668Y-80050590D01*
X163373948Y-80064474D01*
X163353957Y-80076456D01*
X163332887Y-80086421D01*
X163310943Y-80094273D01*
X163288334Y-80099937D01*
X163265279Y-80103356D01*
X163242000Y-80104500D01*
X162767000Y-80104500D01*
X162743721Y-80103356D01*
X162720666Y-80099937D01*
X162698057Y-80094273D01*
X162676113Y-80086421D01*
X162655043Y-80076456D01*
X162635052Y-80064474D01*
X162616332Y-80050590D01*
X162599062Y-80034938D01*
X162583410Y-80017668D01*
X162569526Y-79998948D01*
X162557544Y-79978957D01*
X162547579Y-79957887D01*
X162539727Y-79935943D01*
X162534063Y-79913334D01*
X162530644Y-79890279D01*
X162529500Y-79867000D01*
X162529500Y-79292000D01*
X162530644Y-79268721D01*
X162534063Y-79245666D01*
X162539727Y-79223057D01*
X162547579Y-79201113D01*
X162557544Y-79180043D01*
X162569526Y-79160052D01*
X162583410Y-79141332D01*
X162599062Y-79124062D01*
X162616332Y-79108410D01*
X162635052Y-79094526D01*
X162655043Y-79082544D01*
X162676113Y-79072579D01*
X162698057Y-79064727D01*
X162720666Y-79059063D01*
X162743721Y-79055644D01*
X162767000Y-79054500D01*
X163242000Y-79054500D01*
X163265279Y-79055644D01*
X163265279Y-79055644D01*
G37*
D11*
X163004500Y-79579500D03*
D10*
G36*
X163265279Y-80805644D02*
G01*
X163288334Y-80809063D01*
X163310943Y-80814727D01*
X163332887Y-80822579D01*
X163353957Y-80832544D01*
X163373948Y-80844526D01*
X163392668Y-80858410D01*
X163409938Y-80874062D01*
X163425590Y-80891332D01*
X163439474Y-80910052D01*
X163451456Y-80930043D01*
X163461421Y-80951113D01*
X163469273Y-80973057D01*
X163474937Y-80995666D01*
X163478356Y-81018721D01*
X163479500Y-81042000D01*
X163479500Y-81617000D01*
X163478356Y-81640279D01*
X163474937Y-81663334D01*
X163469273Y-81685943D01*
X163461421Y-81707887D01*
X163451456Y-81728957D01*
X163439474Y-81748948D01*
X163425590Y-81767668D01*
X163409938Y-81784938D01*
X163392668Y-81800590D01*
X163373948Y-81814474D01*
X163353957Y-81826456D01*
X163332887Y-81836421D01*
X163310943Y-81844273D01*
X163288334Y-81849937D01*
X163265279Y-81853356D01*
X163242000Y-81854500D01*
X162767000Y-81854500D01*
X162743721Y-81853356D01*
X162720666Y-81849937D01*
X162698057Y-81844273D01*
X162676113Y-81836421D01*
X162655043Y-81826456D01*
X162635052Y-81814474D01*
X162616332Y-81800590D01*
X162599062Y-81784938D01*
X162583410Y-81767668D01*
X162569526Y-81748948D01*
X162557544Y-81728957D01*
X162547579Y-81707887D01*
X162539727Y-81685943D01*
X162534063Y-81663334D01*
X162530644Y-81640279D01*
X162529500Y-81617000D01*
X162529500Y-81042000D01*
X162530644Y-81018721D01*
X162534063Y-80995666D01*
X162539727Y-80973057D01*
X162547579Y-80951113D01*
X162557544Y-80930043D01*
X162569526Y-80910052D01*
X162583410Y-80891332D01*
X162599062Y-80874062D01*
X162616332Y-80858410D01*
X162635052Y-80844526D01*
X162655043Y-80832544D01*
X162676113Y-80822579D01*
X162698057Y-80814727D01*
X162720666Y-80809063D01*
X162743721Y-80805644D01*
X162767000Y-80804500D01*
X163242000Y-80804500D01*
X163265279Y-80805644D01*
X163265279Y-80805644D01*
G37*
D11*
X163004500Y-81329500D03*
D10*
G36*
X193046779Y-73362144D02*
G01*
X193069834Y-73365563D01*
X193092443Y-73371227D01*
X193114387Y-73379079D01*
X193135457Y-73389044D01*
X193155448Y-73401026D01*
X193174168Y-73414910D01*
X193191438Y-73430562D01*
X193207090Y-73447832D01*
X193220974Y-73466552D01*
X193232956Y-73486543D01*
X193242921Y-73507613D01*
X193250773Y-73529557D01*
X193256437Y-73552166D01*
X193259856Y-73575221D01*
X193261000Y-73598500D01*
X193261000Y-74173500D01*
X193259856Y-74196779D01*
X193256437Y-74219834D01*
X193250773Y-74242443D01*
X193242921Y-74264387D01*
X193232956Y-74285457D01*
X193220974Y-74305448D01*
X193207090Y-74324168D01*
X193191438Y-74341438D01*
X193174168Y-74357090D01*
X193155448Y-74370974D01*
X193135457Y-74382956D01*
X193114387Y-74392921D01*
X193092443Y-74400773D01*
X193069834Y-74406437D01*
X193046779Y-74409856D01*
X193023500Y-74411000D01*
X192548500Y-74411000D01*
X192525221Y-74409856D01*
X192502166Y-74406437D01*
X192479557Y-74400773D01*
X192457613Y-74392921D01*
X192436543Y-74382956D01*
X192416552Y-74370974D01*
X192397832Y-74357090D01*
X192380562Y-74341438D01*
X192364910Y-74324168D01*
X192351026Y-74305448D01*
X192339044Y-74285457D01*
X192329079Y-74264387D01*
X192321227Y-74242443D01*
X192315563Y-74219834D01*
X192312144Y-74196779D01*
X192311000Y-74173500D01*
X192311000Y-73598500D01*
X192312144Y-73575221D01*
X192315563Y-73552166D01*
X192321227Y-73529557D01*
X192329079Y-73507613D01*
X192339044Y-73486543D01*
X192351026Y-73466552D01*
X192364910Y-73447832D01*
X192380562Y-73430562D01*
X192397832Y-73414910D01*
X192416552Y-73401026D01*
X192436543Y-73389044D01*
X192457613Y-73379079D01*
X192479557Y-73371227D01*
X192502166Y-73365563D01*
X192525221Y-73362144D01*
X192548500Y-73361000D01*
X193023500Y-73361000D01*
X193046779Y-73362144D01*
X193046779Y-73362144D01*
G37*
D11*
X192786000Y-73886000D03*
D10*
G36*
X193046779Y-71612144D02*
G01*
X193069834Y-71615563D01*
X193092443Y-71621227D01*
X193114387Y-71629079D01*
X193135457Y-71639044D01*
X193155448Y-71651026D01*
X193174168Y-71664910D01*
X193191438Y-71680562D01*
X193207090Y-71697832D01*
X193220974Y-71716552D01*
X193232956Y-71736543D01*
X193242921Y-71757613D01*
X193250773Y-71779557D01*
X193256437Y-71802166D01*
X193259856Y-71825221D01*
X193261000Y-71848500D01*
X193261000Y-72423500D01*
X193259856Y-72446779D01*
X193256437Y-72469834D01*
X193250773Y-72492443D01*
X193242921Y-72514387D01*
X193232956Y-72535457D01*
X193220974Y-72555448D01*
X193207090Y-72574168D01*
X193191438Y-72591438D01*
X193174168Y-72607090D01*
X193155448Y-72620974D01*
X193135457Y-72632956D01*
X193114387Y-72642921D01*
X193092443Y-72650773D01*
X193069834Y-72656437D01*
X193046779Y-72659856D01*
X193023500Y-72661000D01*
X192548500Y-72661000D01*
X192525221Y-72659856D01*
X192502166Y-72656437D01*
X192479557Y-72650773D01*
X192457613Y-72642921D01*
X192436543Y-72632956D01*
X192416552Y-72620974D01*
X192397832Y-72607090D01*
X192380562Y-72591438D01*
X192364910Y-72574168D01*
X192351026Y-72555448D01*
X192339044Y-72535457D01*
X192329079Y-72514387D01*
X192321227Y-72492443D01*
X192315563Y-72469834D01*
X192312144Y-72446779D01*
X192311000Y-72423500D01*
X192311000Y-71848500D01*
X192312144Y-71825221D01*
X192315563Y-71802166D01*
X192321227Y-71779557D01*
X192329079Y-71757613D01*
X192339044Y-71736543D01*
X192351026Y-71716552D01*
X192364910Y-71697832D01*
X192380562Y-71680562D01*
X192397832Y-71664910D01*
X192416552Y-71651026D01*
X192436543Y-71639044D01*
X192457613Y-71629079D01*
X192479557Y-71621227D01*
X192502166Y-71615563D01*
X192525221Y-71612144D01*
X192548500Y-71611000D01*
X193023500Y-71611000D01*
X193046779Y-71612144D01*
X193046779Y-71612144D01*
G37*
D11*
X192786000Y-72136000D03*
D10*
G36*
X126988504Y-71897204D02*
G01*
X127012773Y-71900804D01*
X127036571Y-71906765D01*
X127059671Y-71915030D01*
X127081849Y-71925520D01*
X127102893Y-71938133D01*
X127122598Y-71952747D01*
X127140777Y-71969223D01*
X127157253Y-71987402D01*
X127171867Y-72007107D01*
X127184480Y-72028151D01*
X127194970Y-72050329D01*
X127203235Y-72073429D01*
X127209196Y-72097227D01*
X127212796Y-72121496D01*
X127214000Y-72146000D01*
X127214000Y-73396000D01*
X127212796Y-73420504D01*
X127209196Y-73444773D01*
X127203235Y-73468571D01*
X127194970Y-73491671D01*
X127184480Y-73513849D01*
X127171867Y-73534893D01*
X127157253Y-73554598D01*
X127140777Y-73572777D01*
X127122598Y-73589253D01*
X127102893Y-73603867D01*
X127081849Y-73616480D01*
X127059671Y-73626970D01*
X127036571Y-73635235D01*
X127012773Y-73641196D01*
X126988504Y-73644796D01*
X126964000Y-73646000D01*
X126039000Y-73646000D01*
X126014496Y-73644796D01*
X125990227Y-73641196D01*
X125966429Y-73635235D01*
X125943329Y-73626970D01*
X125921151Y-73616480D01*
X125900107Y-73603867D01*
X125880402Y-73589253D01*
X125862223Y-73572777D01*
X125845747Y-73554598D01*
X125831133Y-73534893D01*
X125818520Y-73513849D01*
X125808030Y-73491671D01*
X125799765Y-73468571D01*
X125793804Y-73444773D01*
X125790204Y-73420504D01*
X125789000Y-73396000D01*
X125789000Y-72146000D01*
X125790204Y-72121496D01*
X125793804Y-72097227D01*
X125799765Y-72073429D01*
X125808030Y-72050329D01*
X125818520Y-72028151D01*
X125831133Y-72007107D01*
X125845747Y-71987402D01*
X125862223Y-71969223D01*
X125880402Y-71952747D01*
X125900107Y-71938133D01*
X125921151Y-71925520D01*
X125943329Y-71915030D01*
X125966429Y-71906765D01*
X125990227Y-71900804D01*
X126014496Y-71897204D01*
X126039000Y-71896000D01*
X126964000Y-71896000D01*
X126988504Y-71897204D01*
X126988504Y-71897204D01*
G37*
D14*
X126501500Y-72771000D03*
D10*
G36*
X129963504Y-71897204D02*
G01*
X129987773Y-71900804D01*
X130011571Y-71906765D01*
X130034671Y-71915030D01*
X130056849Y-71925520D01*
X130077893Y-71938133D01*
X130097598Y-71952747D01*
X130115777Y-71969223D01*
X130132253Y-71987402D01*
X130146867Y-72007107D01*
X130159480Y-72028151D01*
X130169970Y-72050329D01*
X130178235Y-72073429D01*
X130184196Y-72097227D01*
X130187796Y-72121496D01*
X130189000Y-72146000D01*
X130189000Y-73396000D01*
X130187796Y-73420504D01*
X130184196Y-73444773D01*
X130178235Y-73468571D01*
X130169970Y-73491671D01*
X130159480Y-73513849D01*
X130146867Y-73534893D01*
X130132253Y-73554598D01*
X130115777Y-73572777D01*
X130097598Y-73589253D01*
X130077893Y-73603867D01*
X130056849Y-73616480D01*
X130034671Y-73626970D01*
X130011571Y-73635235D01*
X129987773Y-73641196D01*
X129963504Y-73644796D01*
X129939000Y-73646000D01*
X129014000Y-73646000D01*
X128989496Y-73644796D01*
X128965227Y-73641196D01*
X128941429Y-73635235D01*
X128918329Y-73626970D01*
X128896151Y-73616480D01*
X128875107Y-73603867D01*
X128855402Y-73589253D01*
X128837223Y-73572777D01*
X128820747Y-73554598D01*
X128806133Y-73534893D01*
X128793520Y-73513849D01*
X128783030Y-73491671D01*
X128774765Y-73468571D01*
X128768804Y-73444773D01*
X128765204Y-73420504D01*
X128764000Y-73396000D01*
X128764000Y-72146000D01*
X128765204Y-72121496D01*
X128768804Y-72097227D01*
X128774765Y-72073429D01*
X128783030Y-72050329D01*
X128793520Y-72028151D01*
X128806133Y-72007107D01*
X128820747Y-71987402D01*
X128837223Y-71969223D01*
X128855402Y-71952747D01*
X128875107Y-71938133D01*
X128896151Y-71925520D01*
X128918329Y-71915030D01*
X128941429Y-71906765D01*
X128965227Y-71900804D01*
X128989496Y-71897204D01*
X129014000Y-71896000D01*
X129939000Y-71896000D01*
X129963504Y-71897204D01*
X129963504Y-71897204D01*
G37*
D14*
X129476500Y-72771000D03*
D10*
G36*
X161069004Y-71897204D02*
G01*
X161093273Y-71900804D01*
X161117071Y-71906765D01*
X161140171Y-71915030D01*
X161162349Y-71925520D01*
X161183393Y-71938133D01*
X161203098Y-71952747D01*
X161221277Y-71969223D01*
X161237753Y-71987402D01*
X161252367Y-72007107D01*
X161264980Y-72028151D01*
X161275470Y-72050329D01*
X161283735Y-72073429D01*
X161289696Y-72097227D01*
X161293296Y-72121496D01*
X161294500Y-72146000D01*
X161294500Y-73396000D01*
X161293296Y-73420504D01*
X161289696Y-73444773D01*
X161283735Y-73468571D01*
X161275470Y-73491671D01*
X161264980Y-73513849D01*
X161252367Y-73534893D01*
X161237753Y-73554598D01*
X161221277Y-73572777D01*
X161203098Y-73589253D01*
X161183393Y-73603867D01*
X161162349Y-73616480D01*
X161140171Y-73626970D01*
X161117071Y-73635235D01*
X161093273Y-73641196D01*
X161069004Y-73644796D01*
X161044500Y-73646000D01*
X160119500Y-73646000D01*
X160094996Y-73644796D01*
X160070727Y-73641196D01*
X160046929Y-73635235D01*
X160023829Y-73626970D01*
X160001651Y-73616480D01*
X159980607Y-73603867D01*
X159960902Y-73589253D01*
X159942723Y-73572777D01*
X159926247Y-73554598D01*
X159911633Y-73534893D01*
X159899020Y-73513849D01*
X159888530Y-73491671D01*
X159880265Y-73468571D01*
X159874304Y-73444773D01*
X159870704Y-73420504D01*
X159869500Y-73396000D01*
X159869500Y-72146000D01*
X159870704Y-72121496D01*
X159874304Y-72097227D01*
X159880265Y-72073429D01*
X159888530Y-72050329D01*
X159899020Y-72028151D01*
X159911633Y-72007107D01*
X159926247Y-71987402D01*
X159942723Y-71969223D01*
X159960902Y-71952747D01*
X159980607Y-71938133D01*
X160001651Y-71925520D01*
X160023829Y-71915030D01*
X160046929Y-71906765D01*
X160070727Y-71900804D01*
X160094996Y-71897204D01*
X160119500Y-71896000D01*
X161044500Y-71896000D01*
X161069004Y-71897204D01*
X161069004Y-71897204D01*
G37*
D14*
X160582000Y-72771000D03*
D10*
G36*
X158094004Y-71897204D02*
G01*
X158118273Y-71900804D01*
X158142071Y-71906765D01*
X158165171Y-71915030D01*
X158187349Y-71925520D01*
X158208393Y-71938133D01*
X158228098Y-71952747D01*
X158246277Y-71969223D01*
X158262753Y-71987402D01*
X158277367Y-72007107D01*
X158289980Y-72028151D01*
X158300470Y-72050329D01*
X158308735Y-72073429D01*
X158314696Y-72097227D01*
X158318296Y-72121496D01*
X158319500Y-72146000D01*
X158319500Y-73396000D01*
X158318296Y-73420504D01*
X158314696Y-73444773D01*
X158308735Y-73468571D01*
X158300470Y-73491671D01*
X158289980Y-73513849D01*
X158277367Y-73534893D01*
X158262753Y-73554598D01*
X158246277Y-73572777D01*
X158228098Y-73589253D01*
X158208393Y-73603867D01*
X158187349Y-73616480D01*
X158165171Y-73626970D01*
X158142071Y-73635235D01*
X158118273Y-73641196D01*
X158094004Y-73644796D01*
X158069500Y-73646000D01*
X157144500Y-73646000D01*
X157119996Y-73644796D01*
X157095727Y-73641196D01*
X157071929Y-73635235D01*
X157048829Y-73626970D01*
X157026651Y-73616480D01*
X157005607Y-73603867D01*
X156985902Y-73589253D01*
X156967723Y-73572777D01*
X156951247Y-73554598D01*
X156936633Y-73534893D01*
X156924020Y-73513849D01*
X156913530Y-73491671D01*
X156905265Y-73468571D01*
X156899304Y-73444773D01*
X156895704Y-73420504D01*
X156894500Y-73396000D01*
X156894500Y-72146000D01*
X156895704Y-72121496D01*
X156899304Y-72097227D01*
X156905265Y-72073429D01*
X156913530Y-72050329D01*
X156924020Y-72028151D01*
X156936633Y-72007107D01*
X156951247Y-71987402D01*
X156967723Y-71969223D01*
X156985902Y-71952747D01*
X157005607Y-71938133D01*
X157026651Y-71925520D01*
X157048829Y-71915030D01*
X157071929Y-71906765D01*
X157095727Y-71900804D01*
X157119996Y-71897204D01*
X157144500Y-71896000D01*
X158069500Y-71896000D01*
X158094004Y-71897204D01*
X158094004Y-71897204D01*
G37*
D14*
X157607000Y-72771000D03*
D15*
X142240000Y-89474000D03*
X142240000Y-91374000D03*
X139740000Y-89474000D03*
X139740000Y-91374000D03*
X142240000Y-90424000D03*
X139740000Y-90424000D03*
D10*
G36*
X160153779Y-76656644D02*
G01*
X160176834Y-76660063D01*
X160199443Y-76665727D01*
X160221387Y-76673579D01*
X160242457Y-76683544D01*
X160262448Y-76695526D01*
X160281168Y-76709410D01*
X160298438Y-76725062D01*
X160314090Y-76742332D01*
X160327974Y-76761052D01*
X160339956Y-76781043D01*
X160349921Y-76802113D01*
X160357773Y-76824057D01*
X160363437Y-76846666D01*
X160366856Y-76869721D01*
X160368000Y-76893000D01*
X160368000Y-77468000D01*
X160366856Y-77491279D01*
X160363437Y-77514334D01*
X160357773Y-77536943D01*
X160349921Y-77558887D01*
X160339956Y-77579957D01*
X160327974Y-77599948D01*
X160314090Y-77618668D01*
X160298438Y-77635938D01*
X160281168Y-77651590D01*
X160262448Y-77665474D01*
X160242457Y-77677456D01*
X160221387Y-77687421D01*
X160199443Y-77695273D01*
X160176834Y-77700937D01*
X160153779Y-77704356D01*
X160130500Y-77705500D01*
X159655500Y-77705500D01*
X159632221Y-77704356D01*
X159609166Y-77700937D01*
X159586557Y-77695273D01*
X159564613Y-77687421D01*
X159543543Y-77677456D01*
X159523552Y-77665474D01*
X159504832Y-77651590D01*
X159487562Y-77635938D01*
X159471910Y-77618668D01*
X159458026Y-77599948D01*
X159446044Y-77579957D01*
X159436079Y-77558887D01*
X159428227Y-77536943D01*
X159422563Y-77514334D01*
X159419144Y-77491279D01*
X159418000Y-77468000D01*
X159418000Y-76893000D01*
X159419144Y-76869721D01*
X159422563Y-76846666D01*
X159428227Y-76824057D01*
X159436079Y-76802113D01*
X159446044Y-76781043D01*
X159458026Y-76761052D01*
X159471910Y-76742332D01*
X159487562Y-76725062D01*
X159504832Y-76709410D01*
X159523552Y-76695526D01*
X159543543Y-76683544D01*
X159564613Y-76673579D01*
X159586557Y-76665727D01*
X159609166Y-76660063D01*
X159632221Y-76656644D01*
X159655500Y-76655500D01*
X160130500Y-76655500D01*
X160153779Y-76656644D01*
X160153779Y-76656644D01*
G37*
D11*
X159893000Y-77180500D03*
D10*
G36*
X160153779Y-78406644D02*
G01*
X160176834Y-78410063D01*
X160199443Y-78415727D01*
X160221387Y-78423579D01*
X160242457Y-78433544D01*
X160262448Y-78445526D01*
X160281168Y-78459410D01*
X160298438Y-78475062D01*
X160314090Y-78492332D01*
X160327974Y-78511052D01*
X160339956Y-78531043D01*
X160349921Y-78552113D01*
X160357773Y-78574057D01*
X160363437Y-78596666D01*
X160366856Y-78619721D01*
X160368000Y-78643000D01*
X160368000Y-79218000D01*
X160366856Y-79241279D01*
X160363437Y-79264334D01*
X160357773Y-79286943D01*
X160349921Y-79308887D01*
X160339956Y-79329957D01*
X160327974Y-79349948D01*
X160314090Y-79368668D01*
X160298438Y-79385938D01*
X160281168Y-79401590D01*
X160262448Y-79415474D01*
X160242457Y-79427456D01*
X160221387Y-79437421D01*
X160199443Y-79445273D01*
X160176834Y-79450937D01*
X160153779Y-79454356D01*
X160130500Y-79455500D01*
X159655500Y-79455500D01*
X159632221Y-79454356D01*
X159609166Y-79450937D01*
X159586557Y-79445273D01*
X159564613Y-79437421D01*
X159543543Y-79427456D01*
X159523552Y-79415474D01*
X159504832Y-79401590D01*
X159487562Y-79385938D01*
X159471910Y-79368668D01*
X159458026Y-79349948D01*
X159446044Y-79329957D01*
X159436079Y-79308887D01*
X159428227Y-79286943D01*
X159422563Y-79264334D01*
X159419144Y-79241279D01*
X159418000Y-79218000D01*
X159418000Y-78643000D01*
X159419144Y-78619721D01*
X159422563Y-78596666D01*
X159428227Y-78574057D01*
X159436079Y-78552113D01*
X159446044Y-78531043D01*
X159458026Y-78511052D01*
X159471910Y-78492332D01*
X159487562Y-78475062D01*
X159504832Y-78459410D01*
X159523552Y-78445526D01*
X159543543Y-78433544D01*
X159564613Y-78423579D01*
X159586557Y-78415727D01*
X159609166Y-78410063D01*
X159632221Y-78406644D01*
X159655500Y-78405500D01*
X160130500Y-78405500D01*
X160153779Y-78406644D01*
X160153779Y-78406644D01*
G37*
D11*
X159893000Y-78930500D03*
D10*
G36*
X128657779Y-77228144D02*
G01*
X128680834Y-77231563D01*
X128703443Y-77237227D01*
X128725387Y-77245079D01*
X128746457Y-77255044D01*
X128766448Y-77267026D01*
X128785168Y-77280910D01*
X128802438Y-77296562D01*
X128818090Y-77313832D01*
X128831974Y-77332552D01*
X128843956Y-77352543D01*
X128853921Y-77373613D01*
X128861773Y-77395557D01*
X128867437Y-77418166D01*
X128870856Y-77441221D01*
X128872000Y-77464500D01*
X128872000Y-78039500D01*
X128870856Y-78062779D01*
X128867437Y-78085834D01*
X128861773Y-78108443D01*
X128853921Y-78130387D01*
X128843956Y-78151457D01*
X128831974Y-78171448D01*
X128818090Y-78190168D01*
X128802438Y-78207438D01*
X128785168Y-78223090D01*
X128766448Y-78236974D01*
X128746457Y-78248956D01*
X128725387Y-78258921D01*
X128703443Y-78266773D01*
X128680834Y-78272437D01*
X128657779Y-78275856D01*
X128634500Y-78277000D01*
X128159500Y-78277000D01*
X128136221Y-78275856D01*
X128113166Y-78272437D01*
X128090557Y-78266773D01*
X128068613Y-78258921D01*
X128047543Y-78248956D01*
X128027552Y-78236974D01*
X128008832Y-78223090D01*
X127991562Y-78207438D01*
X127975910Y-78190168D01*
X127962026Y-78171448D01*
X127950044Y-78151457D01*
X127940079Y-78130387D01*
X127932227Y-78108443D01*
X127926563Y-78085834D01*
X127923144Y-78062779D01*
X127922000Y-78039500D01*
X127922000Y-77464500D01*
X127923144Y-77441221D01*
X127926563Y-77418166D01*
X127932227Y-77395557D01*
X127940079Y-77373613D01*
X127950044Y-77352543D01*
X127962026Y-77332552D01*
X127975910Y-77313832D01*
X127991562Y-77296562D01*
X128008832Y-77280910D01*
X128027552Y-77267026D01*
X128047543Y-77255044D01*
X128068613Y-77245079D01*
X128090557Y-77237227D01*
X128113166Y-77231563D01*
X128136221Y-77228144D01*
X128159500Y-77227000D01*
X128634500Y-77227000D01*
X128657779Y-77228144D01*
X128657779Y-77228144D01*
G37*
D11*
X128397000Y-77752000D03*
D10*
G36*
X128657779Y-78978144D02*
G01*
X128680834Y-78981563D01*
X128703443Y-78987227D01*
X128725387Y-78995079D01*
X128746457Y-79005044D01*
X128766448Y-79017026D01*
X128785168Y-79030910D01*
X128802438Y-79046562D01*
X128818090Y-79063832D01*
X128831974Y-79082552D01*
X128843956Y-79102543D01*
X128853921Y-79123613D01*
X128861773Y-79145557D01*
X128867437Y-79168166D01*
X128870856Y-79191221D01*
X128872000Y-79214500D01*
X128872000Y-79789500D01*
X128870856Y-79812779D01*
X128867437Y-79835834D01*
X128861773Y-79858443D01*
X128853921Y-79880387D01*
X128843956Y-79901457D01*
X128831974Y-79921448D01*
X128818090Y-79940168D01*
X128802438Y-79957438D01*
X128785168Y-79973090D01*
X128766448Y-79986974D01*
X128746457Y-79998956D01*
X128725387Y-80008921D01*
X128703443Y-80016773D01*
X128680834Y-80022437D01*
X128657779Y-80025856D01*
X128634500Y-80027000D01*
X128159500Y-80027000D01*
X128136221Y-80025856D01*
X128113166Y-80022437D01*
X128090557Y-80016773D01*
X128068613Y-80008921D01*
X128047543Y-79998956D01*
X128027552Y-79986974D01*
X128008832Y-79973090D01*
X127991562Y-79957438D01*
X127975910Y-79940168D01*
X127962026Y-79921448D01*
X127950044Y-79901457D01*
X127940079Y-79880387D01*
X127932227Y-79858443D01*
X127926563Y-79835834D01*
X127923144Y-79812779D01*
X127922000Y-79789500D01*
X127922000Y-79214500D01*
X127923144Y-79191221D01*
X127926563Y-79168166D01*
X127932227Y-79145557D01*
X127940079Y-79123613D01*
X127950044Y-79102543D01*
X127962026Y-79082552D01*
X127975910Y-79063832D01*
X127991562Y-79046562D01*
X128008832Y-79030910D01*
X128027552Y-79017026D01*
X128047543Y-79005044D01*
X128068613Y-78995079D01*
X128090557Y-78987227D01*
X128113166Y-78981563D01*
X128136221Y-78978144D01*
X128159500Y-78977000D01*
X128634500Y-78977000D01*
X128657779Y-78978144D01*
X128657779Y-78978144D01*
G37*
D11*
X128397000Y-79502000D03*
M02*
