G04 #@! TF.GenerationSoftware,KiCad,Pcbnew,(5.1.2)-1*
G04 #@! TF.CreationDate,2019-10-20T15:18:29-05:00*
G04 #@! TF.ProjectId,MotorController_Hardware,4d6f746f-7243-46f6-9e74-726f6c6c6572,rev?*
G04 #@! TF.SameCoordinates,Original*
G04 #@! TF.FileFunction,Soldermask,Bot*
G04 #@! TF.FilePolarity,Negative*
%FSLAX46Y46*%
G04 Gerber Fmt 4.6, Leading zero omitted, Abs format (unit mm)*
G04 Created by KiCad (PCBNEW (5.1.2)-1) date 2019-10-20 15:18:29*
%MOMM*%
%LPD*%
G04 APERTURE LIST*
%ADD10C,4.083000*%
%ADD11C,2.800000*%
%ADD12R,2.800000X2.800000*%
%ADD13R,2.000000X2.000000*%
%ADD14C,2.000000*%
%ADD15C,0.100000*%
%ADD16C,1.350000*%
%ADD17C,1.924000*%
%ADD18C,3.850000*%
%ADD19C,5.480000*%
%ADD20R,1.300000X1.600000*%
%ADD21R,1.600000X1.300000*%
%ADD22O,2.200000X2.200000*%
%ADD23R,2.200000X2.200000*%
%ADD24C,1.825000*%
%ADD25R,1.400000X1.100000*%
%ADD26C,1.000000*%
%ADD27C,1.920000*%
G04 APERTURE END LIST*
D10*
X88963500Y-59626500D03*
X89027000Y-129984500D03*
X192278000Y-130048000D03*
X216090500Y-108775500D03*
X192087500Y-59626500D03*
D11*
X98044000Y-58690500D03*
D12*
X98044000Y-63690500D03*
D13*
X192151000Y-99695000D03*
D14*
X189651000Y-99695000D03*
D12*
X128333500Y-64897000D03*
D11*
X128333500Y-59897000D03*
X88345000Y-75946000D03*
D12*
X93345000Y-75946000D03*
D11*
X158877000Y-59643000D03*
D12*
X158877000Y-64643000D03*
D15*
G36*
X128817581Y-74510625D02*
G01*
X128850343Y-74515485D01*
X128882471Y-74523533D01*
X128913656Y-74534691D01*
X128943596Y-74548852D01*
X128972005Y-74565879D01*
X128998608Y-74585609D01*
X129023149Y-74607851D01*
X129045391Y-74632392D01*
X129065121Y-74658995D01*
X129082148Y-74687404D01*
X129096309Y-74717344D01*
X129107467Y-74748529D01*
X129115515Y-74780657D01*
X129120375Y-74813419D01*
X129122000Y-74846500D01*
X129122000Y-75521500D01*
X129120375Y-75554581D01*
X129115515Y-75587343D01*
X129107467Y-75619471D01*
X129096309Y-75650656D01*
X129082148Y-75680596D01*
X129065121Y-75709005D01*
X129045391Y-75735608D01*
X129023149Y-75760149D01*
X128998608Y-75782391D01*
X128972005Y-75802121D01*
X128943596Y-75819148D01*
X128913656Y-75833309D01*
X128882471Y-75844467D01*
X128850343Y-75852515D01*
X128817581Y-75857375D01*
X128784500Y-75859000D01*
X128009500Y-75859000D01*
X127976419Y-75857375D01*
X127943657Y-75852515D01*
X127911529Y-75844467D01*
X127880344Y-75833309D01*
X127850404Y-75819148D01*
X127821995Y-75802121D01*
X127795392Y-75782391D01*
X127770851Y-75760149D01*
X127748609Y-75735608D01*
X127728879Y-75709005D01*
X127711852Y-75680596D01*
X127697691Y-75650656D01*
X127686533Y-75619471D01*
X127678485Y-75587343D01*
X127673625Y-75554581D01*
X127672000Y-75521500D01*
X127672000Y-74846500D01*
X127673625Y-74813419D01*
X127678485Y-74780657D01*
X127686533Y-74748529D01*
X127697691Y-74717344D01*
X127711852Y-74687404D01*
X127728879Y-74658995D01*
X127748609Y-74632392D01*
X127770851Y-74607851D01*
X127795392Y-74585609D01*
X127821995Y-74565879D01*
X127850404Y-74548852D01*
X127880344Y-74534691D01*
X127911529Y-74523533D01*
X127943657Y-74515485D01*
X127976419Y-74510625D01*
X128009500Y-74509000D01*
X128784500Y-74509000D01*
X128817581Y-74510625D01*
X128817581Y-74510625D01*
G37*
D16*
X128397000Y-75184000D03*
D15*
G36*
X127067581Y-74510625D02*
G01*
X127100343Y-74515485D01*
X127132471Y-74523533D01*
X127163656Y-74534691D01*
X127193596Y-74548852D01*
X127222005Y-74565879D01*
X127248608Y-74585609D01*
X127273149Y-74607851D01*
X127295391Y-74632392D01*
X127315121Y-74658995D01*
X127332148Y-74687404D01*
X127346309Y-74717344D01*
X127357467Y-74748529D01*
X127365515Y-74780657D01*
X127370375Y-74813419D01*
X127372000Y-74846500D01*
X127372000Y-75521500D01*
X127370375Y-75554581D01*
X127365515Y-75587343D01*
X127357467Y-75619471D01*
X127346309Y-75650656D01*
X127332148Y-75680596D01*
X127315121Y-75709005D01*
X127295391Y-75735608D01*
X127273149Y-75760149D01*
X127248608Y-75782391D01*
X127222005Y-75802121D01*
X127193596Y-75819148D01*
X127163656Y-75833309D01*
X127132471Y-75844467D01*
X127100343Y-75852515D01*
X127067581Y-75857375D01*
X127034500Y-75859000D01*
X126259500Y-75859000D01*
X126226419Y-75857375D01*
X126193657Y-75852515D01*
X126161529Y-75844467D01*
X126130344Y-75833309D01*
X126100404Y-75819148D01*
X126071995Y-75802121D01*
X126045392Y-75782391D01*
X126020851Y-75760149D01*
X125998609Y-75735608D01*
X125978879Y-75709005D01*
X125961852Y-75680596D01*
X125947691Y-75650656D01*
X125936533Y-75619471D01*
X125928485Y-75587343D01*
X125923625Y-75554581D01*
X125922000Y-75521500D01*
X125922000Y-74846500D01*
X125923625Y-74813419D01*
X125928485Y-74780657D01*
X125936533Y-74748529D01*
X125947691Y-74717344D01*
X125961852Y-74687404D01*
X125978879Y-74658995D01*
X125998609Y-74632392D01*
X126020851Y-74607851D01*
X126045392Y-74585609D01*
X126071995Y-74565879D01*
X126100404Y-74548852D01*
X126130344Y-74534691D01*
X126161529Y-74523533D01*
X126193657Y-74515485D01*
X126226419Y-74510625D01*
X126259500Y-74509000D01*
X127034500Y-74509000D01*
X127067581Y-74510625D01*
X127067581Y-74510625D01*
G37*
D16*
X126647000Y-75184000D03*
D15*
G36*
X160313581Y-74637625D02*
G01*
X160346343Y-74642485D01*
X160378471Y-74650533D01*
X160409656Y-74661691D01*
X160439596Y-74675852D01*
X160468005Y-74692879D01*
X160494608Y-74712609D01*
X160519149Y-74734851D01*
X160541391Y-74759392D01*
X160561121Y-74785995D01*
X160578148Y-74814404D01*
X160592309Y-74844344D01*
X160603467Y-74875529D01*
X160611515Y-74907657D01*
X160616375Y-74940419D01*
X160618000Y-74973500D01*
X160618000Y-75648500D01*
X160616375Y-75681581D01*
X160611515Y-75714343D01*
X160603467Y-75746471D01*
X160592309Y-75777656D01*
X160578148Y-75807596D01*
X160561121Y-75836005D01*
X160541391Y-75862608D01*
X160519149Y-75887149D01*
X160494608Y-75909391D01*
X160468005Y-75929121D01*
X160439596Y-75946148D01*
X160409656Y-75960309D01*
X160378471Y-75971467D01*
X160346343Y-75979515D01*
X160313581Y-75984375D01*
X160280500Y-75986000D01*
X159505500Y-75986000D01*
X159472419Y-75984375D01*
X159439657Y-75979515D01*
X159407529Y-75971467D01*
X159376344Y-75960309D01*
X159346404Y-75946148D01*
X159317995Y-75929121D01*
X159291392Y-75909391D01*
X159266851Y-75887149D01*
X159244609Y-75862608D01*
X159224879Y-75836005D01*
X159207852Y-75807596D01*
X159193691Y-75777656D01*
X159182533Y-75746471D01*
X159174485Y-75714343D01*
X159169625Y-75681581D01*
X159168000Y-75648500D01*
X159168000Y-74973500D01*
X159169625Y-74940419D01*
X159174485Y-74907657D01*
X159182533Y-74875529D01*
X159193691Y-74844344D01*
X159207852Y-74814404D01*
X159224879Y-74785995D01*
X159244609Y-74759392D01*
X159266851Y-74734851D01*
X159291392Y-74712609D01*
X159317995Y-74692879D01*
X159346404Y-74675852D01*
X159376344Y-74661691D01*
X159407529Y-74650533D01*
X159439657Y-74642485D01*
X159472419Y-74637625D01*
X159505500Y-74636000D01*
X160280500Y-74636000D01*
X160313581Y-74637625D01*
X160313581Y-74637625D01*
G37*
D16*
X159893000Y-75311000D03*
D15*
G36*
X158563581Y-74637625D02*
G01*
X158596343Y-74642485D01*
X158628471Y-74650533D01*
X158659656Y-74661691D01*
X158689596Y-74675852D01*
X158718005Y-74692879D01*
X158744608Y-74712609D01*
X158769149Y-74734851D01*
X158791391Y-74759392D01*
X158811121Y-74785995D01*
X158828148Y-74814404D01*
X158842309Y-74844344D01*
X158853467Y-74875529D01*
X158861515Y-74907657D01*
X158866375Y-74940419D01*
X158868000Y-74973500D01*
X158868000Y-75648500D01*
X158866375Y-75681581D01*
X158861515Y-75714343D01*
X158853467Y-75746471D01*
X158842309Y-75777656D01*
X158828148Y-75807596D01*
X158811121Y-75836005D01*
X158791391Y-75862608D01*
X158769149Y-75887149D01*
X158744608Y-75909391D01*
X158718005Y-75929121D01*
X158689596Y-75946148D01*
X158659656Y-75960309D01*
X158628471Y-75971467D01*
X158596343Y-75979515D01*
X158563581Y-75984375D01*
X158530500Y-75986000D01*
X157755500Y-75986000D01*
X157722419Y-75984375D01*
X157689657Y-75979515D01*
X157657529Y-75971467D01*
X157626344Y-75960309D01*
X157596404Y-75946148D01*
X157567995Y-75929121D01*
X157541392Y-75909391D01*
X157516851Y-75887149D01*
X157494609Y-75862608D01*
X157474879Y-75836005D01*
X157457852Y-75807596D01*
X157443691Y-75777656D01*
X157432533Y-75746471D01*
X157424485Y-75714343D01*
X157419625Y-75681581D01*
X157418000Y-75648500D01*
X157418000Y-74973500D01*
X157419625Y-74940419D01*
X157424485Y-74907657D01*
X157432533Y-74875529D01*
X157443691Y-74844344D01*
X157457852Y-74814404D01*
X157474879Y-74785995D01*
X157494609Y-74759392D01*
X157516851Y-74734851D01*
X157541392Y-74712609D01*
X157567995Y-74692879D01*
X157596404Y-74675852D01*
X157626344Y-74661691D01*
X157657529Y-74650533D01*
X157689657Y-74642485D01*
X157722419Y-74637625D01*
X157755500Y-74636000D01*
X158530500Y-74636000D01*
X158563581Y-74637625D01*
X158563581Y-74637625D01*
G37*
D16*
X158143000Y-75311000D03*
D17*
X97790000Y-99060000D03*
X97790000Y-96520000D03*
X97790000Y-93980000D03*
X97790000Y-91440000D03*
X97790000Y-88900000D03*
D18*
X89154000Y-100330000D03*
X89154000Y-87630000D03*
D19*
X102870000Y-109220000D03*
X110744000Y-109220000D03*
X112776000Y-72923400D03*
X143814800Y-72898000D03*
X174828200Y-72923400D03*
D20*
X107757500Y-77660500D03*
X104457500Y-77660500D03*
X123061000Y-77914500D03*
X119761000Y-77914500D03*
X140143500Y-77152500D03*
X136843500Y-77152500D03*
X150813500Y-77089000D03*
X154113500Y-77089000D03*
X164465000Y-77152500D03*
X167765000Y-77152500D03*
D21*
X190500000Y-75437000D03*
X190500000Y-72137000D03*
D22*
X107569000Y-74168000D03*
X105029000Y-74168000D03*
D23*
X102489000Y-74168000D03*
X117665500Y-74168000D03*
D22*
X120205500Y-74168000D03*
X122745500Y-74168000D03*
D23*
X133223000Y-74168000D03*
D22*
X135763000Y-74168000D03*
X138303000Y-74168000D03*
X153797000Y-74168000D03*
X151257000Y-74168000D03*
D23*
X148717000Y-74168000D03*
X164465000Y-74104500D03*
D22*
X167005000Y-74104500D03*
X169545000Y-74104500D03*
X185420000Y-74168000D03*
X182880000Y-74168000D03*
D23*
X180340000Y-74168000D03*
D15*
G36*
X102859581Y-78701125D02*
G01*
X102892343Y-78705985D01*
X102924471Y-78714033D01*
X102955656Y-78725191D01*
X102985596Y-78739352D01*
X103014005Y-78756379D01*
X103040608Y-78776109D01*
X103065149Y-78798351D01*
X103087391Y-78822892D01*
X103107121Y-78849495D01*
X103124148Y-78877904D01*
X103138309Y-78907844D01*
X103149467Y-78939029D01*
X103157515Y-78971157D01*
X103162375Y-79003919D01*
X103164000Y-79037000D01*
X103164000Y-79812000D01*
X103162375Y-79845081D01*
X103157515Y-79877843D01*
X103149467Y-79909971D01*
X103138309Y-79941156D01*
X103124148Y-79971096D01*
X103107121Y-79999505D01*
X103087391Y-80026108D01*
X103065149Y-80050649D01*
X103040608Y-80072891D01*
X103014005Y-80092621D01*
X102985596Y-80109648D01*
X102955656Y-80123809D01*
X102924471Y-80134967D01*
X102892343Y-80143015D01*
X102859581Y-80147875D01*
X102826500Y-80149500D01*
X102151500Y-80149500D01*
X102118419Y-80147875D01*
X102085657Y-80143015D01*
X102053529Y-80134967D01*
X102022344Y-80123809D01*
X101992404Y-80109648D01*
X101963995Y-80092621D01*
X101937392Y-80072891D01*
X101912851Y-80050649D01*
X101890609Y-80026108D01*
X101870879Y-79999505D01*
X101853852Y-79971096D01*
X101839691Y-79941156D01*
X101828533Y-79909971D01*
X101820485Y-79877843D01*
X101815625Y-79845081D01*
X101814000Y-79812000D01*
X101814000Y-79037000D01*
X101815625Y-79003919D01*
X101820485Y-78971157D01*
X101828533Y-78939029D01*
X101839691Y-78907844D01*
X101853852Y-78877904D01*
X101870879Y-78849495D01*
X101890609Y-78822892D01*
X101912851Y-78798351D01*
X101937392Y-78776109D01*
X101963995Y-78756379D01*
X101992404Y-78739352D01*
X102022344Y-78725191D01*
X102053529Y-78714033D01*
X102085657Y-78705985D01*
X102118419Y-78701125D01*
X102151500Y-78699500D01*
X102826500Y-78699500D01*
X102859581Y-78701125D01*
X102859581Y-78701125D01*
G37*
D16*
X102489000Y-79424500D03*
D15*
G36*
X102859581Y-76951125D02*
G01*
X102892343Y-76955985D01*
X102924471Y-76964033D01*
X102955656Y-76975191D01*
X102985596Y-76989352D01*
X103014005Y-77006379D01*
X103040608Y-77026109D01*
X103065149Y-77048351D01*
X103087391Y-77072892D01*
X103107121Y-77099495D01*
X103124148Y-77127904D01*
X103138309Y-77157844D01*
X103149467Y-77189029D01*
X103157515Y-77221157D01*
X103162375Y-77253919D01*
X103164000Y-77287000D01*
X103164000Y-78062000D01*
X103162375Y-78095081D01*
X103157515Y-78127843D01*
X103149467Y-78159971D01*
X103138309Y-78191156D01*
X103124148Y-78221096D01*
X103107121Y-78249505D01*
X103087391Y-78276108D01*
X103065149Y-78300649D01*
X103040608Y-78322891D01*
X103014005Y-78342621D01*
X102985596Y-78359648D01*
X102955656Y-78373809D01*
X102924471Y-78384967D01*
X102892343Y-78393015D01*
X102859581Y-78397875D01*
X102826500Y-78399500D01*
X102151500Y-78399500D01*
X102118419Y-78397875D01*
X102085657Y-78393015D01*
X102053529Y-78384967D01*
X102022344Y-78373809D01*
X101992404Y-78359648D01*
X101963995Y-78342621D01*
X101937392Y-78322891D01*
X101912851Y-78300649D01*
X101890609Y-78276108D01*
X101870879Y-78249505D01*
X101853852Y-78221096D01*
X101839691Y-78191156D01*
X101828533Y-78159971D01*
X101820485Y-78127843D01*
X101815625Y-78095081D01*
X101814000Y-78062000D01*
X101814000Y-77287000D01*
X101815625Y-77253919D01*
X101820485Y-77221157D01*
X101828533Y-77189029D01*
X101839691Y-77157844D01*
X101853852Y-77127904D01*
X101870879Y-77099495D01*
X101890609Y-77072892D01*
X101912851Y-77048351D01*
X101937392Y-77026109D01*
X101963995Y-77006379D01*
X101992404Y-76989352D01*
X102022344Y-76975191D01*
X102053529Y-76964033D01*
X102085657Y-76955985D01*
X102118419Y-76951125D01*
X102151500Y-76949500D01*
X102826500Y-76949500D01*
X102859581Y-76951125D01*
X102859581Y-76951125D01*
G37*
D16*
X102489000Y-77674500D03*
D15*
G36*
X118099581Y-78877625D02*
G01*
X118132343Y-78882485D01*
X118164471Y-78890533D01*
X118195656Y-78901691D01*
X118225596Y-78915852D01*
X118254005Y-78932879D01*
X118280608Y-78952609D01*
X118305149Y-78974851D01*
X118327391Y-78999392D01*
X118347121Y-79025995D01*
X118364148Y-79054404D01*
X118378309Y-79084344D01*
X118389467Y-79115529D01*
X118397515Y-79147657D01*
X118402375Y-79180419D01*
X118404000Y-79213500D01*
X118404000Y-79988500D01*
X118402375Y-80021581D01*
X118397515Y-80054343D01*
X118389467Y-80086471D01*
X118378309Y-80117656D01*
X118364148Y-80147596D01*
X118347121Y-80176005D01*
X118327391Y-80202608D01*
X118305149Y-80227149D01*
X118280608Y-80249391D01*
X118254005Y-80269121D01*
X118225596Y-80286148D01*
X118195656Y-80300309D01*
X118164471Y-80311467D01*
X118132343Y-80319515D01*
X118099581Y-80324375D01*
X118066500Y-80326000D01*
X117391500Y-80326000D01*
X117358419Y-80324375D01*
X117325657Y-80319515D01*
X117293529Y-80311467D01*
X117262344Y-80300309D01*
X117232404Y-80286148D01*
X117203995Y-80269121D01*
X117177392Y-80249391D01*
X117152851Y-80227149D01*
X117130609Y-80202608D01*
X117110879Y-80176005D01*
X117093852Y-80147596D01*
X117079691Y-80117656D01*
X117068533Y-80086471D01*
X117060485Y-80054343D01*
X117055625Y-80021581D01*
X117054000Y-79988500D01*
X117054000Y-79213500D01*
X117055625Y-79180419D01*
X117060485Y-79147657D01*
X117068533Y-79115529D01*
X117079691Y-79084344D01*
X117093852Y-79054404D01*
X117110879Y-79025995D01*
X117130609Y-78999392D01*
X117152851Y-78974851D01*
X117177392Y-78952609D01*
X117203995Y-78932879D01*
X117232404Y-78915852D01*
X117262344Y-78901691D01*
X117293529Y-78890533D01*
X117325657Y-78882485D01*
X117358419Y-78877625D01*
X117391500Y-78876000D01*
X118066500Y-78876000D01*
X118099581Y-78877625D01*
X118099581Y-78877625D01*
G37*
D16*
X117729000Y-79601000D03*
D15*
G36*
X118099581Y-77127625D02*
G01*
X118132343Y-77132485D01*
X118164471Y-77140533D01*
X118195656Y-77151691D01*
X118225596Y-77165852D01*
X118254005Y-77182879D01*
X118280608Y-77202609D01*
X118305149Y-77224851D01*
X118327391Y-77249392D01*
X118347121Y-77275995D01*
X118364148Y-77304404D01*
X118378309Y-77334344D01*
X118389467Y-77365529D01*
X118397515Y-77397657D01*
X118402375Y-77430419D01*
X118404000Y-77463500D01*
X118404000Y-78238500D01*
X118402375Y-78271581D01*
X118397515Y-78304343D01*
X118389467Y-78336471D01*
X118378309Y-78367656D01*
X118364148Y-78397596D01*
X118347121Y-78426005D01*
X118327391Y-78452608D01*
X118305149Y-78477149D01*
X118280608Y-78499391D01*
X118254005Y-78519121D01*
X118225596Y-78536148D01*
X118195656Y-78550309D01*
X118164471Y-78561467D01*
X118132343Y-78569515D01*
X118099581Y-78574375D01*
X118066500Y-78576000D01*
X117391500Y-78576000D01*
X117358419Y-78574375D01*
X117325657Y-78569515D01*
X117293529Y-78561467D01*
X117262344Y-78550309D01*
X117232404Y-78536148D01*
X117203995Y-78519121D01*
X117177392Y-78499391D01*
X117152851Y-78477149D01*
X117130609Y-78452608D01*
X117110879Y-78426005D01*
X117093852Y-78397596D01*
X117079691Y-78367656D01*
X117068533Y-78336471D01*
X117060485Y-78304343D01*
X117055625Y-78271581D01*
X117054000Y-78238500D01*
X117054000Y-77463500D01*
X117055625Y-77430419D01*
X117060485Y-77397657D01*
X117068533Y-77365529D01*
X117079691Y-77334344D01*
X117093852Y-77304404D01*
X117110879Y-77275995D01*
X117130609Y-77249392D01*
X117152851Y-77224851D01*
X117177392Y-77202609D01*
X117203995Y-77182879D01*
X117232404Y-77165852D01*
X117262344Y-77151691D01*
X117293529Y-77140533D01*
X117325657Y-77132485D01*
X117358419Y-77127625D01*
X117391500Y-77126000D01*
X118066500Y-77126000D01*
X118099581Y-77127625D01*
X118099581Y-77127625D01*
G37*
D16*
X117729000Y-77851000D03*
D15*
G36*
X133657581Y-76352125D02*
G01*
X133690343Y-76356985D01*
X133722471Y-76365033D01*
X133753656Y-76376191D01*
X133783596Y-76390352D01*
X133812005Y-76407379D01*
X133838608Y-76427109D01*
X133863149Y-76449351D01*
X133885391Y-76473892D01*
X133905121Y-76500495D01*
X133922148Y-76528904D01*
X133936309Y-76558844D01*
X133947467Y-76590029D01*
X133955515Y-76622157D01*
X133960375Y-76654919D01*
X133962000Y-76688000D01*
X133962000Y-77363000D01*
X133960375Y-77396081D01*
X133955515Y-77428843D01*
X133947467Y-77460971D01*
X133936309Y-77492156D01*
X133922148Y-77522096D01*
X133905121Y-77550505D01*
X133885391Y-77577108D01*
X133863149Y-77601649D01*
X133838608Y-77623891D01*
X133812005Y-77643621D01*
X133783596Y-77660648D01*
X133753656Y-77674809D01*
X133722471Y-77685967D01*
X133690343Y-77694015D01*
X133657581Y-77698875D01*
X133624500Y-77700500D01*
X132849500Y-77700500D01*
X132816419Y-77698875D01*
X132783657Y-77694015D01*
X132751529Y-77685967D01*
X132720344Y-77674809D01*
X132690404Y-77660648D01*
X132661995Y-77643621D01*
X132635392Y-77623891D01*
X132610851Y-77601649D01*
X132588609Y-77577108D01*
X132568879Y-77550505D01*
X132551852Y-77522096D01*
X132537691Y-77492156D01*
X132526533Y-77460971D01*
X132518485Y-77428843D01*
X132513625Y-77396081D01*
X132512000Y-77363000D01*
X132512000Y-76688000D01*
X132513625Y-76654919D01*
X132518485Y-76622157D01*
X132526533Y-76590029D01*
X132537691Y-76558844D01*
X132551852Y-76528904D01*
X132568879Y-76500495D01*
X132588609Y-76473892D01*
X132610851Y-76449351D01*
X132635392Y-76427109D01*
X132661995Y-76407379D01*
X132690404Y-76390352D01*
X132720344Y-76376191D01*
X132751529Y-76365033D01*
X132783657Y-76356985D01*
X132816419Y-76352125D01*
X132849500Y-76350500D01*
X133624500Y-76350500D01*
X133657581Y-76352125D01*
X133657581Y-76352125D01*
G37*
D16*
X133237000Y-77025500D03*
D15*
G36*
X135407581Y-76352125D02*
G01*
X135440343Y-76356985D01*
X135472471Y-76365033D01*
X135503656Y-76376191D01*
X135533596Y-76390352D01*
X135562005Y-76407379D01*
X135588608Y-76427109D01*
X135613149Y-76449351D01*
X135635391Y-76473892D01*
X135655121Y-76500495D01*
X135672148Y-76528904D01*
X135686309Y-76558844D01*
X135697467Y-76590029D01*
X135705515Y-76622157D01*
X135710375Y-76654919D01*
X135712000Y-76688000D01*
X135712000Y-77363000D01*
X135710375Y-77396081D01*
X135705515Y-77428843D01*
X135697467Y-77460971D01*
X135686309Y-77492156D01*
X135672148Y-77522096D01*
X135655121Y-77550505D01*
X135635391Y-77577108D01*
X135613149Y-77601649D01*
X135588608Y-77623891D01*
X135562005Y-77643621D01*
X135533596Y-77660648D01*
X135503656Y-77674809D01*
X135472471Y-77685967D01*
X135440343Y-77694015D01*
X135407581Y-77698875D01*
X135374500Y-77700500D01*
X134599500Y-77700500D01*
X134566419Y-77698875D01*
X134533657Y-77694015D01*
X134501529Y-77685967D01*
X134470344Y-77674809D01*
X134440404Y-77660648D01*
X134411995Y-77643621D01*
X134385392Y-77623891D01*
X134360851Y-77601649D01*
X134338609Y-77577108D01*
X134318879Y-77550505D01*
X134301852Y-77522096D01*
X134287691Y-77492156D01*
X134276533Y-77460971D01*
X134268485Y-77428843D01*
X134263625Y-77396081D01*
X134262000Y-77363000D01*
X134262000Y-76688000D01*
X134263625Y-76654919D01*
X134268485Y-76622157D01*
X134276533Y-76590029D01*
X134287691Y-76558844D01*
X134301852Y-76528904D01*
X134318879Y-76500495D01*
X134338609Y-76473892D01*
X134360851Y-76449351D01*
X134385392Y-76427109D01*
X134411995Y-76407379D01*
X134440404Y-76390352D01*
X134470344Y-76376191D01*
X134501529Y-76365033D01*
X134533657Y-76356985D01*
X134566419Y-76352125D01*
X134599500Y-76350500D01*
X135374500Y-76350500D01*
X135407581Y-76352125D01*
X135407581Y-76352125D01*
G37*
D16*
X134987000Y-77025500D03*
D15*
G36*
X151233081Y-78447625D02*
G01*
X151265843Y-78452485D01*
X151297971Y-78460533D01*
X151329156Y-78471691D01*
X151359096Y-78485852D01*
X151387505Y-78502879D01*
X151414108Y-78522609D01*
X151438649Y-78544851D01*
X151460891Y-78569392D01*
X151480621Y-78595995D01*
X151497648Y-78624404D01*
X151511809Y-78654344D01*
X151522967Y-78685529D01*
X151531015Y-78717657D01*
X151535875Y-78750419D01*
X151537500Y-78783500D01*
X151537500Y-79458500D01*
X151535875Y-79491581D01*
X151531015Y-79524343D01*
X151522967Y-79556471D01*
X151511809Y-79587656D01*
X151497648Y-79617596D01*
X151480621Y-79646005D01*
X151460891Y-79672608D01*
X151438649Y-79697149D01*
X151414108Y-79719391D01*
X151387505Y-79739121D01*
X151359096Y-79756148D01*
X151329156Y-79770309D01*
X151297971Y-79781467D01*
X151265843Y-79789515D01*
X151233081Y-79794375D01*
X151200000Y-79796000D01*
X150425000Y-79796000D01*
X150391919Y-79794375D01*
X150359157Y-79789515D01*
X150327029Y-79781467D01*
X150295844Y-79770309D01*
X150265904Y-79756148D01*
X150237495Y-79739121D01*
X150210892Y-79719391D01*
X150186351Y-79697149D01*
X150164109Y-79672608D01*
X150144379Y-79646005D01*
X150127352Y-79617596D01*
X150113191Y-79587656D01*
X150102033Y-79556471D01*
X150093985Y-79524343D01*
X150089125Y-79491581D01*
X150087500Y-79458500D01*
X150087500Y-78783500D01*
X150089125Y-78750419D01*
X150093985Y-78717657D01*
X150102033Y-78685529D01*
X150113191Y-78654344D01*
X150127352Y-78624404D01*
X150144379Y-78595995D01*
X150164109Y-78569392D01*
X150186351Y-78544851D01*
X150210892Y-78522609D01*
X150237495Y-78502879D01*
X150265904Y-78485852D01*
X150295844Y-78471691D01*
X150327029Y-78460533D01*
X150359157Y-78452485D01*
X150391919Y-78447625D01*
X150425000Y-78446000D01*
X151200000Y-78446000D01*
X151233081Y-78447625D01*
X151233081Y-78447625D01*
G37*
D16*
X150812500Y-79121000D03*
D15*
G36*
X152983081Y-78447625D02*
G01*
X153015843Y-78452485D01*
X153047971Y-78460533D01*
X153079156Y-78471691D01*
X153109096Y-78485852D01*
X153137505Y-78502879D01*
X153164108Y-78522609D01*
X153188649Y-78544851D01*
X153210891Y-78569392D01*
X153230621Y-78595995D01*
X153247648Y-78624404D01*
X153261809Y-78654344D01*
X153272967Y-78685529D01*
X153281015Y-78717657D01*
X153285875Y-78750419D01*
X153287500Y-78783500D01*
X153287500Y-79458500D01*
X153285875Y-79491581D01*
X153281015Y-79524343D01*
X153272967Y-79556471D01*
X153261809Y-79587656D01*
X153247648Y-79617596D01*
X153230621Y-79646005D01*
X153210891Y-79672608D01*
X153188649Y-79697149D01*
X153164108Y-79719391D01*
X153137505Y-79739121D01*
X153109096Y-79756148D01*
X153079156Y-79770309D01*
X153047971Y-79781467D01*
X153015843Y-79789515D01*
X152983081Y-79794375D01*
X152950000Y-79796000D01*
X152175000Y-79796000D01*
X152141919Y-79794375D01*
X152109157Y-79789515D01*
X152077029Y-79781467D01*
X152045844Y-79770309D01*
X152015904Y-79756148D01*
X151987495Y-79739121D01*
X151960892Y-79719391D01*
X151936351Y-79697149D01*
X151914109Y-79672608D01*
X151894379Y-79646005D01*
X151877352Y-79617596D01*
X151863191Y-79587656D01*
X151852033Y-79556471D01*
X151843985Y-79524343D01*
X151839125Y-79491581D01*
X151837500Y-79458500D01*
X151837500Y-78783500D01*
X151839125Y-78750419D01*
X151843985Y-78717657D01*
X151852033Y-78685529D01*
X151863191Y-78654344D01*
X151877352Y-78624404D01*
X151894379Y-78595995D01*
X151914109Y-78569392D01*
X151936351Y-78544851D01*
X151960892Y-78522609D01*
X151987495Y-78502879D01*
X152015904Y-78485852D01*
X152045844Y-78471691D01*
X152077029Y-78460533D01*
X152109157Y-78452485D01*
X152141919Y-78447625D01*
X152175000Y-78446000D01*
X152950000Y-78446000D01*
X152983081Y-78447625D01*
X152983081Y-78447625D01*
G37*
D16*
X152562500Y-79121000D03*
D15*
G36*
X163375081Y-78856125D02*
G01*
X163407843Y-78860985D01*
X163439971Y-78869033D01*
X163471156Y-78880191D01*
X163501096Y-78894352D01*
X163529505Y-78911379D01*
X163556108Y-78931109D01*
X163580649Y-78953351D01*
X163602891Y-78977892D01*
X163622621Y-79004495D01*
X163639648Y-79032904D01*
X163653809Y-79062844D01*
X163664967Y-79094029D01*
X163673015Y-79126157D01*
X163677875Y-79158919D01*
X163679500Y-79192000D01*
X163679500Y-79967000D01*
X163677875Y-80000081D01*
X163673015Y-80032843D01*
X163664967Y-80064971D01*
X163653809Y-80096156D01*
X163639648Y-80126096D01*
X163622621Y-80154505D01*
X163602891Y-80181108D01*
X163580649Y-80205649D01*
X163556108Y-80227891D01*
X163529505Y-80247621D01*
X163501096Y-80264648D01*
X163471156Y-80278809D01*
X163439971Y-80289967D01*
X163407843Y-80298015D01*
X163375081Y-80302875D01*
X163342000Y-80304500D01*
X162667000Y-80304500D01*
X162633919Y-80302875D01*
X162601157Y-80298015D01*
X162569029Y-80289967D01*
X162537844Y-80278809D01*
X162507904Y-80264648D01*
X162479495Y-80247621D01*
X162452892Y-80227891D01*
X162428351Y-80205649D01*
X162406109Y-80181108D01*
X162386379Y-80154505D01*
X162369352Y-80126096D01*
X162355191Y-80096156D01*
X162344033Y-80064971D01*
X162335985Y-80032843D01*
X162331125Y-80000081D01*
X162329500Y-79967000D01*
X162329500Y-79192000D01*
X162331125Y-79158919D01*
X162335985Y-79126157D01*
X162344033Y-79094029D01*
X162355191Y-79062844D01*
X162369352Y-79032904D01*
X162386379Y-79004495D01*
X162406109Y-78977892D01*
X162428351Y-78953351D01*
X162452892Y-78931109D01*
X162479495Y-78911379D01*
X162507904Y-78894352D01*
X162537844Y-78880191D01*
X162569029Y-78869033D01*
X162601157Y-78860985D01*
X162633919Y-78856125D01*
X162667000Y-78854500D01*
X163342000Y-78854500D01*
X163375081Y-78856125D01*
X163375081Y-78856125D01*
G37*
D16*
X163004500Y-79579500D03*
D15*
G36*
X163375081Y-80606125D02*
G01*
X163407843Y-80610985D01*
X163439971Y-80619033D01*
X163471156Y-80630191D01*
X163501096Y-80644352D01*
X163529505Y-80661379D01*
X163556108Y-80681109D01*
X163580649Y-80703351D01*
X163602891Y-80727892D01*
X163622621Y-80754495D01*
X163639648Y-80782904D01*
X163653809Y-80812844D01*
X163664967Y-80844029D01*
X163673015Y-80876157D01*
X163677875Y-80908919D01*
X163679500Y-80942000D01*
X163679500Y-81717000D01*
X163677875Y-81750081D01*
X163673015Y-81782843D01*
X163664967Y-81814971D01*
X163653809Y-81846156D01*
X163639648Y-81876096D01*
X163622621Y-81904505D01*
X163602891Y-81931108D01*
X163580649Y-81955649D01*
X163556108Y-81977891D01*
X163529505Y-81997621D01*
X163501096Y-82014648D01*
X163471156Y-82028809D01*
X163439971Y-82039967D01*
X163407843Y-82048015D01*
X163375081Y-82052875D01*
X163342000Y-82054500D01*
X162667000Y-82054500D01*
X162633919Y-82052875D01*
X162601157Y-82048015D01*
X162569029Y-82039967D01*
X162537844Y-82028809D01*
X162507904Y-82014648D01*
X162479495Y-81997621D01*
X162452892Y-81977891D01*
X162428351Y-81955649D01*
X162406109Y-81931108D01*
X162386379Y-81904505D01*
X162369352Y-81876096D01*
X162355191Y-81846156D01*
X162344033Y-81814971D01*
X162335985Y-81782843D01*
X162331125Y-81750081D01*
X162329500Y-81717000D01*
X162329500Y-80942000D01*
X162331125Y-80908919D01*
X162335985Y-80876157D01*
X162344033Y-80844029D01*
X162355191Y-80812844D01*
X162369352Y-80782904D01*
X162386379Y-80754495D01*
X162406109Y-80727892D01*
X162428351Y-80703351D01*
X162452892Y-80681109D01*
X162479495Y-80661379D01*
X162507904Y-80644352D01*
X162537844Y-80630191D01*
X162569029Y-80619033D01*
X162601157Y-80610985D01*
X162633919Y-80606125D01*
X162667000Y-80604500D01*
X163342000Y-80604500D01*
X163375081Y-80606125D01*
X163375081Y-80606125D01*
G37*
D16*
X163004500Y-81329500D03*
D15*
G36*
X193156581Y-73162625D02*
G01*
X193189343Y-73167485D01*
X193221471Y-73175533D01*
X193252656Y-73186691D01*
X193282596Y-73200852D01*
X193311005Y-73217879D01*
X193337608Y-73237609D01*
X193362149Y-73259851D01*
X193384391Y-73284392D01*
X193404121Y-73310995D01*
X193421148Y-73339404D01*
X193435309Y-73369344D01*
X193446467Y-73400529D01*
X193454515Y-73432657D01*
X193459375Y-73465419D01*
X193461000Y-73498500D01*
X193461000Y-74273500D01*
X193459375Y-74306581D01*
X193454515Y-74339343D01*
X193446467Y-74371471D01*
X193435309Y-74402656D01*
X193421148Y-74432596D01*
X193404121Y-74461005D01*
X193384391Y-74487608D01*
X193362149Y-74512149D01*
X193337608Y-74534391D01*
X193311005Y-74554121D01*
X193282596Y-74571148D01*
X193252656Y-74585309D01*
X193221471Y-74596467D01*
X193189343Y-74604515D01*
X193156581Y-74609375D01*
X193123500Y-74611000D01*
X192448500Y-74611000D01*
X192415419Y-74609375D01*
X192382657Y-74604515D01*
X192350529Y-74596467D01*
X192319344Y-74585309D01*
X192289404Y-74571148D01*
X192260995Y-74554121D01*
X192234392Y-74534391D01*
X192209851Y-74512149D01*
X192187609Y-74487608D01*
X192167879Y-74461005D01*
X192150852Y-74432596D01*
X192136691Y-74402656D01*
X192125533Y-74371471D01*
X192117485Y-74339343D01*
X192112625Y-74306581D01*
X192111000Y-74273500D01*
X192111000Y-73498500D01*
X192112625Y-73465419D01*
X192117485Y-73432657D01*
X192125533Y-73400529D01*
X192136691Y-73369344D01*
X192150852Y-73339404D01*
X192167879Y-73310995D01*
X192187609Y-73284392D01*
X192209851Y-73259851D01*
X192234392Y-73237609D01*
X192260995Y-73217879D01*
X192289404Y-73200852D01*
X192319344Y-73186691D01*
X192350529Y-73175533D01*
X192382657Y-73167485D01*
X192415419Y-73162625D01*
X192448500Y-73161000D01*
X193123500Y-73161000D01*
X193156581Y-73162625D01*
X193156581Y-73162625D01*
G37*
D16*
X192786000Y-73886000D03*
D15*
G36*
X193156581Y-71412625D02*
G01*
X193189343Y-71417485D01*
X193221471Y-71425533D01*
X193252656Y-71436691D01*
X193282596Y-71450852D01*
X193311005Y-71467879D01*
X193337608Y-71487609D01*
X193362149Y-71509851D01*
X193384391Y-71534392D01*
X193404121Y-71560995D01*
X193421148Y-71589404D01*
X193435309Y-71619344D01*
X193446467Y-71650529D01*
X193454515Y-71682657D01*
X193459375Y-71715419D01*
X193461000Y-71748500D01*
X193461000Y-72523500D01*
X193459375Y-72556581D01*
X193454515Y-72589343D01*
X193446467Y-72621471D01*
X193435309Y-72652656D01*
X193421148Y-72682596D01*
X193404121Y-72711005D01*
X193384391Y-72737608D01*
X193362149Y-72762149D01*
X193337608Y-72784391D01*
X193311005Y-72804121D01*
X193282596Y-72821148D01*
X193252656Y-72835309D01*
X193221471Y-72846467D01*
X193189343Y-72854515D01*
X193156581Y-72859375D01*
X193123500Y-72861000D01*
X192448500Y-72861000D01*
X192415419Y-72859375D01*
X192382657Y-72854515D01*
X192350529Y-72846467D01*
X192319344Y-72835309D01*
X192289404Y-72821148D01*
X192260995Y-72804121D01*
X192234392Y-72784391D01*
X192209851Y-72762149D01*
X192187609Y-72737608D01*
X192167879Y-72711005D01*
X192150852Y-72682596D01*
X192136691Y-72652656D01*
X192125533Y-72621471D01*
X192117485Y-72589343D01*
X192112625Y-72556581D01*
X192111000Y-72523500D01*
X192111000Y-71748500D01*
X192112625Y-71715419D01*
X192117485Y-71682657D01*
X192125533Y-71650529D01*
X192136691Y-71619344D01*
X192150852Y-71589404D01*
X192167879Y-71560995D01*
X192187609Y-71534392D01*
X192209851Y-71509851D01*
X192234392Y-71487609D01*
X192260995Y-71467879D01*
X192289404Y-71450852D01*
X192319344Y-71436691D01*
X192350529Y-71425533D01*
X192382657Y-71417485D01*
X192415419Y-71412625D01*
X192448500Y-71411000D01*
X193123500Y-71411000D01*
X193156581Y-71412625D01*
X193156581Y-71412625D01*
G37*
D16*
X192786000Y-72136000D03*
D15*
G36*
X127125207Y-71697542D02*
G01*
X127156287Y-71702152D01*
X127186766Y-71709787D01*
X127216350Y-71720372D01*
X127244754Y-71733806D01*
X127271704Y-71749959D01*
X127296942Y-71768677D01*
X127320223Y-71789777D01*
X127341323Y-71813058D01*
X127360041Y-71838296D01*
X127376194Y-71865246D01*
X127389628Y-71893650D01*
X127400213Y-71923234D01*
X127407848Y-71953713D01*
X127412458Y-71984793D01*
X127414000Y-72016176D01*
X127414000Y-73525824D01*
X127412458Y-73557207D01*
X127407848Y-73588287D01*
X127400213Y-73618766D01*
X127389628Y-73648350D01*
X127376194Y-73676754D01*
X127360041Y-73703704D01*
X127341323Y-73728942D01*
X127320223Y-73752223D01*
X127296942Y-73773323D01*
X127271704Y-73792041D01*
X127244754Y-73808194D01*
X127216350Y-73821628D01*
X127186766Y-73832213D01*
X127156287Y-73839848D01*
X127125207Y-73844458D01*
X127093824Y-73846000D01*
X125909176Y-73846000D01*
X125877793Y-73844458D01*
X125846713Y-73839848D01*
X125816234Y-73832213D01*
X125786650Y-73821628D01*
X125758246Y-73808194D01*
X125731296Y-73792041D01*
X125706058Y-73773323D01*
X125682777Y-73752223D01*
X125661677Y-73728942D01*
X125642959Y-73703704D01*
X125626806Y-73676754D01*
X125613372Y-73648350D01*
X125602787Y-73618766D01*
X125595152Y-73588287D01*
X125590542Y-73557207D01*
X125589000Y-73525824D01*
X125589000Y-72016176D01*
X125590542Y-71984793D01*
X125595152Y-71953713D01*
X125602787Y-71923234D01*
X125613372Y-71893650D01*
X125626806Y-71865246D01*
X125642959Y-71838296D01*
X125661677Y-71813058D01*
X125682777Y-71789777D01*
X125706058Y-71768677D01*
X125731296Y-71749959D01*
X125758246Y-71733806D01*
X125786650Y-71720372D01*
X125816234Y-71709787D01*
X125846713Y-71702152D01*
X125877793Y-71697542D01*
X125909176Y-71696000D01*
X127093824Y-71696000D01*
X127125207Y-71697542D01*
X127125207Y-71697542D01*
G37*
D24*
X126501500Y-72771000D03*
D15*
G36*
X130100207Y-71697542D02*
G01*
X130131287Y-71702152D01*
X130161766Y-71709787D01*
X130191350Y-71720372D01*
X130219754Y-71733806D01*
X130246704Y-71749959D01*
X130271942Y-71768677D01*
X130295223Y-71789777D01*
X130316323Y-71813058D01*
X130335041Y-71838296D01*
X130351194Y-71865246D01*
X130364628Y-71893650D01*
X130375213Y-71923234D01*
X130382848Y-71953713D01*
X130387458Y-71984793D01*
X130389000Y-72016176D01*
X130389000Y-73525824D01*
X130387458Y-73557207D01*
X130382848Y-73588287D01*
X130375213Y-73618766D01*
X130364628Y-73648350D01*
X130351194Y-73676754D01*
X130335041Y-73703704D01*
X130316323Y-73728942D01*
X130295223Y-73752223D01*
X130271942Y-73773323D01*
X130246704Y-73792041D01*
X130219754Y-73808194D01*
X130191350Y-73821628D01*
X130161766Y-73832213D01*
X130131287Y-73839848D01*
X130100207Y-73844458D01*
X130068824Y-73846000D01*
X128884176Y-73846000D01*
X128852793Y-73844458D01*
X128821713Y-73839848D01*
X128791234Y-73832213D01*
X128761650Y-73821628D01*
X128733246Y-73808194D01*
X128706296Y-73792041D01*
X128681058Y-73773323D01*
X128657777Y-73752223D01*
X128636677Y-73728942D01*
X128617959Y-73703704D01*
X128601806Y-73676754D01*
X128588372Y-73648350D01*
X128577787Y-73618766D01*
X128570152Y-73588287D01*
X128565542Y-73557207D01*
X128564000Y-73525824D01*
X128564000Y-72016176D01*
X128565542Y-71984793D01*
X128570152Y-71953713D01*
X128577787Y-71923234D01*
X128588372Y-71893650D01*
X128601806Y-71865246D01*
X128617959Y-71838296D01*
X128636677Y-71813058D01*
X128657777Y-71789777D01*
X128681058Y-71768677D01*
X128706296Y-71749959D01*
X128733246Y-71733806D01*
X128761650Y-71720372D01*
X128791234Y-71709787D01*
X128821713Y-71702152D01*
X128852793Y-71697542D01*
X128884176Y-71696000D01*
X130068824Y-71696000D01*
X130100207Y-71697542D01*
X130100207Y-71697542D01*
G37*
D24*
X129476500Y-72771000D03*
D15*
G36*
X161205707Y-71697542D02*
G01*
X161236787Y-71702152D01*
X161267266Y-71709787D01*
X161296850Y-71720372D01*
X161325254Y-71733806D01*
X161352204Y-71749959D01*
X161377442Y-71768677D01*
X161400723Y-71789777D01*
X161421823Y-71813058D01*
X161440541Y-71838296D01*
X161456694Y-71865246D01*
X161470128Y-71893650D01*
X161480713Y-71923234D01*
X161488348Y-71953713D01*
X161492958Y-71984793D01*
X161494500Y-72016176D01*
X161494500Y-73525824D01*
X161492958Y-73557207D01*
X161488348Y-73588287D01*
X161480713Y-73618766D01*
X161470128Y-73648350D01*
X161456694Y-73676754D01*
X161440541Y-73703704D01*
X161421823Y-73728942D01*
X161400723Y-73752223D01*
X161377442Y-73773323D01*
X161352204Y-73792041D01*
X161325254Y-73808194D01*
X161296850Y-73821628D01*
X161267266Y-73832213D01*
X161236787Y-73839848D01*
X161205707Y-73844458D01*
X161174324Y-73846000D01*
X159989676Y-73846000D01*
X159958293Y-73844458D01*
X159927213Y-73839848D01*
X159896734Y-73832213D01*
X159867150Y-73821628D01*
X159838746Y-73808194D01*
X159811796Y-73792041D01*
X159786558Y-73773323D01*
X159763277Y-73752223D01*
X159742177Y-73728942D01*
X159723459Y-73703704D01*
X159707306Y-73676754D01*
X159693872Y-73648350D01*
X159683287Y-73618766D01*
X159675652Y-73588287D01*
X159671042Y-73557207D01*
X159669500Y-73525824D01*
X159669500Y-72016176D01*
X159671042Y-71984793D01*
X159675652Y-71953713D01*
X159683287Y-71923234D01*
X159693872Y-71893650D01*
X159707306Y-71865246D01*
X159723459Y-71838296D01*
X159742177Y-71813058D01*
X159763277Y-71789777D01*
X159786558Y-71768677D01*
X159811796Y-71749959D01*
X159838746Y-71733806D01*
X159867150Y-71720372D01*
X159896734Y-71709787D01*
X159927213Y-71702152D01*
X159958293Y-71697542D01*
X159989676Y-71696000D01*
X161174324Y-71696000D01*
X161205707Y-71697542D01*
X161205707Y-71697542D01*
G37*
D24*
X160582000Y-72771000D03*
D15*
G36*
X158230707Y-71697542D02*
G01*
X158261787Y-71702152D01*
X158292266Y-71709787D01*
X158321850Y-71720372D01*
X158350254Y-71733806D01*
X158377204Y-71749959D01*
X158402442Y-71768677D01*
X158425723Y-71789777D01*
X158446823Y-71813058D01*
X158465541Y-71838296D01*
X158481694Y-71865246D01*
X158495128Y-71893650D01*
X158505713Y-71923234D01*
X158513348Y-71953713D01*
X158517958Y-71984793D01*
X158519500Y-72016176D01*
X158519500Y-73525824D01*
X158517958Y-73557207D01*
X158513348Y-73588287D01*
X158505713Y-73618766D01*
X158495128Y-73648350D01*
X158481694Y-73676754D01*
X158465541Y-73703704D01*
X158446823Y-73728942D01*
X158425723Y-73752223D01*
X158402442Y-73773323D01*
X158377204Y-73792041D01*
X158350254Y-73808194D01*
X158321850Y-73821628D01*
X158292266Y-73832213D01*
X158261787Y-73839848D01*
X158230707Y-73844458D01*
X158199324Y-73846000D01*
X157014676Y-73846000D01*
X156983293Y-73844458D01*
X156952213Y-73839848D01*
X156921734Y-73832213D01*
X156892150Y-73821628D01*
X156863746Y-73808194D01*
X156836796Y-73792041D01*
X156811558Y-73773323D01*
X156788277Y-73752223D01*
X156767177Y-73728942D01*
X156748459Y-73703704D01*
X156732306Y-73676754D01*
X156718872Y-73648350D01*
X156708287Y-73618766D01*
X156700652Y-73588287D01*
X156696042Y-73557207D01*
X156694500Y-73525824D01*
X156694500Y-72016176D01*
X156696042Y-71984793D01*
X156700652Y-71953713D01*
X156708287Y-71923234D01*
X156718872Y-71893650D01*
X156732306Y-71865246D01*
X156748459Y-71838296D01*
X156767177Y-71813058D01*
X156788277Y-71789777D01*
X156811558Y-71768677D01*
X156836796Y-71749959D01*
X156863746Y-71733806D01*
X156892150Y-71720372D01*
X156921734Y-71709787D01*
X156952213Y-71702152D01*
X156983293Y-71697542D01*
X157014676Y-71696000D01*
X158199324Y-71696000D01*
X158230707Y-71697542D01*
X158230707Y-71697542D01*
G37*
D24*
X157607000Y-72771000D03*
D25*
X142240000Y-89474000D03*
X142240000Y-91374000D03*
X139740000Y-89474000D03*
X139740000Y-91374000D03*
X142240000Y-90424000D03*
X139740000Y-90424000D03*
D26*
X160274000Y-80518000D03*
X99187000Y-82931000D03*
X130683000Y-77851000D03*
X161163000Y-77597000D03*
X114681000Y-77851000D03*
X146177000Y-77597000D03*
X178308000Y-77597000D03*
X92710000Y-118364000D03*
X111125000Y-77851000D03*
X143129000Y-77597000D03*
X172974000Y-77597000D03*
D15*
G36*
X160263581Y-76457125D02*
G01*
X160296343Y-76461985D01*
X160328471Y-76470033D01*
X160359656Y-76481191D01*
X160389596Y-76495352D01*
X160418005Y-76512379D01*
X160444608Y-76532109D01*
X160469149Y-76554351D01*
X160491391Y-76578892D01*
X160511121Y-76605495D01*
X160528148Y-76633904D01*
X160542309Y-76663844D01*
X160553467Y-76695029D01*
X160561515Y-76727157D01*
X160566375Y-76759919D01*
X160568000Y-76793000D01*
X160568000Y-77568000D01*
X160566375Y-77601081D01*
X160561515Y-77633843D01*
X160553467Y-77665971D01*
X160542309Y-77697156D01*
X160528148Y-77727096D01*
X160511121Y-77755505D01*
X160491391Y-77782108D01*
X160469149Y-77806649D01*
X160444608Y-77828891D01*
X160418005Y-77848621D01*
X160389596Y-77865648D01*
X160359656Y-77879809D01*
X160328471Y-77890967D01*
X160296343Y-77899015D01*
X160263581Y-77903875D01*
X160230500Y-77905500D01*
X159555500Y-77905500D01*
X159522419Y-77903875D01*
X159489657Y-77899015D01*
X159457529Y-77890967D01*
X159426344Y-77879809D01*
X159396404Y-77865648D01*
X159367995Y-77848621D01*
X159341392Y-77828891D01*
X159316851Y-77806649D01*
X159294609Y-77782108D01*
X159274879Y-77755505D01*
X159257852Y-77727096D01*
X159243691Y-77697156D01*
X159232533Y-77665971D01*
X159224485Y-77633843D01*
X159219625Y-77601081D01*
X159218000Y-77568000D01*
X159218000Y-76793000D01*
X159219625Y-76759919D01*
X159224485Y-76727157D01*
X159232533Y-76695029D01*
X159243691Y-76663844D01*
X159257852Y-76633904D01*
X159274879Y-76605495D01*
X159294609Y-76578892D01*
X159316851Y-76554351D01*
X159341392Y-76532109D01*
X159367995Y-76512379D01*
X159396404Y-76495352D01*
X159426344Y-76481191D01*
X159457529Y-76470033D01*
X159489657Y-76461985D01*
X159522419Y-76457125D01*
X159555500Y-76455500D01*
X160230500Y-76455500D01*
X160263581Y-76457125D01*
X160263581Y-76457125D01*
G37*
D16*
X159893000Y-77180500D03*
D15*
G36*
X160263581Y-78207125D02*
G01*
X160296343Y-78211985D01*
X160328471Y-78220033D01*
X160359656Y-78231191D01*
X160389596Y-78245352D01*
X160418005Y-78262379D01*
X160444608Y-78282109D01*
X160469149Y-78304351D01*
X160491391Y-78328892D01*
X160511121Y-78355495D01*
X160528148Y-78383904D01*
X160542309Y-78413844D01*
X160553467Y-78445029D01*
X160561515Y-78477157D01*
X160566375Y-78509919D01*
X160568000Y-78543000D01*
X160568000Y-79318000D01*
X160566375Y-79351081D01*
X160561515Y-79383843D01*
X160553467Y-79415971D01*
X160542309Y-79447156D01*
X160528148Y-79477096D01*
X160511121Y-79505505D01*
X160491391Y-79532108D01*
X160469149Y-79556649D01*
X160444608Y-79578891D01*
X160418005Y-79598621D01*
X160389596Y-79615648D01*
X160359656Y-79629809D01*
X160328471Y-79640967D01*
X160296343Y-79649015D01*
X160263581Y-79653875D01*
X160230500Y-79655500D01*
X159555500Y-79655500D01*
X159522419Y-79653875D01*
X159489657Y-79649015D01*
X159457529Y-79640967D01*
X159426344Y-79629809D01*
X159396404Y-79615648D01*
X159367995Y-79598621D01*
X159341392Y-79578891D01*
X159316851Y-79556649D01*
X159294609Y-79532108D01*
X159274879Y-79505505D01*
X159257852Y-79477096D01*
X159243691Y-79447156D01*
X159232533Y-79415971D01*
X159224485Y-79383843D01*
X159219625Y-79351081D01*
X159218000Y-79318000D01*
X159218000Y-78543000D01*
X159219625Y-78509919D01*
X159224485Y-78477157D01*
X159232533Y-78445029D01*
X159243691Y-78413844D01*
X159257852Y-78383904D01*
X159274879Y-78355495D01*
X159294609Y-78328892D01*
X159316851Y-78304351D01*
X159341392Y-78282109D01*
X159367995Y-78262379D01*
X159396404Y-78245352D01*
X159426344Y-78231191D01*
X159457529Y-78220033D01*
X159489657Y-78211985D01*
X159522419Y-78207125D01*
X159555500Y-78205500D01*
X160230500Y-78205500D01*
X160263581Y-78207125D01*
X160263581Y-78207125D01*
G37*
D16*
X159893000Y-78930500D03*
D27*
X144716500Y-129540000D03*
X147256500Y-129540000D03*
X149796500Y-129540000D03*
X126936500Y-127000000D03*
X129476500Y-127000000D03*
X132016500Y-127000000D03*
X134556500Y-127000000D03*
X137096500Y-127000000D03*
X139636500Y-127000000D03*
X142176500Y-127000000D03*
X144716500Y-127000000D03*
X147256500Y-127000000D03*
X149796500Y-127000000D03*
X126936500Y-83820000D03*
X132016500Y-83820000D03*
X137096500Y-83820000D03*
X139636500Y-83820000D03*
X142176500Y-83820000D03*
X144716500Y-83820000D03*
X147256500Y-83820000D03*
X126936500Y-86360000D03*
X132016500Y-86360000D03*
X142176500Y-86360000D03*
X144716500Y-86360000D03*
X147256500Y-86360000D03*
X149796500Y-86360000D03*
X137096500Y-86360000D03*
X134556500Y-86360000D03*
X129476500Y-83820000D03*
X142176500Y-129540000D03*
X139636500Y-129540000D03*
X129476500Y-86360000D03*
X134556500Y-83820000D03*
X132016500Y-129540000D03*
X134556500Y-129540000D03*
X139636500Y-86360000D03*
X137096500Y-129540000D03*
X129476500Y-129540000D03*
X126936500Y-129540000D03*
X149796500Y-83820000D03*
D15*
G36*
X128767581Y-77028625D02*
G01*
X128800343Y-77033485D01*
X128832471Y-77041533D01*
X128863656Y-77052691D01*
X128893596Y-77066852D01*
X128922005Y-77083879D01*
X128948608Y-77103609D01*
X128973149Y-77125851D01*
X128995391Y-77150392D01*
X129015121Y-77176995D01*
X129032148Y-77205404D01*
X129046309Y-77235344D01*
X129057467Y-77266529D01*
X129065515Y-77298657D01*
X129070375Y-77331419D01*
X129072000Y-77364500D01*
X129072000Y-78139500D01*
X129070375Y-78172581D01*
X129065515Y-78205343D01*
X129057467Y-78237471D01*
X129046309Y-78268656D01*
X129032148Y-78298596D01*
X129015121Y-78327005D01*
X128995391Y-78353608D01*
X128973149Y-78378149D01*
X128948608Y-78400391D01*
X128922005Y-78420121D01*
X128893596Y-78437148D01*
X128863656Y-78451309D01*
X128832471Y-78462467D01*
X128800343Y-78470515D01*
X128767581Y-78475375D01*
X128734500Y-78477000D01*
X128059500Y-78477000D01*
X128026419Y-78475375D01*
X127993657Y-78470515D01*
X127961529Y-78462467D01*
X127930344Y-78451309D01*
X127900404Y-78437148D01*
X127871995Y-78420121D01*
X127845392Y-78400391D01*
X127820851Y-78378149D01*
X127798609Y-78353608D01*
X127778879Y-78327005D01*
X127761852Y-78298596D01*
X127747691Y-78268656D01*
X127736533Y-78237471D01*
X127728485Y-78205343D01*
X127723625Y-78172581D01*
X127722000Y-78139500D01*
X127722000Y-77364500D01*
X127723625Y-77331419D01*
X127728485Y-77298657D01*
X127736533Y-77266529D01*
X127747691Y-77235344D01*
X127761852Y-77205404D01*
X127778879Y-77176995D01*
X127798609Y-77150392D01*
X127820851Y-77125851D01*
X127845392Y-77103609D01*
X127871995Y-77083879D01*
X127900404Y-77066852D01*
X127930344Y-77052691D01*
X127961529Y-77041533D01*
X127993657Y-77033485D01*
X128026419Y-77028625D01*
X128059500Y-77027000D01*
X128734500Y-77027000D01*
X128767581Y-77028625D01*
X128767581Y-77028625D01*
G37*
D16*
X128397000Y-77752000D03*
D15*
G36*
X128767581Y-78778625D02*
G01*
X128800343Y-78783485D01*
X128832471Y-78791533D01*
X128863656Y-78802691D01*
X128893596Y-78816852D01*
X128922005Y-78833879D01*
X128948608Y-78853609D01*
X128973149Y-78875851D01*
X128995391Y-78900392D01*
X129015121Y-78926995D01*
X129032148Y-78955404D01*
X129046309Y-78985344D01*
X129057467Y-79016529D01*
X129065515Y-79048657D01*
X129070375Y-79081419D01*
X129072000Y-79114500D01*
X129072000Y-79889500D01*
X129070375Y-79922581D01*
X129065515Y-79955343D01*
X129057467Y-79987471D01*
X129046309Y-80018656D01*
X129032148Y-80048596D01*
X129015121Y-80077005D01*
X128995391Y-80103608D01*
X128973149Y-80128149D01*
X128948608Y-80150391D01*
X128922005Y-80170121D01*
X128893596Y-80187148D01*
X128863656Y-80201309D01*
X128832471Y-80212467D01*
X128800343Y-80220515D01*
X128767581Y-80225375D01*
X128734500Y-80227000D01*
X128059500Y-80227000D01*
X128026419Y-80225375D01*
X127993657Y-80220515D01*
X127961529Y-80212467D01*
X127930344Y-80201309D01*
X127900404Y-80187148D01*
X127871995Y-80170121D01*
X127845392Y-80150391D01*
X127820851Y-80128149D01*
X127798609Y-80103608D01*
X127778879Y-80077005D01*
X127761852Y-80048596D01*
X127747691Y-80018656D01*
X127736533Y-79987471D01*
X127728485Y-79955343D01*
X127723625Y-79922581D01*
X127722000Y-79889500D01*
X127722000Y-79114500D01*
X127723625Y-79081419D01*
X127728485Y-79048657D01*
X127736533Y-79016529D01*
X127747691Y-78985344D01*
X127761852Y-78955404D01*
X127778879Y-78926995D01*
X127798609Y-78900392D01*
X127820851Y-78875851D01*
X127845392Y-78853609D01*
X127871995Y-78833879D01*
X127900404Y-78816852D01*
X127930344Y-78802691D01*
X127961529Y-78791533D01*
X127993657Y-78783485D01*
X128026419Y-78778625D01*
X128059500Y-78777000D01*
X128734500Y-78777000D01*
X128767581Y-78778625D01*
X128767581Y-78778625D01*
G37*
D16*
X128397000Y-79502000D03*
M02*
