G04 #@! TF.GenerationSoftware,KiCad,Pcbnew,(5.1.2)-1*
G04 #@! TF.CreationDate,2019-10-20T15:18:29-05:00*
G04 #@! TF.ProjectId,MotorController_Hardware,4d6f746f-7243-46f6-9e74-726f6c6c6572,rev?*
G04 #@! TF.SameCoordinates,Original*
G04 #@! TF.FileFunction,Legend,Bot*
G04 #@! TF.FilePolarity,Positive*
%FSLAX46Y46*%
G04 Gerber Fmt 4.6, Leading zero omitted, Abs format (unit mm)*
G04 Created by KiCad (PCBNEW (5.1.2)-1) date 2019-10-20 15:18:29*
%MOMM*%
%LPD*%
G04 APERTURE LIST*
%ADD10C,0.120000*%
%ADD11C,0.150000*%
G04 APERTURE END LIST*
D10*
X127350733Y-74674000D02*
X127693267Y-74674000D01*
X127350733Y-75694000D02*
X127693267Y-75694000D01*
X158846733Y-74801000D02*
X159189267Y-74801000D01*
X158846733Y-75821000D02*
X159189267Y-75821000D01*
X103857500Y-78660500D02*
X107757500Y-78660500D01*
X103857500Y-76660500D02*
X107757500Y-76660500D01*
X103857500Y-78660500D02*
X103857500Y-76660500D01*
X119161000Y-78914500D02*
X123061000Y-78914500D01*
X119161000Y-76914500D02*
X123061000Y-76914500D01*
X119161000Y-78914500D02*
X119161000Y-76914500D01*
X136243500Y-78152500D02*
X140143500Y-78152500D01*
X136243500Y-76152500D02*
X140143500Y-76152500D01*
X136243500Y-78152500D02*
X136243500Y-76152500D01*
X150213500Y-78089000D02*
X150213500Y-76089000D01*
X150213500Y-76089000D02*
X154113500Y-76089000D01*
X150213500Y-78089000D02*
X154113500Y-78089000D01*
X163865000Y-78152500D02*
X163865000Y-76152500D01*
X163865000Y-76152500D02*
X167765000Y-76152500D01*
X163865000Y-78152500D02*
X167765000Y-78152500D01*
X189500000Y-71537000D02*
X189500000Y-75437000D01*
X191500000Y-71537000D02*
X191500000Y-75437000D01*
X189500000Y-71537000D02*
X191500000Y-71537000D01*
X107569000Y-73102000D02*
X107569000Y-70478000D01*
X105029000Y-73102000D02*
X105029000Y-70478000D01*
X102489000Y-73118000D02*
X102489000Y-70478000D01*
X110149000Y-55948000D02*
X110149000Y-54748000D01*
X110149000Y-58348000D02*
X110149000Y-57148000D01*
X110149000Y-60748000D02*
X110149000Y-59548000D01*
X99909000Y-55948000D02*
X99909000Y-54748000D01*
X99909000Y-58348000D02*
X99909000Y-57148000D01*
X99909000Y-60748000D02*
X99909000Y-59548000D01*
X109509000Y-54588000D02*
X110149000Y-54588000D01*
X107109000Y-54588000D02*
X108309000Y-54588000D01*
X104709000Y-54588000D02*
X105909000Y-54588000D01*
X102308000Y-54588000D02*
X103509000Y-54588000D01*
X99909000Y-54588000D02*
X101109000Y-54588000D01*
X110149000Y-70478000D02*
X110149000Y-60988000D01*
X99909000Y-70478000D02*
X99909000Y-60988000D01*
X99909000Y-60988000D02*
X110149000Y-60988000D01*
X99909000Y-70478000D02*
X110149000Y-70478000D01*
X115085500Y-70478000D02*
X125325500Y-70478000D01*
X115085500Y-60988000D02*
X125325500Y-60988000D01*
X115085500Y-70478000D02*
X115085500Y-60988000D01*
X125325500Y-70478000D02*
X125325500Y-60988000D01*
X115085500Y-54588000D02*
X116285500Y-54588000D01*
X117484500Y-54588000D02*
X118685500Y-54588000D01*
X119885500Y-54588000D02*
X121085500Y-54588000D01*
X122285500Y-54588000D02*
X123485500Y-54588000D01*
X124685500Y-54588000D02*
X125325500Y-54588000D01*
X115085500Y-60748000D02*
X115085500Y-59548000D01*
X115085500Y-58348000D02*
X115085500Y-57148000D01*
X115085500Y-55948000D02*
X115085500Y-54748000D01*
X125325500Y-60748000D02*
X125325500Y-59548000D01*
X125325500Y-58348000D02*
X125325500Y-57148000D01*
X125325500Y-55948000D02*
X125325500Y-54748000D01*
X117665500Y-73118000D02*
X117665500Y-70478000D01*
X120205500Y-73102000D02*
X120205500Y-70478000D01*
X122745500Y-73102000D02*
X122745500Y-70478000D01*
X130643000Y-70478000D02*
X140883000Y-70478000D01*
X130643000Y-60988000D02*
X140883000Y-60988000D01*
X130643000Y-70478000D02*
X130643000Y-60988000D01*
X140883000Y-70478000D02*
X140883000Y-60988000D01*
X130643000Y-54588000D02*
X131843000Y-54588000D01*
X133042000Y-54588000D02*
X134243000Y-54588000D01*
X135443000Y-54588000D02*
X136643000Y-54588000D01*
X137843000Y-54588000D02*
X139043000Y-54588000D01*
X140243000Y-54588000D02*
X140883000Y-54588000D01*
X130643000Y-60748000D02*
X130643000Y-59548000D01*
X130643000Y-58348000D02*
X130643000Y-57148000D01*
X130643000Y-55948000D02*
X130643000Y-54748000D01*
X140883000Y-60748000D02*
X140883000Y-59548000D01*
X140883000Y-58348000D02*
X140883000Y-57148000D01*
X140883000Y-55948000D02*
X140883000Y-54748000D01*
X133223000Y-73118000D02*
X133223000Y-70478000D01*
X135763000Y-73102000D02*
X135763000Y-70478000D01*
X138303000Y-73102000D02*
X138303000Y-70478000D01*
X153797000Y-73102000D02*
X153797000Y-70478000D01*
X151257000Y-73102000D02*
X151257000Y-70478000D01*
X148717000Y-73118000D02*
X148717000Y-70478000D01*
X156377000Y-55948000D02*
X156377000Y-54748000D01*
X156377000Y-58348000D02*
X156377000Y-57148000D01*
X156377000Y-60748000D02*
X156377000Y-59548000D01*
X146137000Y-55948000D02*
X146137000Y-54748000D01*
X146137000Y-58348000D02*
X146137000Y-57148000D01*
X146137000Y-60748000D02*
X146137000Y-59548000D01*
X155737000Y-54588000D02*
X156377000Y-54588000D01*
X153337000Y-54588000D02*
X154537000Y-54588000D01*
X150937000Y-54588000D02*
X152137000Y-54588000D01*
X148536000Y-54588000D02*
X149737000Y-54588000D01*
X146137000Y-54588000D02*
X147337000Y-54588000D01*
X156377000Y-70478000D02*
X156377000Y-60988000D01*
X146137000Y-70478000D02*
X146137000Y-60988000D01*
X146137000Y-60988000D02*
X156377000Y-60988000D01*
X146137000Y-70478000D02*
X156377000Y-70478000D01*
X161885000Y-70414500D02*
X172125000Y-70414500D01*
X161885000Y-60924500D02*
X172125000Y-60924500D01*
X161885000Y-70414500D02*
X161885000Y-60924500D01*
X172125000Y-70414500D02*
X172125000Y-60924500D01*
X161885000Y-54524500D02*
X163085000Y-54524500D01*
X164284000Y-54524500D02*
X165485000Y-54524500D01*
X166685000Y-54524500D02*
X167885000Y-54524500D01*
X169085000Y-54524500D02*
X170285000Y-54524500D01*
X171485000Y-54524500D02*
X172125000Y-54524500D01*
X161885000Y-60684500D02*
X161885000Y-59484500D01*
X161885000Y-58284500D02*
X161885000Y-57084500D01*
X161885000Y-55884500D02*
X161885000Y-54684500D01*
X172125000Y-60684500D02*
X172125000Y-59484500D01*
X172125000Y-58284500D02*
X172125000Y-57084500D01*
X172125000Y-55884500D02*
X172125000Y-54684500D01*
X164465000Y-73054500D02*
X164465000Y-70414500D01*
X167005000Y-73038500D02*
X167005000Y-70414500D01*
X169545000Y-73038500D02*
X169545000Y-70414500D01*
X185420000Y-73102000D02*
X185420000Y-70478000D01*
X182880000Y-73102000D02*
X182880000Y-70478000D01*
X180340000Y-73118000D02*
X180340000Y-70478000D01*
X188000000Y-55948000D02*
X188000000Y-54748000D01*
X188000000Y-58348000D02*
X188000000Y-57148000D01*
X188000000Y-60748000D02*
X188000000Y-59548000D01*
X177760000Y-55948000D02*
X177760000Y-54748000D01*
X177760000Y-58348000D02*
X177760000Y-57148000D01*
X177760000Y-60748000D02*
X177760000Y-59548000D01*
X187360000Y-54588000D02*
X188000000Y-54588000D01*
X184960000Y-54588000D02*
X186160000Y-54588000D01*
X182560000Y-54588000D02*
X183760000Y-54588000D01*
X180159000Y-54588000D02*
X181360000Y-54588000D01*
X177760000Y-54588000D02*
X178960000Y-54588000D01*
X188000000Y-70478000D02*
X188000000Y-60988000D01*
X177760000Y-70478000D02*
X177760000Y-60988000D01*
X177760000Y-60988000D02*
X188000000Y-60988000D01*
X177760000Y-70478000D02*
X188000000Y-70478000D01*
X102999000Y-78378233D02*
X102999000Y-78720767D01*
X101979000Y-78378233D02*
X101979000Y-78720767D01*
X118239000Y-78554733D02*
X118239000Y-78897267D01*
X117219000Y-78554733D02*
X117219000Y-78897267D01*
X133940733Y-77535500D02*
X134283267Y-77535500D01*
X133940733Y-76515500D02*
X134283267Y-76515500D01*
X151516233Y-79631000D02*
X151858767Y-79631000D01*
X151516233Y-78611000D02*
X151858767Y-78611000D01*
X162494500Y-80283233D02*
X162494500Y-80625767D01*
X163514500Y-80283233D02*
X163514500Y-80625767D01*
X193296000Y-72839733D02*
X193296000Y-73182267D01*
X192276000Y-72839733D02*
X192276000Y-73182267D01*
X127386936Y-73681000D02*
X128591064Y-73681000D01*
X127386936Y-71861000D02*
X128591064Y-71861000D01*
X158492436Y-71861000D02*
X159696564Y-71861000D01*
X158492436Y-73681000D02*
X159696564Y-73681000D01*
D11*
X140240000Y-89824000D02*
X139240000Y-89824000D01*
X139240000Y-89824000D02*
X139240000Y-89124000D01*
X139240000Y-89124000D02*
X140240000Y-89124000D01*
X140240000Y-91024000D02*
X139240000Y-91024000D01*
X139240000Y-91024000D02*
X139240000Y-91724000D01*
X139240000Y-91724000D02*
X140240000Y-91724000D01*
X139240000Y-90774000D02*
X140240000Y-90774000D01*
X139240000Y-90074000D02*
X139240000Y-90774000D01*
X140240000Y-90074000D02*
X139240000Y-90074000D01*
X142740000Y-90074000D02*
X141740000Y-90074000D01*
X142740000Y-90774000D02*
X142740000Y-90074000D01*
X141740000Y-90774000D02*
X142740000Y-90774000D01*
X142740000Y-91724000D02*
X142740000Y-91024000D01*
X142740000Y-91024000D02*
X141740000Y-91024000D01*
X141740000Y-91724000D02*
X142740000Y-91724000D01*
X142740000Y-89124000D02*
X142740000Y-89824000D01*
X142740000Y-89824000D02*
X141740000Y-89824000D01*
X141740000Y-89124000D02*
X142740000Y-89124000D01*
X141740000Y-88924000D02*
X140240000Y-88924000D01*
X140240000Y-88924000D02*
X140240000Y-91924000D01*
X140240000Y-91924000D02*
X141240000Y-91924000D01*
X141240000Y-91924000D02*
X141740000Y-91924000D01*
X141740000Y-91924000D02*
X141740000Y-88924000D01*
D10*
X159383000Y-77884233D02*
X159383000Y-78226767D01*
X160403000Y-77884233D02*
X160403000Y-78226767D01*
X127887000Y-78455733D02*
X127887000Y-78798267D01*
X128907000Y-78455733D02*
X128907000Y-78798267D01*
D11*
X128277857Y-76874642D02*
X128325476Y-76922261D01*
X128468333Y-76969880D01*
X128563571Y-76969880D01*
X128706428Y-76922261D01*
X128801666Y-76827023D01*
X128849285Y-76731785D01*
X128896904Y-76541309D01*
X128896904Y-76398452D01*
X128849285Y-76207976D01*
X128801666Y-76112738D01*
X128706428Y-76017500D01*
X128563571Y-75969880D01*
X128468333Y-75969880D01*
X128325476Y-76017500D01*
X128277857Y-76065119D01*
X127896904Y-76065119D02*
X127849285Y-76017500D01*
X127754047Y-75969880D01*
X127515952Y-75969880D01*
X127420714Y-76017500D01*
X127373095Y-76065119D01*
X127325476Y-76160357D01*
X127325476Y-76255595D01*
X127373095Y-76398452D01*
X127944523Y-76969880D01*
X127325476Y-76969880D01*
X126754047Y-76398452D02*
X126849285Y-76350833D01*
X126896904Y-76303214D01*
X126944523Y-76207976D01*
X126944523Y-76160357D01*
X126896904Y-76065119D01*
X126849285Y-76017500D01*
X126754047Y-75969880D01*
X126563571Y-75969880D01*
X126468333Y-76017500D01*
X126420714Y-76065119D01*
X126373095Y-76160357D01*
X126373095Y-76207976D01*
X126420714Y-76303214D01*
X126468333Y-76350833D01*
X126563571Y-76398452D01*
X126754047Y-76398452D01*
X126849285Y-76446071D01*
X126896904Y-76493690D01*
X126944523Y-76588928D01*
X126944523Y-76779404D01*
X126896904Y-76874642D01*
X126849285Y-76922261D01*
X126754047Y-76969880D01*
X126563571Y-76969880D01*
X126468333Y-76922261D01*
X126420714Y-76874642D01*
X126373095Y-76779404D01*
X126373095Y-76588928D01*
X126420714Y-76493690D01*
X126468333Y-76446071D01*
X126563571Y-76398452D01*
X159660857Y-77098142D02*
X159708476Y-77145761D01*
X159851333Y-77193380D01*
X159946571Y-77193380D01*
X160089428Y-77145761D01*
X160184666Y-77050523D01*
X160232285Y-76955285D01*
X160279904Y-76764809D01*
X160279904Y-76621952D01*
X160232285Y-76431476D01*
X160184666Y-76336238D01*
X160089428Y-76241000D01*
X159946571Y-76193380D01*
X159851333Y-76193380D01*
X159708476Y-76241000D01*
X159660857Y-76288619D01*
X159279904Y-76288619D02*
X159232285Y-76241000D01*
X159137047Y-76193380D01*
X158898952Y-76193380D01*
X158803714Y-76241000D01*
X158756095Y-76288619D01*
X158708476Y-76383857D01*
X158708476Y-76479095D01*
X158756095Y-76621952D01*
X159327523Y-77193380D01*
X158708476Y-77193380D01*
X158232285Y-77193380D02*
X158041809Y-77193380D01*
X157946571Y-77145761D01*
X157898952Y-77098142D01*
X157803714Y-76955285D01*
X157756095Y-76764809D01*
X157756095Y-76383857D01*
X157803714Y-76288619D01*
X157851333Y-76241000D01*
X157946571Y-76193380D01*
X158137047Y-76193380D01*
X158232285Y-76241000D01*
X158279904Y-76288619D01*
X158327523Y-76383857D01*
X158327523Y-76621952D01*
X158279904Y-76717190D01*
X158232285Y-76764809D01*
X158137047Y-76812428D01*
X157946571Y-76812428D01*
X157851333Y-76764809D01*
X157803714Y-76717190D01*
X157756095Y-76621952D01*
X106845595Y-80112880D02*
X106845595Y-79112880D01*
X106607500Y-79112880D01*
X106464642Y-79160500D01*
X106369404Y-79255738D01*
X106321785Y-79350976D01*
X106274166Y-79541452D01*
X106274166Y-79684309D01*
X106321785Y-79874785D01*
X106369404Y-79970023D01*
X106464642Y-80065261D01*
X106607500Y-80112880D01*
X106845595Y-80112880D01*
X105940833Y-79112880D02*
X105274166Y-79112880D01*
X105702738Y-80112880D01*
X122150095Y-80271880D02*
X122150095Y-79271880D01*
X121912000Y-79271880D01*
X121769142Y-79319500D01*
X121673904Y-79414738D01*
X121626285Y-79509976D01*
X121578666Y-79700452D01*
X121578666Y-79843309D01*
X121626285Y-80033785D01*
X121673904Y-80129023D01*
X121769142Y-80224261D01*
X121912000Y-80271880D01*
X122150095Y-80271880D01*
X121007238Y-79700452D02*
X121102476Y-79652833D01*
X121150095Y-79605214D01*
X121197714Y-79509976D01*
X121197714Y-79462357D01*
X121150095Y-79367119D01*
X121102476Y-79319500D01*
X121007238Y-79271880D01*
X120816761Y-79271880D01*
X120721523Y-79319500D01*
X120673904Y-79367119D01*
X120626285Y-79462357D01*
X120626285Y-79509976D01*
X120673904Y-79605214D01*
X120721523Y-79652833D01*
X120816761Y-79700452D01*
X121007238Y-79700452D01*
X121102476Y-79748071D01*
X121150095Y-79795690D01*
X121197714Y-79890928D01*
X121197714Y-80081404D01*
X121150095Y-80176642D01*
X121102476Y-80224261D01*
X121007238Y-80271880D01*
X120816761Y-80271880D01*
X120721523Y-80224261D01*
X120673904Y-80176642D01*
X120626285Y-80081404D01*
X120626285Y-79890928D01*
X120673904Y-79795690D01*
X120721523Y-79748071D01*
X120816761Y-79700452D01*
X139295095Y-79573380D02*
X139295095Y-78573380D01*
X139057000Y-78573380D01*
X138914142Y-78621000D01*
X138818904Y-78716238D01*
X138771285Y-78811476D01*
X138723666Y-79001952D01*
X138723666Y-79144809D01*
X138771285Y-79335285D01*
X138818904Y-79430523D01*
X138914142Y-79525761D01*
X139057000Y-79573380D01*
X139295095Y-79573380D01*
X138247476Y-79573380D02*
X138057000Y-79573380D01*
X137961761Y-79525761D01*
X137914142Y-79478142D01*
X137818904Y-79335285D01*
X137771285Y-79144809D01*
X137771285Y-78763857D01*
X137818904Y-78668619D01*
X137866523Y-78621000D01*
X137961761Y-78573380D01*
X138152238Y-78573380D01*
X138247476Y-78621000D01*
X138295095Y-78668619D01*
X138342714Y-78763857D01*
X138342714Y-79001952D01*
X138295095Y-79097190D01*
X138247476Y-79144809D01*
X138152238Y-79192428D01*
X137961761Y-79192428D01*
X137866523Y-79144809D01*
X137818904Y-79097190D01*
X137771285Y-79001952D01*
X153677785Y-79541380D02*
X153677785Y-78541380D01*
X153439690Y-78541380D01*
X153296833Y-78589000D01*
X153201595Y-78684238D01*
X153153976Y-78779476D01*
X153106357Y-78969952D01*
X153106357Y-79112809D01*
X153153976Y-79303285D01*
X153201595Y-79398523D01*
X153296833Y-79493761D01*
X153439690Y-79541380D01*
X153677785Y-79541380D01*
X152153976Y-79541380D02*
X152725404Y-79541380D01*
X152439690Y-79541380D02*
X152439690Y-78541380D01*
X152534928Y-78684238D01*
X152630166Y-78779476D01*
X152725404Y-78827095D01*
X151534928Y-78541380D02*
X151439690Y-78541380D01*
X151344452Y-78589000D01*
X151296833Y-78636619D01*
X151249214Y-78731857D01*
X151201595Y-78922333D01*
X151201595Y-79160428D01*
X151249214Y-79350904D01*
X151296833Y-79446142D01*
X151344452Y-79493761D01*
X151439690Y-79541380D01*
X151534928Y-79541380D01*
X151630166Y-79493761D01*
X151677785Y-79446142D01*
X151725404Y-79350904D01*
X151773023Y-79160428D01*
X151773023Y-78922333D01*
X151725404Y-78731857D01*
X151677785Y-78636619D01*
X151630166Y-78589000D01*
X151534928Y-78541380D01*
X167329285Y-79604880D02*
X167329285Y-78604880D01*
X167091190Y-78604880D01*
X166948333Y-78652500D01*
X166853095Y-78747738D01*
X166805476Y-78842976D01*
X166757857Y-79033452D01*
X166757857Y-79176309D01*
X166805476Y-79366785D01*
X166853095Y-79462023D01*
X166948333Y-79557261D01*
X167091190Y-79604880D01*
X167329285Y-79604880D01*
X165805476Y-79604880D02*
X166376904Y-79604880D01*
X166091190Y-79604880D02*
X166091190Y-78604880D01*
X166186428Y-78747738D01*
X166281666Y-78842976D01*
X166376904Y-78890595D01*
X164853095Y-79604880D02*
X165424523Y-79604880D01*
X165138809Y-79604880D02*
X165138809Y-78604880D01*
X165234047Y-78747738D01*
X165329285Y-78842976D01*
X165424523Y-78890595D01*
X191079380Y-68762714D02*
X190079380Y-68762714D01*
X190079380Y-69000809D01*
X190127000Y-69143666D01*
X190222238Y-69238904D01*
X190317476Y-69286523D01*
X190507952Y-69334142D01*
X190650809Y-69334142D01*
X190841285Y-69286523D01*
X190936523Y-69238904D01*
X191031761Y-69143666D01*
X191079380Y-69000809D01*
X191079380Y-68762714D01*
X191079380Y-70286523D02*
X191079380Y-69715095D01*
X191079380Y-70000809D02*
X190079380Y-70000809D01*
X190222238Y-69905571D01*
X190317476Y-69810333D01*
X190365095Y-69715095D01*
X190174619Y-70667476D02*
X190127000Y-70715095D01*
X190079380Y-70810333D01*
X190079380Y-71048428D01*
X190127000Y-71143666D01*
X190174619Y-71191285D01*
X190269857Y-71238904D01*
X190365095Y-71238904D01*
X190507952Y-71191285D01*
X191079380Y-70619857D01*
X191079380Y-71238904D01*
X105124238Y-54135619D02*
X105219476Y-54088000D01*
X105314714Y-53992761D01*
X105457571Y-53849904D01*
X105552809Y-53802285D01*
X105648047Y-53802285D01*
X105600428Y-54040380D02*
X105695666Y-53992761D01*
X105790904Y-53897523D01*
X105838523Y-53707047D01*
X105838523Y-53373714D01*
X105790904Y-53183238D01*
X105695666Y-53088000D01*
X105600428Y-53040380D01*
X105409952Y-53040380D01*
X105314714Y-53088000D01*
X105219476Y-53183238D01*
X105171857Y-53373714D01*
X105171857Y-53707047D01*
X105219476Y-53897523D01*
X105314714Y-53992761D01*
X105409952Y-54040380D01*
X105600428Y-54040380D01*
X104314714Y-53373714D02*
X104314714Y-54040380D01*
X104552809Y-52992761D02*
X104790904Y-53707047D01*
X104171857Y-53707047D01*
X120300738Y-54135619D02*
X120395976Y-54088000D01*
X120491214Y-53992761D01*
X120634071Y-53849904D01*
X120729309Y-53802285D01*
X120824547Y-53802285D01*
X120776928Y-54040380D02*
X120872166Y-53992761D01*
X120967404Y-53897523D01*
X121015023Y-53707047D01*
X121015023Y-53373714D01*
X120967404Y-53183238D01*
X120872166Y-53088000D01*
X120776928Y-53040380D01*
X120586452Y-53040380D01*
X120491214Y-53088000D01*
X120395976Y-53183238D01*
X120348357Y-53373714D01*
X120348357Y-53707047D01*
X120395976Y-53897523D01*
X120491214Y-53992761D01*
X120586452Y-54040380D01*
X120776928Y-54040380D01*
X119443595Y-53040380D02*
X119919785Y-53040380D01*
X119967404Y-53516571D01*
X119919785Y-53468952D01*
X119824547Y-53421333D01*
X119586452Y-53421333D01*
X119491214Y-53468952D01*
X119443595Y-53516571D01*
X119395976Y-53611809D01*
X119395976Y-53849904D01*
X119443595Y-53945142D01*
X119491214Y-53992761D01*
X119586452Y-54040380D01*
X119824547Y-54040380D01*
X119919785Y-53992761D01*
X119967404Y-53945142D01*
X135858238Y-54135619D02*
X135953476Y-54088000D01*
X136048714Y-53992761D01*
X136191571Y-53849904D01*
X136286809Y-53802285D01*
X136382047Y-53802285D01*
X136334428Y-54040380D02*
X136429666Y-53992761D01*
X136524904Y-53897523D01*
X136572523Y-53707047D01*
X136572523Y-53373714D01*
X136524904Y-53183238D01*
X136429666Y-53088000D01*
X136334428Y-53040380D01*
X136143952Y-53040380D01*
X136048714Y-53088000D01*
X135953476Y-53183238D01*
X135905857Y-53373714D01*
X135905857Y-53707047D01*
X135953476Y-53897523D01*
X136048714Y-53992761D01*
X136143952Y-54040380D01*
X136334428Y-54040380D01*
X135048714Y-53040380D02*
X135239190Y-53040380D01*
X135334428Y-53088000D01*
X135382047Y-53135619D01*
X135477285Y-53278476D01*
X135524904Y-53468952D01*
X135524904Y-53849904D01*
X135477285Y-53945142D01*
X135429666Y-53992761D01*
X135334428Y-54040380D01*
X135143952Y-54040380D01*
X135048714Y-53992761D01*
X135001095Y-53945142D01*
X134953476Y-53849904D01*
X134953476Y-53611809D01*
X135001095Y-53516571D01*
X135048714Y-53468952D01*
X135143952Y-53421333D01*
X135334428Y-53421333D01*
X135429666Y-53468952D01*
X135477285Y-53516571D01*
X135524904Y-53611809D01*
X151352238Y-54135619D02*
X151447476Y-54088000D01*
X151542714Y-53992761D01*
X151685571Y-53849904D01*
X151780809Y-53802285D01*
X151876047Y-53802285D01*
X151828428Y-54040380D02*
X151923666Y-53992761D01*
X152018904Y-53897523D01*
X152066523Y-53707047D01*
X152066523Y-53373714D01*
X152018904Y-53183238D01*
X151923666Y-53088000D01*
X151828428Y-53040380D01*
X151637952Y-53040380D01*
X151542714Y-53088000D01*
X151447476Y-53183238D01*
X151399857Y-53373714D01*
X151399857Y-53707047D01*
X151447476Y-53897523D01*
X151542714Y-53992761D01*
X151637952Y-54040380D01*
X151828428Y-54040380D01*
X151066523Y-53040380D02*
X150399857Y-53040380D01*
X150828428Y-54040380D01*
X167100238Y-54072119D02*
X167195476Y-54024500D01*
X167290714Y-53929261D01*
X167433571Y-53786404D01*
X167528809Y-53738785D01*
X167624047Y-53738785D01*
X167576428Y-53976880D02*
X167671666Y-53929261D01*
X167766904Y-53834023D01*
X167814523Y-53643547D01*
X167814523Y-53310214D01*
X167766904Y-53119738D01*
X167671666Y-53024500D01*
X167576428Y-52976880D01*
X167385952Y-52976880D01*
X167290714Y-53024500D01*
X167195476Y-53119738D01*
X167147857Y-53310214D01*
X167147857Y-53643547D01*
X167195476Y-53834023D01*
X167290714Y-53929261D01*
X167385952Y-53976880D01*
X167576428Y-53976880D01*
X166576428Y-53405452D02*
X166671666Y-53357833D01*
X166719285Y-53310214D01*
X166766904Y-53214976D01*
X166766904Y-53167357D01*
X166719285Y-53072119D01*
X166671666Y-53024500D01*
X166576428Y-52976880D01*
X166385952Y-52976880D01*
X166290714Y-53024500D01*
X166243095Y-53072119D01*
X166195476Y-53167357D01*
X166195476Y-53214976D01*
X166243095Y-53310214D01*
X166290714Y-53357833D01*
X166385952Y-53405452D01*
X166576428Y-53405452D01*
X166671666Y-53453071D01*
X166719285Y-53500690D01*
X166766904Y-53595928D01*
X166766904Y-53786404D01*
X166719285Y-53881642D01*
X166671666Y-53929261D01*
X166576428Y-53976880D01*
X166385952Y-53976880D01*
X166290714Y-53929261D01*
X166243095Y-53881642D01*
X166195476Y-53786404D01*
X166195476Y-53595928D01*
X166243095Y-53500690D01*
X166290714Y-53453071D01*
X166385952Y-53405452D01*
X182975238Y-54135619D02*
X183070476Y-54088000D01*
X183165714Y-53992761D01*
X183308571Y-53849904D01*
X183403809Y-53802285D01*
X183499047Y-53802285D01*
X183451428Y-54040380D02*
X183546666Y-53992761D01*
X183641904Y-53897523D01*
X183689523Y-53707047D01*
X183689523Y-53373714D01*
X183641904Y-53183238D01*
X183546666Y-53088000D01*
X183451428Y-53040380D01*
X183260952Y-53040380D01*
X183165714Y-53088000D01*
X183070476Y-53183238D01*
X183022857Y-53373714D01*
X183022857Y-53707047D01*
X183070476Y-53897523D01*
X183165714Y-53992761D01*
X183260952Y-54040380D01*
X183451428Y-54040380D01*
X182546666Y-54040380D02*
X182356190Y-54040380D01*
X182260952Y-53992761D01*
X182213333Y-53945142D01*
X182118095Y-53802285D01*
X182070476Y-53611809D01*
X182070476Y-53230857D01*
X182118095Y-53135619D01*
X182165714Y-53088000D01*
X182260952Y-53040380D01*
X182451428Y-53040380D01*
X182546666Y-53088000D01*
X182594285Y-53135619D01*
X182641904Y-53230857D01*
X182641904Y-53468952D01*
X182594285Y-53564190D01*
X182546666Y-53611809D01*
X182451428Y-53659428D01*
X182260952Y-53659428D01*
X182165714Y-53611809D01*
X182118095Y-53564190D01*
X182070476Y-53468952D01*
X101511380Y-77906642D02*
X101035190Y-77573309D01*
X101511380Y-77335214D02*
X100511380Y-77335214D01*
X100511380Y-77716166D01*
X100559000Y-77811404D01*
X100606619Y-77859023D01*
X100701857Y-77906642D01*
X100844714Y-77906642D01*
X100939952Y-77859023D01*
X100987571Y-77811404D01*
X101035190Y-77716166D01*
X101035190Y-77335214D01*
X100606619Y-78287595D02*
X100559000Y-78335214D01*
X100511380Y-78430452D01*
X100511380Y-78668547D01*
X100559000Y-78763785D01*
X100606619Y-78811404D01*
X100701857Y-78859023D01*
X100797095Y-78859023D01*
X100939952Y-78811404D01*
X101511380Y-78239976D01*
X101511380Y-78859023D01*
X100606619Y-79239976D02*
X100559000Y-79287595D01*
X100511380Y-79382833D01*
X100511380Y-79620928D01*
X100559000Y-79716166D01*
X100606619Y-79763785D01*
X100701857Y-79811404D01*
X100797095Y-79811404D01*
X100939952Y-79763785D01*
X101511380Y-79192357D01*
X101511380Y-79811404D01*
X116751380Y-78083142D02*
X116275190Y-77749809D01*
X116751380Y-77511714D02*
X115751380Y-77511714D01*
X115751380Y-77892666D01*
X115799000Y-77987904D01*
X115846619Y-78035523D01*
X115941857Y-78083142D01*
X116084714Y-78083142D01*
X116179952Y-78035523D01*
X116227571Y-77987904D01*
X116275190Y-77892666D01*
X116275190Y-77511714D01*
X115846619Y-78464095D02*
X115799000Y-78511714D01*
X115751380Y-78606952D01*
X115751380Y-78845047D01*
X115799000Y-78940285D01*
X115846619Y-78987904D01*
X115941857Y-79035523D01*
X116037095Y-79035523D01*
X116179952Y-78987904D01*
X116751380Y-78416476D01*
X116751380Y-79035523D01*
X115751380Y-79368857D02*
X115751380Y-79987904D01*
X116132333Y-79654571D01*
X116132333Y-79797428D01*
X116179952Y-79892666D01*
X116227571Y-79940285D01*
X116322809Y-79987904D01*
X116560904Y-79987904D01*
X116656142Y-79940285D01*
X116703761Y-79892666D01*
X116751380Y-79797428D01*
X116751380Y-79511714D01*
X116703761Y-79416476D01*
X116656142Y-79368857D01*
X134754857Y-78938380D02*
X135088190Y-78462190D01*
X135326285Y-78938380D02*
X135326285Y-77938380D01*
X134945333Y-77938380D01*
X134850095Y-77986000D01*
X134802476Y-78033619D01*
X134754857Y-78128857D01*
X134754857Y-78271714D01*
X134802476Y-78366952D01*
X134850095Y-78414571D01*
X134945333Y-78462190D01*
X135326285Y-78462190D01*
X134373904Y-78033619D02*
X134326285Y-77986000D01*
X134231047Y-77938380D01*
X133992952Y-77938380D01*
X133897714Y-77986000D01*
X133850095Y-78033619D01*
X133802476Y-78128857D01*
X133802476Y-78224095D01*
X133850095Y-78366952D01*
X134421523Y-78938380D01*
X133802476Y-78938380D01*
X132945333Y-78271714D02*
X132945333Y-78938380D01*
X133183428Y-77890761D02*
X133421523Y-78605047D01*
X132802476Y-78605047D01*
X152330357Y-81003380D02*
X152663690Y-80527190D01*
X152901785Y-81003380D02*
X152901785Y-80003380D01*
X152520833Y-80003380D01*
X152425595Y-80051000D01*
X152377976Y-80098619D01*
X152330357Y-80193857D01*
X152330357Y-80336714D01*
X152377976Y-80431952D01*
X152425595Y-80479571D01*
X152520833Y-80527190D01*
X152901785Y-80527190D01*
X151949404Y-80098619D02*
X151901785Y-80051000D01*
X151806547Y-80003380D01*
X151568452Y-80003380D01*
X151473214Y-80051000D01*
X151425595Y-80098619D01*
X151377976Y-80193857D01*
X151377976Y-80289095D01*
X151425595Y-80431952D01*
X151997023Y-81003380D01*
X151377976Y-81003380D01*
X150473214Y-80003380D02*
X150949404Y-80003380D01*
X150997023Y-80479571D01*
X150949404Y-80431952D01*
X150854166Y-80384333D01*
X150616071Y-80384333D01*
X150520833Y-80431952D01*
X150473214Y-80479571D01*
X150425595Y-80574809D01*
X150425595Y-80812904D01*
X150473214Y-80908142D01*
X150520833Y-80955761D01*
X150616071Y-81003380D01*
X150854166Y-81003380D01*
X150949404Y-80955761D01*
X150997023Y-80908142D01*
X164980880Y-79684642D02*
X164504690Y-79351309D01*
X164980880Y-79113214D02*
X163980880Y-79113214D01*
X163980880Y-79494166D01*
X164028500Y-79589404D01*
X164076119Y-79637023D01*
X164171357Y-79684642D01*
X164314214Y-79684642D01*
X164409452Y-79637023D01*
X164457071Y-79589404D01*
X164504690Y-79494166D01*
X164504690Y-79113214D01*
X164076119Y-80065595D02*
X164028500Y-80113214D01*
X163980880Y-80208452D01*
X163980880Y-80446547D01*
X164028500Y-80541785D01*
X164076119Y-80589404D01*
X164171357Y-80637023D01*
X164266595Y-80637023D01*
X164409452Y-80589404D01*
X164980880Y-80017976D01*
X164980880Y-80637023D01*
X163980880Y-81494166D02*
X163980880Y-81303690D01*
X164028500Y-81208452D01*
X164076119Y-81160833D01*
X164218976Y-81065595D01*
X164409452Y-81017976D01*
X164790404Y-81017976D01*
X164885642Y-81065595D01*
X164933261Y-81113214D01*
X164980880Y-81208452D01*
X164980880Y-81398928D01*
X164933261Y-81494166D01*
X164885642Y-81541785D01*
X164790404Y-81589404D01*
X164552309Y-81589404D01*
X164457071Y-81541785D01*
X164409452Y-81494166D01*
X164361833Y-81398928D01*
X164361833Y-81208452D01*
X164409452Y-81113214D01*
X164457071Y-81065595D01*
X164552309Y-81017976D01*
X193238380Y-69207142D02*
X192762190Y-68873809D01*
X193238380Y-68635714D02*
X192238380Y-68635714D01*
X192238380Y-69016666D01*
X192286000Y-69111904D01*
X192333619Y-69159523D01*
X192428857Y-69207142D01*
X192571714Y-69207142D01*
X192666952Y-69159523D01*
X192714571Y-69111904D01*
X192762190Y-69016666D01*
X192762190Y-68635714D01*
X192333619Y-69588095D02*
X192286000Y-69635714D01*
X192238380Y-69730952D01*
X192238380Y-69969047D01*
X192286000Y-70064285D01*
X192333619Y-70111904D01*
X192428857Y-70159523D01*
X192524095Y-70159523D01*
X192666952Y-70111904D01*
X193238380Y-69540476D01*
X193238380Y-70159523D01*
X192238380Y-70492857D02*
X192238380Y-71159523D01*
X193238380Y-70730952D01*
X128785857Y-71254880D02*
X129119190Y-70778690D01*
X129357285Y-71254880D02*
X129357285Y-70254880D01*
X128976333Y-70254880D01*
X128881095Y-70302500D01*
X128833476Y-70350119D01*
X128785857Y-70445357D01*
X128785857Y-70588214D01*
X128833476Y-70683452D01*
X128881095Y-70731071D01*
X128976333Y-70778690D01*
X129357285Y-70778690D01*
X128404904Y-70350119D02*
X128357285Y-70302500D01*
X128262047Y-70254880D01*
X128023952Y-70254880D01*
X127928714Y-70302500D01*
X127881095Y-70350119D01*
X127833476Y-70445357D01*
X127833476Y-70540595D01*
X127881095Y-70683452D01*
X128452523Y-71254880D01*
X127833476Y-71254880D01*
X127262047Y-70683452D02*
X127357285Y-70635833D01*
X127404904Y-70588214D01*
X127452523Y-70492976D01*
X127452523Y-70445357D01*
X127404904Y-70350119D01*
X127357285Y-70302500D01*
X127262047Y-70254880D01*
X127071571Y-70254880D01*
X126976333Y-70302500D01*
X126928714Y-70350119D01*
X126881095Y-70445357D01*
X126881095Y-70492976D01*
X126928714Y-70588214D01*
X126976333Y-70635833D01*
X127071571Y-70683452D01*
X127262047Y-70683452D01*
X127357285Y-70731071D01*
X127404904Y-70778690D01*
X127452523Y-70873928D01*
X127452523Y-71064404D01*
X127404904Y-71159642D01*
X127357285Y-71207261D01*
X127262047Y-71254880D01*
X127071571Y-71254880D01*
X126976333Y-71207261D01*
X126928714Y-71159642D01*
X126881095Y-71064404D01*
X126881095Y-70873928D01*
X126928714Y-70778690D01*
X126976333Y-70731071D01*
X127071571Y-70683452D01*
X159837357Y-71191380D02*
X160170690Y-70715190D01*
X160408785Y-71191380D02*
X160408785Y-70191380D01*
X160027833Y-70191380D01*
X159932595Y-70239000D01*
X159884976Y-70286619D01*
X159837357Y-70381857D01*
X159837357Y-70524714D01*
X159884976Y-70619952D01*
X159932595Y-70667571D01*
X160027833Y-70715190D01*
X160408785Y-70715190D01*
X159456404Y-70286619D02*
X159408785Y-70239000D01*
X159313547Y-70191380D01*
X159075452Y-70191380D01*
X158980214Y-70239000D01*
X158932595Y-70286619D01*
X158884976Y-70381857D01*
X158884976Y-70477095D01*
X158932595Y-70619952D01*
X159504023Y-71191380D01*
X158884976Y-71191380D01*
X158408785Y-71191380D02*
X158218309Y-71191380D01*
X158123071Y-71143761D01*
X158075452Y-71096142D01*
X157980214Y-70953285D01*
X157932595Y-70762809D01*
X157932595Y-70381857D01*
X157980214Y-70286619D01*
X158027833Y-70239000D01*
X158123071Y-70191380D01*
X158313547Y-70191380D01*
X158408785Y-70239000D01*
X158456404Y-70286619D01*
X158504023Y-70381857D01*
X158504023Y-70619952D01*
X158456404Y-70715190D01*
X158408785Y-70762809D01*
X158313547Y-70810428D01*
X158123071Y-70810428D01*
X158027833Y-70762809D01*
X157980214Y-70715190D01*
X157932595Y-70619952D01*
X141509904Y-87717380D02*
X141509904Y-88526904D01*
X141462285Y-88622142D01*
X141414666Y-88669761D01*
X141319428Y-88717380D01*
X141128952Y-88717380D01*
X141033714Y-88669761D01*
X140986095Y-88622142D01*
X140938476Y-88526904D01*
X140938476Y-87717380D01*
X140509904Y-87812619D02*
X140462285Y-87765000D01*
X140367047Y-87717380D01*
X140128952Y-87717380D01*
X140033714Y-87765000D01*
X139986095Y-87812619D01*
X139938476Y-87907857D01*
X139938476Y-88003095D01*
X139986095Y-88145952D01*
X140557523Y-88717380D01*
X139938476Y-88717380D01*
X158915380Y-77412642D02*
X158439190Y-77079309D01*
X158915380Y-76841214D02*
X157915380Y-76841214D01*
X157915380Y-77222166D01*
X157963000Y-77317404D01*
X158010619Y-77365023D01*
X158105857Y-77412642D01*
X158248714Y-77412642D01*
X158343952Y-77365023D01*
X158391571Y-77317404D01*
X158439190Y-77222166D01*
X158439190Y-76841214D01*
X158010619Y-77793595D02*
X157963000Y-77841214D01*
X157915380Y-77936452D01*
X157915380Y-78174547D01*
X157963000Y-78269785D01*
X158010619Y-78317404D01*
X158105857Y-78365023D01*
X158201095Y-78365023D01*
X158343952Y-78317404D01*
X158915380Y-77745976D01*
X158915380Y-78365023D01*
X158915380Y-79317404D02*
X158915380Y-78745976D01*
X158915380Y-79031690D02*
X157915380Y-79031690D01*
X158058238Y-78936452D01*
X158153476Y-78841214D01*
X158201095Y-78745976D01*
X127419380Y-77984142D02*
X126943190Y-77650809D01*
X127419380Y-77412714D02*
X126419380Y-77412714D01*
X126419380Y-77793666D01*
X126467000Y-77888904D01*
X126514619Y-77936523D01*
X126609857Y-77984142D01*
X126752714Y-77984142D01*
X126847952Y-77936523D01*
X126895571Y-77888904D01*
X126943190Y-77793666D01*
X126943190Y-77412714D01*
X127419380Y-78936523D02*
X127419380Y-78365095D01*
X127419380Y-78650809D02*
X126419380Y-78650809D01*
X126562238Y-78555571D01*
X126657476Y-78460333D01*
X126705095Y-78365095D01*
X126419380Y-79269857D02*
X126419380Y-79936523D01*
X127419380Y-79507952D01*
M02*
