M48
; DRILL file {KiCad (5.1.2)-1} date 10/20/2019 3:18:25 PM
; FORMAT={-:-/ absolute / inch / decimal}
; #@! TF.CreationDate,2019-10-20T15:18:25-05:00
; #@! TF.GenerationSoftware,Kicad,Pcbnew,(5.1.2)-1
; #@! TF.FileFunction,Plated,1,4,PTH
FMAT,2
INCH
T1C0.0118
T2C0.0157
T3C0.0315
T4C0.0354
T5C0.0394
T6C0.0472
T7C0.1598
%
G90
G05
T1
X5.755Y-3.055
X3.65Y-4.66
X6.345Y-3.055
X6.81Y-3.055
X5.145Y-3.065
X3.905Y-3.265
X4.375Y-3.065
X6.31Y-3.17
X4.515Y-3.065
X5.635Y-3.055
X7.02Y-3.055
T2
X3.375Y-3.2925
X3.3875Y-2.5975
X3.45Y-3.2925
X3.4625Y-2.5975
X3.5325Y-3.29
X3.54Y-2.5975
X3.9625Y-4.835
X4.2Y-2.505
X4.22Y-3.635
X4.305Y-3.9
X4.3975Y-3.3225
X4.3975Y-3.4325
X4.3975Y-3.53
X4.4075Y-4.83
X4.5033Y-4.0542
X4.5137Y-3.2812
X4.515Y-3.585
X4.5825Y-3.3225
X4.585Y-3.4325
X4.585Y-3.535
X4.635Y-4.37
X4.635Y-4.4125
X4.635Y-4.4525
X4.635Y-4.4975
X4.635Y-4.54
X4.635Y-4.58
X4.6365Y-4.3265
X4.6475Y-3.99
X4.65Y-3.88
X4.6975Y-3.32
X4.6975Y-3.43
X4.7689Y-3.3811
X4.8208Y-3.83
X4.84Y-3.93
X4.8825Y-3.7275
X4.9075Y-4.6225
X4.9375Y-4.2
X4.9575Y-3.515
X4.9575Y-3.6
X4.9575Y-3.6875
X4.975Y-3.83
X4.98Y-3.88
X4.98Y-3.93
X4.98Y-4.2
X5.025Y-4.2
X5.05Y-3.98
X5.07Y-4.2
X5.08Y-4.655
X5.085Y-3.645
X5.09Y-3.865
X5.1077Y-4.1998
X5.1175Y-4.5875
X5.1625Y-3.8225
X5.17Y-3.645
X5.21Y-3.83
X5.28Y-3.585
X5.28Y-3.695
X5.33Y-3.8275
X5.35Y-4.11
X5.35Y-4.175
X5.35Y-4.53
X5.35Y-4.595
X5.4Y-4.11
X5.4Y-4.175
X5.4Y-4.53
X5.4Y-4.595
X5.405Y-2.5
X5.4075Y-4.83
X5.4125Y-3.87
X5.4125Y-3.92
X5.4125Y-3.975
X5.45Y-4.11
X5.45Y-4.175
X5.45Y-4.53
X5.45Y-4.595
X5.51Y-3.1225
X5.54Y-3.8125
X5.6Y-3.94
X5.695Y-4.575
X5.695Y-4.615
X5.698Y-4.537
X5.7Y-3.5825
X5.71Y-3.94
X5.71Y-4.085
X5.715Y-4.7575
X5.715Y-4.825
X5.7175Y-4.695
X5.75Y-4.6408
X5.775Y-3.825
X5.8Y-4.56
X5.8163Y-3.8687
X5.8475Y-4.7575
X5.8475Y-4.8225
X5.855Y-4.16
X5.855Y-4.4367
X5.87Y-4.54
X5.8812Y-3.8037
X5.935Y-4.37
X5.945Y-4.195
X5.9475Y-3.8725
X5.95Y-3.805
X5.9625Y-4.465
X5.9646Y-4.23
X5.975Y-4.27
X5.98Y-4.7575
X5.98Y-4.8225
X6.0Y-4.305
X6.0175Y-3.805
X6.03Y-4.6575
X6.56Y-2.5
X6.625Y-3.2567
X6.7075Y-5.1525
X6.7475Y-5.1675
X6.7625Y-3.9675
X6.7625Y-4.025
X6.83Y-3.54
X6.8325Y-3.425
X6.8825Y-3.7725
X6.905Y-4.415
X6.97Y-3.775
X7.05Y-3.7775
X7.105Y-3.11
X7.1175Y-3.67
X7.1175Y-3.7775
X7.12Y-3.435
X7.12Y-3.54
X7.2Y-4.345
X7.2525Y-3.2575
X7.26Y-3.435
X7.26Y-3.54
X7.2625Y-3.6675
X7.2925Y-4.345
X7.335Y-3.84
X7.335Y-3.9225
X7.335Y-4.0075
X7.3725Y-3.595
X7.375Y-3.3275
X7.3825Y-4.24
X7.3825Y-4.345
X7.545Y-3.11
X7.56Y-4.4
T3
X7.4666Y-3.925
X7.565Y-3.925
T4
X3.85Y-3.5
X3.85Y-3.6
X3.85Y-3.7
X3.85Y-3.8
X3.85Y-3.9
T5
X4.035Y-2.92
X4.135Y-2.92
X4.235Y-2.92
X5.245Y-2.92
X5.345Y-2.92
X5.445Y-2.92
X5.855Y-2.92
X5.955Y-2.92
X6.055Y-2.92
X4.9975Y-3.3
X4.9975Y-3.4
X4.9975Y-5.0
X4.9975Y-5.1
X5.0975Y-3.3
X5.0975Y-3.4
X5.0975Y-5.0
X5.0975Y-5.1
X5.1975Y-3.3
X5.1975Y-3.4
X5.1975Y-5.0
X5.1975Y-5.1
X5.2975Y-3.3
X5.2975Y-3.4
X5.2975Y-5.0
X5.2975Y-5.1
X5.3975Y-3.3
X5.3975Y-3.4
X5.3975Y-5.0
X5.3975Y-5.1
X5.4975Y-3.3
X5.4975Y-3.4
X5.4975Y-5.0
X5.4975Y-5.1
X5.5975Y-3.3
X5.5975Y-3.4
X5.5975Y-5.0
X5.5975Y-5.1
X5.6975Y-3.3
X5.6975Y-3.4
X5.6975Y-5.0
X5.6975Y-5.1
X5.7975Y-3.3
X5.7975Y-3.4
X5.7975Y-5.0
X5.7975Y-5.1
X5.8975Y-3.3
X5.8975Y-3.4
X5.8975Y-5.0
X5.8975Y-5.1
X4.6325Y-2.92
X4.7325Y-2.92
X4.8325Y-2.92
X7.1Y-2.92
X7.2Y-2.92
X7.3Y-2.92
X6.475Y-2.9175
X6.575Y-2.9175
X6.675Y-2.9175
T6
X5.0525Y-2.3581
X5.0525Y-2.555
X3.86Y-2.3106
X3.86Y-2.5075
X3.4781Y-2.99
X3.675Y-2.99
X6.255Y-2.3481
X6.255Y-2.545
T7
X4.44Y-2.871
X4.05Y-4.3
X4.36Y-4.3
X5.662Y-2.87
X6.883Y-2.871
T0
M30
