G04 #@! TF.GenerationSoftware,KiCad,Pcbnew,(5.1.2)-1*
G04 #@! TF.CreationDate,2019-10-20T14:10:17-05:00*
G04 #@! TF.ProjectId,MotorController_Hardware,4d6f746f-7243-46f6-9e74-726f6c6c6572,rev?*
G04 #@! TF.SameCoordinates,Original*
G04 #@! TF.FileFunction,Legend,Top*
G04 #@! TF.FilePolarity,Positive*
%FSLAX46Y46*%
G04 Gerber Fmt 4.6, Leading zero omitted, Abs format (unit mm)*
G04 Created by KiCad (PCBNEW (5.1.2)-1) date 2019-10-20 14:10:17*
%MOMM*%
%LPD*%
G04 APERTURE LIST*
%ADD10C,0.150000*%
%ADD11C,0.300000*%
%ADD12C,0.152400*%
%ADD13C,0.120000*%
G04 APERTURE END LIST*
D10*
X157334380Y-77426976D02*
X157334380Y-76680976D01*
X157583047Y-77213833D01*
X157831714Y-76680976D01*
X157831714Y-77426976D01*
X158577714Y-76716500D02*
X158506666Y-76680976D01*
X158400095Y-76680976D01*
X158293523Y-76716500D01*
X158222476Y-76787547D01*
X158186952Y-76858595D01*
X158151428Y-77000690D01*
X158151428Y-77107261D01*
X158186952Y-77249357D01*
X158222476Y-77320404D01*
X158293523Y-77391452D01*
X158400095Y-77426976D01*
X158471142Y-77426976D01*
X158577714Y-77391452D01*
X158613238Y-77355928D01*
X158613238Y-77107261D01*
X158471142Y-77107261D01*
X158932952Y-77426976D02*
X158932952Y-76680976D01*
X158932952Y-77036214D02*
X159359238Y-77036214D01*
X159359238Y-77426976D02*
X159359238Y-76680976D01*
X159536857Y-77498023D02*
X160105238Y-77498023D01*
X160709142Y-77355928D02*
X160673619Y-77391452D01*
X160567047Y-77426976D01*
X160496000Y-77426976D01*
X160389428Y-77391452D01*
X160318380Y-77320404D01*
X160282857Y-77249357D01*
X160247333Y-77107261D01*
X160247333Y-77000690D01*
X160282857Y-76858595D01*
X160318380Y-76787547D01*
X160389428Y-76716500D01*
X160496000Y-76680976D01*
X160567047Y-76680976D01*
X160673619Y-76716500D01*
X160709142Y-76752023D01*
X157813952Y-77949976D02*
X158240238Y-77949976D01*
X158027095Y-78695976D02*
X158027095Y-77949976D01*
X158488904Y-78305214D02*
X158737571Y-78305214D01*
X158844142Y-78695976D02*
X158488904Y-78695976D01*
X158488904Y-77949976D01*
X158844142Y-77949976D01*
X159128333Y-78660452D02*
X159234904Y-78695976D01*
X159412523Y-78695976D01*
X159483571Y-78660452D01*
X159519095Y-78624928D01*
X159554619Y-78553880D01*
X159554619Y-78482833D01*
X159519095Y-78411785D01*
X159483571Y-78376261D01*
X159412523Y-78340738D01*
X159270428Y-78305214D01*
X159199380Y-78269690D01*
X159163857Y-78234166D01*
X159128333Y-78163119D01*
X159128333Y-78092071D01*
X159163857Y-78021023D01*
X159199380Y-77985500D01*
X159270428Y-77949976D01*
X159448047Y-77949976D01*
X159554619Y-77985500D01*
X159767761Y-77949976D02*
X160194047Y-77949976D01*
X159980904Y-78695976D02*
X159980904Y-77949976D01*
X179141428Y-91606142D02*
X179141428Y-90844238D01*
X179522380Y-91225190D02*
X178760476Y-91225190D01*
X178522380Y-90463285D02*
X178522380Y-89844238D01*
X178903333Y-90177571D01*
X178903333Y-90034714D01*
X178950952Y-89939476D01*
X178998571Y-89891857D01*
X179093809Y-89844238D01*
X179331904Y-89844238D01*
X179427142Y-89891857D01*
X179474761Y-89939476D01*
X179522380Y-90034714D01*
X179522380Y-90320428D01*
X179474761Y-90415666D01*
X179427142Y-90463285D01*
X178522380Y-89558523D02*
X179522380Y-89225190D01*
X178522380Y-88891857D01*
X178522380Y-88653761D02*
X178522380Y-88034714D01*
X178903333Y-88368047D01*
X178903333Y-88225190D01*
X178950952Y-88129952D01*
X178998571Y-88082333D01*
X179093809Y-88034714D01*
X179331904Y-88034714D01*
X179427142Y-88082333D01*
X179474761Y-88129952D01*
X179522380Y-88225190D01*
X179522380Y-88510904D01*
X179474761Y-88606142D01*
X179427142Y-88653761D01*
X179522380Y-86844238D02*
X178522380Y-86844238D01*
X178522380Y-86463285D01*
X178570000Y-86368047D01*
X178617619Y-86320428D01*
X178712857Y-86272809D01*
X178855714Y-86272809D01*
X178950952Y-86320428D01*
X178998571Y-86368047D01*
X179046190Y-86463285D01*
X179046190Y-86844238D01*
X179522380Y-85701380D02*
X179474761Y-85796619D01*
X179427142Y-85844238D01*
X179331904Y-85891857D01*
X179046190Y-85891857D01*
X178950952Y-85844238D01*
X178903333Y-85796619D01*
X178855714Y-85701380D01*
X178855714Y-85558523D01*
X178903333Y-85463285D01*
X178950952Y-85415666D01*
X179046190Y-85368047D01*
X179331904Y-85368047D01*
X179427142Y-85415666D01*
X179474761Y-85463285D01*
X179522380Y-85558523D01*
X179522380Y-85701380D01*
X178855714Y-85034714D02*
X179522380Y-84844238D01*
X179046190Y-84653761D01*
X179522380Y-84463285D01*
X178855714Y-84272809D01*
X179474761Y-83510904D02*
X179522380Y-83606142D01*
X179522380Y-83796619D01*
X179474761Y-83891857D01*
X179379523Y-83939476D01*
X178998571Y-83939476D01*
X178903333Y-83891857D01*
X178855714Y-83796619D01*
X178855714Y-83606142D01*
X178903333Y-83510904D01*
X178998571Y-83463285D01*
X179093809Y-83463285D01*
X179189047Y-83939476D01*
X179522380Y-83034714D02*
X178855714Y-83034714D01*
X179046190Y-83034714D02*
X178950952Y-82987095D01*
X178903333Y-82939476D01*
X178855714Y-82844238D01*
X178855714Y-82749000D01*
X176727190Y-79077976D02*
X176727190Y-78331976D01*
X176975857Y-78864833D01*
X177224523Y-78331976D01*
X177224523Y-79077976D01*
X177970523Y-78367500D02*
X177899476Y-78331976D01*
X177792904Y-78331976D01*
X177686333Y-78367500D01*
X177615285Y-78438547D01*
X177579761Y-78509595D01*
X177544238Y-78651690D01*
X177544238Y-78758261D01*
X177579761Y-78900357D01*
X177615285Y-78971404D01*
X177686333Y-79042452D01*
X177792904Y-79077976D01*
X177863952Y-79077976D01*
X177970523Y-79042452D01*
X178006047Y-79006928D01*
X178006047Y-78758261D01*
X177863952Y-78758261D01*
X178681000Y-79077976D02*
X178325761Y-79077976D01*
X178325761Y-78331976D01*
X178752047Y-79149023D02*
X179320428Y-79149023D01*
X179924333Y-79006928D02*
X179888809Y-79042452D01*
X179782238Y-79077976D01*
X179711190Y-79077976D01*
X179604619Y-79042452D01*
X179533571Y-78971404D01*
X179498047Y-78900357D01*
X179462523Y-78758261D01*
X179462523Y-78651690D01*
X179498047Y-78509595D01*
X179533571Y-78438547D01*
X179604619Y-78367500D01*
X179711190Y-78331976D01*
X179782238Y-78331976D01*
X179888809Y-78367500D01*
X179924333Y-78403023D01*
X177117952Y-79600976D02*
X177544238Y-79600976D01*
X177331095Y-80346976D02*
X177331095Y-79600976D01*
X177792904Y-79956214D02*
X178041571Y-79956214D01*
X178148142Y-80346976D02*
X177792904Y-80346976D01*
X177792904Y-79600976D01*
X178148142Y-79600976D01*
X178432333Y-80311452D02*
X178538904Y-80346976D01*
X178716523Y-80346976D01*
X178787571Y-80311452D01*
X178823095Y-80275928D01*
X178858619Y-80204880D01*
X178858619Y-80133833D01*
X178823095Y-80062785D01*
X178787571Y-80027261D01*
X178716523Y-79991738D01*
X178574428Y-79956214D01*
X178503380Y-79920690D01*
X178467857Y-79885166D01*
X178432333Y-79814119D01*
X178432333Y-79743071D01*
X178467857Y-79672023D01*
X178503380Y-79636500D01*
X178574428Y-79600976D01*
X178752047Y-79600976D01*
X178858619Y-79636500D01*
X179071761Y-79600976D02*
X179498047Y-79600976D01*
X179284904Y-80346976D02*
X179284904Y-79600976D01*
X171712904Y-79169452D02*
X171819476Y-79204976D01*
X171997095Y-79204976D01*
X172068142Y-79169452D01*
X172103666Y-79133928D01*
X172139190Y-79062880D01*
X172139190Y-78991833D01*
X172103666Y-78920785D01*
X172068142Y-78885261D01*
X171997095Y-78849738D01*
X171855000Y-78814214D01*
X171783952Y-78778690D01*
X171748428Y-78743166D01*
X171712904Y-78672119D01*
X171712904Y-78601071D01*
X171748428Y-78530023D01*
X171783952Y-78494500D01*
X171855000Y-78458976D01*
X172032619Y-78458976D01*
X172139190Y-78494500D01*
X172458904Y-79204976D02*
X172458904Y-78458976D01*
X172458904Y-78814214D02*
X172885190Y-78814214D01*
X172885190Y-79204976D02*
X172885190Y-78458976D01*
X173062809Y-79276023D02*
X173631190Y-79276023D01*
X174235095Y-79133928D02*
X174199571Y-79169452D01*
X174093000Y-79204976D01*
X174021952Y-79204976D01*
X173915380Y-79169452D01*
X173844333Y-79098404D01*
X173808809Y-79027357D01*
X173773285Y-78885261D01*
X173773285Y-78778690D01*
X173808809Y-78636595D01*
X173844333Y-78565547D01*
X173915380Y-78494500D01*
X174021952Y-78458976D01*
X174093000Y-78458976D01*
X174199571Y-78494500D01*
X174235095Y-78530023D01*
X171783952Y-79727976D02*
X172210238Y-79727976D01*
X171997095Y-80473976D02*
X171997095Y-79727976D01*
X172458904Y-80083214D02*
X172707571Y-80083214D01*
X172814142Y-80473976D02*
X172458904Y-80473976D01*
X172458904Y-79727976D01*
X172814142Y-79727976D01*
X173098333Y-80438452D02*
X173204904Y-80473976D01*
X173382523Y-80473976D01*
X173453571Y-80438452D01*
X173489095Y-80402928D01*
X173524619Y-80331880D01*
X173524619Y-80260833D01*
X173489095Y-80189785D01*
X173453571Y-80154261D01*
X173382523Y-80118738D01*
X173240428Y-80083214D01*
X173169380Y-80047690D01*
X173133857Y-80012166D01*
X173098333Y-79941119D01*
X173098333Y-79870071D01*
X173133857Y-79799023D01*
X173169380Y-79763500D01*
X173240428Y-79727976D01*
X173418047Y-79727976D01*
X173524619Y-79763500D01*
X173737761Y-79727976D02*
X174164047Y-79727976D01*
X173950904Y-80473976D02*
X173950904Y-79727976D01*
X158832619Y-81714785D02*
X159401000Y-81714785D01*
X159116809Y-81998976D02*
X159116809Y-81430595D01*
X159685190Y-81252976D02*
X160147000Y-81252976D01*
X159898333Y-81537166D01*
X160004904Y-81537166D01*
X160075952Y-81572690D01*
X160111476Y-81608214D01*
X160147000Y-81679261D01*
X160147000Y-81856880D01*
X160111476Y-81927928D01*
X160075952Y-81963452D01*
X160004904Y-81998976D01*
X159791761Y-81998976D01*
X159720714Y-81963452D01*
X159685190Y-81927928D01*
X160360142Y-81252976D02*
X160608809Y-81998976D01*
X160857476Y-81252976D01*
X161035095Y-81252976D02*
X161496904Y-81252976D01*
X161248238Y-81537166D01*
X161354809Y-81537166D01*
X161425857Y-81572690D01*
X161461380Y-81608214D01*
X161496904Y-81679261D01*
X161496904Y-81856880D01*
X161461380Y-81927928D01*
X161425857Y-81963452D01*
X161354809Y-81998976D01*
X161141666Y-81998976D01*
X161070619Y-81963452D01*
X161035095Y-81927928D01*
X158956952Y-82521976D02*
X159383238Y-82521976D01*
X159170095Y-83267976D02*
X159170095Y-82521976D01*
X159631904Y-82877214D02*
X159880571Y-82877214D01*
X159987142Y-83267976D02*
X159631904Y-83267976D01*
X159631904Y-82521976D01*
X159987142Y-82521976D01*
X160271333Y-83232452D02*
X160377904Y-83267976D01*
X160555523Y-83267976D01*
X160626571Y-83232452D01*
X160662095Y-83196928D01*
X160697619Y-83125880D01*
X160697619Y-83054833D01*
X160662095Y-82983785D01*
X160626571Y-82948261D01*
X160555523Y-82912738D01*
X160413428Y-82877214D01*
X160342380Y-82841690D01*
X160306857Y-82806166D01*
X160271333Y-82735119D01*
X160271333Y-82664071D01*
X160306857Y-82593023D01*
X160342380Y-82557500D01*
X160413428Y-82521976D01*
X160591047Y-82521976D01*
X160697619Y-82557500D01*
X160910761Y-82521976D02*
X161337047Y-82521976D01*
X161123904Y-83267976D02*
X161123904Y-82521976D01*
X145358190Y-78950976D02*
X145358190Y-78204976D01*
X145606857Y-78737833D01*
X145855523Y-78204976D01*
X145855523Y-78950976D01*
X146601523Y-78240500D02*
X146530476Y-78204976D01*
X146423904Y-78204976D01*
X146317333Y-78240500D01*
X146246285Y-78311547D01*
X146210761Y-78382595D01*
X146175238Y-78524690D01*
X146175238Y-78631261D01*
X146210761Y-78773357D01*
X146246285Y-78844404D01*
X146317333Y-78915452D01*
X146423904Y-78950976D01*
X146494952Y-78950976D01*
X146601523Y-78915452D01*
X146637047Y-78879928D01*
X146637047Y-78631261D01*
X146494952Y-78631261D01*
X147312000Y-78950976D02*
X146956761Y-78950976D01*
X146956761Y-78204976D01*
X147383047Y-79022023D02*
X147951428Y-79022023D01*
X148377714Y-78560214D02*
X148484285Y-78595738D01*
X148519809Y-78631261D01*
X148555333Y-78702309D01*
X148555333Y-78808880D01*
X148519809Y-78879928D01*
X148484285Y-78915452D01*
X148413238Y-78950976D01*
X148129047Y-78950976D01*
X148129047Y-78204976D01*
X148377714Y-78204976D01*
X148448761Y-78240500D01*
X148484285Y-78276023D01*
X148519809Y-78347071D01*
X148519809Y-78418119D01*
X148484285Y-78489166D01*
X148448761Y-78524690D01*
X148377714Y-78560214D01*
X148129047Y-78560214D01*
X145748952Y-79473976D02*
X146175238Y-79473976D01*
X145962095Y-80219976D02*
X145962095Y-79473976D01*
X146423904Y-79829214D02*
X146672571Y-79829214D01*
X146779142Y-80219976D02*
X146423904Y-80219976D01*
X146423904Y-79473976D01*
X146779142Y-79473976D01*
X147063333Y-80184452D02*
X147169904Y-80219976D01*
X147347523Y-80219976D01*
X147418571Y-80184452D01*
X147454095Y-80148928D01*
X147489619Y-80077880D01*
X147489619Y-80006833D01*
X147454095Y-79935785D01*
X147418571Y-79900261D01*
X147347523Y-79864738D01*
X147205428Y-79829214D01*
X147134380Y-79793690D01*
X147098857Y-79758166D01*
X147063333Y-79687119D01*
X147063333Y-79616071D01*
X147098857Y-79545023D01*
X147134380Y-79509500D01*
X147205428Y-79473976D01*
X147383047Y-79473976D01*
X147489619Y-79509500D01*
X147702761Y-79473976D02*
X148129047Y-79473976D01*
X147915904Y-80219976D02*
X147915904Y-79473976D01*
X141486904Y-78915452D02*
X141593476Y-78950976D01*
X141771095Y-78950976D01*
X141842142Y-78915452D01*
X141877666Y-78879928D01*
X141913190Y-78808880D01*
X141913190Y-78737833D01*
X141877666Y-78666785D01*
X141842142Y-78631261D01*
X141771095Y-78595738D01*
X141629000Y-78560214D01*
X141557952Y-78524690D01*
X141522428Y-78489166D01*
X141486904Y-78418119D01*
X141486904Y-78347071D01*
X141522428Y-78276023D01*
X141557952Y-78240500D01*
X141629000Y-78204976D01*
X141806619Y-78204976D01*
X141913190Y-78240500D01*
X142232904Y-78950976D02*
X142232904Y-78204976D01*
X142232904Y-78560214D02*
X142659190Y-78560214D01*
X142659190Y-78950976D02*
X142659190Y-78204976D01*
X142836809Y-79022023D02*
X143405190Y-79022023D01*
X143831476Y-78560214D02*
X143938047Y-78595738D01*
X143973571Y-78631261D01*
X144009095Y-78702309D01*
X144009095Y-78808880D01*
X143973571Y-78879928D01*
X143938047Y-78915452D01*
X143867000Y-78950976D01*
X143582809Y-78950976D01*
X143582809Y-78204976D01*
X143831476Y-78204976D01*
X143902523Y-78240500D01*
X143938047Y-78276023D01*
X143973571Y-78347071D01*
X143973571Y-78418119D01*
X143938047Y-78489166D01*
X143902523Y-78524690D01*
X143831476Y-78560214D01*
X143582809Y-78560214D01*
X141557952Y-79473976D02*
X141984238Y-79473976D01*
X141771095Y-80219976D02*
X141771095Y-79473976D01*
X142232904Y-79829214D02*
X142481571Y-79829214D01*
X142588142Y-80219976D02*
X142232904Y-80219976D01*
X142232904Y-79473976D01*
X142588142Y-79473976D01*
X142872333Y-80184452D02*
X142978904Y-80219976D01*
X143156523Y-80219976D01*
X143227571Y-80184452D01*
X143263095Y-80148928D01*
X143298619Y-80077880D01*
X143298619Y-80006833D01*
X143263095Y-79935785D01*
X143227571Y-79900261D01*
X143156523Y-79864738D01*
X143014428Y-79829214D01*
X142943380Y-79793690D01*
X142907857Y-79758166D01*
X142872333Y-79687119D01*
X142872333Y-79616071D01*
X142907857Y-79545023D01*
X142943380Y-79509500D01*
X143014428Y-79473976D01*
X143192047Y-79473976D01*
X143298619Y-79509500D01*
X143511761Y-79473976D02*
X143938047Y-79473976D01*
X143724904Y-80219976D02*
X143724904Y-79473976D01*
X128886380Y-79204976D02*
X128886380Y-78458976D01*
X129135047Y-78991833D01*
X129383714Y-78458976D01*
X129383714Y-79204976D01*
X130129714Y-78494500D02*
X130058666Y-78458976D01*
X129952095Y-78458976D01*
X129845523Y-78494500D01*
X129774476Y-78565547D01*
X129738952Y-78636595D01*
X129703428Y-78778690D01*
X129703428Y-78885261D01*
X129738952Y-79027357D01*
X129774476Y-79098404D01*
X129845523Y-79169452D01*
X129952095Y-79204976D01*
X130023142Y-79204976D01*
X130129714Y-79169452D01*
X130165238Y-79133928D01*
X130165238Y-78885261D01*
X130023142Y-78885261D01*
X130484952Y-79204976D02*
X130484952Y-78458976D01*
X130484952Y-78814214D02*
X130911238Y-78814214D01*
X130911238Y-79204976D02*
X130911238Y-78458976D01*
X131088857Y-79276023D02*
X131657238Y-79276023D01*
X132083523Y-78814214D02*
X132190095Y-78849738D01*
X132225619Y-78885261D01*
X132261142Y-78956309D01*
X132261142Y-79062880D01*
X132225619Y-79133928D01*
X132190095Y-79169452D01*
X132119047Y-79204976D01*
X131834857Y-79204976D01*
X131834857Y-78458976D01*
X132083523Y-78458976D01*
X132154571Y-78494500D01*
X132190095Y-78530023D01*
X132225619Y-78601071D01*
X132225619Y-78672119D01*
X132190095Y-78743166D01*
X132154571Y-78778690D01*
X132083523Y-78814214D01*
X131834857Y-78814214D01*
X129365952Y-79727976D02*
X129792238Y-79727976D01*
X129579095Y-80473976D02*
X129579095Y-79727976D01*
X130040904Y-80083214D02*
X130289571Y-80083214D01*
X130396142Y-80473976D02*
X130040904Y-80473976D01*
X130040904Y-79727976D01*
X130396142Y-79727976D01*
X130680333Y-80438452D02*
X130786904Y-80473976D01*
X130964523Y-80473976D01*
X131035571Y-80438452D01*
X131071095Y-80402928D01*
X131106619Y-80331880D01*
X131106619Y-80260833D01*
X131071095Y-80189785D01*
X131035571Y-80154261D01*
X130964523Y-80118738D01*
X130822428Y-80083214D01*
X130751380Y-80047690D01*
X130715857Y-80012166D01*
X130680333Y-79941119D01*
X130680333Y-79870071D01*
X130715857Y-79799023D01*
X130751380Y-79763500D01*
X130822428Y-79727976D01*
X131000047Y-79727976D01*
X131106619Y-79763500D01*
X131319761Y-79727976D02*
X131746047Y-79727976D01*
X131532904Y-80473976D02*
X131532904Y-79727976D01*
X113407476Y-79331976D02*
X113407476Y-78585976D01*
X113656142Y-79118833D01*
X113904809Y-78585976D01*
X113904809Y-79331976D01*
X114650809Y-78621500D02*
X114579761Y-78585976D01*
X114473190Y-78585976D01*
X114366619Y-78621500D01*
X114295571Y-78692547D01*
X114260047Y-78763595D01*
X114224523Y-78905690D01*
X114224523Y-79012261D01*
X114260047Y-79154357D01*
X114295571Y-79225404D01*
X114366619Y-79296452D01*
X114473190Y-79331976D01*
X114544238Y-79331976D01*
X114650809Y-79296452D01*
X114686333Y-79260928D01*
X114686333Y-79012261D01*
X114544238Y-79012261D01*
X115361285Y-79331976D02*
X115006047Y-79331976D01*
X115006047Y-78585976D01*
X115432333Y-79403023D02*
X116000714Y-79403023D01*
X116142809Y-79118833D02*
X116498047Y-79118833D01*
X116071761Y-79331976D02*
X116320428Y-78585976D01*
X116569095Y-79331976D01*
X113744952Y-79854976D02*
X114171238Y-79854976D01*
X113958095Y-80600976D02*
X113958095Y-79854976D01*
X114419904Y-80210214D02*
X114668571Y-80210214D01*
X114775142Y-80600976D02*
X114419904Y-80600976D01*
X114419904Y-79854976D01*
X114775142Y-79854976D01*
X115059333Y-80565452D02*
X115165904Y-80600976D01*
X115343523Y-80600976D01*
X115414571Y-80565452D01*
X115450095Y-80529928D01*
X115485619Y-80458880D01*
X115485619Y-80387833D01*
X115450095Y-80316785D01*
X115414571Y-80281261D01*
X115343523Y-80245738D01*
X115201428Y-80210214D01*
X115130380Y-80174690D01*
X115094857Y-80139166D01*
X115059333Y-80068119D01*
X115059333Y-79997071D01*
X115094857Y-79926023D01*
X115130380Y-79890500D01*
X115201428Y-79854976D01*
X115379047Y-79854976D01*
X115485619Y-79890500D01*
X115698761Y-79854976D02*
X116125047Y-79854976D01*
X115911904Y-80600976D02*
X115911904Y-79854976D01*
X109790190Y-79296452D02*
X109896761Y-79331976D01*
X110074380Y-79331976D01*
X110145428Y-79296452D01*
X110180952Y-79260928D01*
X110216476Y-79189880D01*
X110216476Y-79118833D01*
X110180952Y-79047785D01*
X110145428Y-79012261D01*
X110074380Y-78976738D01*
X109932285Y-78941214D01*
X109861238Y-78905690D01*
X109825714Y-78870166D01*
X109790190Y-78799119D01*
X109790190Y-78728071D01*
X109825714Y-78657023D01*
X109861238Y-78621500D01*
X109932285Y-78585976D01*
X110109904Y-78585976D01*
X110216476Y-78621500D01*
X110536190Y-79331976D02*
X110536190Y-78585976D01*
X110536190Y-78941214D02*
X110962476Y-78941214D01*
X110962476Y-79331976D02*
X110962476Y-78585976D01*
X111140095Y-79403023D02*
X111708476Y-79403023D01*
X111850571Y-79118833D02*
X112205809Y-79118833D01*
X111779523Y-79331976D02*
X112028190Y-78585976D01*
X112276857Y-79331976D01*
X109807952Y-79854976D02*
X110234238Y-79854976D01*
X110021095Y-80600976D02*
X110021095Y-79854976D01*
X110482904Y-80210214D02*
X110731571Y-80210214D01*
X110838142Y-80600976D02*
X110482904Y-80600976D01*
X110482904Y-79854976D01*
X110838142Y-79854976D01*
X111122333Y-80565452D02*
X111228904Y-80600976D01*
X111406523Y-80600976D01*
X111477571Y-80565452D01*
X111513095Y-80529928D01*
X111548619Y-80458880D01*
X111548619Y-80387833D01*
X111513095Y-80316785D01*
X111477571Y-80281261D01*
X111406523Y-80245738D01*
X111264428Y-80210214D01*
X111193380Y-80174690D01*
X111157857Y-80139166D01*
X111122333Y-80068119D01*
X111122333Y-79997071D01*
X111157857Y-79926023D01*
X111193380Y-79890500D01*
X111264428Y-79854976D01*
X111442047Y-79854976D01*
X111548619Y-79890500D01*
X111761761Y-79854976D02*
X112188047Y-79854976D01*
X111974904Y-80600976D02*
X111974904Y-79854976D01*
X97570666Y-84411976D02*
X97570666Y-83665976D01*
X97819333Y-84198833D01*
X98068000Y-83665976D01*
X98068000Y-84411976D01*
X98814000Y-83701500D02*
X98742952Y-83665976D01*
X98636380Y-83665976D01*
X98529809Y-83701500D01*
X98458761Y-83772547D01*
X98423238Y-83843595D01*
X98387714Y-83985690D01*
X98387714Y-84092261D01*
X98423238Y-84234357D01*
X98458761Y-84305404D01*
X98529809Y-84376452D01*
X98636380Y-84411976D01*
X98707428Y-84411976D01*
X98814000Y-84376452D01*
X98849523Y-84340928D01*
X98849523Y-84092261D01*
X98707428Y-84092261D01*
X99169238Y-84411976D02*
X99169238Y-83665976D01*
X99169238Y-84021214D02*
X99595523Y-84021214D01*
X99595523Y-84411976D02*
X99595523Y-83665976D01*
X99773142Y-84483023D02*
X100341523Y-84483023D01*
X100483619Y-84198833D02*
X100838857Y-84198833D01*
X100412571Y-84411976D02*
X100661238Y-83665976D01*
X100909904Y-84411976D01*
X97996952Y-84934976D02*
X98423238Y-84934976D01*
X98210095Y-85680976D02*
X98210095Y-84934976D01*
X98671904Y-85290214D02*
X98920571Y-85290214D01*
X99027142Y-85680976D02*
X98671904Y-85680976D01*
X98671904Y-84934976D01*
X99027142Y-84934976D01*
X99311333Y-85645452D02*
X99417904Y-85680976D01*
X99595523Y-85680976D01*
X99666571Y-85645452D01*
X99702095Y-85609928D01*
X99737619Y-85538880D01*
X99737619Y-85467833D01*
X99702095Y-85396785D01*
X99666571Y-85361261D01*
X99595523Y-85325738D01*
X99453428Y-85290214D01*
X99382380Y-85254690D01*
X99346857Y-85219166D01*
X99311333Y-85148119D01*
X99311333Y-85077071D01*
X99346857Y-85006023D01*
X99382380Y-84970500D01*
X99453428Y-84934976D01*
X99631047Y-84934976D01*
X99737619Y-84970500D01*
X99950761Y-84934976D02*
X100377047Y-84934976D01*
X100163904Y-85680976D02*
X100163904Y-84934976D01*
X99433380Y-99512380D02*
X99433380Y-98512380D01*
X99814333Y-98512380D01*
X99909571Y-98560000D01*
X99957190Y-98607619D01*
X100004809Y-98702857D01*
X100004809Y-98845714D01*
X99957190Y-98940952D01*
X99909571Y-98988571D01*
X99814333Y-99036190D01*
X99433380Y-99036190D01*
X100338142Y-98512380D02*
X100576238Y-99512380D01*
X100766714Y-98798095D01*
X100957190Y-99512380D01*
X101195285Y-98512380D01*
X101576238Y-99512380D02*
X101576238Y-98512380D01*
X101909571Y-99226666D01*
X102242904Y-98512380D01*
X102242904Y-99512380D01*
X102481000Y-99607619D02*
X103242904Y-99607619D01*
X103481000Y-99512380D02*
X103481000Y-98512380D01*
X103957190Y-99512380D02*
X103957190Y-98512380D01*
X104528619Y-99512380D01*
X104528619Y-98512380D01*
X99544285Y-97099380D02*
X99544285Y-96099380D01*
X100115714Y-97099380D01*
X100115714Y-96099380D01*
X101163333Y-97004142D02*
X101115714Y-97051761D01*
X100972857Y-97099380D01*
X100877619Y-97099380D01*
X100734761Y-97051761D01*
X100639523Y-96956523D01*
X100591904Y-96861285D01*
X100544285Y-96670809D01*
X100544285Y-96527952D01*
X100591904Y-96337476D01*
X100639523Y-96242238D01*
X100734761Y-96147000D01*
X100877619Y-96099380D01*
X100972857Y-96099380D01*
X101115714Y-96147000D01*
X101163333Y-96194619D01*
X99949095Y-93734000D02*
X99853857Y-93686380D01*
X99711000Y-93686380D01*
X99568142Y-93734000D01*
X99472904Y-93829238D01*
X99425285Y-93924476D01*
X99377666Y-94114952D01*
X99377666Y-94257809D01*
X99425285Y-94448285D01*
X99472904Y-94543523D01*
X99568142Y-94638761D01*
X99711000Y-94686380D01*
X99806238Y-94686380D01*
X99949095Y-94638761D01*
X99996714Y-94591142D01*
X99996714Y-94257809D01*
X99806238Y-94257809D01*
X100425285Y-94686380D02*
X100425285Y-93686380D01*
X100996714Y-94686380D01*
X100996714Y-93686380D01*
X101472904Y-94686380D02*
X101472904Y-93686380D01*
X101711000Y-93686380D01*
X101853857Y-93734000D01*
X101949095Y-93829238D01*
X101996714Y-93924476D01*
X102044333Y-94114952D01*
X102044333Y-94257809D01*
X101996714Y-94448285D01*
X101949095Y-94543523D01*
X101853857Y-94638761D01*
X101711000Y-94686380D01*
X101472904Y-94686380D01*
X99425380Y-91717761D02*
X99568238Y-91765380D01*
X99806333Y-91765380D01*
X99901571Y-91717761D01*
X99949190Y-91670142D01*
X99996809Y-91574904D01*
X99996809Y-91479666D01*
X99949190Y-91384428D01*
X99901571Y-91336809D01*
X99806333Y-91289190D01*
X99615857Y-91241571D01*
X99520619Y-91193952D01*
X99473000Y-91146333D01*
X99425380Y-91051095D01*
X99425380Y-90955857D01*
X99473000Y-90860619D01*
X99520619Y-90813000D01*
X99615857Y-90765380D01*
X99853952Y-90765380D01*
X99996809Y-90813000D01*
X100901571Y-91765380D02*
X100425380Y-91765380D01*
X100425380Y-90765380D01*
X100996809Y-91860619D02*
X101758714Y-91860619D01*
X102568238Y-91765380D02*
X102234904Y-91289190D01*
X101996809Y-91765380D02*
X101996809Y-90765380D01*
X102377761Y-90765380D01*
X102473000Y-90813000D01*
X102520619Y-90860619D01*
X102568238Y-90955857D01*
X102568238Y-91098714D01*
X102520619Y-91193952D01*
X102473000Y-91241571D01*
X102377761Y-91289190D01*
X101996809Y-91289190D01*
X102901571Y-90765380D02*
X103568238Y-91765380D01*
X103568238Y-90765380D02*
X102901571Y-91765380D01*
X99544428Y-88923761D02*
X99687285Y-88971380D01*
X99925380Y-88971380D01*
X100020619Y-88923761D01*
X100068238Y-88876142D01*
X100115857Y-88780904D01*
X100115857Y-88685666D01*
X100068238Y-88590428D01*
X100020619Y-88542809D01*
X99925380Y-88495190D01*
X99734904Y-88447571D01*
X99639666Y-88399952D01*
X99592047Y-88352333D01*
X99544428Y-88257095D01*
X99544428Y-88161857D01*
X99592047Y-88066619D01*
X99639666Y-88019000D01*
X99734904Y-87971380D01*
X99973000Y-87971380D01*
X100115857Y-88019000D01*
X101020619Y-88971380D02*
X100544428Y-88971380D01*
X100544428Y-87971380D01*
X101115857Y-89066619D02*
X101877761Y-89066619D01*
X101973000Y-87971380D02*
X102544428Y-87971380D01*
X102258714Y-88971380D02*
X102258714Y-87971380D01*
X102782523Y-87971380D02*
X103449190Y-88971380D01*
X103449190Y-87971380D02*
X102782523Y-88971380D01*
X94750380Y-119863976D02*
X93750380Y-119863976D01*
X93750380Y-119483023D01*
X93798000Y-119387785D01*
X93845619Y-119340166D01*
X93940857Y-119292547D01*
X94083714Y-119292547D01*
X94178952Y-119340166D01*
X94226571Y-119387785D01*
X94274190Y-119483023D01*
X94274190Y-119863976D01*
X93750380Y-119006833D02*
X94750380Y-118673500D01*
X93750380Y-118340166D01*
X94750380Y-118006833D02*
X93750380Y-118006833D01*
X93750380Y-117768738D01*
X93798000Y-117625880D01*
X93893238Y-117530642D01*
X93988476Y-117483023D01*
X94178952Y-117435404D01*
X94321809Y-117435404D01*
X94512285Y-117483023D01*
X94607523Y-117530642D01*
X94702761Y-117625880D01*
X94750380Y-117768738D01*
X94750380Y-118006833D01*
X94750380Y-117006833D02*
X93750380Y-117006833D01*
X93750380Y-116768738D01*
X93798000Y-116625880D01*
X93893238Y-116530642D01*
X93988476Y-116483023D01*
X94178952Y-116435404D01*
X94321809Y-116435404D01*
X94512285Y-116483023D01*
X94607523Y-116530642D01*
X94702761Y-116625880D01*
X94750380Y-116768738D01*
X94750380Y-117006833D01*
X95400380Y-119768738D02*
X95400380Y-119197309D01*
X96400380Y-119483023D02*
X95400380Y-119483023D01*
X95876571Y-118863976D02*
X95876571Y-118530642D01*
X96400380Y-118387785D02*
X96400380Y-118863976D01*
X95400380Y-118863976D01*
X95400380Y-118387785D01*
X96352761Y-118006833D02*
X96400380Y-117863976D01*
X96400380Y-117625880D01*
X96352761Y-117530642D01*
X96305142Y-117483023D01*
X96209904Y-117435404D01*
X96114666Y-117435404D01*
X96019428Y-117483023D01*
X95971809Y-117530642D01*
X95924190Y-117625880D01*
X95876571Y-117816357D01*
X95828952Y-117911595D01*
X95781333Y-117959214D01*
X95686095Y-118006833D01*
X95590857Y-118006833D01*
X95495619Y-117959214D01*
X95448000Y-117911595D01*
X95400380Y-117816357D01*
X95400380Y-117578261D01*
X95448000Y-117435404D01*
X95400380Y-117149690D02*
X95400380Y-116578261D01*
X96400380Y-116863976D02*
X95400380Y-116863976D01*
D11*
X159180142Y-115149071D02*
X159180142Y-113649071D01*
X159680142Y-114720500D01*
X160180142Y-113649071D01*
X160180142Y-115149071D01*
X161108714Y-115149071D02*
X160965857Y-115077642D01*
X160894428Y-115006214D01*
X160823000Y-114863357D01*
X160823000Y-114434785D01*
X160894428Y-114291928D01*
X160965857Y-114220500D01*
X161108714Y-114149071D01*
X161323000Y-114149071D01*
X161465857Y-114220500D01*
X161537285Y-114291928D01*
X161608714Y-114434785D01*
X161608714Y-114863357D01*
X161537285Y-115006214D01*
X161465857Y-115077642D01*
X161323000Y-115149071D01*
X161108714Y-115149071D01*
X162037285Y-114149071D02*
X162608714Y-114149071D01*
X162251571Y-113649071D02*
X162251571Y-114934785D01*
X162323000Y-115077642D01*
X162465857Y-115149071D01*
X162608714Y-115149071D01*
X163323000Y-115149071D02*
X163180142Y-115077642D01*
X163108714Y-115006214D01*
X163037285Y-114863357D01*
X163037285Y-114434785D01*
X163108714Y-114291928D01*
X163180142Y-114220500D01*
X163323000Y-114149071D01*
X163537285Y-114149071D01*
X163680142Y-114220500D01*
X163751571Y-114291928D01*
X163823000Y-114434785D01*
X163823000Y-114863357D01*
X163751571Y-115006214D01*
X163680142Y-115077642D01*
X163537285Y-115149071D01*
X163323000Y-115149071D01*
X164465857Y-115149071D02*
X164465857Y-114149071D01*
X164465857Y-114434785D02*
X164537285Y-114291928D01*
X164608714Y-114220500D01*
X164751571Y-114149071D01*
X164894428Y-114149071D01*
X167394428Y-115006214D02*
X167323000Y-115077642D01*
X167108714Y-115149071D01*
X166965857Y-115149071D01*
X166751571Y-115077642D01*
X166608714Y-114934785D01*
X166537285Y-114791928D01*
X166465857Y-114506214D01*
X166465857Y-114291928D01*
X166537285Y-114006214D01*
X166608714Y-113863357D01*
X166751571Y-113720500D01*
X166965857Y-113649071D01*
X167108714Y-113649071D01*
X167323000Y-113720500D01*
X167394428Y-113791928D01*
X168251571Y-115149071D02*
X168108714Y-115077642D01*
X168037285Y-115006214D01*
X167965857Y-114863357D01*
X167965857Y-114434785D01*
X168037285Y-114291928D01*
X168108714Y-114220500D01*
X168251571Y-114149071D01*
X168465857Y-114149071D01*
X168608714Y-114220500D01*
X168680142Y-114291928D01*
X168751571Y-114434785D01*
X168751571Y-114863357D01*
X168680142Y-115006214D01*
X168608714Y-115077642D01*
X168465857Y-115149071D01*
X168251571Y-115149071D01*
X169394428Y-114149071D02*
X169394428Y-115149071D01*
X169394428Y-114291928D02*
X169465857Y-114220500D01*
X169608714Y-114149071D01*
X169823000Y-114149071D01*
X169965857Y-114220500D01*
X170037285Y-114363357D01*
X170037285Y-115149071D01*
X170537285Y-114149071D02*
X171108714Y-114149071D01*
X170751571Y-113649071D02*
X170751571Y-114934785D01*
X170823000Y-115077642D01*
X170965857Y-115149071D01*
X171108714Y-115149071D01*
X171608714Y-115149071D02*
X171608714Y-114149071D01*
X171608714Y-114434785D02*
X171680142Y-114291928D01*
X171751571Y-114220500D01*
X171894428Y-114149071D01*
X172037285Y-114149071D01*
X172751571Y-115149071D02*
X172608714Y-115077642D01*
X172537285Y-115006214D01*
X172465857Y-114863357D01*
X172465857Y-114434785D01*
X172537285Y-114291928D01*
X172608714Y-114220500D01*
X172751571Y-114149071D01*
X172965857Y-114149071D01*
X173108714Y-114220500D01*
X173180142Y-114291928D01*
X173251571Y-114434785D01*
X173251571Y-114863357D01*
X173180142Y-115006214D01*
X173108714Y-115077642D01*
X172965857Y-115149071D01*
X172751571Y-115149071D01*
X174108714Y-115149071D02*
X173965857Y-115077642D01*
X173894428Y-114934785D01*
X173894428Y-113649071D01*
X174894428Y-115149071D02*
X174751571Y-115077642D01*
X174680142Y-114934785D01*
X174680142Y-113649071D01*
X176037285Y-115077642D02*
X175894428Y-115149071D01*
X175608714Y-115149071D01*
X175465857Y-115077642D01*
X175394428Y-114934785D01*
X175394428Y-114363357D01*
X175465857Y-114220500D01*
X175608714Y-114149071D01*
X175894428Y-114149071D01*
X176037285Y-114220500D01*
X176108714Y-114363357D01*
X176108714Y-114506214D01*
X175394428Y-114649071D01*
X176751571Y-115149071D02*
X176751571Y-114149071D01*
X176751571Y-114434785D02*
X176823000Y-114291928D01*
X176894428Y-114220500D01*
X177037285Y-114149071D01*
X177180142Y-114149071D01*
X179680142Y-115149071D02*
X179180142Y-114434785D01*
X178823000Y-115149071D02*
X178823000Y-113649071D01*
X179394428Y-113649071D01*
X179537285Y-113720500D01*
X179608714Y-113791928D01*
X179680142Y-113934785D01*
X179680142Y-114149071D01*
X179608714Y-114291928D01*
X179537285Y-114363357D01*
X179394428Y-114434785D01*
X178823000Y-114434785D01*
X180894428Y-115077642D02*
X180751571Y-115149071D01*
X180465857Y-115149071D01*
X180323000Y-115077642D01*
X180251571Y-114934785D01*
X180251571Y-114363357D01*
X180323000Y-114220500D01*
X180465857Y-114149071D01*
X180751571Y-114149071D01*
X180894428Y-114220500D01*
X180965857Y-114363357D01*
X180965857Y-114506214D01*
X180251571Y-114649071D01*
X181465857Y-114149071D02*
X181823000Y-115149071D01*
X182180142Y-114149071D01*
X183537285Y-115149071D02*
X182680142Y-115149071D01*
X183108714Y-115149071D02*
X183108714Y-113649071D01*
X182965857Y-113863357D01*
X182823000Y-114006214D01*
X182680142Y-114077642D01*
X157644428Y-117699071D02*
X157644428Y-116199071D01*
X158144428Y-117270500D01*
X158644428Y-116199071D01*
X158644428Y-117699071D01*
X160001571Y-117699071D02*
X160001571Y-116913357D01*
X159930142Y-116770500D01*
X159787285Y-116699071D01*
X159501571Y-116699071D01*
X159358714Y-116770500D01*
X160001571Y-117627642D02*
X159858714Y-117699071D01*
X159501571Y-117699071D01*
X159358714Y-117627642D01*
X159287285Y-117484785D01*
X159287285Y-117341928D01*
X159358714Y-117199071D01*
X159501571Y-117127642D01*
X159858714Y-117127642D01*
X160001571Y-117056214D01*
X160715857Y-117699071D02*
X160715857Y-116699071D01*
X160715857Y-116984785D02*
X160787285Y-116841928D01*
X160858714Y-116770500D01*
X161001571Y-116699071D01*
X161144428Y-116699071D01*
X161573000Y-117627642D02*
X161715857Y-117699071D01*
X162001571Y-117699071D01*
X162144428Y-117627642D01*
X162215857Y-117484785D01*
X162215857Y-117413357D01*
X162144428Y-117270500D01*
X162001571Y-117199071D01*
X161787285Y-117199071D01*
X161644428Y-117127642D01*
X161573000Y-116984785D01*
X161573000Y-116913357D01*
X161644428Y-116770500D01*
X161787285Y-116699071D01*
X162001571Y-116699071D01*
X162144428Y-116770500D01*
X164858714Y-117699071D02*
X164358714Y-116984785D01*
X164001571Y-117699071D02*
X164001571Y-116199071D01*
X164573000Y-116199071D01*
X164715857Y-116270500D01*
X164787285Y-116341928D01*
X164858714Y-116484785D01*
X164858714Y-116699071D01*
X164787285Y-116841928D01*
X164715857Y-116913357D01*
X164573000Y-116984785D01*
X164001571Y-116984785D01*
X165715857Y-117699071D02*
X165573000Y-117627642D01*
X165501571Y-117556214D01*
X165430142Y-117413357D01*
X165430142Y-116984785D01*
X165501571Y-116841928D01*
X165573000Y-116770500D01*
X165715857Y-116699071D01*
X165930142Y-116699071D01*
X166073000Y-116770500D01*
X166144428Y-116841928D01*
X166215857Y-116984785D01*
X166215857Y-117413357D01*
X166144428Y-117556214D01*
X166073000Y-117627642D01*
X165930142Y-117699071D01*
X165715857Y-117699071D01*
X166715857Y-116699071D02*
X167073000Y-117699071D01*
X167430142Y-116699071D01*
X168573000Y-117627642D02*
X168430142Y-117699071D01*
X168144428Y-117699071D01*
X168001571Y-117627642D01*
X167930142Y-117484785D01*
X167930142Y-116913357D01*
X168001571Y-116770500D01*
X168144428Y-116699071D01*
X168430142Y-116699071D01*
X168573000Y-116770500D01*
X168644428Y-116913357D01*
X168644428Y-117056214D01*
X167930142Y-117199071D01*
X169287285Y-117699071D02*
X169287285Y-116699071D01*
X169287285Y-116984785D02*
X169358714Y-116841928D01*
X169430142Y-116770500D01*
X169573000Y-116699071D01*
X169715857Y-116699071D01*
X171358714Y-117699071D02*
X171358714Y-116199071D01*
X171715857Y-116199071D01*
X171930142Y-116270500D01*
X172073000Y-116413357D01*
X172144428Y-116556214D01*
X172215857Y-116841928D01*
X172215857Y-117056214D01*
X172144428Y-117341928D01*
X172073000Y-117484785D01*
X171930142Y-117627642D01*
X171715857Y-117699071D01*
X171358714Y-117699071D01*
X173430142Y-117627642D02*
X173287285Y-117699071D01*
X173001571Y-117699071D01*
X172858714Y-117627642D01*
X172787285Y-117484785D01*
X172787285Y-116913357D01*
X172858714Y-116770500D01*
X173001571Y-116699071D01*
X173287285Y-116699071D01*
X173430142Y-116770500D01*
X173501571Y-116913357D01*
X173501571Y-117056214D01*
X172787285Y-117199071D01*
X174073000Y-117627642D02*
X174215857Y-117699071D01*
X174501571Y-117699071D01*
X174644428Y-117627642D01*
X174715857Y-117484785D01*
X174715857Y-117413357D01*
X174644428Y-117270500D01*
X174501571Y-117199071D01*
X174287285Y-117199071D01*
X174144428Y-117127642D01*
X174073000Y-116984785D01*
X174073000Y-116913357D01*
X174144428Y-116770500D01*
X174287285Y-116699071D01*
X174501571Y-116699071D01*
X174644428Y-116770500D01*
X175358714Y-117699071D02*
X175358714Y-116699071D01*
X175358714Y-116199071D02*
X175287285Y-116270500D01*
X175358714Y-116341928D01*
X175430142Y-116270500D01*
X175358714Y-116199071D01*
X175358714Y-116341928D01*
X176715857Y-116699071D02*
X176715857Y-117913357D01*
X176644428Y-118056214D01*
X176573000Y-118127642D01*
X176430142Y-118199071D01*
X176215857Y-118199071D01*
X176073000Y-118127642D01*
X176715857Y-117627642D02*
X176573000Y-117699071D01*
X176287285Y-117699071D01*
X176144428Y-117627642D01*
X176073000Y-117556214D01*
X176001571Y-117413357D01*
X176001571Y-116984785D01*
X176073000Y-116841928D01*
X176144428Y-116770500D01*
X176287285Y-116699071D01*
X176573000Y-116699071D01*
X176715857Y-116770500D01*
X177430142Y-116699071D02*
X177430142Y-117699071D01*
X177430142Y-116841928D02*
X177501571Y-116770500D01*
X177644428Y-116699071D01*
X177858714Y-116699071D01*
X178001571Y-116770500D01*
X178073000Y-116913357D01*
X178073000Y-117699071D01*
X179715857Y-116199071D02*
X180573000Y-116199071D01*
X180144428Y-117699071D02*
X180144428Y-116199071D01*
X181644428Y-117627642D02*
X181501571Y-117699071D01*
X181215857Y-117699071D01*
X181073000Y-117627642D01*
X181001571Y-117484785D01*
X181001571Y-116913357D01*
X181073000Y-116770500D01*
X181215857Y-116699071D01*
X181501571Y-116699071D01*
X181644428Y-116770500D01*
X181715857Y-116913357D01*
X181715857Y-117056214D01*
X181001571Y-117199071D01*
X183001571Y-117699071D02*
X183001571Y-116913357D01*
X182930142Y-116770500D01*
X182787285Y-116699071D01*
X182501571Y-116699071D01*
X182358714Y-116770500D01*
X183001571Y-117627642D02*
X182858714Y-117699071D01*
X182501571Y-117699071D01*
X182358714Y-117627642D01*
X182287285Y-117484785D01*
X182287285Y-117341928D01*
X182358714Y-117199071D01*
X182501571Y-117127642D01*
X182858714Y-117127642D01*
X183001571Y-117056214D01*
X183715857Y-117699071D02*
X183715857Y-116699071D01*
X183715857Y-116841928D02*
X183787285Y-116770500D01*
X183930142Y-116699071D01*
X184144428Y-116699071D01*
X184287285Y-116770500D01*
X184358714Y-116913357D01*
X184358714Y-117699071D01*
X184358714Y-116913357D02*
X184430142Y-116770500D01*
X184573000Y-116699071D01*
X184787285Y-116699071D01*
X184930142Y-116770500D01*
X185001571Y-116913357D01*
X185001571Y-117699071D01*
X160501571Y-120249071D02*
X160501571Y-118749071D01*
X161001571Y-119820500D01*
X161501571Y-118749071D01*
X161501571Y-120249071D01*
X162215857Y-120249071D02*
X162215857Y-119249071D01*
X162215857Y-118749071D02*
X162144428Y-118820500D01*
X162215857Y-118891928D01*
X162287285Y-118820500D01*
X162215857Y-118749071D01*
X162215857Y-118891928D01*
X162858714Y-120177642D02*
X163001571Y-120249071D01*
X163287285Y-120249071D01*
X163430142Y-120177642D01*
X163501571Y-120034785D01*
X163501571Y-119963357D01*
X163430142Y-119820500D01*
X163287285Y-119749071D01*
X163073000Y-119749071D01*
X162930142Y-119677642D01*
X162858714Y-119534785D01*
X162858714Y-119463357D01*
X162930142Y-119320500D01*
X163073000Y-119249071D01*
X163287285Y-119249071D01*
X163430142Y-119320500D01*
X164073000Y-120177642D02*
X164215857Y-120249071D01*
X164501571Y-120249071D01*
X164644428Y-120177642D01*
X164715857Y-120034785D01*
X164715857Y-119963357D01*
X164644428Y-119820500D01*
X164501571Y-119749071D01*
X164287285Y-119749071D01*
X164144428Y-119677642D01*
X164073000Y-119534785D01*
X164073000Y-119463357D01*
X164144428Y-119320500D01*
X164287285Y-119249071D01*
X164501571Y-119249071D01*
X164644428Y-119320500D01*
X165573000Y-120249071D02*
X165430142Y-120177642D01*
X165358714Y-120106214D01*
X165287285Y-119963357D01*
X165287285Y-119534785D01*
X165358714Y-119391928D01*
X165430142Y-119320500D01*
X165573000Y-119249071D01*
X165787285Y-119249071D01*
X165930142Y-119320500D01*
X166001571Y-119391928D01*
X166073000Y-119534785D01*
X166073000Y-119963357D01*
X166001571Y-120106214D01*
X165930142Y-120177642D01*
X165787285Y-120249071D01*
X165573000Y-120249071D01*
X167358714Y-119249071D02*
X167358714Y-120249071D01*
X166715857Y-119249071D02*
X166715857Y-120034785D01*
X166787285Y-120177642D01*
X166930142Y-120249071D01*
X167144428Y-120249071D01*
X167287285Y-120177642D01*
X167358714Y-120106214D01*
X168073000Y-120249071D02*
X168073000Y-119249071D01*
X168073000Y-119534785D02*
X168144428Y-119391928D01*
X168215857Y-119320500D01*
X168358714Y-119249071D01*
X168501571Y-119249071D01*
X169001571Y-120249071D02*
X169001571Y-119249071D01*
X169001571Y-118749071D02*
X168930142Y-118820500D01*
X169001571Y-118891928D01*
X169073000Y-118820500D01*
X169001571Y-118749071D01*
X169001571Y-118891928D01*
X170787285Y-120177642D02*
X171001571Y-120249071D01*
X171358714Y-120249071D01*
X171501571Y-120177642D01*
X171573000Y-120106214D01*
X171644428Y-119963357D01*
X171644428Y-119820500D01*
X171573000Y-119677642D01*
X171501571Y-119606214D01*
X171358714Y-119534785D01*
X171073000Y-119463357D01*
X170930142Y-119391928D01*
X170858714Y-119320500D01*
X170787285Y-119177642D01*
X170787285Y-119034785D01*
X170858714Y-118891928D01*
X170930142Y-118820500D01*
X171073000Y-118749071D01*
X171430142Y-118749071D01*
X171644428Y-118820500D01*
X173501571Y-120249071D02*
X173430142Y-120249071D01*
X173287285Y-120177642D01*
X173073000Y-119963357D01*
X172715857Y-119534785D01*
X172573000Y-119320500D01*
X172501571Y-119106214D01*
X172501571Y-118963357D01*
X172573000Y-118820500D01*
X172715857Y-118749071D01*
X172787285Y-118749071D01*
X172930142Y-118820500D01*
X173001571Y-118963357D01*
X173001571Y-119034785D01*
X172930142Y-119177642D01*
X172858714Y-119249071D01*
X172430142Y-119534785D01*
X172358714Y-119606214D01*
X172287285Y-119749071D01*
X172287285Y-119963357D01*
X172358714Y-120106214D01*
X172430142Y-120177642D01*
X172573000Y-120249071D01*
X172787285Y-120249071D01*
X172930142Y-120177642D01*
X173001571Y-120106214D01*
X173215857Y-119820500D01*
X173287285Y-119606214D01*
X173287285Y-119463357D01*
X173930142Y-118749071D02*
X174787285Y-118749071D01*
X174358714Y-120249071D02*
X174358714Y-118749071D01*
X175358714Y-120177642D02*
X175358714Y-120249071D01*
X175287285Y-120391928D01*
X175215857Y-120463357D01*
X177073000Y-118891928D02*
X177144428Y-118820500D01*
X177287285Y-118749071D01*
X177644428Y-118749071D01*
X177787285Y-118820500D01*
X177858714Y-118891928D01*
X177930142Y-119034785D01*
X177930142Y-119177642D01*
X177858714Y-119391928D01*
X177001571Y-120249071D01*
X177930142Y-120249071D01*
X178858714Y-118749071D02*
X179001571Y-118749071D01*
X179144428Y-118820500D01*
X179215857Y-118891928D01*
X179287285Y-119034785D01*
X179358714Y-119320500D01*
X179358714Y-119677642D01*
X179287285Y-119963357D01*
X179215857Y-120106214D01*
X179144428Y-120177642D01*
X179001571Y-120249071D01*
X178858714Y-120249071D01*
X178715857Y-120177642D01*
X178644428Y-120106214D01*
X178573000Y-119963357D01*
X178501571Y-119677642D01*
X178501571Y-119320500D01*
X178573000Y-119034785D01*
X178644428Y-118891928D01*
X178715857Y-118820500D01*
X178858714Y-118749071D01*
X179930142Y-118891928D02*
X180001571Y-118820500D01*
X180144428Y-118749071D01*
X180501571Y-118749071D01*
X180644428Y-118820500D01*
X180715857Y-118891928D01*
X180787285Y-119034785D01*
X180787285Y-119177642D01*
X180715857Y-119391928D01*
X179858714Y-120249071D01*
X180787285Y-120249071D01*
X181715857Y-118749071D02*
X181858714Y-118749071D01*
X182001571Y-118820500D01*
X182073000Y-118891928D01*
X182144428Y-119034785D01*
X182215857Y-119320500D01*
X182215857Y-119677642D01*
X182144428Y-119963357D01*
X182073000Y-120106214D01*
X182001571Y-120177642D01*
X181858714Y-120249071D01*
X181715857Y-120249071D01*
X181573000Y-120177642D01*
X181501571Y-120106214D01*
X181430142Y-119963357D01*
X181358714Y-119677642D01*
X181358714Y-119320500D01*
X181430142Y-119034785D01*
X181501571Y-118891928D01*
X181573000Y-118820500D01*
X181715857Y-118749071D01*
X162930142Y-122656214D02*
X162858714Y-122727642D01*
X162644428Y-122799071D01*
X162501571Y-122799071D01*
X162287285Y-122727642D01*
X162144428Y-122584785D01*
X162073000Y-122441928D01*
X162001571Y-122156214D01*
X162001571Y-121941928D01*
X162073000Y-121656214D01*
X162144428Y-121513357D01*
X162287285Y-121370500D01*
X162501571Y-121299071D01*
X162644428Y-121299071D01*
X162858714Y-121370500D01*
X162930142Y-121441928D01*
X164215857Y-122799071D02*
X164215857Y-122013357D01*
X164144428Y-121870500D01*
X164001571Y-121799071D01*
X163715857Y-121799071D01*
X163573000Y-121870500D01*
X164215857Y-122727642D02*
X164073000Y-122799071D01*
X163715857Y-122799071D01*
X163573000Y-122727642D01*
X163501571Y-122584785D01*
X163501571Y-122441928D01*
X163573000Y-122299071D01*
X163715857Y-122227642D01*
X164073000Y-122227642D01*
X164215857Y-122156214D01*
X164930142Y-122799071D02*
X164930142Y-121799071D01*
X164930142Y-121941928D02*
X165001571Y-121870500D01*
X165144428Y-121799071D01*
X165358714Y-121799071D01*
X165501571Y-121870500D01*
X165573000Y-122013357D01*
X165573000Y-122799071D01*
X165573000Y-122013357D02*
X165644428Y-121870500D01*
X165787285Y-121799071D01*
X166001571Y-121799071D01*
X166144428Y-121870500D01*
X166215857Y-122013357D01*
X166215857Y-122799071D01*
X167501571Y-122727642D02*
X167358714Y-122799071D01*
X167073000Y-122799071D01*
X166930142Y-122727642D01*
X166858714Y-122584785D01*
X166858714Y-122013357D01*
X166930142Y-121870500D01*
X167073000Y-121799071D01*
X167358714Y-121799071D01*
X167501571Y-121870500D01*
X167573000Y-122013357D01*
X167573000Y-122156214D01*
X166858714Y-122299071D01*
X168215857Y-122799071D02*
X168215857Y-121799071D01*
X168215857Y-122084785D02*
X168287285Y-121941928D01*
X168358714Y-121870500D01*
X168501571Y-121799071D01*
X168644428Y-121799071D01*
X169358714Y-122799071D02*
X169215857Y-122727642D01*
X169144428Y-122656214D01*
X169073000Y-122513357D01*
X169073000Y-122084785D01*
X169144428Y-121941928D01*
X169215857Y-121870500D01*
X169358714Y-121799071D01*
X169573000Y-121799071D01*
X169715857Y-121870500D01*
X169787285Y-121941928D01*
X169858714Y-122084785D01*
X169858714Y-122513357D01*
X169787285Y-122656214D01*
X169715857Y-122727642D01*
X169573000Y-122799071D01*
X169358714Y-122799071D01*
X170501571Y-121799071D02*
X170501571Y-122799071D01*
X170501571Y-121941928D02*
X170573000Y-121870500D01*
X170715857Y-121799071D01*
X170930142Y-121799071D01*
X171073000Y-121870500D01*
X171144428Y-122013357D01*
X171144428Y-122799071D01*
X173001571Y-122799071D02*
X173001571Y-121299071D01*
X173858714Y-122799071D01*
X173858714Y-121299071D01*
X174573000Y-122799071D02*
X174573000Y-121799071D01*
X174573000Y-121299071D02*
X174501571Y-121370500D01*
X174573000Y-121441928D01*
X174644428Y-121370500D01*
X174573000Y-121299071D01*
X174573000Y-121441928D01*
X175930142Y-122727642D02*
X175787285Y-122799071D01*
X175501571Y-122799071D01*
X175358714Y-122727642D01*
X175287285Y-122656214D01*
X175215857Y-122513357D01*
X175215857Y-122084785D01*
X175287285Y-121941928D01*
X175358714Y-121870500D01*
X175501571Y-121799071D01*
X175787285Y-121799071D01*
X175930142Y-121870500D01*
X176573000Y-122799071D02*
X176573000Y-121299071D01*
X177215857Y-122799071D02*
X177215857Y-122013357D01*
X177144428Y-121870500D01*
X177001571Y-121799071D01*
X176787285Y-121799071D01*
X176644428Y-121870500D01*
X176573000Y-121941928D01*
X178144428Y-122799071D02*
X178001571Y-122727642D01*
X177930142Y-122656214D01*
X177858714Y-122513357D01*
X177858714Y-122084785D01*
X177930142Y-121941928D01*
X178001571Y-121870500D01*
X178144428Y-121799071D01*
X178358714Y-121799071D01*
X178501571Y-121870500D01*
X178573000Y-121941928D01*
X178644428Y-122084785D01*
X178644428Y-122513357D01*
X178573000Y-122656214D01*
X178501571Y-122727642D01*
X178358714Y-122799071D01*
X178144428Y-122799071D01*
X179501571Y-122799071D02*
X179358714Y-122727642D01*
X179287285Y-122584785D01*
X179287285Y-121299071D01*
X180001571Y-122727642D02*
X180144428Y-122799071D01*
X180430142Y-122799071D01*
X180573000Y-122727642D01*
X180644428Y-122584785D01*
X180644428Y-122513357D01*
X180573000Y-122370500D01*
X180430142Y-122299071D01*
X180215857Y-122299071D01*
X180073000Y-122227642D01*
X180001571Y-122084785D01*
X180001571Y-122013357D01*
X180073000Y-121870500D01*
X180215857Y-121799071D01*
X180430142Y-121799071D01*
X180573000Y-121870500D01*
X152715857Y-124920500D02*
X153430142Y-124920500D01*
X152573000Y-125349071D02*
X153073000Y-123849071D01*
X153573000Y-125349071D01*
X154715857Y-124349071D02*
X154715857Y-125349071D01*
X154073000Y-124349071D02*
X154073000Y-125134785D01*
X154144428Y-125277642D01*
X154287285Y-125349071D01*
X154501571Y-125349071D01*
X154644428Y-125277642D01*
X154715857Y-125206214D01*
X155358714Y-125277642D02*
X155501571Y-125349071D01*
X155787285Y-125349071D01*
X155930142Y-125277642D01*
X156001571Y-125134785D01*
X156001571Y-125063357D01*
X155930142Y-124920500D01*
X155787285Y-124849071D01*
X155573000Y-124849071D01*
X155430142Y-124777642D01*
X155358714Y-124634785D01*
X155358714Y-124563357D01*
X155430142Y-124420500D01*
X155573000Y-124349071D01*
X155787285Y-124349071D01*
X155930142Y-124420500D01*
X156430142Y-124349071D02*
X157001571Y-124349071D01*
X156644428Y-123849071D02*
X156644428Y-125134785D01*
X156715857Y-125277642D01*
X156858714Y-125349071D01*
X157001571Y-125349071D01*
X157501571Y-125349071D02*
X157501571Y-124349071D01*
X157501571Y-123849071D02*
X157430142Y-123920500D01*
X157501571Y-123991928D01*
X157573000Y-123920500D01*
X157501571Y-123849071D01*
X157501571Y-123991928D01*
X158215857Y-124349071D02*
X158215857Y-125349071D01*
X158215857Y-124491928D02*
X158287285Y-124420500D01*
X158430142Y-124349071D01*
X158644428Y-124349071D01*
X158787285Y-124420500D01*
X158858714Y-124563357D01*
X158858714Y-125349071D01*
X161573000Y-125206214D02*
X161501571Y-125277642D01*
X161287285Y-125349071D01*
X161144428Y-125349071D01*
X160930142Y-125277642D01*
X160787285Y-125134785D01*
X160715857Y-124991928D01*
X160644428Y-124706214D01*
X160644428Y-124491928D01*
X160715857Y-124206214D01*
X160787285Y-124063357D01*
X160930142Y-123920500D01*
X161144428Y-123849071D01*
X161287285Y-123849071D01*
X161501571Y-123920500D01*
X161573000Y-123991928D01*
X162215857Y-125349071D02*
X162215857Y-123849071D01*
X162858714Y-125349071D02*
X162858714Y-124563357D01*
X162787285Y-124420500D01*
X162644428Y-124349071D01*
X162430142Y-124349071D01*
X162287285Y-124420500D01*
X162215857Y-124491928D01*
X163573000Y-125349071D02*
X163573000Y-124349071D01*
X163573000Y-124634785D02*
X163644428Y-124491928D01*
X163715857Y-124420500D01*
X163858714Y-124349071D01*
X164001571Y-124349071D01*
X164501571Y-125349071D02*
X164501571Y-124349071D01*
X164501571Y-123849071D02*
X164430142Y-123920500D01*
X164501571Y-123991928D01*
X164573000Y-123920500D01*
X164501571Y-123849071D01*
X164501571Y-123991928D01*
X165144428Y-125277642D02*
X165287285Y-125349071D01*
X165573000Y-125349071D01*
X165715857Y-125277642D01*
X165787285Y-125134785D01*
X165787285Y-125063357D01*
X165715857Y-124920500D01*
X165573000Y-124849071D01*
X165358714Y-124849071D01*
X165215857Y-124777642D01*
X165144428Y-124634785D01*
X165144428Y-124563357D01*
X165215857Y-124420500D01*
X165358714Y-124349071D01*
X165573000Y-124349071D01*
X165715857Y-124420500D01*
X166215857Y-124349071D02*
X166787285Y-124349071D01*
X166430142Y-123849071D02*
X166430142Y-125134785D01*
X166501571Y-125277642D01*
X166644428Y-125349071D01*
X166787285Y-125349071D01*
X167287285Y-125349071D02*
X167287285Y-124349071D01*
X167287285Y-124491928D02*
X167358714Y-124420500D01*
X167501571Y-124349071D01*
X167715857Y-124349071D01*
X167858714Y-124420500D01*
X167930142Y-124563357D01*
X167930142Y-125349071D01*
X167930142Y-124563357D02*
X168001571Y-124420500D01*
X168144428Y-124349071D01*
X168358714Y-124349071D01*
X168501571Y-124420500D01*
X168573000Y-124563357D01*
X168573000Y-125349071D01*
X169930142Y-125349071D02*
X169930142Y-124563357D01*
X169858714Y-124420500D01*
X169715857Y-124349071D01*
X169430142Y-124349071D01*
X169287285Y-124420500D01*
X169930142Y-125277642D02*
X169787285Y-125349071D01*
X169430142Y-125349071D01*
X169287285Y-125277642D01*
X169215857Y-125134785D01*
X169215857Y-124991928D01*
X169287285Y-124849071D01*
X169430142Y-124777642D01*
X169787285Y-124777642D01*
X169930142Y-124706214D01*
X170644428Y-124349071D02*
X170644428Y-125349071D01*
X170644428Y-124491928D02*
X170715857Y-124420500D01*
X170858714Y-124349071D01*
X171073000Y-124349071D01*
X171215857Y-124420500D01*
X171287285Y-124563357D01*
X171287285Y-125349071D01*
X172073000Y-125277642D02*
X172073000Y-125349071D01*
X172001571Y-125491928D01*
X171930142Y-125563357D01*
X174358714Y-124563357D02*
X174573000Y-124634785D01*
X174644428Y-124706214D01*
X174715857Y-124849071D01*
X174715857Y-125063357D01*
X174644428Y-125206214D01*
X174573000Y-125277642D01*
X174430142Y-125349071D01*
X173858714Y-125349071D01*
X173858714Y-123849071D01*
X174358714Y-123849071D01*
X174501571Y-123920500D01*
X174573000Y-123991928D01*
X174644428Y-124134785D01*
X174644428Y-124277642D01*
X174573000Y-124420500D01*
X174501571Y-124491928D01*
X174358714Y-124563357D01*
X173858714Y-124563357D01*
X175358714Y-125349071D02*
X175358714Y-124349071D01*
X175358714Y-124634785D02*
X175430142Y-124491928D01*
X175501571Y-124420500D01*
X175644428Y-124349071D01*
X175787285Y-124349071D01*
X176287285Y-125349071D02*
X176287285Y-124349071D01*
X176287285Y-123849071D02*
X176215857Y-123920500D01*
X176287285Y-123991928D01*
X176358714Y-123920500D01*
X176287285Y-123849071D01*
X176287285Y-123991928D01*
X177644428Y-125349071D02*
X177644428Y-124563357D01*
X177573000Y-124420500D01*
X177430142Y-124349071D01*
X177144428Y-124349071D01*
X177001571Y-124420500D01*
X177644428Y-125277642D02*
X177501571Y-125349071D01*
X177144428Y-125349071D01*
X177001571Y-125277642D01*
X176930142Y-125134785D01*
X176930142Y-124991928D01*
X177001571Y-124849071D01*
X177144428Y-124777642D01*
X177501571Y-124777642D01*
X177644428Y-124706214D01*
X178358714Y-124349071D02*
X178358714Y-125349071D01*
X178358714Y-124491928D02*
X178430142Y-124420500D01*
X178573000Y-124349071D01*
X178787285Y-124349071D01*
X178930142Y-124420500D01*
X179001571Y-124563357D01*
X179001571Y-125349071D01*
X180858714Y-125349071D02*
X180858714Y-123849071D01*
X181215857Y-123849071D01*
X181430142Y-123920500D01*
X181573000Y-124063357D01*
X181644428Y-124206214D01*
X181715857Y-124491928D01*
X181715857Y-124706214D01*
X181644428Y-124991928D01*
X181573000Y-125134785D01*
X181430142Y-125277642D01*
X181215857Y-125349071D01*
X180858714Y-125349071D01*
X183001571Y-125349071D02*
X183001571Y-124563357D01*
X182930142Y-124420500D01*
X182787285Y-124349071D01*
X182501571Y-124349071D01*
X182358714Y-124420500D01*
X183001571Y-125277642D02*
X182858714Y-125349071D01*
X182501571Y-125349071D01*
X182358714Y-125277642D01*
X182287285Y-125134785D01*
X182287285Y-124991928D01*
X182358714Y-124849071D01*
X182501571Y-124777642D01*
X182858714Y-124777642D01*
X183001571Y-124706214D01*
X183715857Y-125349071D02*
X183715857Y-123849071D01*
X184358714Y-125349071D02*
X184358714Y-124563357D01*
X184287285Y-124420500D01*
X184144428Y-124349071D01*
X183930142Y-124349071D01*
X183787285Y-124420500D01*
X183715857Y-124491928D01*
X185287285Y-125349071D02*
X185144428Y-125277642D01*
X185073000Y-125134785D01*
X185073000Y-123849071D01*
X185858714Y-125349071D02*
X185858714Y-124349071D01*
X185858714Y-124491928D02*
X185930142Y-124420500D01*
X186073000Y-124349071D01*
X186287285Y-124349071D01*
X186430142Y-124420500D01*
X186501571Y-124563357D01*
X186501571Y-125349071D01*
X186501571Y-124563357D02*
X186573000Y-124420500D01*
X186715857Y-124349071D01*
X186930142Y-124349071D01*
X187073000Y-124420500D01*
X187144428Y-124563357D01*
X187144428Y-125349071D01*
X188501571Y-125349071D02*
X188501571Y-124563357D01*
X188430142Y-124420500D01*
X188287285Y-124349071D01*
X188001571Y-124349071D01*
X187858714Y-124420500D01*
X188501571Y-125277642D02*
X188358714Y-125349071D01*
X188001571Y-125349071D01*
X187858714Y-125277642D01*
X187787285Y-125134785D01*
X187787285Y-124991928D01*
X187858714Y-124849071D01*
X188001571Y-124777642D01*
X188358714Y-124777642D01*
X188501571Y-124706214D01*
X189215857Y-124349071D02*
X189215857Y-125349071D01*
X189215857Y-124491928D02*
X189287285Y-124420500D01*
X189430142Y-124349071D01*
X189644428Y-124349071D01*
X189787285Y-124420500D01*
X189858714Y-124563357D01*
X189858714Y-125349071D01*
D12*
X134517966Y-117665500D02*
X139802034Y-117665500D01*
X139802034Y-103314500D02*
X134517966Y-103314500D01*
D13*
X191447267Y-107571000D02*
X191104733Y-107571000D01*
X191447267Y-106551000D02*
X191104733Y-106551000D01*
X144457267Y-97788000D02*
X144114733Y-97788000D01*
X144457267Y-98808000D02*
X144114733Y-98808000D01*
X191433267Y-109218000D02*
X191090733Y-109218000D01*
X191433267Y-110238000D02*
X191090733Y-110238000D01*
X140492267Y-98808000D02*
X140149733Y-98808000D01*
X140492267Y-97788000D02*
X140149733Y-97788000D01*
X93463000Y-67446082D02*
X94713000Y-67446082D01*
X94088000Y-68071082D02*
X94088000Y-66821082D01*
X97346000Y-54893000D02*
X97980000Y-54893000D01*
X96906000Y-54933000D02*
X98420000Y-54933000D01*
X96635000Y-54973000D02*
X98691000Y-54973000D01*
X96422000Y-55013000D02*
X98904000Y-55013000D01*
X96241000Y-55053000D02*
X99085000Y-55053000D01*
X96080000Y-55093000D02*
X99246000Y-55093000D01*
X95935000Y-55133000D02*
X99391000Y-55133000D01*
X95802000Y-55173000D02*
X99524000Y-55173000D01*
X95679000Y-55213000D02*
X99647000Y-55213000D01*
X95563000Y-55253000D02*
X99763000Y-55253000D01*
X95454000Y-55293000D02*
X99872000Y-55293000D01*
X95351000Y-55333000D02*
X99975000Y-55333000D01*
X95253000Y-55373000D02*
X100073000Y-55373000D01*
X95159000Y-55413000D02*
X100167000Y-55413000D01*
X95069000Y-55453000D02*
X100257000Y-55453000D01*
X94982000Y-55493000D02*
X100344000Y-55493000D01*
X94899000Y-55533000D02*
X100427000Y-55533000D01*
X94819000Y-55573000D02*
X100507000Y-55573000D01*
X94742000Y-55613000D02*
X100584000Y-55613000D01*
X94667000Y-55653000D02*
X100659000Y-55653000D01*
X94594000Y-55693000D02*
X100732000Y-55693000D01*
X94523000Y-55733000D02*
X100803000Y-55733000D01*
X94455000Y-55773000D02*
X100871000Y-55773000D01*
X94388000Y-55813000D02*
X100938000Y-55813000D01*
X94324000Y-55853000D02*
X101002000Y-55853000D01*
X94261000Y-55893000D02*
X101065000Y-55893000D01*
X94199000Y-55933000D02*
X101127000Y-55933000D01*
X94139000Y-55973000D02*
X101187000Y-55973000D01*
X94080000Y-56013000D02*
X101246000Y-56013000D01*
X94023000Y-56053000D02*
X101303000Y-56053000D01*
X93967000Y-56093000D02*
X101359000Y-56093000D01*
X93913000Y-56133000D02*
X101413000Y-56133000D01*
X93859000Y-56173000D02*
X101467000Y-56173000D01*
X93807000Y-56213000D02*
X101519000Y-56213000D01*
X93756000Y-56253000D02*
X101570000Y-56253000D01*
X93706000Y-56293000D02*
X101620000Y-56293000D01*
X93656000Y-56333000D02*
X101670000Y-56333000D01*
X93608000Y-56373000D02*
X101718000Y-56373000D01*
X93561000Y-56413000D02*
X101765000Y-56413000D01*
X93515000Y-56453000D02*
X101811000Y-56453000D01*
X93469000Y-56493000D02*
X101857000Y-56493000D01*
X93425000Y-56533000D02*
X101901000Y-56533000D01*
X93381000Y-56573000D02*
X101945000Y-56573000D01*
X93338000Y-56613000D02*
X101988000Y-56613000D01*
X93296000Y-56653000D02*
X102030000Y-56653000D01*
X93255000Y-56693000D02*
X102071000Y-56693000D01*
X93214000Y-56733000D02*
X102112000Y-56733000D01*
X93174000Y-56773000D02*
X102152000Y-56773000D01*
X93135000Y-56813000D02*
X102191000Y-56813000D01*
X93096000Y-56853000D02*
X102230000Y-56853000D01*
X93058000Y-56893000D02*
X102268000Y-56893000D01*
X93021000Y-56933000D02*
X102305000Y-56933000D01*
X92985000Y-56973000D02*
X102341000Y-56973000D01*
X92949000Y-57013000D02*
X102377000Y-57013000D01*
X92913000Y-57053000D02*
X102413000Y-57053000D01*
X92878000Y-57093000D02*
X102448000Y-57093000D01*
X92844000Y-57133000D02*
X102482000Y-57133000D01*
X92811000Y-57173000D02*
X102515000Y-57173000D01*
X92778000Y-57213000D02*
X102548000Y-57213000D01*
X92745000Y-57253000D02*
X102581000Y-57253000D01*
X92713000Y-57293000D02*
X102613000Y-57293000D01*
X99103000Y-57333000D02*
X102645000Y-57333000D01*
X92681000Y-57333000D02*
X96223000Y-57333000D01*
X99103000Y-57373000D02*
X102675000Y-57373000D01*
X92651000Y-57373000D02*
X96223000Y-57373000D01*
X99103000Y-57413000D02*
X102706000Y-57413000D01*
X92620000Y-57413000D02*
X96223000Y-57413000D01*
X99103000Y-57453000D02*
X102736000Y-57453000D01*
X92590000Y-57453000D02*
X96223000Y-57453000D01*
X99103000Y-57493000D02*
X102765000Y-57493000D01*
X92561000Y-57493000D02*
X96223000Y-57493000D01*
X99103000Y-57533000D02*
X102794000Y-57533000D01*
X92532000Y-57533000D02*
X96223000Y-57533000D01*
X99103000Y-57573000D02*
X102823000Y-57573000D01*
X92503000Y-57573000D02*
X96223000Y-57573000D01*
X99103000Y-57613000D02*
X102851000Y-57613000D01*
X92475000Y-57613000D02*
X96223000Y-57613000D01*
X99103000Y-57653000D02*
X102879000Y-57653000D01*
X92447000Y-57653000D02*
X96223000Y-57653000D01*
X99103000Y-57693000D02*
X102906000Y-57693000D01*
X92420000Y-57693000D02*
X96223000Y-57693000D01*
X99103000Y-57733000D02*
X102933000Y-57733000D01*
X92393000Y-57733000D02*
X96223000Y-57733000D01*
X99103000Y-57773000D02*
X102959000Y-57773000D01*
X92367000Y-57773000D02*
X96223000Y-57773000D01*
X99103000Y-57813000D02*
X102985000Y-57813000D01*
X92341000Y-57813000D02*
X96223000Y-57813000D01*
X99103000Y-57853000D02*
X103010000Y-57853000D01*
X92316000Y-57853000D02*
X96223000Y-57853000D01*
X99103000Y-57893000D02*
X103035000Y-57893000D01*
X92291000Y-57893000D02*
X96223000Y-57893000D01*
X99103000Y-57933000D02*
X103060000Y-57933000D01*
X92266000Y-57933000D02*
X96223000Y-57933000D01*
X99103000Y-57973000D02*
X103084000Y-57973000D01*
X92242000Y-57973000D02*
X96223000Y-57973000D01*
X99103000Y-58013000D02*
X103108000Y-58013000D01*
X92218000Y-58013000D02*
X96223000Y-58013000D01*
X99103000Y-58053000D02*
X103131000Y-58053000D01*
X92195000Y-58053000D02*
X96223000Y-58053000D01*
X99103000Y-58093000D02*
X103154000Y-58093000D01*
X92172000Y-58093000D02*
X96223000Y-58093000D01*
X99103000Y-58133000D02*
X103177000Y-58133000D01*
X92149000Y-58133000D02*
X96223000Y-58133000D01*
X99103000Y-58173000D02*
X103199000Y-58173000D01*
X92127000Y-58173000D02*
X96223000Y-58173000D01*
X99103000Y-58213000D02*
X103221000Y-58213000D01*
X92105000Y-58213000D02*
X96223000Y-58213000D01*
X99103000Y-58253000D02*
X103243000Y-58253000D01*
X92083000Y-58253000D02*
X96223000Y-58253000D01*
X99103000Y-58293000D02*
X103264000Y-58293000D01*
X92062000Y-58293000D02*
X96223000Y-58293000D01*
X99103000Y-58333000D02*
X103285000Y-58333000D01*
X92041000Y-58333000D02*
X96223000Y-58333000D01*
X99103000Y-58373000D02*
X103305000Y-58373000D01*
X92021000Y-58373000D02*
X96223000Y-58373000D01*
X99103000Y-58413000D02*
X103325000Y-58413000D01*
X92001000Y-58413000D02*
X96223000Y-58413000D01*
X99103000Y-58453000D02*
X103345000Y-58453000D01*
X91981000Y-58453000D02*
X96223000Y-58453000D01*
X99103000Y-58493000D02*
X103365000Y-58493000D01*
X91961000Y-58493000D02*
X96223000Y-58493000D01*
X99103000Y-58533000D02*
X103384000Y-58533000D01*
X91942000Y-58533000D02*
X96223000Y-58533000D01*
X99103000Y-58573000D02*
X103402000Y-58573000D01*
X91924000Y-58573000D02*
X96223000Y-58573000D01*
X99103000Y-58613000D02*
X103421000Y-58613000D01*
X91905000Y-58613000D02*
X96223000Y-58613000D01*
X99103000Y-58653000D02*
X103439000Y-58653000D01*
X91887000Y-58653000D02*
X96223000Y-58653000D01*
X99103000Y-58693000D02*
X103456000Y-58693000D01*
X91870000Y-58693000D02*
X96223000Y-58693000D01*
X99103000Y-58733000D02*
X103474000Y-58733000D01*
X91852000Y-58733000D02*
X96223000Y-58733000D01*
X99103000Y-58773000D02*
X103491000Y-58773000D01*
X91835000Y-58773000D02*
X96223000Y-58773000D01*
X99103000Y-58813000D02*
X103508000Y-58813000D01*
X91818000Y-58813000D02*
X96223000Y-58813000D01*
X99103000Y-58853000D02*
X103524000Y-58853000D01*
X91802000Y-58853000D02*
X96223000Y-58853000D01*
X99103000Y-58893000D02*
X103540000Y-58893000D01*
X91786000Y-58893000D02*
X96223000Y-58893000D01*
X99103000Y-58933000D02*
X103556000Y-58933000D01*
X91770000Y-58933000D02*
X96223000Y-58933000D01*
X99103000Y-58973000D02*
X103571000Y-58973000D01*
X91755000Y-58973000D02*
X96223000Y-58973000D01*
X99103000Y-59013000D02*
X103587000Y-59013000D01*
X91739000Y-59013000D02*
X96223000Y-59013000D01*
X99103000Y-59053000D02*
X103602000Y-59053000D01*
X91724000Y-59053000D02*
X96223000Y-59053000D01*
X99103000Y-59093000D02*
X103616000Y-59093000D01*
X91710000Y-59093000D02*
X96223000Y-59093000D01*
X99103000Y-59133000D02*
X103630000Y-59133000D01*
X91696000Y-59133000D02*
X96223000Y-59133000D01*
X99103000Y-59173000D02*
X103644000Y-59173000D01*
X91682000Y-59173000D02*
X96223000Y-59173000D01*
X99103000Y-59213000D02*
X103658000Y-59213000D01*
X91668000Y-59213000D02*
X96223000Y-59213000D01*
X99103000Y-59253000D02*
X103671000Y-59253000D01*
X91655000Y-59253000D02*
X96223000Y-59253000D01*
X99103000Y-59293000D02*
X103684000Y-59293000D01*
X91642000Y-59293000D02*
X96223000Y-59293000D01*
X99103000Y-59333000D02*
X103697000Y-59333000D01*
X91629000Y-59333000D02*
X96223000Y-59333000D01*
X99103000Y-59373000D02*
X103710000Y-59373000D01*
X91616000Y-59373000D02*
X96223000Y-59373000D01*
X99103000Y-59413000D02*
X103722000Y-59413000D01*
X91604000Y-59413000D02*
X96223000Y-59413000D01*
X99103000Y-59453000D02*
X103734000Y-59453000D01*
X91592000Y-59453000D02*
X96223000Y-59453000D01*
X99103000Y-59493000D02*
X103746000Y-59493000D01*
X91580000Y-59493000D02*
X96223000Y-59493000D01*
X99103000Y-59533000D02*
X103757000Y-59533000D01*
X91569000Y-59533000D02*
X96223000Y-59533000D01*
X99103000Y-59573000D02*
X103768000Y-59573000D01*
X91558000Y-59573000D02*
X96223000Y-59573000D01*
X99103000Y-59613000D02*
X103779000Y-59613000D01*
X91547000Y-59613000D02*
X96223000Y-59613000D01*
X99103000Y-59653000D02*
X103789000Y-59653000D01*
X91537000Y-59653000D02*
X96223000Y-59653000D01*
X99103000Y-59693000D02*
X103800000Y-59693000D01*
X91526000Y-59693000D02*
X96223000Y-59693000D01*
X99103000Y-59733000D02*
X103809000Y-59733000D01*
X91517000Y-59733000D02*
X96223000Y-59733000D01*
X99103000Y-59773000D02*
X103819000Y-59773000D01*
X91507000Y-59773000D02*
X96223000Y-59773000D01*
X99103000Y-59813000D02*
X103829000Y-59813000D01*
X91497000Y-59813000D02*
X96223000Y-59813000D01*
X99103000Y-59853000D02*
X103838000Y-59853000D01*
X91488000Y-59853000D02*
X96223000Y-59853000D01*
X99103000Y-59893000D02*
X103847000Y-59893000D01*
X91479000Y-59893000D02*
X96223000Y-59893000D01*
X99103000Y-59933000D02*
X103855000Y-59933000D01*
X91471000Y-59933000D02*
X96223000Y-59933000D01*
X99103000Y-59973000D02*
X103864000Y-59973000D01*
X91462000Y-59973000D02*
X96223000Y-59973000D01*
X99103000Y-60013000D02*
X103872000Y-60013000D01*
X91454000Y-60013000D02*
X96223000Y-60013000D01*
X99103000Y-60053000D02*
X103879000Y-60053000D01*
X91447000Y-60053000D02*
X96223000Y-60053000D01*
X99103000Y-60093000D02*
X103887000Y-60093000D01*
X91439000Y-60093000D02*
X96223000Y-60093000D01*
X99103000Y-60133000D02*
X103894000Y-60133000D01*
X91432000Y-60133000D02*
X96223000Y-60133000D01*
X99103000Y-60173000D02*
X103901000Y-60173000D01*
X91425000Y-60173000D02*
X96223000Y-60173000D01*
X91418000Y-60213000D02*
X103908000Y-60213000D01*
X91411000Y-60253000D02*
X103915000Y-60253000D01*
X91405000Y-60293000D02*
X103921000Y-60293000D01*
X91399000Y-60333000D02*
X103927000Y-60333000D01*
X91394000Y-60373000D02*
X103932000Y-60373000D01*
X91388000Y-60413000D02*
X103938000Y-60413000D01*
X91383000Y-60453000D02*
X103943000Y-60453000D01*
X91378000Y-60493000D02*
X103948000Y-60493000D01*
X91373000Y-60533000D02*
X103953000Y-60533000D01*
X91369000Y-60574000D02*
X103957000Y-60574000D01*
X91365000Y-60614000D02*
X103961000Y-60614000D01*
X91361000Y-60654000D02*
X103965000Y-60654000D01*
X91357000Y-60694000D02*
X103969000Y-60694000D01*
X91354000Y-60734000D02*
X103972000Y-60734000D01*
X91351000Y-60774000D02*
X103975000Y-60774000D01*
X91348000Y-60814000D02*
X103978000Y-60814000D01*
X91345000Y-60854000D02*
X103981000Y-60854000D01*
X91343000Y-60894000D02*
X103983000Y-60894000D01*
X91341000Y-60934000D02*
X103985000Y-60934000D01*
X91339000Y-60974000D02*
X103987000Y-60974000D01*
X91337000Y-61014000D02*
X103989000Y-61014000D01*
X91336000Y-61054000D02*
X103990000Y-61054000D01*
X91335000Y-61094000D02*
X103991000Y-61094000D01*
X91334000Y-61134000D02*
X103992000Y-61134000D01*
X91333000Y-61174000D02*
X103993000Y-61174000D01*
X91333000Y-61214000D02*
X103993000Y-61214000D01*
X91333000Y-61254000D02*
X103993000Y-61254000D01*
X104033000Y-61254000D02*
G75*
G03X104033000Y-61254000I-6370000J0D01*
G01*
X194171000Y-99695000D02*
G75*
G03X194171000Y-99695000I-3270000J0D01*
G01*
X190901000Y-102925000D02*
X190901000Y-96465000D01*
X190861000Y-102925000D02*
X190861000Y-96465000D01*
X190821000Y-102925000D02*
X190821000Y-96465000D01*
X190781000Y-102923000D02*
X190781000Y-96467000D01*
X190741000Y-102922000D02*
X190741000Y-96468000D01*
X190701000Y-102919000D02*
X190701000Y-96471000D01*
X190661000Y-102917000D02*
X190661000Y-100735000D01*
X190661000Y-98655000D02*
X190661000Y-96473000D01*
X190621000Y-102913000D02*
X190621000Y-100735000D01*
X190621000Y-98655000D02*
X190621000Y-96477000D01*
X190581000Y-102910000D02*
X190581000Y-100735000D01*
X190581000Y-98655000D02*
X190581000Y-96480000D01*
X190541000Y-102906000D02*
X190541000Y-100735000D01*
X190541000Y-98655000D02*
X190541000Y-96484000D01*
X190501000Y-102901000D02*
X190501000Y-100735000D01*
X190501000Y-98655000D02*
X190501000Y-96489000D01*
X190461000Y-102896000D02*
X190461000Y-100735000D01*
X190461000Y-98655000D02*
X190461000Y-96494000D01*
X190421000Y-102890000D02*
X190421000Y-100735000D01*
X190421000Y-98655000D02*
X190421000Y-96500000D01*
X190381000Y-102884000D02*
X190381000Y-100735000D01*
X190381000Y-98655000D02*
X190381000Y-96506000D01*
X190341000Y-102877000D02*
X190341000Y-100735000D01*
X190341000Y-98655000D02*
X190341000Y-96513000D01*
X190301000Y-102870000D02*
X190301000Y-100735000D01*
X190301000Y-98655000D02*
X190301000Y-96520000D01*
X190261000Y-102862000D02*
X190261000Y-100735000D01*
X190261000Y-98655000D02*
X190261000Y-96528000D01*
X190221000Y-102854000D02*
X190221000Y-100735000D01*
X190221000Y-98655000D02*
X190221000Y-96536000D01*
X190180000Y-102845000D02*
X190180000Y-100735000D01*
X190180000Y-98655000D02*
X190180000Y-96545000D01*
X190140000Y-102836000D02*
X190140000Y-100735000D01*
X190140000Y-98655000D02*
X190140000Y-96554000D01*
X190100000Y-102826000D02*
X190100000Y-100735000D01*
X190100000Y-98655000D02*
X190100000Y-96564000D01*
X190060000Y-102816000D02*
X190060000Y-100735000D01*
X190060000Y-98655000D02*
X190060000Y-96574000D01*
X190020000Y-102805000D02*
X190020000Y-100735000D01*
X190020000Y-98655000D02*
X190020000Y-96585000D01*
X189980000Y-102793000D02*
X189980000Y-100735000D01*
X189980000Y-98655000D02*
X189980000Y-96597000D01*
X189940000Y-102781000D02*
X189940000Y-100735000D01*
X189940000Y-98655000D02*
X189940000Y-96609000D01*
X189900000Y-102769000D02*
X189900000Y-100735000D01*
X189900000Y-98655000D02*
X189900000Y-96621000D01*
X189860000Y-102756000D02*
X189860000Y-100735000D01*
X189860000Y-98655000D02*
X189860000Y-96634000D01*
X189820000Y-102742000D02*
X189820000Y-100735000D01*
X189820000Y-98655000D02*
X189820000Y-96648000D01*
X189780000Y-102728000D02*
X189780000Y-100735000D01*
X189780000Y-98655000D02*
X189780000Y-96662000D01*
X189740000Y-102713000D02*
X189740000Y-100735000D01*
X189740000Y-98655000D02*
X189740000Y-96677000D01*
X189700000Y-102697000D02*
X189700000Y-100735000D01*
X189700000Y-98655000D02*
X189700000Y-96693000D01*
X189660000Y-102681000D02*
X189660000Y-100735000D01*
X189660000Y-98655000D02*
X189660000Y-96709000D01*
X189620000Y-102665000D02*
X189620000Y-100735000D01*
X189620000Y-98655000D02*
X189620000Y-96725000D01*
X189580000Y-102647000D02*
X189580000Y-100735000D01*
X189580000Y-98655000D02*
X189580000Y-96743000D01*
X189540000Y-102629000D02*
X189540000Y-100735000D01*
X189540000Y-98655000D02*
X189540000Y-96761000D01*
X189500000Y-102611000D02*
X189500000Y-100735000D01*
X189500000Y-98655000D02*
X189500000Y-96779000D01*
X189460000Y-102591000D02*
X189460000Y-100735000D01*
X189460000Y-98655000D02*
X189460000Y-96799000D01*
X189420000Y-102571000D02*
X189420000Y-100735000D01*
X189420000Y-98655000D02*
X189420000Y-96819000D01*
X189380000Y-102551000D02*
X189380000Y-100735000D01*
X189380000Y-98655000D02*
X189380000Y-96839000D01*
X189340000Y-102529000D02*
X189340000Y-100735000D01*
X189340000Y-98655000D02*
X189340000Y-96861000D01*
X189300000Y-102507000D02*
X189300000Y-100735000D01*
X189300000Y-98655000D02*
X189300000Y-96883000D01*
X189260000Y-102485000D02*
X189260000Y-100735000D01*
X189260000Y-98655000D02*
X189260000Y-96905000D01*
X189220000Y-102461000D02*
X189220000Y-100735000D01*
X189220000Y-98655000D02*
X189220000Y-96929000D01*
X189180000Y-102437000D02*
X189180000Y-100735000D01*
X189180000Y-98655000D02*
X189180000Y-96953000D01*
X189140000Y-102411000D02*
X189140000Y-100735000D01*
X189140000Y-98655000D02*
X189140000Y-96979000D01*
X189100000Y-102385000D02*
X189100000Y-100735000D01*
X189100000Y-98655000D02*
X189100000Y-97005000D01*
X189060000Y-102359000D02*
X189060000Y-100735000D01*
X189060000Y-98655000D02*
X189060000Y-97031000D01*
X189020000Y-102331000D02*
X189020000Y-100735000D01*
X189020000Y-98655000D02*
X189020000Y-97059000D01*
X188980000Y-102302000D02*
X188980000Y-100735000D01*
X188980000Y-98655000D02*
X188980000Y-97088000D01*
X188940000Y-102273000D02*
X188940000Y-100735000D01*
X188940000Y-98655000D02*
X188940000Y-97117000D01*
X188900000Y-102243000D02*
X188900000Y-100735000D01*
X188900000Y-98655000D02*
X188900000Y-97147000D01*
X188860000Y-102211000D02*
X188860000Y-100735000D01*
X188860000Y-98655000D02*
X188860000Y-97179000D01*
X188820000Y-102179000D02*
X188820000Y-100735000D01*
X188820000Y-98655000D02*
X188820000Y-97211000D01*
X188780000Y-102145000D02*
X188780000Y-100735000D01*
X188780000Y-98655000D02*
X188780000Y-97245000D01*
X188740000Y-102111000D02*
X188740000Y-100735000D01*
X188740000Y-98655000D02*
X188740000Y-97279000D01*
X188700000Y-102075000D02*
X188700000Y-100735000D01*
X188700000Y-98655000D02*
X188700000Y-97315000D01*
X188660000Y-102038000D02*
X188660000Y-100735000D01*
X188660000Y-98655000D02*
X188660000Y-97352000D01*
X188620000Y-102000000D02*
X188620000Y-100735000D01*
X188620000Y-98655000D02*
X188620000Y-97390000D01*
X188580000Y-101960000D02*
X188580000Y-97430000D01*
X188540000Y-101919000D02*
X188540000Y-97471000D01*
X188500000Y-101877000D02*
X188500000Y-97513000D01*
X188460000Y-101832000D02*
X188460000Y-97558000D01*
X188420000Y-101787000D02*
X188420000Y-97603000D01*
X188380000Y-101739000D02*
X188380000Y-97651000D01*
X188340000Y-101690000D02*
X188340000Y-97700000D01*
X188300000Y-101639000D02*
X188300000Y-97751000D01*
X188260000Y-101585000D02*
X188260000Y-97805000D01*
X188220000Y-101529000D02*
X188220000Y-97861000D01*
X188180000Y-101471000D02*
X188180000Y-97919000D01*
X188140000Y-101409000D02*
X188140000Y-97981000D01*
X188100000Y-101345000D02*
X188100000Y-98045000D01*
X188060000Y-101276000D02*
X188060000Y-98114000D01*
X188020000Y-101204000D02*
X188020000Y-98186000D01*
X187980000Y-101127000D02*
X187980000Y-98263000D01*
X187940000Y-101045000D02*
X187940000Y-98345000D01*
X187900000Y-100957000D02*
X187900000Y-98433000D01*
X187860000Y-100860000D02*
X187860000Y-98530000D01*
X187820000Y-100754000D02*
X187820000Y-98636000D01*
X187780000Y-100635000D02*
X187780000Y-98755000D01*
X187740000Y-100497000D02*
X187740000Y-98893000D01*
X187700000Y-100328000D02*
X187700000Y-99062000D01*
X187660000Y-100097000D02*
X187660000Y-99293000D01*
X194401241Y-101534000D02*
X193771241Y-101534000D01*
X194086241Y-101849000D02*
X194086241Y-101219000D01*
X134703500Y-62397000D02*
G75*
G03X134703500Y-62397000I-6370000J0D01*
G01*
X122003500Y-62397000D02*
X134663500Y-62397000D01*
X122003500Y-62357000D02*
X134663500Y-62357000D01*
X122003500Y-62317000D02*
X134663500Y-62317000D01*
X122004500Y-62277000D02*
X134662500Y-62277000D01*
X122005500Y-62237000D02*
X134661500Y-62237000D01*
X122006500Y-62197000D02*
X134660500Y-62197000D01*
X122007500Y-62157000D02*
X134659500Y-62157000D01*
X122009500Y-62117000D02*
X134657500Y-62117000D01*
X122011500Y-62077000D02*
X134655500Y-62077000D01*
X122013500Y-62037000D02*
X134653500Y-62037000D01*
X122015500Y-61997000D02*
X134651500Y-61997000D01*
X122018500Y-61957000D02*
X134648500Y-61957000D01*
X122021500Y-61917000D02*
X134645500Y-61917000D01*
X122024500Y-61877000D02*
X134642500Y-61877000D01*
X122027500Y-61837000D02*
X134639500Y-61837000D01*
X122031500Y-61797000D02*
X134635500Y-61797000D01*
X122035500Y-61757000D02*
X134631500Y-61757000D01*
X122039500Y-61717000D02*
X134627500Y-61717000D01*
X122043500Y-61676000D02*
X134623500Y-61676000D01*
X122048500Y-61636000D02*
X134618500Y-61636000D01*
X122053500Y-61596000D02*
X134613500Y-61596000D01*
X122058500Y-61556000D02*
X134608500Y-61556000D01*
X122064500Y-61516000D02*
X134602500Y-61516000D01*
X122069500Y-61476000D02*
X134597500Y-61476000D01*
X122075500Y-61436000D02*
X134591500Y-61436000D01*
X122081500Y-61396000D02*
X134585500Y-61396000D01*
X122088500Y-61356000D02*
X134578500Y-61356000D01*
X122095500Y-61316000D02*
X126893500Y-61316000D01*
X129773500Y-61316000D02*
X134571500Y-61316000D01*
X122102500Y-61276000D02*
X126893500Y-61276000D01*
X129773500Y-61276000D02*
X134564500Y-61276000D01*
X122109500Y-61236000D02*
X126893500Y-61236000D01*
X129773500Y-61236000D02*
X134557500Y-61236000D01*
X122117500Y-61196000D02*
X126893500Y-61196000D01*
X129773500Y-61196000D02*
X134549500Y-61196000D01*
X122124500Y-61156000D02*
X126893500Y-61156000D01*
X129773500Y-61156000D02*
X134542500Y-61156000D01*
X122132500Y-61116000D02*
X126893500Y-61116000D01*
X129773500Y-61116000D02*
X134534500Y-61116000D01*
X122141500Y-61076000D02*
X126893500Y-61076000D01*
X129773500Y-61076000D02*
X134525500Y-61076000D01*
X122149500Y-61036000D02*
X126893500Y-61036000D01*
X129773500Y-61036000D02*
X134517500Y-61036000D01*
X122158500Y-60996000D02*
X126893500Y-60996000D01*
X129773500Y-60996000D02*
X134508500Y-60996000D01*
X122167500Y-60956000D02*
X126893500Y-60956000D01*
X129773500Y-60956000D02*
X134499500Y-60956000D01*
X122177500Y-60916000D02*
X126893500Y-60916000D01*
X129773500Y-60916000D02*
X134489500Y-60916000D01*
X122187500Y-60876000D02*
X126893500Y-60876000D01*
X129773500Y-60876000D02*
X134479500Y-60876000D01*
X122196500Y-60836000D02*
X126893500Y-60836000D01*
X129773500Y-60836000D02*
X134470500Y-60836000D01*
X122207500Y-60796000D02*
X126893500Y-60796000D01*
X129773500Y-60796000D02*
X134459500Y-60796000D01*
X122217500Y-60756000D02*
X126893500Y-60756000D01*
X129773500Y-60756000D02*
X134449500Y-60756000D01*
X122228500Y-60716000D02*
X126893500Y-60716000D01*
X129773500Y-60716000D02*
X134438500Y-60716000D01*
X122239500Y-60676000D02*
X126893500Y-60676000D01*
X129773500Y-60676000D02*
X134427500Y-60676000D01*
X122250500Y-60636000D02*
X126893500Y-60636000D01*
X129773500Y-60636000D02*
X134416500Y-60636000D01*
X122262500Y-60596000D02*
X126893500Y-60596000D01*
X129773500Y-60596000D02*
X134404500Y-60596000D01*
X122274500Y-60556000D02*
X126893500Y-60556000D01*
X129773500Y-60556000D02*
X134392500Y-60556000D01*
X122286500Y-60516000D02*
X126893500Y-60516000D01*
X129773500Y-60516000D02*
X134380500Y-60516000D01*
X122299500Y-60476000D02*
X126893500Y-60476000D01*
X129773500Y-60476000D02*
X134367500Y-60476000D01*
X122312500Y-60436000D02*
X126893500Y-60436000D01*
X129773500Y-60436000D02*
X134354500Y-60436000D01*
X122325500Y-60396000D02*
X126893500Y-60396000D01*
X129773500Y-60396000D02*
X134341500Y-60396000D01*
X122338500Y-60356000D02*
X126893500Y-60356000D01*
X129773500Y-60356000D02*
X134328500Y-60356000D01*
X122352500Y-60316000D02*
X126893500Y-60316000D01*
X129773500Y-60316000D02*
X134314500Y-60316000D01*
X122366500Y-60276000D02*
X126893500Y-60276000D01*
X129773500Y-60276000D02*
X134300500Y-60276000D01*
X122380500Y-60236000D02*
X126893500Y-60236000D01*
X129773500Y-60236000D02*
X134286500Y-60236000D01*
X122394500Y-60196000D02*
X126893500Y-60196000D01*
X129773500Y-60196000D02*
X134272500Y-60196000D01*
X122409500Y-60156000D02*
X126893500Y-60156000D01*
X129773500Y-60156000D02*
X134257500Y-60156000D01*
X122425500Y-60116000D02*
X126893500Y-60116000D01*
X129773500Y-60116000D02*
X134241500Y-60116000D01*
X122440500Y-60076000D02*
X126893500Y-60076000D01*
X129773500Y-60076000D02*
X134226500Y-60076000D01*
X122456500Y-60036000D02*
X126893500Y-60036000D01*
X129773500Y-60036000D02*
X134210500Y-60036000D01*
X122472500Y-59996000D02*
X126893500Y-59996000D01*
X129773500Y-59996000D02*
X134194500Y-59996000D01*
X122488500Y-59956000D02*
X126893500Y-59956000D01*
X129773500Y-59956000D02*
X134178500Y-59956000D01*
X122505500Y-59916000D02*
X126893500Y-59916000D01*
X129773500Y-59916000D02*
X134161500Y-59916000D01*
X122522500Y-59876000D02*
X126893500Y-59876000D01*
X129773500Y-59876000D02*
X134144500Y-59876000D01*
X122540500Y-59836000D02*
X126893500Y-59836000D01*
X129773500Y-59836000D02*
X134126500Y-59836000D01*
X122557500Y-59796000D02*
X126893500Y-59796000D01*
X129773500Y-59796000D02*
X134109500Y-59796000D01*
X122575500Y-59756000D02*
X126893500Y-59756000D01*
X129773500Y-59756000D02*
X134091500Y-59756000D01*
X122594500Y-59716000D02*
X126893500Y-59716000D01*
X129773500Y-59716000D02*
X134072500Y-59716000D01*
X122612500Y-59676000D02*
X126893500Y-59676000D01*
X129773500Y-59676000D02*
X134054500Y-59676000D01*
X122631500Y-59636000D02*
X126893500Y-59636000D01*
X129773500Y-59636000D02*
X134035500Y-59636000D01*
X122651500Y-59596000D02*
X126893500Y-59596000D01*
X129773500Y-59596000D02*
X134015500Y-59596000D01*
X122671500Y-59556000D02*
X126893500Y-59556000D01*
X129773500Y-59556000D02*
X133995500Y-59556000D01*
X122691500Y-59516000D02*
X126893500Y-59516000D01*
X129773500Y-59516000D02*
X133975500Y-59516000D01*
X122711500Y-59476000D02*
X126893500Y-59476000D01*
X129773500Y-59476000D02*
X133955500Y-59476000D01*
X122732500Y-59436000D02*
X126893500Y-59436000D01*
X129773500Y-59436000D02*
X133934500Y-59436000D01*
X122753500Y-59396000D02*
X126893500Y-59396000D01*
X129773500Y-59396000D02*
X133913500Y-59396000D01*
X122775500Y-59356000D02*
X126893500Y-59356000D01*
X129773500Y-59356000D02*
X133891500Y-59356000D01*
X122797500Y-59316000D02*
X126893500Y-59316000D01*
X129773500Y-59316000D02*
X133869500Y-59316000D01*
X122819500Y-59276000D02*
X126893500Y-59276000D01*
X129773500Y-59276000D02*
X133847500Y-59276000D01*
X122842500Y-59236000D02*
X126893500Y-59236000D01*
X129773500Y-59236000D02*
X133824500Y-59236000D01*
X122865500Y-59196000D02*
X126893500Y-59196000D01*
X129773500Y-59196000D02*
X133801500Y-59196000D01*
X122888500Y-59156000D02*
X126893500Y-59156000D01*
X129773500Y-59156000D02*
X133778500Y-59156000D01*
X122912500Y-59116000D02*
X126893500Y-59116000D01*
X129773500Y-59116000D02*
X133754500Y-59116000D01*
X122936500Y-59076000D02*
X126893500Y-59076000D01*
X129773500Y-59076000D02*
X133730500Y-59076000D01*
X122961500Y-59036000D02*
X126893500Y-59036000D01*
X129773500Y-59036000D02*
X133705500Y-59036000D01*
X122986500Y-58996000D02*
X126893500Y-58996000D01*
X129773500Y-58996000D02*
X133680500Y-58996000D01*
X123011500Y-58956000D02*
X126893500Y-58956000D01*
X129773500Y-58956000D02*
X133655500Y-58956000D01*
X123037500Y-58916000D02*
X126893500Y-58916000D01*
X129773500Y-58916000D02*
X133629500Y-58916000D01*
X123063500Y-58876000D02*
X126893500Y-58876000D01*
X129773500Y-58876000D02*
X133603500Y-58876000D01*
X123090500Y-58836000D02*
X126893500Y-58836000D01*
X129773500Y-58836000D02*
X133576500Y-58836000D01*
X123117500Y-58796000D02*
X126893500Y-58796000D01*
X129773500Y-58796000D02*
X133549500Y-58796000D01*
X123145500Y-58756000D02*
X126893500Y-58756000D01*
X129773500Y-58756000D02*
X133521500Y-58756000D01*
X123173500Y-58716000D02*
X126893500Y-58716000D01*
X129773500Y-58716000D02*
X133493500Y-58716000D01*
X123202500Y-58676000D02*
X126893500Y-58676000D01*
X129773500Y-58676000D02*
X133464500Y-58676000D01*
X123231500Y-58636000D02*
X126893500Y-58636000D01*
X129773500Y-58636000D02*
X133435500Y-58636000D01*
X123260500Y-58596000D02*
X126893500Y-58596000D01*
X129773500Y-58596000D02*
X133406500Y-58596000D01*
X123290500Y-58556000D02*
X126893500Y-58556000D01*
X129773500Y-58556000D02*
X133376500Y-58556000D01*
X123321500Y-58516000D02*
X126893500Y-58516000D01*
X129773500Y-58516000D02*
X133345500Y-58516000D01*
X123351500Y-58476000D02*
X126893500Y-58476000D01*
X129773500Y-58476000D02*
X133315500Y-58476000D01*
X123383500Y-58436000D02*
X133283500Y-58436000D01*
X123415500Y-58396000D02*
X133251500Y-58396000D01*
X123448500Y-58356000D02*
X133218500Y-58356000D01*
X123481500Y-58316000D02*
X133185500Y-58316000D01*
X123514500Y-58276000D02*
X133152500Y-58276000D01*
X123548500Y-58236000D02*
X133118500Y-58236000D01*
X123583500Y-58196000D02*
X133083500Y-58196000D01*
X123619500Y-58156000D02*
X133047500Y-58156000D01*
X123655500Y-58116000D02*
X133011500Y-58116000D01*
X123691500Y-58076000D02*
X132975500Y-58076000D01*
X123728500Y-58036000D02*
X132938500Y-58036000D01*
X123766500Y-57996000D02*
X132900500Y-57996000D01*
X123805500Y-57956000D02*
X132861500Y-57956000D01*
X123844500Y-57916000D02*
X132822500Y-57916000D01*
X123884500Y-57876000D02*
X132782500Y-57876000D01*
X123925500Y-57836000D02*
X132741500Y-57836000D01*
X123966500Y-57796000D02*
X132700500Y-57796000D01*
X124008500Y-57756000D02*
X132658500Y-57756000D01*
X124051500Y-57716000D02*
X132615500Y-57716000D01*
X124095500Y-57676000D02*
X132571500Y-57676000D01*
X124139500Y-57636000D02*
X132527500Y-57636000D01*
X124185500Y-57596000D02*
X132481500Y-57596000D01*
X124231500Y-57556000D02*
X132435500Y-57556000D01*
X124278500Y-57516000D02*
X132388500Y-57516000D01*
X124326500Y-57476000D02*
X132340500Y-57476000D01*
X124376500Y-57436000D02*
X132290500Y-57436000D01*
X124426500Y-57396000D02*
X132240500Y-57396000D01*
X124477500Y-57356000D02*
X132189500Y-57356000D01*
X124529500Y-57316000D02*
X132137500Y-57316000D01*
X124583500Y-57276000D02*
X132083500Y-57276000D01*
X124637500Y-57236000D02*
X132029500Y-57236000D01*
X124693500Y-57196000D02*
X131973500Y-57196000D01*
X124750500Y-57156000D02*
X131916500Y-57156000D01*
X124809500Y-57116000D02*
X131857500Y-57116000D01*
X124869500Y-57076000D02*
X131797500Y-57076000D01*
X124931500Y-57036000D02*
X131735500Y-57036000D01*
X124994500Y-56996000D02*
X131672500Y-56996000D01*
X125058500Y-56956000D02*
X131608500Y-56956000D01*
X125125500Y-56916000D02*
X131541500Y-56916000D01*
X125193500Y-56876000D02*
X131473500Y-56876000D01*
X125264500Y-56836000D02*
X131402500Y-56836000D01*
X125337500Y-56796000D02*
X131329500Y-56796000D01*
X125412500Y-56756000D02*
X131254500Y-56756000D01*
X125489500Y-56716000D02*
X131177500Y-56716000D01*
X125569500Y-56676000D02*
X131097500Y-56676000D01*
X125652500Y-56636000D02*
X131014500Y-56636000D01*
X125739500Y-56596000D02*
X130927500Y-56596000D01*
X125829500Y-56556000D02*
X130837500Y-56556000D01*
X125923500Y-56516000D02*
X130743500Y-56516000D01*
X126021500Y-56476000D02*
X130645500Y-56476000D01*
X126124500Y-56436000D02*
X130542500Y-56436000D01*
X126233500Y-56396000D02*
X130433500Y-56396000D01*
X126349500Y-56356000D02*
X130317500Y-56356000D01*
X126472500Y-56316000D02*
X130194500Y-56316000D01*
X126605500Y-56276000D02*
X130061500Y-56276000D01*
X126750500Y-56236000D02*
X129916500Y-56236000D01*
X126911500Y-56196000D02*
X129755500Y-56196000D01*
X127092500Y-56156000D02*
X129574500Y-56156000D01*
X127305500Y-56116000D02*
X129361500Y-56116000D01*
X127576500Y-56076000D02*
X129090500Y-56076000D01*
X128016500Y-56036000D02*
X128650500Y-56036000D01*
X124758500Y-69214082D02*
X124758500Y-67964082D01*
X124133500Y-68589082D02*
X125383500Y-68589082D01*
X141624233Y-120906000D02*
X141966767Y-120906000D01*
X141624233Y-119886000D02*
X141966767Y-119886000D01*
X97037082Y-80146000D02*
X97037082Y-78896000D01*
X97662082Y-79521000D02*
X96412082Y-79521000D01*
X84484000Y-76263000D02*
X84484000Y-75629000D01*
X84524000Y-76703000D02*
X84524000Y-75189000D01*
X84564000Y-76974000D02*
X84564000Y-74918000D01*
X84604000Y-77187000D02*
X84604000Y-74705000D01*
X84644000Y-77368000D02*
X84644000Y-74524000D01*
X84684000Y-77529000D02*
X84684000Y-74363000D01*
X84724000Y-77674000D02*
X84724000Y-74218000D01*
X84764000Y-77807000D02*
X84764000Y-74085000D01*
X84804000Y-77930000D02*
X84804000Y-73962000D01*
X84844000Y-78046000D02*
X84844000Y-73846000D01*
X84884000Y-78155000D02*
X84884000Y-73737000D01*
X84924000Y-78258000D02*
X84924000Y-73634000D01*
X84964000Y-78356000D02*
X84964000Y-73536000D01*
X85004000Y-78450000D02*
X85004000Y-73442000D01*
X85044000Y-78540000D02*
X85044000Y-73352000D01*
X85084000Y-78627000D02*
X85084000Y-73265000D01*
X85124000Y-78710000D02*
X85124000Y-73182000D01*
X85164000Y-78790000D02*
X85164000Y-73102000D01*
X85204000Y-78867000D02*
X85204000Y-73025000D01*
X85244000Y-78942000D02*
X85244000Y-72950000D01*
X85284000Y-79015000D02*
X85284000Y-72877000D01*
X85324000Y-79086000D02*
X85324000Y-72806000D01*
X85364000Y-79154000D02*
X85364000Y-72738000D01*
X85404000Y-79221000D02*
X85404000Y-72671000D01*
X85444000Y-79285000D02*
X85444000Y-72607000D01*
X85484000Y-79348000D02*
X85484000Y-72544000D01*
X85524000Y-79410000D02*
X85524000Y-72482000D01*
X85564000Y-79470000D02*
X85564000Y-72422000D01*
X85604000Y-79529000D02*
X85604000Y-72363000D01*
X85644000Y-79586000D02*
X85644000Y-72306000D01*
X85684000Y-79642000D02*
X85684000Y-72250000D01*
X85724000Y-79696000D02*
X85724000Y-72196000D01*
X85764000Y-79750000D02*
X85764000Y-72142000D01*
X85804000Y-79802000D02*
X85804000Y-72090000D01*
X85844000Y-79853000D02*
X85844000Y-72039000D01*
X85884000Y-79903000D02*
X85884000Y-71989000D01*
X85924000Y-79953000D02*
X85924000Y-71939000D01*
X85964000Y-80001000D02*
X85964000Y-71891000D01*
X86004000Y-80048000D02*
X86004000Y-71844000D01*
X86044000Y-80094000D02*
X86044000Y-71798000D01*
X86084000Y-80140000D02*
X86084000Y-71752000D01*
X86124000Y-80184000D02*
X86124000Y-71708000D01*
X86164000Y-80228000D02*
X86164000Y-71664000D01*
X86204000Y-80271000D02*
X86204000Y-71621000D01*
X86244000Y-80313000D02*
X86244000Y-71579000D01*
X86284000Y-80354000D02*
X86284000Y-71538000D01*
X86324000Y-80395000D02*
X86324000Y-71497000D01*
X86364000Y-80435000D02*
X86364000Y-71457000D01*
X86404000Y-80474000D02*
X86404000Y-71418000D01*
X86444000Y-80513000D02*
X86444000Y-71379000D01*
X86484000Y-80551000D02*
X86484000Y-71341000D01*
X86524000Y-80588000D02*
X86524000Y-71304000D01*
X86564000Y-80624000D02*
X86564000Y-71268000D01*
X86604000Y-80660000D02*
X86604000Y-71232000D01*
X86644000Y-80696000D02*
X86644000Y-71196000D01*
X86684000Y-80731000D02*
X86684000Y-71161000D01*
X86724000Y-80765000D02*
X86724000Y-71127000D01*
X86764000Y-80798000D02*
X86764000Y-71094000D01*
X86804000Y-80831000D02*
X86804000Y-71061000D01*
X86844000Y-80864000D02*
X86844000Y-71028000D01*
X86884000Y-80896000D02*
X86884000Y-70996000D01*
X86924000Y-74506000D02*
X86924000Y-70964000D01*
X86924000Y-80928000D02*
X86924000Y-77386000D01*
X86964000Y-74506000D02*
X86964000Y-70934000D01*
X86964000Y-80958000D02*
X86964000Y-77386000D01*
X87004000Y-74506000D02*
X87004000Y-70903000D01*
X87004000Y-80989000D02*
X87004000Y-77386000D01*
X87044000Y-74506000D02*
X87044000Y-70873000D01*
X87044000Y-81019000D02*
X87044000Y-77386000D01*
X87084000Y-74506000D02*
X87084000Y-70844000D01*
X87084000Y-81048000D02*
X87084000Y-77386000D01*
X87124000Y-74506000D02*
X87124000Y-70815000D01*
X87124000Y-81077000D02*
X87124000Y-77386000D01*
X87164000Y-74506000D02*
X87164000Y-70786000D01*
X87164000Y-81106000D02*
X87164000Y-77386000D01*
X87204000Y-74506000D02*
X87204000Y-70758000D01*
X87204000Y-81134000D02*
X87204000Y-77386000D01*
X87244000Y-74506000D02*
X87244000Y-70730000D01*
X87244000Y-81162000D02*
X87244000Y-77386000D01*
X87284000Y-74506000D02*
X87284000Y-70703000D01*
X87284000Y-81189000D02*
X87284000Y-77386000D01*
X87324000Y-74506000D02*
X87324000Y-70676000D01*
X87324000Y-81216000D02*
X87324000Y-77386000D01*
X87364000Y-74506000D02*
X87364000Y-70650000D01*
X87364000Y-81242000D02*
X87364000Y-77386000D01*
X87404000Y-74506000D02*
X87404000Y-70624000D01*
X87404000Y-81268000D02*
X87404000Y-77386000D01*
X87444000Y-74506000D02*
X87444000Y-70599000D01*
X87444000Y-81293000D02*
X87444000Y-77386000D01*
X87484000Y-74506000D02*
X87484000Y-70574000D01*
X87484000Y-81318000D02*
X87484000Y-77386000D01*
X87524000Y-74506000D02*
X87524000Y-70549000D01*
X87524000Y-81343000D02*
X87524000Y-77386000D01*
X87564000Y-74506000D02*
X87564000Y-70525000D01*
X87564000Y-81367000D02*
X87564000Y-77386000D01*
X87604000Y-74506000D02*
X87604000Y-70501000D01*
X87604000Y-81391000D02*
X87604000Y-77386000D01*
X87644000Y-74506000D02*
X87644000Y-70478000D01*
X87644000Y-81414000D02*
X87644000Y-77386000D01*
X87684000Y-74506000D02*
X87684000Y-70455000D01*
X87684000Y-81437000D02*
X87684000Y-77386000D01*
X87724000Y-74506000D02*
X87724000Y-70432000D01*
X87724000Y-81460000D02*
X87724000Y-77386000D01*
X87764000Y-74506000D02*
X87764000Y-70410000D01*
X87764000Y-81482000D02*
X87764000Y-77386000D01*
X87804000Y-74506000D02*
X87804000Y-70388000D01*
X87804000Y-81504000D02*
X87804000Y-77386000D01*
X87844000Y-74506000D02*
X87844000Y-70366000D01*
X87844000Y-81526000D02*
X87844000Y-77386000D01*
X87884000Y-74506000D02*
X87884000Y-70345000D01*
X87884000Y-81547000D02*
X87884000Y-77386000D01*
X87924000Y-74506000D02*
X87924000Y-70324000D01*
X87924000Y-81568000D02*
X87924000Y-77386000D01*
X87964000Y-74506000D02*
X87964000Y-70304000D01*
X87964000Y-81588000D02*
X87964000Y-77386000D01*
X88004000Y-74506000D02*
X88004000Y-70284000D01*
X88004000Y-81608000D02*
X88004000Y-77386000D01*
X88044000Y-74506000D02*
X88044000Y-70264000D01*
X88044000Y-81628000D02*
X88044000Y-77386000D01*
X88084000Y-74506000D02*
X88084000Y-70244000D01*
X88084000Y-81648000D02*
X88084000Y-77386000D01*
X88124000Y-74506000D02*
X88124000Y-70225000D01*
X88124000Y-81667000D02*
X88124000Y-77386000D01*
X88164000Y-74506000D02*
X88164000Y-70207000D01*
X88164000Y-81685000D02*
X88164000Y-77386000D01*
X88204000Y-74506000D02*
X88204000Y-70188000D01*
X88204000Y-81704000D02*
X88204000Y-77386000D01*
X88244000Y-74506000D02*
X88244000Y-70170000D01*
X88244000Y-81722000D02*
X88244000Y-77386000D01*
X88284000Y-74506000D02*
X88284000Y-70153000D01*
X88284000Y-81739000D02*
X88284000Y-77386000D01*
X88324000Y-74506000D02*
X88324000Y-70135000D01*
X88324000Y-81757000D02*
X88324000Y-77386000D01*
X88364000Y-74506000D02*
X88364000Y-70118000D01*
X88364000Y-81774000D02*
X88364000Y-77386000D01*
X88404000Y-74506000D02*
X88404000Y-70101000D01*
X88404000Y-81791000D02*
X88404000Y-77386000D01*
X88444000Y-74506000D02*
X88444000Y-70085000D01*
X88444000Y-81807000D02*
X88444000Y-77386000D01*
X88484000Y-74506000D02*
X88484000Y-70069000D01*
X88484000Y-81823000D02*
X88484000Y-77386000D01*
X88524000Y-74506000D02*
X88524000Y-70053000D01*
X88524000Y-81839000D02*
X88524000Y-77386000D01*
X88564000Y-74506000D02*
X88564000Y-70038000D01*
X88564000Y-81854000D02*
X88564000Y-77386000D01*
X88604000Y-74506000D02*
X88604000Y-70022000D01*
X88604000Y-81870000D02*
X88604000Y-77386000D01*
X88644000Y-74506000D02*
X88644000Y-70007000D01*
X88644000Y-81885000D02*
X88644000Y-77386000D01*
X88684000Y-74506000D02*
X88684000Y-69993000D01*
X88684000Y-81899000D02*
X88684000Y-77386000D01*
X88724000Y-74506000D02*
X88724000Y-69979000D01*
X88724000Y-81913000D02*
X88724000Y-77386000D01*
X88764000Y-74506000D02*
X88764000Y-69965000D01*
X88764000Y-81927000D02*
X88764000Y-77386000D01*
X88804000Y-74506000D02*
X88804000Y-69951000D01*
X88804000Y-81941000D02*
X88804000Y-77386000D01*
X88844000Y-74506000D02*
X88844000Y-69938000D01*
X88844000Y-81954000D02*
X88844000Y-77386000D01*
X88884000Y-74506000D02*
X88884000Y-69925000D01*
X88884000Y-81967000D02*
X88884000Y-77386000D01*
X88924000Y-74506000D02*
X88924000Y-69912000D01*
X88924000Y-81980000D02*
X88924000Y-77386000D01*
X88964000Y-74506000D02*
X88964000Y-69899000D01*
X88964000Y-81993000D02*
X88964000Y-77386000D01*
X89004000Y-74506000D02*
X89004000Y-69887000D01*
X89004000Y-82005000D02*
X89004000Y-77386000D01*
X89044000Y-74506000D02*
X89044000Y-69875000D01*
X89044000Y-82017000D02*
X89044000Y-77386000D01*
X89084000Y-74506000D02*
X89084000Y-69863000D01*
X89084000Y-82029000D02*
X89084000Y-77386000D01*
X89124000Y-74506000D02*
X89124000Y-69852000D01*
X89124000Y-82040000D02*
X89124000Y-77386000D01*
X89164000Y-74506000D02*
X89164000Y-69841000D01*
X89164000Y-82051000D02*
X89164000Y-77386000D01*
X89204000Y-74506000D02*
X89204000Y-69830000D01*
X89204000Y-82062000D02*
X89204000Y-77386000D01*
X89244000Y-74506000D02*
X89244000Y-69820000D01*
X89244000Y-82072000D02*
X89244000Y-77386000D01*
X89284000Y-74506000D02*
X89284000Y-69809000D01*
X89284000Y-82083000D02*
X89284000Y-77386000D01*
X89324000Y-74506000D02*
X89324000Y-69800000D01*
X89324000Y-82092000D02*
X89324000Y-77386000D01*
X89364000Y-74506000D02*
X89364000Y-69790000D01*
X89364000Y-82102000D02*
X89364000Y-77386000D01*
X89404000Y-74506000D02*
X89404000Y-69780000D01*
X89404000Y-82112000D02*
X89404000Y-77386000D01*
X89444000Y-74506000D02*
X89444000Y-69771000D01*
X89444000Y-82121000D02*
X89444000Y-77386000D01*
X89484000Y-74506000D02*
X89484000Y-69762000D01*
X89484000Y-82130000D02*
X89484000Y-77386000D01*
X89524000Y-74506000D02*
X89524000Y-69754000D01*
X89524000Y-82138000D02*
X89524000Y-77386000D01*
X89564000Y-74506000D02*
X89564000Y-69745000D01*
X89564000Y-82147000D02*
X89564000Y-77386000D01*
X89604000Y-74506000D02*
X89604000Y-69737000D01*
X89604000Y-82155000D02*
X89604000Y-77386000D01*
X89644000Y-74506000D02*
X89644000Y-69730000D01*
X89644000Y-82162000D02*
X89644000Y-77386000D01*
X89684000Y-74506000D02*
X89684000Y-69722000D01*
X89684000Y-82170000D02*
X89684000Y-77386000D01*
X89724000Y-74506000D02*
X89724000Y-69715000D01*
X89724000Y-82177000D02*
X89724000Y-77386000D01*
X89764000Y-74506000D02*
X89764000Y-69708000D01*
X89764000Y-82184000D02*
X89764000Y-77386000D01*
X89804000Y-82191000D02*
X89804000Y-69701000D01*
X89844000Y-82198000D02*
X89844000Y-69694000D01*
X89884000Y-82204000D02*
X89884000Y-69688000D01*
X89924000Y-82210000D02*
X89924000Y-69682000D01*
X89964000Y-82215000D02*
X89964000Y-69677000D01*
X90004000Y-82221000D02*
X90004000Y-69671000D01*
X90044000Y-82226000D02*
X90044000Y-69666000D01*
X90084000Y-82231000D02*
X90084000Y-69661000D01*
X90124000Y-82236000D02*
X90124000Y-69656000D01*
X90165000Y-82240000D02*
X90165000Y-69652000D01*
X90205000Y-82244000D02*
X90205000Y-69648000D01*
X90245000Y-82248000D02*
X90245000Y-69644000D01*
X90285000Y-82252000D02*
X90285000Y-69640000D01*
X90325000Y-82255000D02*
X90325000Y-69637000D01*
X90365000Y-82258000D02*
X90365000Y-69634000D01*
X90405000Y-82261000D02*
X90405000Y-69631000D01*
X90445000Y-82264000D02*
X90445000Y-69628000D01*
X90485000Y-82266000D02*
X90485000Y-69626000D01*
X90525000Y-82268000D02*
X90525000Y-69624000D01*
X90565000Y-82270000D02*
X90565000Y-69622000D01*
X90605000Y-82272000D02*
X90605000Y-69620000D01*
X90645000Y-82273000D02*
X90645000Y-69619000D01*
X90685000Y-82274000D02*
X90685000Y-69618000D01*
X90725000Y-82275000D02*
X90725000Y-69617000D01*
X90765000Y-82276000D02*
X90765000Y-69616000D01*
X90805000Y-82276000D02*
X90805000Y-69616000D01*
X90845000Y-82276000D02*
X90845000Y-69616000D01*
X97215000Y-75946000D02*
G75*
G03X97215000Y-75946000I-6370000J0D01*
G01*
X141624233Y-122680000D02*
X141966767Y-122680000D01*
X141624233Y-123700000D02*
X141966767Y-123700000D01*
X154677000Y-68335082D02*
X155927000Y-68335082D01*
X155302000Y-68960082D02*
X155302000Y-67710082D01*
X158560000Y-55782000D02*
X159194000Y-55782000D01*
X158120000Y-55822000D02*
X159634000Y-55822000D01*
X157849000Y-55862000D02*
X159905000Y-55862000D01*
X157636000Y-55902000D02*
X160118000Y-55902000D01*
X157455000Y-55942000D02*
X160299000Y-55942000D01*
X157294000Y-55982000D02*
X160460000Y-55982000D01*
X157149000Y-56022000D02*
X160605000Y-56022000D01*
X157016000Y-56062000D02*
X160738000Y-56062000D01*
X156893000Y-56102000D02*
X160861000Y-56102000D01*
X156777000Y-56142000D02*
X160977000Y-56142000D01*
X156668000Y-56182000D02*
X161086000Y-56182000D01*
X156565000Y-56222000D02*
X161189000Y-56222000D01*
X156467000Y-56262000D02*
X161287000Y-56262000D01*
X156373000Y-56302000D02*
X161381000Y-56302000D01*
X156283000Y-56342000D02*
X161471000Y-56342000D01*
X156196000Y-56382000D02*
X161558000Y-56382000D01*
X156113000Y-56422000D02*
X161641000Y-56422000D01*
X156033000Y-56462000D02*
X161721000Y-56462000D01*
X155956000Y-56502000D02*
X161798000Y-56502000D01*
X155881000Y-56542000D02*
X161873000Y-56542000D01*
X155808000Y-56582000D02*
X161946000Y-56582000D01*
X155737000Y-56622000D02*
X162017000Y-56622000D01*
X155669000Y-56662000D02*
X162085000Y-56662000D01*
X155602000Y-56702000D02*
X162152000Y-56702000D01*
X155538000Y-56742000D02*
X162216000Y-56742000D01*
X155475000Y-56782000D02*
X162279000Y-56782000D01*
X155413000Y-56822000D02*
X162341000Y-56822000D01*
X155353000Y-56862000D02*
X162401000Y-56862000D01*
X155294000Y-56902000D02*
X162460000Y-56902000D01*
X155237000Y-56942000D02*
X162517000Y-56942000D01*
X155181000Y-56982000D02*
X162573000Y-56982000D01*
X155127000Y-57022000D02*
X162627000Y-57022000D01*
X155073000Y-57062000D02*
X162681000Y-57062000D01*
X155021000Y-57102000D02*
X162733000Y-57102000D01*
X154970000Y-57142000D02*
X162784000Y-57142000D01*
X154920000Y-57182000D02*
X162834000Y-57182000D01*
X154870000Y-57222000D02*
X162884000Y-57222000D01*
X154822000Y-57262000D02*
X162932000Y-57262000D01*
X154775000Y-57302000D02*
X162979000Y-57302000D01*
X154729000Y-57342000D02*
X163025000Y-57342000D01*
X154683000Y-57382000D02*
X163071000Y-57382000D01*
X154639000Y-57422000D02*
X163115000Y-57422000D01*
X154595000Y-57462000D02*
X163159000Y-57462000D01*
X154552000Y-57502000D02*
X163202000Y-57502000D01*
X154510000Y-57542000D02*
X163244000Y-57542000D01*
X154469000Y-57582000D02*
X163285000Y-57582000D01*
X154428000Y-57622000D02*
X163326000Y-57622000D01*
X154388000Y-57662000D02*
X163366000Y-57662000D01*
X154349000Y-57702000D02*
X163405000Y-57702000D01*
X154310000Y-57742000D02*
X163444000Y-57742000D01*
X154272000Y-57782000D02*
X163482000Y-57782000D01*
X154235000Y-57822000D02*
X163519000Y-57822000D01*
X154199000Y-57862000D02*
X163555000Y-57862000D01*
X154163000Y-57902000D02*
X163591000Y-57902000D01*
X154127000Y-57942000D02*
X163627000Y-57942000D01*
X154092000Y-57982000D02*
X163662000Y-57982000D01*
X154058000Y-58022000D02*
X163696000Y-58022000D01*
X154025000Y-58062000D02*
X163729000Y-58062000D01*
X153992000Y-58102000D02*
X163762000Y-58102000D01*
X153959000Y-58142000D02*
X163795000Y-58142000D01*
X153927000Y-58182000D02*
X163827000Y-58182000D01*
X160317000Y-58222000D02*
X163859000Y-58222000D01*
X153895000Y-58222000D02*
X157437000Y-58222000D01*
X160317000Y-58262000D02*
X163889000Y-58262000D01*
X153865000Y-58262000D02*
X157437000Y-58262000D01*
X160317000Y-58302000D02*
X163920000Y-58302000D01*
X153834000Y-58302000D02*
X157437000Y-58302000D01*
X160317000Y-58342000D02*
X163950000Y-58342000D01*
X153804000Y-58342000D02*
X157437000Y-58342000D01*
X160317000Y-58382000D02*
X163979000Y-58382000D01*
X153775000Y-58382000D02*
X157437000Y-58382000D01*
X160317000Y-58422000D02*
X164008000Y-58422000D01*
X153746000Y-58422000D02*
X157437000Y-58422000D01*
X160317000Y-58462000D02*
X164037000Y-58462000D01*
X153717000Y-58462000D02*
X157437000Y-58462000D01*
X160317000Y-58502000D02*
X164065000Y-58502000D01*
X153689000Y-58502000D02*
X157437000Y-58502000D01*
X160317000Y-58542000D02*
X164093000Y-58542000D01*
X153661000Y-58542000D02*
X157437000Y-58542000D01*
X160317000Y-58582000D02*
X164120000Y-58582000D01*
X153634000Y-58582000D02*
X157437000Y-58582000D01*
X160317000Y-58622000D02*
X164147000Y-58622000D01*
X153607000Y-58622000D02*
X157437000Y-58622000D01*
X160317000Y-58662000D02*
X164173000Y-58662000D01*
X153581000Y-58662000D02*
X157437000Y-58662000D01*
X160317000Y-58702000D02*
X164199000Y-58702000D01*
X153555000Y-58702000D02*
X157437000Y-58702000D01*
X160317000Y-58742000D02*
X164224000Y-58742000D01*
X153530000Y-58742000D02*
X157437000Y-58742000D01*
X160317000Y-58782000D02*
X164249000Y-58782000D01*
X153505000Y-58782000D02*
X157437000Y-58782000D01*
X160317000Y-58822000D02*
X164274000Y-58822000D01*
X153480000Y-58822000D02*
X157437000Y-58822000D01*
X160317000Y-58862000D02*
X164298000Y-58862000D01*
X153456000Y-58862000D02*
X157437000Y-58862000D01*
X160317000Y-58902000D02*
X164322000Y-58902000D01*
X153432000Y-58902000D02*
X157437000Y-58902000D01*
X160317000Y-58942000D02*
X164345000Y-58942000D01*
X153409000Y-58942000D02*
X157437000Y-58942000D01*
X160317000Y-58982000D02*
X164368000Y-58982000D01*
X153386000Y-58982000D02*
X157437000Y-58982000D01*
X160317000Y-59022000D02*
X164391000Y-59022000D01*
X153363000Y-59022000D02*
X157437000Y-59022000D01*
X160317000Y-59062000D02*
X164413000Y-59062000D01*
X153341000Y-59062000D02*
X157437000Y-59062000D01*
X160317000Y-59102000D02*
X164435000Y-59102000D01*
X153319000Y-59102000D02*
X157437000Y-59102000D01*
X160317000Y-59142000D02*
X164457000Y-59142000D01*
X153297000Y-59142000D02*
X157437000Y-59142000D01*
X160317000Y-59182000D02*
X164478000Y-59182000D01*
X153276000Y-59182000D02*
X157437000Y-59182000D01*
X160317000Y-59222000D02*
X164499000Y-59222000D01*
X153255000Y-59222000D02*
X157437000Y-59222000D01*
X160317000Y-59262000D02*
X164519000Y-59262000D01*
X153235000Y-59262000D02*
X157437000Y-59262000D01*
X160317000Y-59302000D02*
X164539000Y-59302000D01*
X153215000Y-59302000D02*
X157437000Y-59302000D01*
X160317000Y-59342000D02*
X164559000Y-59342000D01*
X153195000Y-59342000D02*
X157437000Y-59342000D01*
X160317000Y-59382000D02*
X164579000Y-59382000D01*
X153175000Y-59382000D02*
X157437000Y-59382000D01*
X160317000Y-59422000D02*
X164598000Y-59422000D01*
X153156000Y-59422000D02*
X157437000Y-59422000D01*
X160317000Y-59462000D02*
X164616000Y-59462000D01*
X153138000Y-59462000D02*
X157437000Y-59462000D01*
X160317000Y-59502000D02*
X164635000Y-59502000D01*
X153119000Y-59502000D02*
X157437000Y-59502000D01*
X160317000Y-59542000D02*
X164653000Y-59542000D01*
X153101000Y-59542000D02*
X157437000Y-59542000D01*
X160317000Y-59582000D02*
X164670000Y-59582000D01*
X153084000Y-59582000D02*
X157437000Y-59582000D01*
X160317000Y-59622000D02*
X164688000Y-59622000D01*
X153066000Y-59622000D02*
X157437000Y-59622000D01*
X160317000Y-59662000D02*
X164705000Y-59662000D01*
X153049000Y-59662000D02*
X157437000Y-59662000D01*
X160317000Y-59702000D02*
X164722000Y-59702000D01*
X153032000Y-59702000D02*
X157437000Y-59702000D01*
X160317000Y-59742000D02*
X164738000Y-59742000D01*
X153016000Y-59742000D02*
X157437000Y-59742000D01*
X160317000Y-59782000D02*
X164754000Y-59782000D01*
X153000000Y-59782000D02*
X157437000Y-59782000D01*
X160317000Y-59822000D02*
X164770000Y-59822000D01*
X152984000Y-59822000D02*
X157437000Y-59822000D01*
X160317000Y-59862000D02*
X164785000Y-59862000D01*
X152969000Y-59862000D02*
X157437000Y-59862000D01*
X160317000Y-59902000D02*
X164801000Y-59902000D01*
X152953000Y-59902000D02*
X157437000Y-59902000D01*
X160317000Y-59942000D02*
X164816000Y-59942000D01*
X152938000Y-59942000D02*
X157437000Y-59942000D01*
X160317000Y-59982000D02*
X164830000Y-59982000D01*
X152924000Y-59982000D02*
X157437000Y-59982000D01*
X160317000Y-60022000D02*
X164844000Y-60022000D01*
X152910000Y-60022000D02*
X157437000Y-60022000D01*
X160317000Y-60062000D02*
X164858000Y-60062000D01*
X152896000Y-60062000D02*
X157437000Y-60062000D01*
X160317000Y-60102000D02*
X164872000Y-60102000D01*
X152882000Y-60102000D02*
X157437000Y-60102000D01*
X160317000Y-60142000D02*
X164885000Y-60142000D01*
X152869000Y-60142000D02*
X157437000Y-60142000D01*
X160317000Y-60182000D02*
X164898000Y-60182000D01*
X152856000Y-60182000D02*
X157437000Y-60182000D01*
X160317000Y-60222000D02*
X164911000Y-60222000D01*
X152843000Y-60222000D02*
X157437000Y-60222000D01*
X160317000Y-60262000D02*
X164924000Y-60262000D01*
X152830000Y-60262000D02*
X157437000Y-60262000D01*
X160317000Y-60302000D02*
X164936000Y-60302000D01*
X152818000Y-60302000D02*
X157437000Y-60302000D01*
X160317000Y-60342000D02*
X164948000Y-60342000D01*
X152806000Y-60342000D02*
X157437000Y-60342000D01*
X160317000Y-60382000D02*
X164960000Y-60382000D01*
X152794000Y-60382000D02*
X157437000Y-60382000D01*
X160317000Y-60422000D02*
X164971000Y-60422000D01*
X152783000Y-60422000D02*
X157437000Y-60422000D01*
X160317000Y-60462000D02*
X164982000Y-60462000D01*
X152772000Y-60462000D02*
X157437000Y-60462000D01*
X160317000Y-60502000D02*
X164993000Y-60502000D01*
X152761000Y-60502000D02*
X157437000Y-60502000D01*
X160317000Y-60542000D02*
X165003000Y-60542000D01*
X152751000Y-60542000D02*
X157437000Y-60542000D01*
X160317000Y-60582000D02*
X165014000Y-60582000D01*
X152740000Y-60582000D02*
X157437000Y-60582000D01*
X160317000Y-60622000D02*
X165023000Y-60622000D01*
X152731000Y-60622000D02*
X157437000Y-60622000D01*
X160317000Y-60662000D02*
X165033000Y-60662000D01*
X152721000Y-60662000D02*
X157437000Y-60662000D01*
X160317000Y-60702000D02*
X165043000Y-60702000D01*
X152711000Y-60702000D02*
X157437000Y-60702000D01*
X160317000Y-60742000D02*
X165052000Y-60742000D01*
X152702000Y-60742000D02*
X157437000Y-60742000D01*
X160317000Y-60782000D02*
X165061000Y-60782000D01*
X152693000Y-60782000D02*
X157437000Y-60782000D01*
X160317000Y-60822000D02*
X165069000Y-60822000D01*
X152685000Y-60822000D02*
X157437000Y-60822000D01*
X160317000Y-60862000D02*
X165078000Y-60862000D01*
X152676000Y-60862000D02*
X157437000Y-60862000D01*
X160317000Y-60902000D02*
X165086000Y-60902000D01*
X152668000Y-60902000D02*
X157437000Y-60902000D01*
X160317000Y-60942000D02*
X165093000Y-60942000D01*
X152661000Y-60942000D02*
X157437000Y-60942000D01*
X160317000Y-60982000D02*
X165101000Y-60982000D01*
X152653000Y-60982000D02*
X157437000Y-60982000D01*
X160317000Y-61022000D02*
X165108000Y-61022000D01*
X152646000Y-61022000D02*
X157437000Y-61022000D01*
X160317000Y-61062000D02*
X165115000Y-61062000D01*
X152639000Y-61062000D02*
X157437000Y-61062000D01*
X152632000Y-61102000D02*
X165122000Y-61102000D01*
X152625000Y-61142000D02*
X165129000Y-61142000D01*
X152619000Y-61182000D02*
X165135000Y-61182000D01*
X152613000Y-61222000D02*
X165141000Y-61222000D01*
X152608000Y-61262000D02*
X165146000Y-61262000D01*
X152602000Y-61302000D02*
X165152000Y-61302000D01*
X152597000Y-61342000D02*
X165157000Y-61342000D01*
X152592000Y-61382000D02*
X165162000Y-61382000D01*
X152587000Y-61422000D02*
X165167000Y-61422000D01*
X152583000Y-61463000D02*
X165171000Y-61463000D01*
X152579000Y-61503000D02*
X165175000Y-61503000D01*
X152575000Y-61543000D02*
X165179000Y-61543000D01*
X152571000Y-61583000D02*
X165183000Y-61583000D01*
X152568000Y-61623000D02*
X165186000Y-61623000D01*
X152565000Y-61663000D02*
X165189000Y-61663000D01*
X152562000Y-61703000D02*
X165192000Y-61703000D01*
X152559000Y-61743000D02*
X165195000Y-61743000D01*
X152557000Y-61783000D02*
X165197000Y-61783000D01*
X152555000Y-61823000D02*
X165199000Y-61823000D01*
X152553000Y-61863000D02*
X165201000Y-61863000D01*
X152551000Y-61903000D02*
X165203000Y-61903000D01*
X152550000Y-61943000D02*
X165204000Y-61943000D01*
X152549000Y-61983000D02*
X165205000Y-61983000D01*
X152548000Y-62023000D02*
X165206000Y-62023000D01*
X152547000Y-62063000D02*
X165207000Y-62063000D01*
X152547000Y-62103000D02*
X165207000Y-62103000D01*
X152547000Y-62143000D02*
X165207000Y-62143000D01*
X165247000Y-62143000D02*
G75*
G03X165247000Y-62143000I-6370000J0D01*
G01*
X120426267Y-90426000D02*
X120083733Y-90426000D01*
X120426267Y-89406000D02*
X120083733Y-89406000D01*
X146814000Y-104678267D02*
X146814000Y-104335733D01*
X145794000Y-104678267D02*
X145794000Y-104335733D01*
X131743267Y-90168000D02*
X131400733Y-90168000D01*
X131743267Y-91188000D02*
X131400733Y-91188000D01*
X106141733Y-81790000D02*
X106484267Y-81790000D01*
X106141733Y-80770000D02*
X106484267Y-80770000D01*
X106141733Y-83310000D02*
X106484267Y-83310000D01*
X106141733Y-84330000D02*
X106484267Y-84330000D01*
X124683733Y-108837000D02*
X125026267Y-108837000D01*
X124683733Y-109857000D02*
X125026267Y-109857000D01*
X155065000Y-105746733D02*
X155065000Y-106089267D01*
X156085000Y-105746733D02*
X156085000Y-106089267D01*
X154434000Y-111094733D02*
X154434000Y-111437267D01*
X153414000Y-111094733D02*
X153414000Y-111437267D01*
X150112000Y-116047733D02*
X150112000Y-116390267D01*
X151132000Y-116047733D02*
X151132000Y-116390267D01*
X148686733Y-90172000D02*
X149029267Y-90172000D01*
X148686733Y-89152000D02*
X149029267Y-89152000D01*
X140304733Y-101983000D02*
X140647267Y-101983000D01*
X140304733Y-100963000D02*
X140647267Y-100963000D01*
X120111733Y-94232000D02*
X120454267Y-94232000D01*
X120111733Y-95252000D02*
X120454267Y-95252000D01*
X115822000Y-93276267D02*
X115822000Y-92933733D01*
X116842000Y-93276267D02*
X116842000Y-92933733D01*
X120746733Y-108964000D02*
X121089267Y-108964000D01*
X120746733Y-109984000D02*
X121089267Y-109984000D01*
X122842233Y-116588000D02*
X123184767Y-116588000D01*
X122842233Y-115568000D02*
X123184767Y-115568000D01*
X125064733Y-120969500D02*
X125407267Y-120969500D01*
X125064733Y-119949500D02*
X125407267Y-119949500D01*
X106170000Y-66451267D02*
X106170000Y-66108733D01*
X107190000Y-66451267D02*
X107190000Y-66108733D01*
X137797000Y-66465267D02*
X137797000Y-66122733D01*
X136777000Y-66465267D02*
X136777000Y-66122733D01*
X166114000Y-66338267D02*
X166114000Y-65995733D01*
X167134000Y-66338267D02*
X167134000Y-65995733D01*
X144608733Y-90172000D02*
X144951267Y-90172000D01*
X144608733Y-89152000D02*
X144951267Y-89152000D01*
X140431733Y-90299000D02*
X140774267Y-90299000D01*
X140431733Y-89279000D02*
X140774267Y-89279000D01*
X136456267Y-89152000D02*
X136113733Y-89152000D01*
X136456267Y-90172000D02*
X136113733Y-90172000D01*
X119886000Y-126042267D02*
X119886000Y-125699733D01*
X120906000Y-126042267D02*
X120906000Y-125699733D01*
X185672000Y-104730733D02*
X185672000Y-105073267D01*
X186692000Y-104730733D02*
X186692000Y-105073267D01*
X182624000Y-98723267D02*
X182624000Y-98380733D01*
X183644000Y-98723267D02*
X183644000Y-98380733D01*
X175925267Y-110746000D02*
X175582733Y-110746000D01*
X175925267Y-109726000D02*
X175582733Y-109726000D01*
X182624000Y-102533267D02*
X182624000Y-102190733D01*
X183644000Y-102533267D02*
X183644000Y-102190733D01*
X183644000Y-106343267D02*
X183644000Y-106000733D01*
X182624000Y-106343267D02*
X182624000Y-106000733D01*
D10*
X84582000Y-97790000D02*
X85090000Y-97790000D01*
X85090000Y-90170000D02*
X84582000Y-90170000D01*
X84582000Y-102235000D02*
X84582000Y-85725000D01*
X96520000Y-102235000D02*
X84582000Y-102235000D01*
X96520000Y-85725000D02*
X84582000Y-85725000D01*
X96520000Y-87630000D02*
X96520000Y-85725000D01*
X96520000Y-100330000D02*
X96520000Y-102235000D01*
X88900000Y-97790000D02*
X90170000Y-97790000D01*
X90170000Y-97790000D02*
X90170000Y-90170000D01*
X90170000Y-90170000D02*
X88900000Y-90170000D01*
X88900000Y-90170000D02*
X85090000Y-90170000D01*
X88900000Y-97790000D02*
X85090000Y-97790000D01*
X90170000Y-95250000D02*
X92710000Y-95250000D01*
X92710000Y-95250000D02*
X92710000Y-92710000D01*
X92710000Y-92710000D02*
X90170000Y-92710000D01*
X96520000Y-100330000D02*
X96520000Y-87630000D01*
X96520000Y-87630000D02*
X99060000Y-87630000D01*
X99060000Y-87630000D02*
X99060000Y-100330000D01*
X99060000Y-100330000D02*
X96520000Y-100330000D01*
X83566000Y-105410000D02*
G75*
G03X84709000Y-106553000I1143000J0D01*
G01*
X84709000Y-106553000D02*
G75*
G03X85852000Y-105410000I0J1143000D01*
G01*
X74676000Y-105410000D02*
X74676000Y-113284000D01*
X99314000Y-113284000D02*
X99314000Y-105410000D01*
X85826600Y-113284000D02*
G75*
G03X84709000Y-112166400I-1117600J0D01*
G01*
X84709000Y-112166400D02*
G75*
G03X83591400Y-113284000I0J-1117600D01*
G01*
X87020400Y-113284000D02*
X85826600Y-113284000D01*
X84709000Y-110972600D02*
X84709000Y-112141000D01*
X82397600Y-113284000D02*
X83566000Y-113284000D01*
X84709000Y-107696000D02*
X84709000Y-106553000D01*
X74676000Y-105384600D02*
X83566000Y-105384600D01*
X86995000Y-105410000D02*
X85852000Y-105410000D01*
X84709000Y-107696000D02*
X84709000Y-110998000D01*
X86995000Y-105410000D02*
X99288600Y-105410000D01*
X86995000Y-113284000D02*
X99288600Y-113284000D01*
X82423000Y-113284000D02*
X74676000Y-113284000D01*
X108839000Y-44704000D02*
X108839000Y-53695600D01*
X109905800Y-54813200D02*
G75*
G03X108889800Y-53695600I-1066800J50800D01*
G01*
X108839000Y-55829200D02*
X108839000Y-57048400D01*
X108839000Y-55829200D02*
G75*
G03X109905800Y-54762400I0J1066800D01*
G01*
X116713000Y-44704000D02*
X108864400Y-44704000D01*
X108839000Y-69342000D02*
X116713000Y-69342000D01*
X116713000Y-53619400D02*
X116713000Y-52400200D01*
X115570000Y-54762400D02*
G75*
G03X116713000Y-55905400I1143000J0D01*
G01*
X116713000Y-53619400D02*
G75*
G03X115570000Y-54762400I0J-1143000D01*
G01*
X116713000Y-57023000D02*
X116713000Y-55930800D01*
X115570000Y-54762400D02*
X114401600Y-54762400D01*
X111125000Y-54762400D02*
X109982000Y-54762400D01*
X108839000Y-57048400D02*
X108839000Y-69342000D01*
X111125000Y-54762400D02*
X114401600Y-54762400D01*
X116713000Y-44729400D02*
X116713000Y-52476400D01*
X116713000Y-57048400D02*
X116713000Y-69342000D01*
X147751800Y-57023000D02*
X147751800Y-69316600D01*
X147751800Y-44704000D02*
X147751800Y-52451000D01*
X142163800Y-54737000D02*
X145440400Y-54737000D01*
X139877800Y-57023000D02*
X139877800Y-69316600D01*
X142163800Y-54737000D02*
X141020800Y-54737000D01*
X146608800Y-54737000D02*
X145440400Y-54737000D01*
X147751800Y-56997600D02*
X147751800Y-55905400D01*
X147751800Y-53594000D02*
G75*
G03X146608800Y-54737000I0J-1143000D01*
G01*
X146608800Y-54737000D02*
G75*
G03X147751800Y-55880000I1143000J0D01*
G01*
X147751800Y-53594000D02*
X147751800Y-52374800D01*
X139877800Y-69316600D02*
X147751800Y-69316600D01*
X147751800Y-44678600D02*
X139903200Y-44678600D01*
X139877800Y-55803800D02*
G75*
G03X140944600Y-54737000I0J1066800D01*
G01*
X139877800Y-55803800D02*
X139877800Y-57023000D01*
X140944600Y-54787800D02*
G75*
G03X139928600Y-53670200I-1066800J50800D01*
G01*
X139877800Y-44678600D02*
X139877800Y-53670200D01*
X170891200Y-44704000D02*
X170891200Y-53695600D01*
X171958000Y-54813200D02*
G75*
G03X170942000Y-53695600I-1066800J50800D01*
G01*
X170891200Y-55829200D02*
X170891200Y-57048400D01*
X170891200Y-55829200D02*
G75*
G03X171958000Y-54762400I0J1066800D01*
G01*
X178765200Y-44704000D02*
X170916600Y-44704000D01*
X170891200Y-69342000D02*
X178765200Y-69342000D01*
X178765200Y-53619400D02*
X178765200Y-52400200D01*
X177622200Y-54762400D02*
G75*
G03X178765200Y-55905400I1143000J0D01*
G01*
X178765200Y-53619400D02*
G75*
G03X177622200Y-54762400I0J-1143000D01*
G01*
X178765200Y-57023000D02*
X178765200Y-55930800D01*
X177622200Y-54762400D02*
X176453800Y-54762400D01*
X173177200Y-54762400D02*
X172034200Y-54762400D01*
X170891200Y-57048400D02*
X170891200Y-69342000D01*
X173177200Y-54762400D02*
X176453800Y-54762400D01*
X178765200Y-44729400D02*
X178765200Y-52476400D01*
X178765200Y-57048400D02*
X178765200Y-69342000D01*
D13*
X176655000Y-84894267D02*
X176655000Y-84551733D01*
X177675000Y-84894267D02*
X177675000Y-84551733D01*
X186942000Y-88361733D02*
X186942000Y-88704267D01*
X187962000Y-88361733D02*
X187962000Y-88704267D01*
X187962000Y-81503733D02*
X187962000Y-81846267D01*
X186942000Y-81503733D02*
X186942000Y-81846267D01*
D12*
X151765000Y-87934800D02*
X151765000Y-95808800D01*
X151765000Y-95808800D02*
X153743660Y-95808800D01*
X159639000Y-95808800D02*
X159639000Y-87934800D01*
X159639000Y-87934800D02*
X157660340Y-87934800D01*
X153743660Y-87934800D02*
X151765000Y-87934800D01*
X157660340Y-95808800D02*
X159639000Y-95808800D01*
D13*
X192633000Y-92004000D02*
X191173000Y-92004000D01*
X192633000Y-88844000D02*
X189473000Y-88844000D01*
X192633000Y-88844000D02*
X192633000Y-89774000D01*
X192633000Y-92004000D02*
X192633000Y-91074000D01*
X192657000Y-85146000D02*
X192657000Y-84216000D01*
X192657000Y-81986000D02*
X192657000Y-82916000D01*
X192657000Y-81986000D02*
X189497000Y-81986000D01*
X192657000Y-85146000D02*
X191197000Y-85146000D01*
X115285733Y-101856000D02*
X115628267Y-101856000D01*
X115285733Y-100836000D02*
X115628267Y-100836000D01*
X120097733Y-99312000D02*
X120440267Y-99312000D01*
X120097733Y-100332000D02*
X120440267Y-100332000D01*
X115285733Y-99062000D02*
X115628267Y-99062000D01*
X115285733Y-98042000D02*
X115628267Y-98042000D01*
X115285733Y-95502000D02*
X115628267Y-95502000D01*
X115285733Y-96522000D02*
X115628267Y-96522000D01*
X120426267Y-97792000D02*
X120083733Y-97792000D01*
X120426267Y-96772000D02*
X120083733Y-96772000D01*
X121329267Y-104011000D02*
X120986733Y-104011000D01*
X121329267Y-105031000D02*
X120986733Y-105031000D01*
X119349733Y-130050000D02*
X119692267Y-130050000D01*
X119349733Y-129030000D02*
X119692267Y-129030000D01*
X116334000Y-111955733D02*
X116334000Y-112298267D01*
X115314000Y-111955733D02*
X115314000Y-112298267D01*
X177802000Y-88982733D02*
X177802000Y-89325267D01*
X176782000Y-88982733D02*
X176782000Y-89325267D01*
X190469733Y-87886000D02*
X190812267Y-87886000D01*
X190469733Y-86866000D02*
X190812267Y-86866000D01*
X131951000Y-94810733D02*
X131951000Y-95153267D01*
X132971000Y-94810733D02*
X132971000Y-95153267D01*
X128649000Y-95280267D02*
X128649000Y-94937733D01*
X129669000Y-95280267D02*
X129669000Y-94937733D01*
X190469733Y-81028000D02*
X190812267Y-81028000D01*
X190469733Y-80008000D02*
X190812267Y-80008000D01*
X109114000Y-87318436D02*
X109114000Y-88522564D01*
X107294000Y-87318436D02*
X107294000Y-88522564D01*
X149015267Y-94867000D02*
X148672733Y-94867000D01*
X149015267Y-95887000D02*
X148672733Y-95887000D01*
X148686733Y-91946000D02*
X149029267Y-91946000D01*
X148686733Y-92966000D02*
X149029267Y-92966000D01*
X134208733Y-100963000D02*
X134551267Y-100963000D01*
X134208733Y-101983000D02*
X134551267Y-101983000D01*
X125280267Y-104904000D02*
X124937733Y-104904000D01*
X125280267Y-103884000D02*
X124937733Y-103884000D01*
X120083733Y-92712000D02*
X120426267Y-92712000D01*
X120083733Y-91692000D02*
X120426267Y-91692000D01*
X144951267Y-95887000D02*
X144608733Y-95887000D01*
X144951267Y-94867000D02*
X144608733Y-94867000D01*
X144622733Y-92966000D02*
X144965267Y-92966000D01*
X144622733Y-91946000D02*
X144965267Y-91946000D01*
X140746267Y-94867000D02*
X140403733Y-94867000D01*
X140746267Y-95887000D02*
X140403733Y-95887000D01*
X140417733Y-91946000D02*
X140760267Y-91946000D01*
X140417733Y-92966000D02*
X140760267Y-92966000D01*
X136113733Y-95887000D02*
X136456267Y-95887000D01*
X136113733Y-94867000D02*
X136456267Y-94867000D01*
X136456267Y-92966000D02*
X136113733Y-92966000D01*
X136456267Y-91946000D02*
X136113733Y-91946000D01*
D10*
X178529000Y-107693000D02*
X175629000Y-107693000D01*
X175629000Y-107693000D02*
X175629000Y-97793000D01*
X175629000Y-97793000D02*
X179529000Y-97793000D01*
X179529000Y-97793000D02*
X179529000Y-106693000D01*
X179529000Y-106693000D02*
X178529000Y-107693000D01*
D13*
X149441000Y-101446000D02*
X151901000Y-101446000D01*
X151901000Y-101446000D02*
X151901000Y-99976000D01*
X151901000Y-99976000D02*
X149441000Y-99976000D01*
X151066500Y-125730000D02*
X125666500Y-125730000D01*
X151066500Y-130810000D02*
X151066500Y-125730000D01*
X125666500Y-130810000D02*
X151066500Y-130810000D01*
X125666500Y-125730000D02*
X125666500Y-130810000D01*
X125666500Y-82550000D02*
X125666500Y-87630000D01*
X151066500Y-82550000D02*
X125666500Y-82550000D01*
X151066500Y-87630000D02*
X151066500Y-82550000D01*
X125666500Y-87630000D02*
X151066500Y-87630000D01*
X87058500Y-59563000D02*
X90868500Y-59563000D01*
X88963500Y-61468000D02*
X88963500Y-57658000D01*
X87058500Y-129921000D02*
X90868500Y-129921000D01*
X88963500Y-131826000D02*
X88963500Y-128016000D01*
X190309500Y-129921000D02*
X194119500Y-129921000D01*
X192214500Y-131826000D02*
X192214500Y-128016000D01*
X190309500Y-59563000D02*
X194119500Y-59563000D01*
X192214500Y-61468000D02*
X192214500Y-57658000D01*
X194119500Y-59563000D02*
G75*
G03X194119500Y-59563000I-1905000J0D01*
G01*
X194119500Y-129921000D02*
G75*
G03X194119500Y-129921000I-1905000J0D01*
G01*
X90868500Y-129921000D02*
G75*
G03X90868500Y-129921000I-1905000J0D01*
G01*
X90868500Y-59563000D02*
G75*
G03X90868500Y-59563000I-1905000J0D01*
G01*
X192214500Y-54737000D02*
G75*
G02X197040500Y-59563000I0J-4826000D01*
G01*
X192595500Y-129921000D02*
X191833500Y-129921000D01*
X192214500Y-130302000D02*
X192214500Y-129540000D01*
X197040500Y-129921000D02*
G75*
G02X192214500Y-134747000I-4826000J0D01*
G01*
X88963500Y-134747000D02*
G75*
G02X84137500Y-129921000I0J4826000D01*
G01*
X84137500Y-59563000D02*
G75*
G02X88963500Y-54737000I4826000J0D01*
G01*
X84137500Y-59563000D02*
X84137500Y-59563000D01*
X192214500Y-54737000D02*
X88963500Y-54737000D01*
X197040500Y-129921000D02*
X197040500Y-59563000D01*
X88963500Y-134747000D02*
X192214500Y-134747000D01*
X84137500Y-59563000D02*
X84137500Y-129921000D01*
X93657267Y-123382500D02*
X93314733Y-123382500D01*
X93657267Y-122362500D02*
X93314733Y-122362500D01*
X97378733Y-122299000D02*
X97721267Y-122299000D01*
X97378733Y-123319000D02*
X97721267Y-123319000D01*
D10*
X136525095Y-104608380D02*
X136525095Y-105417904D01*
X136572714Y-105513142D01*
X136620333Y-105560761D01*
X136715571Y-105608380D01*
X136906047Y-105608380D01*
X137001285Y-105560761D01*
X137048904Y-105513142D01*
X137096523Y-105417904D01*
X137096523Y-104608380D01*
X138096523Y-105608380D02*
X137525095Y-105608380D01*
X137810809Y-105608380D02*
X137810809Y-104608380D01*
X137715571Y-104751238D01*
X137620333Y-104846476D01*
X137525095Y-104894095D01*
X134191761Y-119324380D02*
X134191761Y-118324380D01*
X134429857Y-118324380D01*
X134572714Y-118372000D01*
X134667952Y-118467238D01*
X134715571Y-118562476D01*
X134763190Y-118752952D01*
X134763190Y-118895809D01*
X134715571Y-119086285D01*
X134667952Y-119181523D01*
X134572714Y-119276761D01*
X134429857Y-119324380D01*
X134191761Y-119324380D01*
X135763190Y-119324380D02*
X135429857Y-118848190D01*
X135191761Y-119324380D02*
X135191761Y-118324380D01*
X135572714Y-118324380D01*
X135667952Y-118372000D01*
X135715571Y-118419619D01*
X135763190Y-118514857D01*
X135763190Y-118657714D01*
X135715571Y-118752952D01*
X135667952Y-118800571D01*
X135572714Y-118848190D01*
X135191761Y-118848190D01*
X136048904Y-118324380D02*
X136382238Y-119324380D01*
X136715571Y-118324380D01*
X137191761Y-118752952D02*
X137096523Y-118705333D01*
X137048904Y-118657714D01*
X137001285Y-118562476D01*
X137001285Y-118514857D01*
X137048904Y-118419619D01*
X137096523Y-118372000D01*
X137191761Y-118324380D01*
X137382238Y-118324380D01*
X137477476Y-118372000D01*
X137525095Y-118419619D01*
X137572714Y-118514857D01*
X137572714Y-118562476D01*
X137525095Y-118657714D01*
X137477476Y-118705333D01*
X137382238Y-118752952D01*
X137191761Y-118752952D01*
X137096523Y-118800571D01*
X137048904Y-118848190D01*
X137001285Y-118943428D01*
X137001285Y-119133904D01*
X137048904Y-119229142D01*
X137096523Y-119276761D01*
X137191761Y-119324380D01*
X137382238Y-119324380D01*
X137477476Y-119276761D01*
X137525095Y-119229142D01*
X137572714Y-119133904D01*
X137572714Y-118943428D01*
X137525095Y-118848190D01*
X137477476Y-118800571D01*
X137382238Y-118752952D01*
X137906047Y-118324380D02*
X138525095Y-118324380D01*
X138191761Y-118705333D01*
X138334619Y-118705333D01*
X138429857Y-118752952D01*
X138477476Y-118800571D01*
X138525095Y-118895809D01*
X138525095Y-119133904D01*
X138477476Y-119229142D01*
X138429857Y-119276761D01*
X138334619Y-119324380D01*
X138048904Y-119324380D01*
X137953666Y-119276761D01*
X137906047Y-119229142D01*
X139144142Y-118324380D02*
X139239380Y-118324380D01*
X139334619Y-118372000D01*
X139382238Y-118419619D01*
X139429857Y-118514857D01*
X139477476Y-118705333D01*
X139477476Y-118943428D01*
X139429857Y-119133904D01*
X139382238Y-119229142D01*
X139334619Y-119276761D01*
X139239380Y-119324380D01*
X139144142Y-119324380D01*
X139048904Y-119276761D01*
X139001285Y-119229142D01*
X138953666Y-119133904D01*
X138906047Y-118943428D01*
X138906047Y-118705333D01*
X138953666Y-118514857D01*
X139001285Y-118419619D01*
X139048904Y-118372000D01*
X139144142Y-118324380D01*
X140429857Y-119324380D02*
X139858428Y-119324380D01*
X140144142Y-119324380D02*
X140144142Y-118324380D01*
X140048904Y-118467238D01*
X139953666Y-118562476D01*
X139858428Y-118610095D01*
X193762333Y-107418142D02*
X193714714Y-107465761D01*
X193571857Y-107513380D01*
X193476619Y-107513380D01*
X193333761Y-107465761D01*
X193238523Y-107370523D01*
X193190904Y-107275285D01*
X193143285Y-107084809D01*
X193143285Y-106941952D01*
X193190904Y-106751476D01*
X193238523Y-106656238D01*
X193333761Y-106561000D01*
X193476619Y-106513380D01*
X193571857Y-106513380D01*
X193714714Y-106561000D01*
X193762333Y-106608619D01*
X194714714Y-107513380D02*
X194143285Y-107513380D01*
X194429000Y-107513380D02*
X194429000Y-106513380D01*
X194333761Y-106656238D01*
X194238523Y-106751476D01*
X194143285Y-106799095D01*
X144119333Y-100085142D02*
X144071714Y-100132761D01*
X143928857Y-100180380D01*
X143833619Y-100180380D01*
X143690761Y-100132761D01*
X143595523Y-100037523D01*
X143547904Y-99942285D01*
X143500285Y-99751809D01*
X143500285Y-99608952D01*
X143547904Y-99418476D01*
X143595523Y-99323238D01*
X143690761Y-99228000D01*
X143833619Y-99180380D01*
X143928857Y-99180380D01*
X144071714Y-99228000D01*
X144119333Y-99275619D01*
X144500285Y-99275619D02*
X144547904Y-99228000D01*
X144643142Y-99180380D01*
X144881238Y-99180380D01*
X144976476Y-99228000D01*
X145024095Y-99275619D01*
X145071714Y-99370857D01*
X145071714Y-99466095D01*
X145024095Y-99608952D01*
X144452666Y-100180380D01*
X145071714Y-100180380D01*
X193762333Y-110085142D02*
X193714714Y-110132761D01*
X193571857Y-110180380D01*
X193476619Y-110180380D01*
X193333761Y-110132761D01*
X193238523Y-110037523D01*
X193190904Y-109942285D01*
X193143285Y-109751809D01*
X193143285Y-109608952D01*
X193190904Y-109418476D01*
X193238523Y-109323238D01*
X193333761Y-109228000D01*
X193476619Y-109180380D01*
X193571857Y-109180380D01*
X193714714Y-109228000D01*
X193762333Y-109275619D01*
X194095666Y-109180380D02*
X194714714Y-109180380D01*
X194381380Y-109561333D01*
X194524238Y-109561333D01*
X194619476Y-109608952D01*
X194667095Y-109656571D01*
X194714714Y-109751809D01*
X194714714Y-109989904D01*
X194667095Y-110085142D01*
X194619476Y-110132761D01*
X194524238Y-110180380D01*
X194238523Y-110180380D01*
X194143285Y-110132761D01*
X194095666Y-110085142D01*
X140168333Y-97258142D02*
X140120714Y-97305761D01*
X139977857Y-97353380D01*
X139882619Y-97353380D01*
X139739761Y-97305761D01*
X139644523Y-97210523D01*
X139596904Y-97115285D01*
X139549285Y-96924809D01*
X139549285Y-96781952D01*
X139596904Y-96591476D01*
X139644523Y-96496238D01*
X139739761Y-96401000D01*
X139882619Y-96353380D01*
X139977857Y-96353380D01*
X140120714Y-96401000D01*
X140168333Y-96448619D01*
X141025476Y-96686714D02*
X141025476Y-97353380D01*
X140787380Y-96305761D02*
X140549285Y-97020047D01*
X141168333Y-97020047D01*
X104481333Y-56999142D02*
X104433714Y-57046761D01*
X104290857Y-57094380D01*
X104195619Y-57094380D01*
X104052761Y-57046761D01*
X103957523Y-56951523D01*
X103909904Y-56856285D01*
X103862285Y-56665809D01*
X103862285Y-56522952D01*
X103909904Y-56332476D01*
X103957523Y-56237238D01*
X104052761Y-56142000D01*
X104195619Y-56094380D01*
X104290857Y-56094380D01*
X104433714Y-56142000D01*
X104481333Y-56189619D01*
X105386095Y-56094380D02*
X104909904Y-56094380D01*
X104862285Y-56570571D01*
X104909904Y-56522952D01*
X105005142Y-56475333D01*
X105243238Y-56475333D01*
X105338476Y-56522952D01*
X105386095Y-56570571D01*
X105433714Y-56665809D01*
X105433714Y-56903904D01*
X105386095Y-56999142D01*
X105338476Y-57046761D01*
X105243238Y-57094380D01*
X105005142Y-57094380D01*
X104909904Y-57046761D01*
X104862285Y-56999142D01*
X190734333Y-104452142D02*
X190686714Y-104499761D01*
X190543857Y-104547380D01*
X190448619Y-104547380D01*
X190305761Y-104499761D01*
X190210523Y-104404523D01*
X190162904Y-104309285D01*
X190115285Y-104118809D01*
X190115285Y-103975952D01*
X190162904Y-103785476D01*
X190210523Y-103690238D01*
X190305761Y-103595000D01*
X190448619Y-103547380D01*
X190543857Y-103547380D01*
X190686714Y-103595000D01*
X190734333Y-103642619D01*
X191591476Y-103547380D02*
X191401000Y-103547380D01*
X191305761Y-103595000D01*
X191258142Y-103642619D01*
X191162904Y-103785476D01*
X191115285Y-103975952D01*
X191115285Y-104356904D01*
X191162904Y-104452142D01*
X191210523Y-104499761D01*
X191305761Y-104547380D01*
X191496238Y-104547380D01*
X191591476Y-104499761D01*
X191639095Y-104452142D01*
X191686714Y-104356904D01*
X191686714Y-104118809D01*
X191639095Y-104023571D01*
X191591476Y-103975952D01*
X191496238Y-103928333D01*
X191305761Y-103928333D01*
X191210523Y-103975952D01*
X191162904Y-104023571D01*
X191115285Y-104118809D01*
X121190642Y-62563666D02*
X121238261Y-62611285D01*
X121285880Y-62754142D01*
X121285880Y-62849380D01*
X121238261Y-62992238D01*
X121143023Y-63087476D01*
X121047785Y-63135095D01*
X120857309Y-63182714D01*
X120714452Y-63182714D01*
X120523976Y-63135095D01*
X120428738Y-63087476D01*
X120333500Y-62992238D01*
X120285880Y-62849380D01*
X120285880Y-62754142D01*
X120333500Y-62611285D01*
X120381119Y-62563666D01*
X120285880Y-62230333D02*
X120285880Y-61563666D01*
X121285880Y-61992238D01*
X141628833Y-119323142D02*
X141581214Y-119370761D01*
X141438357Y-119418380D01*
X141343119Y-119418380D01*
X141200261Y-119370761D01*
X141105023Y-119275523D01*
X141057404Y-119180285D01*
X141009785Y-118989809D01*
X141009785Y-118846952D01*
X141057404Y-118656476D01*
X141105023Y-118561238D01*
X141200261Y-118466000D01*
X141343119Y-118418380D01*
X141438357Y-118418380D01*
X141581214Y-118466000D01*
X141628833Y-118513619D01*
X142200261Y-118846952D02*
X142105023Y-118799333D01*
X142057404Y-118751714D01*
X142009785Y-118656476D01*
X142009785Y-118608857D01*
X142057404Y-118513619D01*
X142105023Y-118466000D01*
X142200261Y-118418380D01*
X142390738Y-118418380D01*
X142485976Y-118466000D01*
X142533595Y-118513619D01*
X142581214Y-118608857D01*
X142581214Y-118656476D01*
X142533595Y-118751714D01*
X142485976Y-118799333D01*
X142390738Y-118846952D01*
X142200261Y-118846952D01*
X142105023Y-118894571D01*
X142057404Y-118942190D01*
X142009785Y-119037428D01*
X142009785Y-119227904D01*
X142057404Y-119323142D01*
X142105023Y-119370761D01*
X142200261Y-119418380D01*
X142390738Y-119418380D01*
X142485976Y-119370761D01*
X142533595Y-119323142D01*
X142581214Y-119227904D01*
X142581214Y-119037428D01*
X142533595Y-118942190D01*
X142485976Y-118894571D01*
X142390738Y-118846952D01*
X86574333Y-68810142D02*
X86526714Y-68857761D01*
X86383857Y-68905380D01*
X86288619Y-68905380D01*
X86145761Y-68857761D01*
X86050523Y-68762523D01*
X86002904Y-68667285D01*
X85955285Y-68476809D01*
X85955285Y-68333952D01*
X86002904Y-68143476D01*
X86050523Y-68048238D01*
X86145761Y-67953000D01*
X86288619Y-67905380D01*
X86383857Y-67905380D01*
X86526714Y-67953000D01*
X86574333Y-68000619D01*
X87050523Y-68905380D02*
X87241000Y-68905380D01*
X87336238Y-68857761D01*
X87383857Y-68810142D01*
X87479095Y-68667285D01*
X87526714Y-68476809D01*
X87526714Y-68095857D01*
X87479095Y-68000619D01*
X87431476Y-67953000D01*
X87336238Y-67905380D01*
X87145761Y-67905380D01*
X87050523Y-67953000D01*
X87002904Y-68000619D01*
X86955285Y-68095857D01*
X86955285Y-68333952D01*
X87002904Y-68429190D01*
X87050523Y-68476809D01*
X87145761Y-68524428D01*
X87336238Y-68524428D01*
X87431476Y-68476809D01*
X87479095Y-68429190D01*
X87526714Y-68333952D01*
X141152642Y-122117142D02*
X141105023Y-122164761D01*
X140962166Y-122212380D01*
X140866928Y-122212380D01*
X140724071Y-122164761D01*
X140628833Y-122069523D01*
X140581214Y-121974285D01*
X140533595Y-121783809D01*
X140533595Y-121640952D01*
X140581214Y-121450476D01*
X140628833Y-121355238D01*
X140724071Y-121260000D01*
X140866928Y-121212380D01*
X140962166Y-121212380D01*
X141105023Y-121260000D01*
X141152642Y-121307619D01*
X142105023Y-122212380D02*
X141533595Y-122212380D01*
X141819309Y-122212380D02*
X141819309Y-121212380D01*
X141724071Y-121355238D01*
X141628833Y-121450476D01*
X141533595Y-121498095D01*
X142724071Y-121212380D02*
X142819309Y-121212380D01*
X142914547Y-121260000D01*
X142962166Y-121307619D01*
X143009785Y-121402857D01*
X143057404Y-121593333D01*
X143057404Y-121831428D01*
X143009785Y-122021904D01*
X142962166Y-122117142D01*
X142914547Y-122164761D01*
X142819309Y-122212380D01*
X142724071Y-122212380D01*
X142628833Y-122164761D01*
X142581214Y-122117142D01*
X142533595Y-122021904D01*
X142485976Y-121831428D01*
X142485976Y-121593333D01*
X142533595Y-121402857D01*
X142581214Y-121307619D01*
X142628833Y-121260000D01*
X142724071Y-121212380D01*
X151734142Y-62785857D02*
X151781761Y-62833476D01*
X151829380Y-62976333D01*
X151829380Y-63071571D01*
X151781761Y-63214428D01*
X151686523Y-63309666D01*
X151591285Y-63357285D01*
X151400809Y-63404904D01*
X151257952Y-63404904D01*
X151067476Y-63357285D01*
X150972238Y-63309666D01*
X150877000Y-63214428D01*
X150829380Y-63071571D01*
X150829380Y-62976333D01*
X150877000Y-62833476D01*
X150924619Y-62785857D01*
X151829380Y-61833476D02*
X151829380Y-62404904D01*
X151829380Y-62119190D02*
X150829380Y-62119190D01*
X150972238Y-62214428D01*
X151067476Y-62309666D01*
X151115095Y-62404904D01*
X151829380Y-60881095D02*
X151829380Y-61452523D01*
X151829380Y-61166809D02*
X150829380Y-61166809D01*
X150972238Y-61262047D01*
X151067476Y-61357285D01*
X151115095Y-61452523D01*
X122801142Y-90273142D02*
X122753523Y-90320761D01*
X122610666Y-90368380D01*
X122515428Y-90368380D01*
X122372571Y-90320761D01*
X122277333Y-90225523D01*
X122229714Y-90130285D01*
X122182095Y-89939809D01*
X122182095Y-89796952D01*
X122229714Y-89606476D01*
X122277333Y-89511238D01*
X122372571Y-89416000D01*
X122515428Y-89368380D01*
X122610666Y-89368380D01*
X122753523Y-89416000D01*
X122801142Y-89463619D01*
X123753523Y-90368380D02*
X123182095Y-90368380D01*
X123467809Y-90368380D02*
X123467809Y-89368380D01*
X123372571Y-89511238D01*
X123277333Y-89606476D01*
X123182095Y-89654095D01*
X124134476Y-89463619D02*
X124182095Y-89416000D01*
X124277333Y-89368380D01*
X124515428Y-89368380D01*
X124610666Y-89416000D01*
X124658285Y-89463619D01*
X124705904Y-89558857D01*
X124705904Y-89654095D01*
X124658285Y-89796952D01*
X124086857Y-90368380D01*
X124705904Y-90368380D01*
X148312142Y-105022857D02*
X148359761Y-105070476D01*
X148407380Y-105213333D01*
X148407380Y-105308571D01*
X148359761Y-105451428D01*
X148264523Y-105546666D01*
X148169285Y-105594285D01*
X147978809Y-105641904D01*
X147835952Y-105641904D01*
X147645476Y-105594285D01*
X147550238Y-105546666D01*
X147455000Y-105451428D01*
X147407380Y-105308571D01*
X147407380Y-105213333D01*
X147455000Y-105070476D01*
X147502619Y-105022857D01*
X148407380Y-104070476D02*
X148407380Y-104641904D01*
X148407380Y-104356190D02*
X147407380Y-104356190D01*
X147550238Y-104451428D01*
X147645476Y-104546666D01*
X147693095Y-104641904D01*
X147407380Y-103737142D02*
X147407380Y-103118095D01*
X147788333Y-103451428D01*
X147788333Y-103308571D01*
X147835952Y-103213333D01*
X147883571Y-103165714D01*
X147978809Y-103118095D01*
X148216904Y-103118095D01*
X148312142Y-103165714D01*
X148359761Y-103213333D01*
X148407380Y-103308571D01*
X148407380Y-103594285D01*
X148359761Y-103689523D01*
X148312142Y-103737142D01*
X130929142Y-89638142D02*
X130881523Y-89685761D01*
X130738666Y-89733380D01*
X130643428Y-89733380D01*
X130500571Y-89685761D01*
X130405333Y-89590523D01*
X130357714Y-89495285D01*
X130310095Y-89304809D01*
X130310095Y-89161952D01*
X130357714Y-88971476D01*
X130405333Y-88876238D01*
X130500571Y-88781000D01*
X130643428Y-88733380D01*
X130738666Y-88733380D01*
X130881523Y-88781000D01*
X130929142Y-88828619D01*
X131881523Y-89733380D02*
X131310095Y-89733380D01*
X131595809Y-89733380D02*
X131595809Y-88733380D01*
X131500571Y-88876238D01*
X131405333Y-88971476D01*
X131310095Y-89019095D01*
X132738666Y-89066714D02*
X132738666Y-89733380D01*
X132500571Y-88685761D02*
X132262476Y-89400047D01*
X132881523Y-89400047D01*
X102481142Y-81637142D02*
X102433523Y-81684761D01*
X102290666Y-81732380D01*
X102195428Y-81732380D01*
X102052571Y-81684761D01*
X101957333Y-81589523D01*
X101909714Y-81494285D01*
X101862095Y-81303809D01*
X101862095Y-81160952D01*
X101909714Y-80970476D01*
X101957333Y-80875238D01*
X102052571Y-80780000D01*
X102195428Y-80732380D01*
X102290666Y-80732380D01*
X102433523Y-80780000D01*
X102481142Y-80827619D01*
X103433523Y-81732380D02*
X102862095Y-81732380D01*
X103147809Y-81732380D02*
X103147809Y-80732380D01*
X103052571Y-80875238D01*
X102957333Y-80970476D01*
X102862095Y-81018095D01*
X104338285Y-80732380D02*
X103862095Y-80732380D01*
X103814476Y-81208571D01*
X103862095Y-81160952D01*
X103957333Y-81113333D01*
X104195428Y-81113333D01*
X104290666Y-81160952D01*
X104338285Y-81208571D01*
X104385904Y-81303809D01*
X104385904Y-81541904D01*
X104338285Y-81637142D01*
X104290666Y-81684761D01*
X104195428Y-81732380D01*
X103957333Y-81732380D01*
X103862095Y-81684761D01*
X103814476Y-81637142D01*
X102481142Y-84177142D02*
X102433523Y-84224761D01*
X102290666Y-84272380D01*
X102195428Y-84272380D01*
X102052571Y-84224761D01*
X101957333Y-84129523D01*
X101909714Y-84034285D01*
X101862095Y-83843809D01*
X101862095Y-83700952D01*
X101909714Y-83510476D01*
X101957333Y-83415238D01*
X102052571Y-83320000D01*
X102195428Y-83272380D01*
X102290666Y-83272380D01*
X102433523Y-83320000D01*
X102481142Y-83367619D01*
X103433523Y-84272380D02*
X102862095Y-84272380D01*
X103147809Y-84272380D02*
X103147809Y-83272380D01*
X103052571Y-83415238D01*
X102957333Y-83510476D01*
X102862095Y-83558095D01*
X104290666Y-83272380D02*
X104100190Y-83272380D01*
X104004952Y-83320000D01*
X103957333Y-83367619D01*
X103862095Y-83510476D01*
X103814476Y-83700952D01*
X103814476Y-84081904D01*
X103862095Y-84177142D01*
X103909714Y-84224761D01*
X104004952Y-84272380D01*
X104195428Y-84272380D01*
X104290666Y-84224761D01*
X104338285Y-84177142D01*
X104385904Y-84081904D01*
X104385904Y-83843809D01*
X104338285Y-83748571D01*
X104290666Y-83700952D01*
X104195428Y-83653333D01*
X104004952Y-83653333D01*
X103909714Y-83700952D01*
X103862095Y-83748571D01*
X103814476Y-83843809D01*
X124212142Y-108274142D02*
X124164523Y-108321761D01*
X124021666Y-108369380D01*
X123926428Y-108369380D01*
X123783571Y-108321761D01*
X123688333Y-108226523D01*
X123640714Y-108131285D01*
X123593095Y-107940809D01*
X123593095Y-107797952D01*
X123640714Y-107607476D01*
X123688333Y-107512238D01*
X123783571Y-107417000D01*
X123926428Y-107369380D01*
X124021666Y-107369380D01*
X124164523Y-107417000D01*
X124212142Y-107464619D01*
X125164523Y-108369380D02*
X124593095Y-108369380D01*
X124878809Y-108369380D02*
X124878809Y-107369380D01*
X124783571Y-107512238D01*
X124688333Y-107607476D01*
X124593095Y-107655095D01*
X125497857Y-107369380D02*
X126164523Y-107369380D01*
X125735952Y-108369380D01*
X157362142Y-106560857D02*
X157409761Y-106608476D01*
X157457380Y-106751333D01*
X157457380Y-106846571D01*
X157409761Y-106989428D01*
X157314523Y-107084666D01*
X157219285Y-107132285D01*
X157028809Y-107179904D01*
X156885952Y-107179904D01*
X156695476Y-107132285D01*
X156600238Y-107084666D01*
X156505000Y-106989428D01*
X156457380Y-106846571D01*
X156457380Y-106751333D01*
X156505000Y-106608476D01*
X156552619Y-106560857D01*
X157457380Y-105608476D02*
X157457380Y-106179904D01*
X157457380Y-105894190D02*
X156457380Y-105894190D01*
X156600238Y-105989428D01*
X156695476Y-106084666D01*
X156743095Y-106179904D01*
X156885952Y-105037047D02*
X156838333Y-105132285D01*
X156790714Y-105179904D01*
X156695476Y-105227523D01*
X156647857Y-105227523D01*
X156552619Y-105179904D01*
X156505000Y-105132285D01*
X156457380Y-105037047D01*
X156457380Y-104846571D01*
X156505000Y-104751333D01*
X156552619Y-104703714D01*
X156647857Y-104656095D01*
X156695476Y-104656095D01*
X156790714Y-104703714D01*
X156838333Y-104751333D01*
X156885952Y-104846571D01*
X156885952Y-105037047D01*
X156933571Y-105132285D01*
X156981190Y-105179904D01*
X157076428Y-105227523D01*
X157266904Y-105227523D01*
X157362142Y-105179904D01*
X157409761Y-105132285D01*
X157457380Y-105037047D01*
X157457380Y-104846571D01*
X157409761Y-104751333D01*
X157362142Y-104703714D01*
X157266904Y-104656095D01*
X157076428Y-104656095D01*
X156981190Y-104703714D01*
X156933571Y-104751333D01*
X156885952Y-104846571D01*
X155711142Y-111908857D02*
X155758761Y-111956476D01*
X155806380Y-112099333D01*
X155806380Y-112194571D01*
X155758761Y-112337428D01*
X155663523Y-112432666D01*
X155568285Y-112480285D01*
X155377809Y-112527904D01*
X155234952Y-112527904D01*
X155044476Y-112480285D01*
X154949238Y-112432666D01*
X154854000Y-112337428D01*
X154806380Y-112194571D01*
X154806380Y-112099333D01*
X154854000Y-111956476D01*
X154901619Y-111908857D01*
X155806380Y-110956476D02*
X155806380Y-111527904D01*
X155806380Y-111242190D02*
X154806380Y-111242190D01*
X154949238Y-111337428D01*
X155044476Y-111432666D01*
X155092095Y-111527904D01*
X155806380Y-110480285D02*
X155806380Y-110289809D01*
X155758761Y-110194571D01*
X155711142Y-110146952D01*
X155568285Y-110051714D01*
X155377809Y-110004095D01*
X154996857Y-110004095D01*
X154901619Y-110051714D01*
X154854000Y-110099333D01*
X154806380Y-110194571D01*
X154806380Y-110385047D01*
X154854000Y-110480285D01*
X154901619Y-110527904D01*
X154996857Y-110575523D01*
X155234952Y-110575523D01*
X155330190Y-110527904D01*
X155377809Y-110480285D01*
X155425428Y-110385047D01*
X155425428Y-110194571D01*
X155377809Y-110099333D01*
X155330190Y-110051714D01*
X155234952Y-110004095D01*
X152503142Y-116861857D02*
X152550761Y-116909476D01*
X152598380Y-117052333D01*
X152598380Y-117147571D01*
X152550761Y-117290428D01*
X152455523Y-117385666D01*
X152360285Y-117433285D01*
X152169809Y-117480904D01*
X152026952Y-117480904D01*
X151836476Y-117433285D01*
X151741238Y-117385666D01*
X151646000Y-117290428D01*
X151598380Y-117147571D01*
X151598380Y-117052333D01*
X151646000Y-116909476D01*
X151693619Y-116861857D01*
X151693619Y-116480904D02*
X151646000Y-116433285D01*
X151598380Y-116338047D01*
X151598380Y-116099952D01*
X151646000Y-116004714D01*
X151693619Y-115957095D01*
X151788857Y-115909476D01*
X151884095Y-115909476D01*
X152026952Y-115957095D01*
X152598380Y-116528523D01*
X152598380Y-115909476D01*
X151598380Y-115290428D02*
X151598380Y-115195190D01*
X151646000Y-115099952D01*
X151693619Y-115052333D01*
X151788857Y-115004714D01*
X151979333Y-114957095D01*
X152217428Y-114957095D01*
X152407904Y-115004714D01*
X152503142Y-115052333D01*
X152550761Y-115099952D01*
X152598380Y-115195190D01*
X152598380Y-115290428D01*
X152550761Y-115385666D01*
X152503142Y-115433285D01*
X152407904Y-115480904D01*
X152217428Y-115528523D01*
X151979333Y-115528523D01*
X151788857Y-115480904D01*
X151693619Y-115433285D01*
X151646000Y-115385666D01*
X151598380Y-115290428D01*
X148201142Y-88749142D02*
X148153523Y-88796761D01*
X148010666Y-88844380D01*
X147915428Y-88844380D01*
X147772571Y-88796761D01*
X147677333Y-88701523D01*
X147629714Y-88606285D01*
X147582095Y-88415809D01*
X147582095Y-88272952D01*
X147629714Y-88082476D01*
X147677333Y-87987238D01*
X147772571Y-87892000D01*
X147915428Y-87844380D01*
X148010666Y-87844380D01*
X148153523Y-87892000D01*
X148201142Y-87939619D01*
X148582095Y-87939619D02*
X148629714Y-87892000D01*
X148724952Y-87844380D01*
X148963047Y-87844380D01*
X149058285Y-87892000D01*
X149105904Y-87939619D01*
X149153523Y-88034857D01*
X149153523Y-88130095D01*
X149105904Y-88272952D01*
X148534476Y-88844380D01*
X149153523Y-88844380D01*
X150105904Y-88844380D02*
X149534476Y-88844380D01*
X149820190Y-88844380D02*
X149820190Y-87844380D01*
X149724952Y-87987238D01*
X149629714Y-88082476D01*
X149534476Y-88130095D01*
X139833142Y-100400142D02*
X139785523Y-100447761D01*
X139642666Y-100495380D01*
X139547428Y-100495380D01*
X139404571Y-100447761D01*
X139309333Y-100352523D01*
X139261714Y-100257285D01*
X139214095Y-100066809D01*
X139214095Y-99923952D01*
X139261714Y-99733476D01*
X139309333Y-99638238D01*
X139404571Y-99543000D01*
X139547428Y-99495380D01*
X139642666Y-99495380D01*
X139785523Y-99543000D01*
X139833142Y-99590619D01*
X140214095Y-99590619D02*
X140261714Y-99543000D01*
X140356952Y-99495380D01*
X140595047Y-99495380D01*
X140690285Y-99543000D01*
X140737904Y-99590619D01*
X140785523Y-99685857D01*
X140785523Y-99781095D01*
X140737904Y-99923952D01*
X140166476Y-100495380D01*
X140785523Y-100495380D01*
X141166476Y-99590619D02*
X141214095Y-99543000D01*
X141309333Y-99495380D01*
X141547428Y-99495380D01*
X141642666Y-99543000D01*
X141690285Y-99590619D01*
X141737904Y-99685857D01*
X141737904Y-99781095D01*
X141690285Y-99923952D01*
X141118857Y-100495380D01*
X141737904Y-100495380D01*
X122801142Y-95099142D02*
X122753523Y-95146761D01*
X122610666Y-95194380D01*
X122515428Y-95194380D01*
X122372571Y-95146761D01*
X122277333Y-95051523D01*
X122229714Y-94956285D01*
X122182095Y-94765809D01*
X122182095Y-94622952D01*
X122229714Y-94432476D01*
X122277333Y-94337238D01*
X122372571Y-94242000D01*
X122515428Y-94194380D01*
X122610666Y-94194380D01*
X122753523Y-94242000D01*
X122801142Y-94289619D01*
X123182095Y-94289619D02*
X123229714Y-94242000D01*
X123324952Y-94194380D01*
X123563047Y-94194380D01*
X123658285Y-94242000D01*
X123705904Y-94289619D01*
X123753523Y-94384857D01*
X123753523Y-94480095D01*
X123705904Y-94622952D01*
X123134476Y-95194380D01*
X123753523Y-95194380D01*
X124086857Y-94194380D02*
X124705904Y-94194380D01*
X124372571Y-94575333D01*
X124515428Y-94575333D01*
X124610666Y-94622952D01*
X124658285Y-94670571D01*
X124705904Y-94765809D01*
X124705904Y-95003904D01*
X124658285Y-95099142D01*
X124610666Y-95146761D01*
X124515428Y-95194380D01*
X124229714Y-95194380D01*
X124134476Y-95146761D01*
X124086857Y-95099142D01*
X115259142Y-93747857D02*
X115306761Y-93795476D01*
X115354380Y-93938333D01*
X115354380Y-94033571D01*
X115306761Y-94176428D01*
X115211523Y-94271666D01*
X115116285Y-94319285D01*
X114925809Y-94366904D01*
X114782952Y-94366904D01*
X114592476Y-94319285D01*
X114497238Y-94271666D01*
X114402000Y-94176428D01*
X114354380Y-94033571D01*
X114354380Y-93938333D01*
X114402000Y-93795476D01*
X114449619Y-93747857D01*
X114449619Y-93366904D02*
X114402000Y-93319285D01*
X114354380Y-93224047D01*
X114354380Y-92985952D01*
X114402000Y-92890714D01*
X114449619Y-92843095D01*
X114544857Y-92795476D01*
X114640095Y-92795476D01*
X114782952Y-92843095D01*
X115354380Y-93414523D01*
X115354380Y-92795476D01*
X114687714Y-91938333D02*
X115354380Y-91938333D01*
X114306761Y-92176428D02*
X115021047Y-92414523D01*
X115021047Y-91795476D01*
X120275142Y-108401142D02*
X120227523Y-108448761D01*
X120084666Y-108496380D01*
X119989428Y-108496380D01*
X119846571Y-108448761D01*
X119751333Y-108353523D01*
X119703714Y-108258285D01*
X119656095Y-108067809D01*
X119656095Y-107924952D01*
X119703714Y-107734476D01*
X119751333Y-107639238D01*
X119846571Y-107544000D01*
X119989428Y-107496380D01*
X120084666Y-107496380D01*
X120227523Y-107544000D01*
X120275142Y-107591619D01*
X120656095Y-107591619D02*
X120703714Y-107544000D01*
X120798952Y-107496380D01*
X121037047Y-107496380D01*
X121132285Y-107544000D01*
X121179904Y-107591619D01*
X121227523Y-107686857D01*
X121227523Y-107782095D01*
X121179904Y-107924952D01*
X120608476Y-108496380D01*
X121227523Y-108496380D01*
X122132285Y-107496380D02*
X121656095Y-107496380D01*
X121608476Y-107972571D01*
X121656095Y-107924952D01*
X121751333Y-107877333D01*
X121989428Y-107877333D01*
X122084666Y-107924952D01*
X122132285Y-107972571D01*
X122179904Y-108067809D01*
X122179904Y-108305904D01*
X122132285Y-108401142D01*
X122084666Y-108448761D01*
X121989428Y-108496380D01*
X121751333Y-108496380D01*
X121656095Y-108448761D01*
X121608476Y-108401142D01*
X122229642Y-118213142D02*
X122182023Y-118260761D01*
X122039166Y-118308380D01*
X121943928Y-118308380D01*
X121801071Y-118260761D01*
X121705833Y-118165523D01*
X121658214Y-118070285D01*
X121610595Y-117879809D01*
X121610595Y-117736952D01*
X121658214Y-117546476D01*
X121705833Y-117451238D01*
X121801071Y-117356000D01*
X121943928Y-117308380D01*
X122039166Y-117308380D01*
X122182023Y-117356000D01*
X122229642Y-117403619D01*
X122610595Y-117403619D02*
X122658214Y-117356000D01*
X122753452Y-117308380D01*
X122991547Y-117308380D01*
X123086785Y-117356000D01*
X123134404Y-117403619D01*
X123182023Y-117498857D01*
X123182023Y-117594095D01*
X123134404Y-117736952D01*
X122562976Y-118308380D01*
X123182023Y-118308380D01*
X124039166Y-117308380D02*
X123848690Y-117308380D01*
X123753452Y-117356000D01*
X123705833Y-117403619D01*
X123610595Y-117546476D01*
X123562976Y-117736952D01*
X123562976Y-118117904D01*
X123610595Y-118213142D01*
X123658214Y-118260761D01*
X123753452Y-118308380D01*
X123943928Y-118308380D01*
X124039166Y-118260761D01*
X124086785Y-118213142D01*
X124134404Y-118117904D01*
X124134404Y-117879809D01*
X124086785Y-117784571D01*
X124039166Y-117736952D01*
X123943928Y-117689333D01*
X123753452Y-117689333D01*
X123658214Y-117736952D01*
X123610595Y-117784571D01*
X123562976Y-117879809D01*
X124593142Y-119386642D02*
X124545523Y-119434261D01*
X124402666Y-119481880D01*
X124307428Y-119481880D01*
X124164571Y-119434261D01*
X124069333Y-119339023D01*
X124021714Y-119243785D01*
X123974095Y-119053309D01*
X123974095Y-118910452D01*
X124021714Y-118719976D01*
X124069333Y-118624738D01*
X124164571Y-118529500D01*
X124307428Y-118481880D01*
X124402666Y-118481880D01*
X124545523Y-118529500D01*
X124593142Y-118577119D01*
X124974095Y-118577119D02*
X125021714Y-118529500D01*
X125116952Y-118481880D01*
X125355047Y-118481880D01*
X125450285Y-118529500D01*
X125497904Y-118577119D01*
X125545523Y-118672357D01*
X125545523Y-118767595D01*
X125497904Y-118910452D01*
X124926476Y-119481880D01*
X125545523Y-119481880D01*
X125878857Y-118481880D02*
X126545523Y-118481880D01*
X126116952Y-119481880D01*
X105607142Y-66922857D02*
X105654761Y-66970476D01*
X105702380Y-67113333D01*
X105702380Y-67208571D01*
X105654761Y-67351428D01*
X105559523Y-67446666D01*
X105464285Y-67494285D01*
X105273809Y-67541904D01*
X105130952Y-67541904D01*
X104940476Y-67494285D01*
X104845238Y-67446666D01*
X104750000Y-67351428D01*
X104702380Y-67208571D01*
X104702380Y-67113333D01*
X104750000Y-66970476D01*
X104797619Y-66922857D01*
X104702380Y-66589523D02*
X104702380Y-65970476D01*
X105083333Y-66303809D01*
X105083333Y-66160952D01*
X105130952Y-66065714D01*
X105178571Y-66018095D01*
X105273809Y-65970476D01*
X105511904Y-65970476D01*
X105607142Y-66018095D01*
X105654761Y-66065714D01*
X105702380Y-66160952D01*
X105702380Y-66446666D01*
X105654761Y-66541904D01*
X105607142Y-66589523D01*
X104702380Y-65351428D02*
X104702380Y-65256190D01*
X104750000Y-65160952D01*
X104797619Y-65113333D01*
X104892857Y-65065714D01*
X105083333Y-65018095D01*
X105321428Y-65018095D01*
X105511904Y-65065714D01*
X105607142Y-65113333D01*
X105654761Y-65160952D01*
X105702380Y-65256190D01*
X105702380Y-65351428D01*
X105654761Y-65446666D01*
X105607142Y-65494285D01*
X105511904Y-65541904D01*
X105321428Y-65589523D01*
X105083333Y-65589523D01*
X104892857Y-65541904D01*
X104797619Y-65494285D01*
X104750000Y-65446666D01*
X104702380Y-65351428D01*
X136214142Y-66936857D02*
X136261761Y-66984476D01*
X136309380Y-67127333D01*
X136309380Y-67222571D01*
X136261761Y-67365428D01*
X136166523Y-67460666D01*
X136071285Y-67508285D01*
X135880809Y-67555904D01*
X135737952Y-67555904D01*
X135547476Y-67508285D01*
X135452238Y-67460666D01*
X135357000Y-67365428D01*
X135309380Y-67222571D01*
X135309380Y-67127333D01*
X135357000Y-66984476D01*
X135404619Y-66936857D01*
X135309380Y-66603523D02*
X135309380Y-65984476D01*
X135690333Y-66317809D01*
X135690333Y-66174952D01*
X135737952Y-66079714D01*
X135785571Y-66032095D01*
X135880809Y-65984476D01*
X136118904Y-65984476D01*
X136214142Y-66032095D01*
X136261761Y-66079714D01*
X136309380Y-66174952D01*
X136309380Y-66460666D01*
X136261761Y-66555904D01*
X136214142Y-66603523D01*
X136309380Y-65032095D02*
X136309380Y-65603523D01*
X136309380Y-65317809D02*
X135309380Y-65317809D01*
X135452238Y-65413047D01*
X135547476Y-65508285D01*
X135595095Y-65603523D01*
X168632142Y-66809857D02*
X168679761Y-66857476D01*
X168727380Y-67000333D01*
X168727380Y-67095571D01*
X168679761Y-67238428D01*
X168584523Y-67333666D01*
X168489285Y-67381285D01*
X168298809Y-67428904D01*
X168155952Y-67428904D01*
X167965476Y-67381285D01*
X167870238Y-67333666D01*
X167775000Y-67238428D01*
X167727380Y-67095571D01*
X167727380Y-67000333D01*
X167775000Y-66857476D01*
X167822619Y-66809857D01*
X167727380Y-66476523D02*
X167727380Y-65857476D01*
X168108333Y-66190809D01*
X168108333Y-66047952D01*
X168155952Y-65952714D01*
X168203571Y-65905095D01*
X168298809Y-65857476D01*
X168536904Y-65857476D01*
X168632142Y-65905095D01*
X168679761Y-65952714D01*
X168727380Y-66047952D01*
X168727380Y-66333666D01*
X168679761Y-66428904D01*
X168632142Y-66476523D01*
X167822619Y-65476523D02*
X167775000Y-65428904D01*
X167727380Y-65333666D01*
X167727380Y-65095571D01*
X167775000Y-65000333D01*
X167822619Y-64952714D01*
X167917857Y-64905095D01*
X168013095Y-64905095D01*
X168155952Y-64952714D01*
X168727380Y-65524142D01*
X168727380Y-64905095D01*
X144137142Y-88749142D02*
X144089523Y-88796761D01*
X143946666Y-88844380D01*
X143851428Y-88844380D01*
X143708571Y-88796761D01*
X143613333Y-88701523D01*
X143565714Y-88606285D01*
X143518095Y-88415809D01*
X143518095Y-88272952D01*
X143565714Y-88082476D01*
X143613333Y-87987238D01*
X143708571Y-87892000D01*
X143851428Y-87844380D01*
X143946666Y-87844380D01*
X144089523Y-87892000D01*
X144137142Y-87939619D01*
X144470476Y-87844380D02*
X145089523Y-87844380D01*
X144756190Y-88225333D01*
X144899047Y-88225333D01*
X144994285Y-88272952D01*
X145041904Y-88320571D01*
X145089523Y-88415809D01*
X145089523Y-88653904D01*
X145041904Y-88749142D01*
X144994285Y-88796761D01*
X144899047Y-88844380D01*
X144613333Y-88844380D01*
X144518095Y-88796761D01*
X144470476Y-88749142D01*
X145422857Y-87844380D02*
X146041904Y-87844380D01*
X145708571Y-88225333D01*
X145851428Y-88225333D01*
X145946666Y-88272952D01*
X145994285Y-88320571D01*
X146041904Y-88415809D01*
X146041904Y-88653904D01*
X145994285Y-88749142D01*
X145946666Y-88796761D01*
X145851428Y-88844380D01*
X145565714Y-88844380D01*
X145470476Y-88796761D01*
X145422857Y-88749142D01*
X139960142Y-88876142D02*
X139912523Y-88923761D01*
X139769666Y-88971380D01*
X139674428Y-88971380D01*
X139531571Y-88923761D01*
X139436333Y-88828523D01*
X139388714Y-88733285D01*
X139341095Y-88542809D01*
X139341095Y-88399952D01*
X139388714Y-88209476D01*
X139436333Y-88114238D01*
X139531571Y-88019000D01*
X139674428Y-87971380D01*
X139769666Y-87971380D01*
X139912523Y-88019000D01*
X139960142Y-88066619D01*
X140293476Y-87971380D02*
X140912523Y-87971380D01*
X140579190Y-88352333D01*
X140722047Y-88352333D01*
X140817285Y-88399952D01*
X140864904Y-88447571D01*
X140912523Y-88542809D01*
X140912523Y-88780904D01*
X140864904Y-88876142D01*
X140817285Y-88923761D01*
X140722047Y-88971380D01*
X140436333Y-88971380D01*
X140341095Y-88923761D01*
X140293476Y-88876142D01*
X141769666Y-88304714D02*
X141769666Y-88971380D01*
X141531571Y-87923761D02*
X141293476Y-88638047D01*
X141912523Y-88638047D01*
X135628142Y-88749142D02*
X135580523Y-88796761D01*
X135437666Y-88844380D01*
X135342428Y-88844380D01*
X135199571Y-88796761D01*
X135104333Y-88701523D01*
X135056714Y-88606285D01*
X135009095Y-88415809D01*
X135009095Y-88272952D01*
X135056714Y-88082476D01*
X135104333Y-87987238D01*
X135199571Y-87892000D01*
X135342428Y-87844380D01*
X135437666Y-87844380D01*
X135580523Y-87892000D01*
X135628142Y-87939619D01*
X135961476Y-87844380D02*
X136580523Y-87844380D01*
X136247190Y-88225333D01*
X136390047Y-88225333D01*
X136485285Y-88272952D01*
X136532904Y-88320571D01*
X136580523Y-88415809D01*
X136580523Y-88653904D01*
X136532904Y-88749142D01*
X136485285Y-88796761D01*
X136390047Y-88844380D01*
X136104333Y-88844380D01*
X136009095Y-88796761D01*
X135961476Y-88749142D01*
X137485285Y-87844380D02*
X137009095Y-87844380D01*
X136961476Y-88320571D01*
X137009095Y-88272952D01*
X137104333Y-88225333D01*
X137342428Y-88225333D01*
X137437666Y-88272952D01*
X137485285Y-88320571D01*
X137532904Y-88415809D01*
X137532904Y-88653904D01*
X137485285Y-88749142D01*
X137437666Y-88796761D01*
X137342428Y-88844380D01*
X137104333Y-88844380D01*
X137009095Y-88796761D01*
X136961476Y-88749142D01*
X119323142Y-126513857D02*
X119370761Y-126561476D01*
X119418380Y-126704333D01*
X119418380Y-126799571D01*
X119370761Y-126942428D01*
X119275523Y-127037666D01*
X119180285Y-127085285D01*
X118989809Y-127132904D01*
X118846952Y-127132904D01*
X118656476Y-127085285D01*
X118561238Y-127037666D01*
X118466000Y-126942428D01*
X118418380Y-126799571D01*
X118418380Y-126704333D01*
X118466000Y-126561476D01*
X118513619Y-126513857D01*
X118418380Y-126180523D02*
X118418380Y-125561476D01*
X118799333Y-125894809D01*
X118799333Y-125751952D01*
X118846952Y-125656714D01*
X118894571Y-125609095D01*
X118989809Y-125561476D01*
X119227904Y-125561476D01*
X119323142Y-125609095D01*
X119370761Y-125656714D01*
X119418380Y-125751952D01*
X119418380Y-126037666D01*
X119370761Y-126132904D01*
X119323142Y-126180523D01*
X118418380Y-124704333D02*
X118418380Y-124894809D01*
X118466000Y-124990047D01*
X118513619Y-125037666D01*
X118656476Y-125132904D01*
X118846952Y-125180523D01*
X119227904Y-125180523D01*
X119323142Y-125132904D01*
X119370761Y-125085285D01*
X119418380Y-124990047D01*
X119418380Y-124799571D01*
X119370761Y-124704333D01*
X119323142Y-124656714D01*
X119227904Y-124609095D01*
X118989809Y-124609095D01*
X118894571Y-124656714D01*
X118846952Y-124704333D01*
X118799333Y-124799571D01*
X118799333Y-124990047D01*
X118846952Y-125085285D01*
X118894571Y-125132904D01*
X118989809Y-125180523D01*
X187969142Y-105544857D02*
X188016761Y-105592476D01*
X188064380Y-105735333D01*
X188064380Y-105830571D01*
X188016761Y-105973428D01*
X187921523Y-106068666D01*
X187826285Y-106116285D01*
X187635809Y-106163904D01*
X187492952Y-106163904D01*
X187302476Y-106116285D01*
X187207238Y-106068666D01*
X187112000Y-105973428D01*
X187064380Y-105830571D01*
X187064380Y-105735333D01*
X187112000Y-105592476D01*
X187159619Y-105544857D01*
X187397714Y-104687714D02*
X188064380Y-104687714D01*
X187016761Y-104925809D02*
X187731047Y-105163904D01*
X187731047Y-104544857D01*
X187064380Y-103973428D02*
X187064380Y-103878190D01*
X187112000Y-103782952D01*
X187159619Y-103735333D01*
X187254857Y-103687714D01*
X187445333Y-103640095D01*
X187683428Y-103640095D01*
X187873904Y-103687714D01*
X187969142Y-103735333D01*
X188016761Y-103782952D01*
X188064380Y-103878190D01*
X188064380Y-103973428D01*
X188016761Y-104068666D01*
X187969142Y-104116285D01*
X187873904Y-104163904D01*
X187683428Y-104211523D01*
X187445333Y-104211523D01*
X187254857Y-104163904D01*
X187159619Y-104116285D01*
X187112000Y-104068666D01*
X187064380Y-103973428D01*
X185015142Y-99194857D02*
X185062761Y-99242476D01*
X185110380Y-99385333D01*
X185110380Y-99480571D01*
X185062761Y-99623428D01*
X184967523Y-99718666D01*
X184872285Y-99766285D01*
X184681809Y-99813904D01*
X184538952Y-99813904D01*
X184348476Y-99766285D01*
X184253238Y-99718666D01*
X184158000Y-99623428D01*
X184110380Y-99480571D01*
X184110380Y-99385333D01*
X184158000Y-99242476D01*
X184205619Y-99194857D01*
X184443714Y-98337714D02*
X185110380Y-98337714D01*
X184062761Y-98575809D02*
X184777047Y-98813904D01*
X184777047Y-98194857D01*
X185110380Y-97290095D02*
X185110380Y-97861523D01*
X185110380Y-97575809D02*
X184110380Y-97575809D01*
X184253238Y-97671047D01*
X184348476Y-97766285D01*
X184396095Y-97861523D01*
X175125142Y-112117142D02*
X175077523Y-112164761D01*
X174934666Y-112212380D01*
X174839428Y-112212380D01*
X174696571Y-112164761D01*
X174601333Y-112069523D01*
X174553714Y-111974285D01*
X174506095Y-111783809D01*
X174506095Y-111640952D01*
X174553714Y-111450476D01*
X174601333Y-111355238D01*
X174696571Y-111260000D01*
X174839428Y-111212380D01*
X174934666Y-111212380D01*
X175077523Y-111260000D01*
X175125142Y-111307619D01*
X175982285Y-111545714D02*
X175982285Y-112212380D01*
X175744190Y-111164761D02*
X175506095Y-111879047D01*
X176125142Y-111879047D01*
X176458476Y-111307619D02*
X176506095Y-111260000D01*
X176601333Y-111212380D01*
X176839428Y-111212380D01*
X176934666Y-111260000D01*
X176982285Y-111307619D01*
X177029904Y-111402857D01*
X177029904Y-111498095D01*
X176982285Y-111640952D01*
X176410857Y-112212380D01*
X177029904Y-112212380D01*
X184761142Y-103004857D02*
X184808761Y-103052476D01*
X184856380Y-103195333D01*
X184856380Y-103290571D01*
X184808761Y-103433428D01*
X184713523Y-103528666D01*
X184618285Y-103576285D01*
X184427809Y-103623904D01*
X184284952Y-103623904D01*
X184094476Y-103576285D01*
X183999238Y-103528666D01*
X183904000Y-103433428D01*
X183856380Y-103290571D01*
X183856380Y-103195333D01*
X183904000Y-103052476D01*
X183951619Y-103004857D01*
X184189714Y-102147714D02*
X184856380Y-102147714D01*
X183808761Y-102385809D02*
X184523047Y-102623904D01*
X184523047Y-102004857D01*
X183856380Y-101719142D02*
X183856380Y-101100095D01*
X184237333Y-101433428D01*
X184237333Y-101290571D01*
X184284952Y-101195333D01*
X184332571Y-101147714D01*
X184427809Y-101100095D01*
X184665904Y-101100095D01*
X184761142Y-101147714D01*
X184808761Y-101195333D01*
X184856380Y-101290571D01*
X184856380Y-101576285D01*
X184808761Y-101671523D01*
X184761142Y-101719142D01*
X184761142Y-106814857D02*
X184808761Y-106862476D01*
X184856380Y-107005333D01*
X184856380Y-107100571D01*
X184808761Y-107243428D01*
X184713523Y-107338666D01*
X184618285Y-107386285D01*
X184427809Y-107433904D01*
X184284952Y-107433904D01*
X184094476Y-107386285D01*
X183999238Y-107338666D01*
X183904000Y-107243428D01*
X183856380Y-107100571D01*
X183856380Y-107005333D01*
X183904000Y-106862476D01*
X183951619Y-106814857D01*
X184189714Y-105957714D02*
X184856380Y-105957714D01*
X183808761Y-106195809D02*
X184523047Y-106433904D01*
X184523047Y-105814857D01*
X184189714Y-105005333D02*
X184856380Y-105005333D01*
X183808761Y-105243428D02*
X184523047Y-105481523D01*
X184523047Y-104862476D01*
X176187380Y-85461095D02*
X175187380Y-85461095D01*
X175187380Y-85223000D01*
X175235000Y-85080142D01*
X175330238Y-84984904D01*
X175425476Y-84937285D01*
X175615952Y-84889666D01*
X175758809Y-84889666D01*
X175949285Y-84937285D01*
X176044523Y-84984904D01*
X176139761Y-85080142D01*
X176187380Y-85223000D01*
X176187380Y-85461095D01*
X175282619Y-84508714D02*
X175235000Y-84461095D01*
X175187380Y-84365857D01*
X175187380Y-84127761D01*
X175235000Y-84032523D01*
X175282619Y-83984904D01*
X175377857Y-83937285D01*
X175473095Y-83937285D01*
X175615952Y-83984904D01*
X176187380Y-84556333D01*
X176187380Y-83937285D01*
X186380380Y-89271095D02*
X185380380Y-89271095D01*
X185380380Y-89033000D01*
X185428000Y-88890142D01*
X185523238Y-88794904D01*
X185618476Y-88747285D01*
X185808952Y-88699666D01*
X185951809Y-88699666D01*
X186142285Y-88747285D01*
X186237523Y-88794904D01*
X186332761Y-88890142D01*
X186380380Y-89033000D01*
X186380380Y-89271095D01*
X185380380Y-88366333D02*
X185380380Y-87747285D01*
X185761333Y-88080619D01*
X185761333Y-87937761D01*
X185808952Y-87842523D01*
X185856571Y-87794904D01*
X185951809Y-87747285D01*
X186189904Y-87747285D01*
X186285142Y-87794904D01*
X186332761Y-87842523D01*
X186380380Y-87937761D01*
X186380380Y-88223476D01*
X186332761Y-88318714D01*
X186285142Y-88366333D01*
X186634380Y-82413095D02*
X185634380Y-82413095D01*
X185634380Y-82175000D01*
X185682000Y-82032142D01*
X185777238Y-81936904D01*
X185872476Y-81889285D01*
X186062952Y-81841666D01*
X186205809Y-81841666D01*
X186396285Y-81889285D01*
X186491523Y-81936904D01*
X186586761Y-82032142D01*
X186634380Y-82175000D01*
X186634380Y-82413095D01*
X185967714Y-80984523D02*
X186634380Y-80984523D01*
X185586761Y-81222619D02*
X186301047Y-81460714D01*
X186301047Y-80841666D01*
X161234380Y-91987666D02*
X161234380Y-92463857D01*
X160234380Y-92463857D01*
X161234380Y-91130523D02*
X161234380Y-91701952D01*
X161234380Y-91416238D02*
X160234380Y-91416238D01*
X160377238Y-91511476D01*
X160472476Y-91606714D01*
X160520095Y-91701952D01*
X154313095Y-96734380D02*
X154932142Y-96734380D01*
X154598809Y-97115333D01*
X154741666Y-97115333D01*
X154836904Y-97162952D01*
X154884523Y-97210571D01*
X154932142Y-97305809D01*
X154932142Y-97543904D01*
X154884523Y-97639142D01*
X154836904Y-97686761D01*
X154741666Y-97734380D01*
X154455952Y-97734380D01*
X154360714Y-97686761D01*
X154313095Y-97639142D01*
X155265476Y-96734380D02*
X155884523Y-96734380D01*
X155551190Y-97115333D01*
X155694047Y-97115333D01*
X155789285Y-97162952D01*
X155836904Y-97210571D01*
X155884523Y-97305809D01*
X155884523Y-97543904D01*
X155836904Y-97639142D01*
X155789285Y-97686761D01*
X155694047Y-97734380D01*
X155408333Y-97734380D01*
X155313095Y-97686761D01*
X155265476Y-97639142D01*
X156741666Y-97067714D02*
X156741666Y-97734380D01*
X156313095Y-97067714D02*
X156313095Y-97591523D01*
X156360714Y-97686761D01*
X156455952Y-97734380D01*
X156598809Y-97734380D01*
X156694047Y-97686761D01*
X156741666Y-97639142D01*
X195825619Y-90392238D02*
X195778000Y-90487476D01*
X195682761Y-90582714D01*
X195539904Y-90725571D01*
X195492285Y-90820809D01*
X195492285Y-90916047D01*
X195730380Y-90868428D02*
X195682761Y-90963666D01*
X195587523Y-91058904D01*
X195397047Y-91106523D01*
X195063714Y-91106523D01*
X194873238Y-91058904D01*
X194778000Y-90963666D01*
X194730380Y-90868428D01*
X194730380Y-90677952D01*
X194778000Y-90582714D01*
X194873238Y-90487476D01*
X195063714Y-90439857D01*
X195397047Y-90439857D01*
X195587523Y-90487476D01*
X195682761Y-90582714D01*
X195730380Y-90677952D01*
X195730380Y-90868428D01*
X195730380Y-89487476D02*
X195730380Y-90058904D01*
X195730380Y-89773190D02*
X194730380Y-89773190D01*
X194873238Y-89868428D01*
X194968476Y-89963666D01*
X195016095Y-90058904D01*
X196000619Y-83661238D02*
X195953000Y-83756476D01*
X195857761Y-83851714D01*
X195714904Y-83994571D01*
X195667285Y-84089809D01*
X195667285Y-84185047D01*
X195905380Y-84137428D02*
X195857761Y-84232666D01*
X195762523Y-84327904D01*
X195572047Y-84375523D01*
X195238714Y-84375523D01*
X195048238Y-84327904D01*
X194953000Y-84232666D01*
X194905380Y-84137428D01*
X194905380Y-83946952D01*
X194953000Y-83851714D01*
X195048238Y-83756476D01*
X195238714Y-83708857D01*
X195572047Y-83708857D01*
X195762523Y-83756476D01*
X195857761Y-83851714D01*
X195905380Y-83946952D01*
X195905380Y-84137428D01*
X195000619Y-83327904D02*
X194953000Y-83280285D01*
X194905380Y-83185047D01*
X194905380Y-82946952D01*
X194953000Y-82851714D01*
X195000619Y-82804095D01*
X195095857Y-82756476D01*
X195191095Y-82756476D01*
X195333952Y-82804095D01*
X195905380Y-83375523D01*
X195905380Y-82756476D01*
X112609333Y-101798380D02*
X112276000Y-101322190D01*
X112037904Y-101798380D02*
X112037904Y-100798380D01*
X112418857Y-100798380D01*
X112514095Y-100846000D01*
X112561714Y-100893619D01*
X112609333Y-100988857D01*
X112609333Y-101131714D01*
X112561714Y-101226952D01*
X112514095Y-101274571D01*
X112418857Y-101322190D01*
X112037904Y-101322190D01*
X113561714Y-101798380D02*
X112990285Y-101798380D01*
X113276000Y-101798380D02*
X113276000Y-100798380D01*
X113180761Y-100941238D01*
X113085523Y-101036476D01*
X112990285Y-101084095D01*
X122896333Y-100274380D02*
X122563000Y-99798190D01*
X122324904Y-100274380D02*
X122324904Y-99274380D01*
X122705857Y-99274380D01*
X122801095Y-99322000D01*
X122848714Y-99369619D01*
X122896333Y-99464857D01*
X122896333Y-99607714D01*
X122848714Y-99702952D01*
X122801095Y-99750571D01*
X122705857Y-99798190D01*
X122324904Y-99798190D01*
X123277285Y-99369619D02*
X123324904Y-99322000D01*
X123420142Y-99274380D01*
X123658238Y-99274380D01*
X123753476Y-99322000D01*
X123801095Y-99369619D01*
X123848714Y-99464857D01*
X123848714Y-99560095D01*
X123801095Y-99702952D01*
X123229666Y-100274380D01*
X123848714Y-100274380D01*
X112355333Y-99004380D02*
X112022000Y-98528190D01*
X111783904Y-99004380D02*
X111783904Y-98004380D01*
X112164857Y-98004380D01*
X112260095Y-98052000D01*
X112307714Y-98099619D01*
X112355333Y-98194857D01*
X112355333Y-98337714D01*
X112307714Y-98432952D01*
X112260095Y-98480571D01*
X112164857Y-98528190D01*
X111783904Y-98528190D01*
X112688666Y-98004380D02*
X113307714Y-98004380D01*
X112974380Y-98385333D01*
X113117238Y-98385333D01*
X113212476Y-98432952D01*
X113260095Y-98480571D01*
X113307714Y-98575809D01*
X113307714Y-98813904D01*
X113260095Y-98909142D01*
X113212476Y-98956761D01*
X113117238Y-99004380D01*
X112831523Y-99004380D01*
X112736285Y-98956761D01*
X112688666Y-98909142D01*
X112355333Y-96464380D02*
X112022000Y-95988190D01*
X111783904Y-96464380D02*
X111783904Y-95464380D01*
X112164857Y-95464380D01*
X112260095Y-95512000D01*
X112307714Y-95559619D01*
X112355333Y-95654857D01*
X112355333Y-95797714D01*
X112307714Y-95892952D01*
X112260095Y-95940571D01*
X112164857Y-95988190D01*
X111783904Y-95988190D01*
X113212476Y-95797714D02*
X113212476Y-96464380D01*
X112974380Y-95416761D02*
X112736285Y-96131047D01*
X113355333Y-96131047D01*
X122769333Y-97734380D02*
X122436000Y-97258190D01*
X122197904Y-97734380D02*
X122197904Y-96734380D01*
X122578857Y-96734380D01*
X122674095Y-96782000D01*
X122721714Y-96829619D01*
X122769333Y-96924857D01*
X122769333Y-97067714D01*
X122721714Y-97162952D01*
X122674095Y-97210571D01*
X122578857Y-97258190D01*
X122197904Y-97258190D01*
X123674095Y-96734380D02*
X123197904Y-96734380D01*
X123150285Y-97210571D01*
X123197904Y-97162952D01*
X123293142Y-97115333D01*
X123531238Y-97115333D01*
X123626476Y-97162952D01*
X123674095Y-97210571D01*
X123721714Y-97305809D01*
X123721714Y-97543904D01*
X123674095Y-97639142D01*
X123626476Y-97686761D01*
X123531238Y-97734380D01*
X123293142Y-97734380D01*
X123197904Y-97686761D01*
X123150285Y-97639142D01*
X120977333Y-103576380D02*
X120644000Y-103100190D01*
X120405904Y-103576380D02*
X120405904Y-102576380D01*
X120786857Y-102576380D01*
X120882095Y-102624000D01*
X120929714Y-102671619D01*
X120977333Y-102766857D01*
X120977333Y-102909714D01*
X120929714Y-103004952D01*
X120882095Y-103052571D01*
X120786857Y-103100190D01*
X120405904Y-103100190D01*
X121834476Y-102576380D02*
X121644000Y-102576380D01*
X121548761Y-102624000D01*
X121501142Y-102671619D01*
X121405904Y-102814476D01*
X121358285Y-103004952D01*
X121358285Y-103385904D01*
X121405904Y-103481142D01*
X121453523Y-103528761D01*
X121548761Y-103576380D01*
X121739238Y-103576380D01*
X121834476Y-103528761D01*
X121882095Y-103481142D01*
X121929714Y-103385904D01*
X121929714Y-103147809D01*
X121882095Y-103052571D01*
X121834476Y-103004952D01*
X121739238Y-102957333D01*
X121548761Y-102957333D01*
X121453523Y-103004952D01*
X121405904Y-103052571D01*
X121358285Y-103147809D01*
X119340333Y-131516380D02*
X119007000Y-131040190D01*
X118768904Y-131516380D02*
X118768904Y-130516380D01*
X119149857Y-130516380D01*
X119245095Y-130564000D01*
X119292714Y-130611619D01*
X119340333Y-130706857D01*
X119340333Y-130849714D01*
X119292714Y-130944952D01*
X119245095Y-130992571D01*
X119149857Y-131040190D01*
X118768904Y-131040190D01*
X119673666Y-130516380D02*
X120340333Y-130516380D01*
X119911761Y-131516380D01*
X115006380Y-112053666D02*
X114530190Y-112387000D01*
X115006380Y-112625095D02*
X114006380Y-112625095D01*
X114006380Y-112244142D01*
X114054000Y-112148904D01*
X114101619Y-112101285D01*
X114196857Y-112053666D01*
X114339714Y-112053666D01*
X114434952Y-112101285D01*
X114482571Y-112148904D01*
X114530190Y-112244142D01*
X114530190Y-112625095D01*
X114434952Y-111482238D02*
X114387333Y-111577476D01*
X114339714Y-111625095D01*
X114244476Y-111672714D01*
X114196857Y-111672714D01*
X114101619Y-111625095D01*
X114054000Y-111577476D01*
X114006380Y-111482238D01*
X114006380Y-111291761D01*
X114054000Y-111196523D01*
X114101619Y-111148904D01*
X114196857Y-111101285D01*
X114244476Y-111101285D01*
X114339714Y-111148904D01*
X114387333Y-111196523D01*
X114434952Y-111291761D01*
X114434952Y-111482238D01*
X114482571Y-111577476D01*
X114530190Y-111625095D01*
X114625428Y-111672714D01*
X114815904Y-111672714D01*
X114911142Y-111625095D01*
X114958761Y-111577476D01*
X115006380Y-111482238D01*
X115006380Y-111291761D01*
X114958761Y-111196523D01*
X114911142Y-111148904D01*
X114815904Y-111101285D01*
X114625428Y-111101285D01*
X114530190Y-111148904D01*
X114482571Y-111196523D01*
X114434952Y-111291761D01*
X176347380Y-89320666D02*
X175871190Y-89654000D01*
X176347380Y-89892095D02*
X175347380Y-89892095D01*
X175347380Y-89511142D01*
X175395000Y-89415904D01*
X175442619Y-89368285D01*
X175537857Y-89320666D01*
X175680714Y-89320666D01*
X175775952Y-89368285D01*
X175823571Y-89415904D01*
X175871190Y-89511142D01*
X175871190Y-89892095D01*
X176347380Y-88844476D02*
X176347380Y-88654000D01*
X176299761Y-88558761D01*
X176252142Y-88511142D01*
X176109285Y-88415904D01*
X175918809Y-88368285D01*
X175537857Y-88368285D01*
X175442619Y-88415904D01*
X175395000Y-88463523D01*
X175347380Y-88558761D01*
X175347380Y-88749238D01*
X175395000Y-88844476D01*
X175442619Y-88892095D01*
X175537857Y-88939714D01*
X175775952Y-88939714D01*
X175871190Y-88892095D01*
X175918809Y-88844476D01*
X175966428Y-88749238D01*
X175966428Y-88558761D01*
X175918809Y-88463523D01*
X175871190Y-88415904D01*
X175775952Y-88368285D01*
X189998142Y-86398380D02*
X189664809Y-85922190D01*
X189426714Y-86398380D02*
X189426714Y-85398380D01*
X189807666Y-85398380D01*
X189902904Y-85446000D01*
X189950523Y-85493619D01*
X189998142Y-85588857D01*
X189998142Y-85731714D01*
X189950523Y-85826952D01*
X189902904Y-85874571D01*
X189807666Y-85922190D01*
X189426714Y-85922190D01*
X190950523Y-86398380D02*
X190379095Y-86398380D01*
X190664809Y-86398380D02*
X190664809Y-85398380D01*
X190569571Y-85541238D01*
X190474333Y-85636476D01*
X190379095Y-85684095D01*
X191569571Y-85398380D02*
X191664809Y-85398380D01*
X191760047Y-85446000D01*
X191807666Y-85493619D01*
X191855285Y-85588857D01*
X191902904Y-85779333D01*
X191902904Y-86017428D01*
X191855285Y-86207904D01*
X191807666Y-86303142D01*
X191760047Y-86350761D01*
X191664809Y-86398380D01*
X191569571Y-86398380D01*
X191474333Y-86350761D01*
X191426714Y-86303142D01*
X191379095Y-86207904D01*
X191331476Y-86017428D01*
X191331476Y-85779333D01*
X191379095Y-85588857D01*
X191426714Y-85493619D01*
X191474333Y-85446000D01*
X191569571Y-85398380D01*
X131516380Y-95511857D02*
X131040190Y-95845190D01*
X131516380Y-96083285D02*
X130516380Y-96083285D01*
X130516380Y-95702333D01*
X130564000Y-95607095D01*
X130611619Y-95559476D01*
X130706857Y-95511857D01*
X130849714Y-95511857D01*
X130944952Y-95559476D01*
X130992571Y-95607095D01*
X131040190Y-95702333D01*
X131040190Y-96083285D01*
X131516380Y-94559476D02*
X131516380Y-95130904D01*
X131516380Y-94845190D02*
X130516380Y-94845190D01*
X130659238Y-94940428D01*
X130754476Y-95035666D01*
X130802095Y-95130904D01*
X131516380Y-93607095D02*
X131516380Y-94178523D01*
X131516380Y-93892809D02*
X130516380Y-93892809D01*
X130659238Y-93988047D01*
X130754476Y-94083285D01*
X130802095Y-94178523D01*
X129484380Y-92590857D02*
X129008190Y-92924190D01*
X129484380Y-93162285D02*
X128484380Y-93162285D01*
X128484380Y-92781333D01*
X128532000Y-92686095D01*
X128579619Y-92638476D01*
X128674857Y-92590857D01*
X128817714Y-92590857D01*
X128912952Y-92638476D01*
X128960571Y-92686095D01*
X129008190Y-92781333D01*
X129008190Y-93162285D01*
X129484380Y-91638476D02*
X129484380Y-92209904D01*
X129484380Y-91924190D02*
X128484380Y-91924190D01*
X128627238Y-92019428D01*
X128722476Y-92114666D01*
X128770095Y-92209904D01*
X128579619Y-91257523D02*
X128532000Y-91209904D01*
X128484380Y-91114666D01*
X128484380Y-90876571D01*
X128532000Y-90781333D01*
X128579619Y-90733714D01*
X128674857Y-90686095D01*
X128770095Y-90686095D01*
X128912952Y-90733714D01*
X129484380Y-91305142D01*
X129484380Y-90686095D01*
X189998142Y-79700380D02*
X189664809Y-79224190D01*
X189426714Y-79700380D02*
X189426714Y-78700380D01*
X189807666Y-78700380D01*
X189902904Y-78748000D01*
X189950523Y-78795619D01*
X189998142Y-78890857D01*
X189998142Y-79033714D01*
X189950523Y-79128952D01*
X189902904Y-79176571D01*
X189807666Y-79224190D01*
X189426714Y-79224190D01*
X190950523Y-79700380D02*
X190379095Y-79700380D01*
X190664809Y-79700380D02*
X190664809Y-78700380D01*
X190569571Y-78843238D01*
X190474333Y-78938476D01*
X190379095Y-78986095D01*
X191283857Y-78700380D02*
X191902904Y-78700380D01*
X191569571Y-79081333D01*
X191712428Y-79081333D01*
X191807666Y-79128952D01*
X191855285Y-79176571D01*
X191902904Y-79271809D01*
X191902904Y-79509904D01*
X191855285Y-79605142D01*
X191807666Y-79652761D01*
X191712428Y-79700380D01*
X191426714Y-79700380D01*
X191331476Y-79652761D01*
X191283857Y-79605142D01*
X110476380Y-88563357D02*
X110000190Y-88896690D01*
X110476380Y-89134785D02*
X109476380Y-89134785D01*
X109476380Y-88753833D01*
X109524000Y-88658595D01*
X109571619Y-88610976D01*
X109666857Y-88563357D01*
X109809714Y-88563357D01*
X109904952Y-88610976D01*
X109952571Y-88658595D01*
X110000190Y-88753833D01*
X110000190Y-89134785D01*
X110476380Y-87610976D02*
X110476380Y-88182404D01*
X110476380Y-87896690D02*
X109476380Y-87896690D01*
X109619238Y-87991928D01*
X109714476Y-88087166D01*
X109762095Y-88182404D01*
X109809714Y-86753833D02*
X110476380Y-86753833D01*
X109428761Y-86991928D02*
X110143047Y-87230023D01*
X110143047Y-86610976D01*
X148201142Y-94432380D02*
X147867809Y-93956190D01*
X147629714Y-94432380D02*
X147629714Y-93432380D01*
X148010666Y-93432380D01*
X148105904Y-93480000D01*
X148153523Y-93527619D01*
X148201142Y-93622857D01*
X148201142Y-93765714D01*
X148153523Y-93860952D01*
X148105904Y-93908571D01*
X148010666Y-93956190D01*
X147629714Y-93956190D01*
X149153523Y-94432380D02*
X148582095Y-94432380D01*
X148867809Y-94432380D02*
X148867809Y-93432380D01*
X148772571Y-93575238D01*
X148677333Y-93670476D01*
X148582095Y-93718095D01*
X150058285Y-93432380D02*
X149582095Y-93432380D01*
X149534476Y-93908571D01*
X149582095Y-93860952D01*
X149677333Y-93813333D01*
X149915428Y-93813333D01*
X150010666Y-93860952D01*
X150058285Y-93908571D01*
X150105904Y-94003809D01*
X150105904Y-94241904D01*
X150058285Y-94337142D01*
X150010666Y-94384761D01*
X149915428Y-94432380D01*
X149677333Y-94432380D01*
X149582095Y-94384761D01*
X149534476Y-94337142D01*
X148215142Y-91638380D02*
X147881809Y-91162190D01*
X147643714Y-91638380D02*
X147643714Y-90638380D01*
X148024666Y-90638380D01*
X148119904Y-90686000D01*
X148167523Y-90733619D01*
X148215142Y-90828857D01*
X148215142Y-90971714D01*
X148167523Y-91066952D01*
X148119904Y-91114571D01*
X148024666Y-91162190D01*
X147643714Y-91162190D01*
X149167523Y-91638380D02*
X148596095Y-91638380D01*
X148881809Y-91638380D02*
X148881809Y-90638380D01*
X148786571Y-90781238D01*
X148691333Y-90876476D01*
X148596095Y-90924095D01*
X150024666Y-90638380D02*
X149834190Y-90638380D01*
X149738952Y-90686000D01*
X149691333Y-90733619D01*
X149596095Y-90876476D01*
X149548476Y-91066952D01*
X149548476Y-91447904D01*
X149596095Y-91543142D01*
X149643714Y-91590761D01*
X149738952Y-91638380D01*
X149929428Y-91638380D01*
X150024666Y-91590761D01*
X150072285Y-91543142D01*
X150119904Y-91447904D01*
X150119904Y-91209809D01*
X150072285Y-91114571D01*
X150024666Y-91066952D01*
X149929428Y-91019333D01*
X149738952Y-91019333D01*
X149643714Y-91066952D01*
X149596095Y-91114571D01*
X149548476Y-91209809D01*
X133737142Y-100495380D02*
X133403809Y-100019190D01*
X133165714Y-100495380D02*
X133165714Y-99495380D01*
X133546666Y-99495380D01*
X133641904Y-99543000D01*
X133689523Y-99590619D01*
X133737142Y-99685857D01*
X133737142Y-99828714D01*
X133689523Y-99923952D01*
X133641904Y-99971571D01*
X133546666Y-100019190D01*
X133165714Y-100019190D01*
X134689523Y-100495380D02*
X134118095Y-100495380D01*
X134403809Y-100495380D02*
X134403809Y-99495380D01*
X134308571Y-99638238D01*
X134213333Y-99733476D01*
X134118095Y-99781095D01*
X135260952Y-99923952D02*
X135165714Y-99876333D01*
X135118095Y-99828714D01*
X135070476Y-99733476D01*
X135070476Y-99685857D01*
X135118095Y-99590619D01*
X135165714Y-99543000D01*
X135260952Y-99495380D01*
X135451428Y-99495380D01*
X135546666Y-99543000D01*
X135594285Y-99590619D01*
X135641904Y-99685857D01*
X135641904Y-99733476D01*
X135594285Y-99828714D01*
X135546666Y-99876333D01*
X135451428Y-99923952D01*
X135260952Y-99923952D01*
X135165714Y-99971571D01*
X135118095Y-100019190D01*
X135070476Y-100114428D01*
X135070476Y-100304904D01*
X135118095Y-100400142D01*
X135165714Y-100447761D01*
X135260952Y-100495380D01*
X135451428Y-100495380D01*
X135546666Y-100447761D01*
X135594285Y-100400142D01*
X135641904Y-100304904D01*
X135641904Y-100114428D01*
X135594285Y-100019190D01*
X135546666Y-99971571D01*
X135451428Y-99923952D01*
X124452142Y-103449380D02*
X124118809Y-102973190D01*
X123880714Y-103449380D02*
X123880714Y-102449380D01*
X124261666Y-102449380D01*
X124356904Y-102497000D01*
X124404523Y-102544619D01*
X124452142Y-102639857D01*
X124452142Y-102782714D01*
X124404523Y-102877952D01*
X124356904Y-102925571D01*
X124261666Y-102973190D01*
X123880714Y-102973190D01*
X125404523Y-103449380D02*
X124833095Y-103449380D01*
X125118809Y-103449380D02*
X125118809Y-102449380D01*
X125023571Y-102592238D01*
X124928333Y-102687476D01*
X124833095Y-102735095D01*
X125880714Y-103449380D02*
X126071190Y-103449380D01*
X126166428Y-103401761D01*
X126214047Y-103354142D01*
X126309285Y-103211285D01*
X126356904Y-103020809D01*
X126356904Y-102639857D01*
X126309285Y-102544619D01*
X126261666Y-102497000D01*
X126166428Y-102449380D01*
X125975952Y-102449380D01*
X125880714Y-102497000D01*
X125833095Y-102544619D01*
X125785476Y-102639857D01*
X125785476Y-102877952D01*
X125833095Y-102973190D01*
X125880714Y-103020809D01*
X125975952Y-103068428D01*
X126166428Y-103068428D01*
X126261666Y-103020809D01*
X126309285Y-102973190D01*
X126356904Y-102877952D01*
X122801142Y-92654380D02*
X122467809Y-92178190D01*
X122229714Y-92654380D02*
X122229714Y-91654380D01*
X122610666Y-91654380D01*
X122705904Y-91702000D01*
X122753523Y-91749619D01*
X122801142Y-91844857D01*
X122801142Y-91987714D01*
X122753523Y-92082952D01*
X122705904Y-92130571D01*
X122610666Y-92178190D01*
X122229714Y-92178190D01*
X123182095Y-91749619D02*
X123229714Y-91702000D01*
X123324952Y-91654380D01*
X123563047Y-91654380D01*
X123658285Y-91702000D01*
X123705904Y-91749619D01*
X123753523Y-91844857D01*
X123753523Y-91940095D01*
X123705904Y-92082952D01*
X123134476Y-92654380D01*
X123753523Y-92654380D01*
X124372571Y-91654380D02*
X124467809Y-91654380D01*
X124563047Y-91702000D01*
X124610666Y-91749619D01*
X124658285Y-91844857D01*
X124705904Y-92035333D01*
X124705904Y-92273428D01*
X124658285Y-92463904D01*
X124610666Y-92559142D01*
X124563047Y-92606761D01*
X124467809Y-92654380D01*
X124372571Y-92654380D01*
X124277333Y-92606761D01*
X124229714Y-92559142D01*
X124182095Y-92463904D01*
X124134476Y-92273428D01*
X124134476Y-92035333D01*
X124182095Y-91844857D01*
X124229714Y-91749619D01*
X124277333Y-91702000D01*
X124372571Y-91654380D01*
X144137142Y-94559380D02*
X143803809Y-94083190D01*
X143565714Y-94559380D02*
X143565714Y-93559380D01*
X143946666Y-93559380D01*
X144041904Y-93607000D01*
X144089523Y-93654619D01*
X144137142Y-93749857D01*
X144137142Y-93892714D01*
X144089523Y-93987952D01*
X144041904Y-94035571D01*
X143946666Y-94083190D01*
X143565714Y-94083190D01*
X144470476Y-93559380D02*
X145089523Y-93559380D01*
X144756190Y-93940333D01*
X144899047Y-93940333D01*
X144994285Y-93987952D01*
X145041904Y-94035571D01*
X145089523Y-94130809D01*
X145089523Y-94368904D01*
X145041904Y-94464142D01*
X144994285Y-94511761D01*
X144899047Y-94559380D01*
X144613333Y-94559380D01*
X144518095Y-94511761D01*
X144470476Y-94464142D01*
X145708571Y-93559380D02*
X145803809Y-93559380D01*
X145899047Y-93607000D01*
X145946666Y-93654619D01*
X145994285Y-93749857D01*
X146041904Y-93940333D01*
X146041904Y-94178428D01*
X145994285Y-94368904D01*
X145946666Y-94464142D01*
X145899047Y-94511761D01*
X145803809Y-94559380D01*
X145708571Y-94559380D01*
X145613333Y-94511761D01*
X145565714Y-94464142D01*
X145518095Y-94368904D01*
X145470476Y-94178428D01*
X145470476Y-93940333D01*
X145518095Y-93749857D01*
X145565714Y-93654619D01*
X145613333Y-93607000D01*
X145708571Y-93559380D01*
X144137142Y-91638380D02*
X143803809Y-91162190D01*
X143565714Y-91638380D02*
X143565714Y-90638380D01*
X143946666Y-90638380D01*
X144041904Y-90686000D01*
X144089523Y-90733619D01*
X144137142Y-90828857D01*
X144137142Y-90971714D01*
X144089523Y-91066952D01*
X144041904Y-91114571D01*
X143946666Y-91162190D01*
X143565714Y-91162190D01*
X144470476Y-90638380D02*
X145089523Y-90638380D01*
X144756190Y-91019333D01*
X144899047Y-91019333D01*
X144994285Y-91066952D01*
X145041904Y-91114571D01*
X145089523Y-91209809D01*
X145089523Y-91447904D01*
X145041904Y-91543142D01*
X144994285Y-91590761D01*
X144899047Y-91638380D01*
X144613333Y-91638380D01*
X144518095Y-91590761D01*
X144470476Y-91543142D01*
X146041904Y-91638380D02*
X145470476Y-91638380D01*
X145756190Y-91638380D02*
X145756190Y-90638380D01*
X145660952Y-90781238D01*
X145565714Y-90876476D01*
X145470476Y-90924095D01*
X139946142Y-94559380D02*
X139612809Y-94083190D01*
X139374714Y-94559380D02*
X139374714Y-93559380D01*
X139755666Y-93559380D01*
X139850904Y-93607000D01*
X139898523Y-93654619D01*
X139946142Y-93749857D01*
X139946142Y-93892714D01*
X139898523Y-93987952D01*
X139850904Y-94035571D01*
X139755666Y-94083190D01*
X139374714Y-94083190D01*
X140279476Y-93559380D02*
X140898523Y-93559380D01*
X140565190Y-93940333D01*
X140708047Y-93940333D01*
X140803285Y-93987952D01*
X140850904Y-94035571D01*
X140898523Y-94130809D01*
X140898523Y-94368904D01*
X140850904Y-94464142D01*
X140803285Y-94511761D01*
X140708047Y-94559380D01*
X140422333Y-94559380D01*
X140327095Y-94511761D01*
X140279476Y-94464142D01*
X141279476Y-93654619D02*
X141327095Y-93607000D01*
X141422333Y-93559380D01*
X141660428Y-93559380D01*
X141755666Y-93607000D01*
X141803285Y-93654619D01*
X141850904Y-93749857D01*
X141850904Y-93845095D01*
X141803285Y-93987952D01*
X141231857Y-94559380D01*
X141850904Y-94559380D01*
X139946142Y-91638380D02*
X139612809Y-91162190D01*
X139374714Y-91638380D02*
X139374714Y-90638380D01*
X139755666Y-90638380D01*
X139850904Y-90686000D01*
X139898523Y-90733619D01*
X139946142Y-90828857D01*
X139946142Y-90971714D01*
X139898523Y-91066952D01*
X139850904Y-91114571D01*
X139755666Y-91162190D01*
X139374714Y-91162190D01*
X140279476Y-90638380D02*
X140898523Y-90638380D01*
X140565190Y-91019333D01*
X140708047Y-91019333D01*
X140803285Y-91066952D01*
X140850904Y-91114571D01*
X140898523Y-91209809D01*
X140898523Y-91447904D01*
X140850904Y-91543142D01*
X140803285Y-91590761D01*
X140708047Y-91638380D01*
X140422333Y-91638380D01*
X140327095Y-91590761D01*
X140279476Y-91543142D01*
X141231857Y-90638380D02*
X141850904Y-90638380D01*
X141517571Y-91019333D01*
X141660428Y-91019333D01*
X141755666Y-91066952D01*
X141803285Y-91114571D01*
X141850904Y-91209809D01*
X141850904Y-91447904D01*
X141803285Y-91543142D01*
X141755666Y-91590761D01*
X141660428Y-91638380D01*
X141374714Y-91638380D01*
X141279476Y-91590761D01*
X141231857Y-91543142D01*
X135642142Y-94559380D02*
X135308809Y-94083190D01*
X135070714Y-94559380D02*
X135070714Y-93559380D01*
X135451666Y-93559380D01*
X135546904Y-93607000D01*
X135594523Y-93654619D01*
X135642142Y-93749857D01*
X135642142Y-93892714D01*
X135594523Y-93987952D01*
X135546904Y-94035571D01*
X135451666Y-94083190D01*
X135070714Y-94083190D01*
X135975476Y-93559380D02*
X136594523Y-93559380D01*
X136261190Y-93940333D01*
X136404047Y-93940333D01*
X136499285Y-93987952D01*
X136546904Y-94035571D01*
X136594523Y-94130809D01*
X136594523Y-94368904D01*
X136546904Y-94464142D01*
X136499285Y-94511761D01*
X136404047Y-94559380D01*
X136118333Y-94559380D01*
X136023095Y-94511761D01*
X135975476Y-94464142D01*
X137451666Y-93892714D02*
X137451666Y-94559380D01*
X137213571Y-93511761D02*
X136975476Y-94226047D01*
X137594523Y-94226047D01*
X135642142Y-91638380D02*
X135308809Y-91162190D01*
X135070714Y-91638380D02*
X135070714Y-90638380D01*
X135451666Y-90638380D01*
X135546904Y-90686000D01*
X135594523Y-90733619D01*
X135642142Y-90828857D01*
X135642142Y-90971714D01*
X135594523Y-91066952D01*
X135546904Y-91114571D01*
X135451666Y-91162190D01*
X135070714Y-91162190D01*
X135975476Y-90638380D02*
X136594523Y-90638380D01*
X136261190Y-91019333D01*
X136404047Y-91019333D01*
X136499285Y-91066952D01*
X136546904Y-91114571D01*
X136594523Y-91209809D01*
X136594523Y-91447904D01*
X136546904Y-91543142D01*
X136499285Y-91590761D01*
X136404047Y-91638380D01*
X136118333Y-91638380D01*
X136023095Y-91590761D01*
X135975476Y-91543142D01*
X137499285Y-90638380D02*
X137023095Y-90638380D01*
X136975476Y-91114571D01*
X137023095Y-91066952D01*
X137118333Y-91019333D01*
X137356428Y-91019333D01*
X137451666Y-91066952D01*
X137499285Y-91114571D01*
X137546904Y-91209809D01*
X137546904Y-91447904D01*
X137499285Y-91543142D01*
X137451666Y-91590761D01*
X137356428Y-91638380D01*
X137118333Y-91638380D01*
X137023095Y-91590761D01*
X136975476Y-91543142D01*
X176817095Y-108195380D02*
X176817095Y-109004904D01*
X176864714Y-109100142D01*
X176912333Y-109147761D01*
X177007571Y-109195380D01*
X177198047Y-109195380D01*
X177293285Y-109147761D01*
X177340904Y-109100142D01*
X177388523Y-109004904D01*
X177388523Y-108195380D01*
X178293285Y-108528714D02*
X178293285Y-109195380D01*
X178055190Y-108147761D02*
X177817095Y-108862047D01*
X178436142Y-108862047D01*
X149502904Y-102593380D02*
X149502904Y-101593380D01*
X149741000Y-101593380D01*
X149883857Y-101641000D01*
X149979095Y-101736238D01*
X150026714Y-101831476D01*
X150074333Y-102021952D01*
X150074333Y-102164809D01*
X150026714Y-102355285D01*
X149979095Y-102450523D01*
X149883857Y-102545761D01*
X149741000Y-102593380D01*
X149502904Y-102593380D01*
X151026714Y-102593380D02*
X150455285Y-102593380D01*
X150741000Y-102593380D02*
X150741000Y-101593380D01*
X150645761Y-101736238D01*
X150550523Y-101831476D01*
X150455285Y-101879095D01*
X152130166Y-83272380D02*
X152130166Y-83986666D01*
X152082547Y-84129523D01*
X151987309Y-84224761D01*
X151844452Y-84272380D01*
X151749214Y-84272380D01*
X153130166Y-84272380D02*
X152558738Y-84272380D01*
X152844452Y-84272380D02*
X152844452Y-83272380D01*
X152749214Y-83415238D01*
X152653976Y-83510476D01*
X152558738Y-83558095D01*
X152130166Y-85812380D02*
X152130166Y-86526666D01*
X152082547Y-86669523D01*
X151987309Y-86764761D01*
X151844452Y-86812380D01*
X151749214Y-86812380D01*
X152511119Y-85812380D02*
X153130166Y-85812380D01*
X152796833Y-86193333D01*
X152939690Y-86193333D01*
X153034928Y-86240952D01*
X153082547Y-86288571D01*
X153130166Y-86383809D01*
X153130166Y-86621904D01*
X153082547Y-86717142D01*
X153034928Y-86764761D01*
X152939690Y-86812380D01*
X152653976Y-86812380D01*
X152558738Y-86764761D01*
X152511119Y-86717142D01*
X152130166Y-129246380D02*
X152130166Y-129960666D01*
X152082547Y-130103523D01*
X151987309Y-130198761D01*
X151844452Y-130246380D01*
X151749214Y-130246380D01*
X152558738Y-129341619D02*
X152606357Y-129294000D01*
X152701595Y-129246380D01*
X152939690Y-129246380D01*
X153034928Y-129294000D01*
X153082547Y-129341619D01*
X153130166Y-129436857D01*
X153130166Y-129532095D01*
X153082547Y-129674952D01*
X152511119Y-130246380D01*
X153130166Y-130246380D01*
X152130166Y-126452380D02*
X152130166Y-127166666D01*
X152082547Y-127309523D01*
X151987309Y-127404761D01*
X151844452Y-127452380D01*
X151749214Y-127452380D01*
X153034928Y-126452380D02*
X152844452Y-126452380D01*
X152749214Y-126500000D01*
X152701595Y-126547619D01*
X152606357Y-126690476D01*
X152558738Y-126880952D01*
X152558738Y-127261904D01*
X152606357Y-127357142D01*
X152653976Y-127404761D01*
X152749214Y-127452380D01*
X152939690Y-127452380D01*
X153034928Y-127404761D01*
X153082547Y-127357142D01*
X153130166Y-127261904D01*
X153130166Y-127023809D01*
X153082547Y-126928571D01*
X153034928Y-126880952D01*
X152939690Y-126833333D01*
X152749214Y-126833333D01*
X152653976Y-126880952D01*
X152606357Y-126928571D01*
X152558738Y-127023809D01*
X92747904Y-124754880D02*
X92747904Y-123754880D01*
X92986000Y-123754880D01*
X93128857Y-123802500D01*
X93224095Y-123897738D01*
X93271714Y-123992976D01*
X93319333Y-124183452D01*
X93319333Y-124326309D01*
X93271714Y-124516785D01*
X93224095Y-124612023D01*
X93128857Y-124707261D01*
X92986000Y-124754880D01*
X92747904Y-124754880D01*
X94224095Y-123754880D02*
X93747904Y-123754880D01*
X93700285Y-124231071D01*
X93747904Y-124183452D01*
X93843142Y-124135833D01*
X94081238Y-124135833D01*
X94176476Y-124183452D01*
X94224095Y-124231071D01*
X94271714Y-124326309D01*
X94271714Y-124564404D01*
X94224095Y-124659642D01*
X94176476Y-124707261D01*
X94081238Y-124754880D01*
X93843142Y-124754880D01*
X93747904Y-124707261D01*
X93700285Y-124659642D01*
X96829642Y-124785380D02*
X96496309Y-124309190D01*
X96258214Y-124785380D02*
X96258214Y-123785380D01*
X96639166Y-123785380D01*
X96734404Y-123833000D01*
X96782023Y-123880619D01*
X96829642Y-123975857D01*
X96829642Y-124118714D01*
X96782023Y-124213952D01*
X96734404Y-124261571D01*
X96639166Y-124309190D01*
X96258214Y-124309190D01*
X97162976Y-123785380D02*
X97782023Y-123785380D01*
X97448690Y-124166333D01*
X97591547Y-124166333D01*
X97686785Y-124213952D01*
X97734404Y-124261571D01*
X97782023Y-124356809D01*
X97782023Y-124594904D01*
X97734404Y-124690142D01*
X97686785Y-124737761D01*
X97591547Y-124785380D01*
X97305833Y-124785380D01*
X97210595Y-124737761D01*
X97162976Y-124690142D01*
X98639166Y-123785380D02*
X98448690Y-123785380D01*
X98353452Y-123833000D01*
X98305833Y-123880619D01*
X98210595Y-124023476D01*
X98162976Y-124213952D01*
X98162976Y-124594904D01*
X98210595Y-124690142D01*
X98258214Y-124737761D01*
X98353452Y-124785380D01*
X98543928Y-124785380D01*
X98639166Y-124737761D01*
X98686785Y-124690142D01*
X98734404Y-124594904D01*
X98734404Y-124356809D01*
X98686785Y-124261571D01*
X98639166Y-124213952D01*
X98543928Y-124166333D01*
X98353452Y-124166333D01*
X98258214Y-124213952D01*
X98210595Y-124261571D01*
X98162976Y-124356809D01*
M02*
